<?xml version="1.0" standalone="no"?>
<!DOCTYPE svg PUBLIC "-//W3C//DTD SVG 20010904//EN"
 "http://www.w3.org/TR/2001/REC-SVG-20010904/DTD/svg10.dtd">
<svg version="1.0" xmlns="http://www.w3.org/2000/svg"
 width="405.153492pt" height="283.464567pt" viewBox="0 0 405.153492 283.464567"
 preserveAspectRatio="xMidYMid meet">
<metadata>
Created by potrace 1.11, written by Peter Selinger 2001-2013
</metadata>
<g transform="translate(0.000000,283.386049) scale(0.110698,-0.110698)"
fill="#000000" stroke="none">
<g>
<path d="M974 2516 c-61 -61 -75 -95 -72 -170 4 -85 -10 -101 -105 -116 -94
-16 -199 -53 -257 -90 -63 -40 -136 -120 -160 -173 -34 -73 -25 -128 30 -191
18 -20 28 -40 24 -47 -11 -18 -123 -4 -230 31 -98 31 -120 34 -173 24 -28 -6
-31 -10 -31 -45 l0 -38 25 24 c31 32 46 31 147 -4 46 -17 114 -35 153 -41 94
-15 368 -15 520 1 l124 12 -24 29 c-24 28 -32 57 -37 128 l-3 35 -28 -43 c-53
-81 -146 -112 -279 -93 -223 31 -262 160 -93 309 84 73 215 122 373 137 l70 7
7 47 c4 25 13 61 20 79 14 32 14 32 -10 26 -21 -5 -25 -3 -25 17 0 28 43 92
76 114 13 8 46 20 73 26 41 9 48 13 44 30 -5 16 -14 19 -62 18 -52 -1 -59 -4
-97 -43z"/>
</g>
<g>
<path d="M1328 2521 c36 -29 60 -60 86 -112 20 -39 36 -77 36 -83 0 -7 25 -11
68 -12 57 0 78 -6 132 -35 36 -19 100 -67 142 -107 l77 -74 53 51 c105 101
245 148 417 139 78 -4 89 -3 117 18 126 96 343 88 503 -20 42 -29 60 -34 135
-40 96 -7 243 -37 306 -62 83 -33 197 -194 244 -345 l14 -44 1 87 c1 50 -3 90
-9 93 -6 4 -29 35 -50 69 -47 74 -135 161 -185 182 -52 22 -188 52 -288 64
-73 9 -108 20 -190 60 -188 90 -322 94 -481 13 -41 -21 -70 -26 -185 -33 -157
-9 -216 -27 -317 -96 -35 -24 -72 -44 -81 -44 -8 0 -40 21 -69 46 -80 68 -158
111 -232 128 -75 17 -84 25 -147 130 l-40 66 -53 0 -54 0 50 -39z"/>
</g>
<g>
<path d="M1191 2461 c-11 -7 -9 -10 8 -16 11 -3 35 -18 51 -32 41 -34 38 -15
-3 25 -36 35 -36 35 -56 23z"/>
</g>
<g>
<path d="M1110 2341 c-19 -11 -44 -29 -55 -41 -15 -17 -8 -15 25 9 25 17 60
34 79 37 32 7 33 6 25 -17 -5 -13 -9 -45 -9 -71 0 -40 5 -52 30 -75 26 -25 27
-25 7 -3 -30 35 -36 77 -19 127 8 23 12 45 9 48 -11 11 -58 3 -92 -14z"/>
</g>
<g>
<path d="M2518 2283 c-24 -28 -42 -67 -32 -70 37 -13 92 -54 112 -83 43 -64
14 -131 -77 -183 -63 -36 -153 -46 -256 -28 -76 13 -97 8 -38 -9 70 -21 194
-24 254 -7 123 36 189 141 143 228 -19 37 -16 41 39 49 42 6 42 6 16 19 -22
11 -31 10 -58 -3 -32 -17 -51 -14 -51 6 0 6 16 26 36 44 26 25 31 34 18 34 -9
0 -31 -16 -50 -35 -21 -22 -38 -33 -48 -29 -9 3 -16 8 -16 11 0 12 31 62 42
66 9 4 8 6 -3 6 -9 1 -23 -7 -31 -16z"/>
</g>
<g>
<path d="M1369 2250 c-13 -10 -20 -19 -16 -20 4 0 3 -10 -4 -21 -9 -18 -3 -16
36 11 35 24 44 35 34 41 -20 12 -24 11 -50 -11z"/>
</g>
<g>
<path d="M2672 2252 c-9 -6 17 -11 75 -15 48 -2 97 -8 108 -11 11 -4 4 1 -15
10 -41 19 -149 29 -168 16z"/>
</g>
<g>
<path d="M1284 2225 c-13 -13 -24 -34 -24 -47 l1 -23 20 25 c11 14 30 32 41
41 18 14 19 17 4 22 -11 4 -26 -2 -42 -18z"/>
</g>
<g>
<path d="M1581 2195 c18 -22 49 -64 68 -92 18 -29 35 -53 38 -53 14 0 -56 104
-95 141 l-46 44 35 -40z"/>
</g>
<g>
<path d="M2287 2216 c-135 -36 -154 -144 -37 -204 38 -20 56 -23 118 -19 54 3
81 10 102 26 20 14 28 17 24 6 -10 -26 -74 -58 -132 -66 l-57 -8 67 3 c79 4
141 34 175 85 24 35 30 85 13 111 -8 12 -10 11 -10 -5 0 -48 -59 -60 -116 -24
-41 25 -64 56 -64 86 0 27 -12 28 -83 9z m13 -91 c21 -55 23 -75 7 -75 -20 0
-67 38 -67 55 0 16 27 45 41 45 5 0 14 -11 19 -25z m98 3 c7 -7 12 -20 12 -30
0 -21 -30 -24 -48 -6 -18 18 -15 48 6 48 10 0 23 -5 30 -12z m50 -72 c3 -12
-1 -17 -10 -14 -7 3 -15 13 -16 22 -3 12 1 17 10 14 7 -3 15 -13 16 -22z"/>
</g>
<g>
<path d="M972 2172 c-19 -13 7 -22 58 -22 56 0 107 -46 115 -105 10 -61 -1
-99 -42 -148 -45 -52 -86 -139 -77 -162 5 -12 14 -1 36 44 76 159 214 231 438
231 58 -1 137 -7 175 -15 39 -9 87 -18 108 -21 43 -8 42 -7 21 -65 -25 -67
-23 -228 5 -299 11 -30 21 -56 21 -57 0 -1 -63 -3 -140 -5 -119 -3 -142 -6
-157 -21 -17 -18 -17 -18 12 -12 81 17 78 17 72 -2 -2 -10 -8 -26 -12 -36 -11
-28 17 -12 40 23 17 25 26 30 62 30 38 0 45 -4 60 -32 l18 -33 3 33 c3 28 7
32 33 32 16 0 29 -3 29 -8 0 -4 9 -13 19 -19 18 -11 17 -7 -5 42 -36 79 -57
188 -50 263 7 66 37 160 66 202 29 42 29 46 8 46 -11 0 -31 -15 -45 -32 l-24
-32 -72 21 c-60 18 -99 21 -237 21 -147 1 -171 -2 -224 -21 -33 -13 -62 -19
-65 -15 -4 5 -14 11 -23 15 -10 3 -20 19 -23 34 -10 45 -36 91 -62 109 -29 18
-122 29 -141 16z m223 -176 c23 9 27 -14 5 -36 -27 -27 -37 -25 -38 8 0 31 10
52 15 35 3 -7 10 -10 18 -7z"/>
</g>
<g>
<path d="M1322 2110 c0 -14 2 -19 5 -12 2 6 2 18 0 25 -3 6 -5 1 -5 -13z"/>
</g>
<g>
<path d="M2969 2113 c-14 -7 -62 -18 -105 -23 -114 -16 -130 -20 -115 -29 22
-14 164 0 203 20 34 17 55 37 47 43 -2 1 -16 -3 -30 -11z"/>
</g>
<g>
<path d="M2150 2097 c-1 -54 60 -118 125 -132 22 -5 15 0 -22 19 -60 31 -71
43 -89 93 -7 21 -13 30 -14 20z"/>
</g>
<g>
<path d="M2956 1985 c14 -33 33 -68 42 -78 9 -11 22 -31 29 -45 13 -27 13 -27
7 -2 -7 27 -63 133 -88 165 -9 11 -4 -7 10 -40z"/>
</g>
<g>
<path d="M2100 2027 c-1 -24 55 -97 74 -97 5 0 -4 15 -21 33 -17 17 -35 41
-41 52 -6 11 -12 16 -12 12z"/>
</g>
<g>
<path d="M925 1958 l-26 -23 26 -12 c23 -10 25 -9 25 11 0 12 5 27 12 34 22
22 -9 13 -37 -10z"/>
</g>
<g>
<path d="M2703 1932 l-20 -28 42 21 c42 20 49 35 16 35 -9 0 -27 -13 -38 -28z"/>
</g>
<g>
<path d="M2022 1875 c-40 -17 -67 -73 -58 -120 6 -32 46 -77 79 -88 9 -4 -1
11 -23 32 -31 30 -40 45 -40 72 0 41 21 74 64 100 36 22 25 24 -22 4z"/>
</g>
<g>
<path d="M2125 1839 c-11 -17 -2 -18 19 -3 17 12 17 14 4 14 -9 0 -20 -5 -23
-11z"/>
</g>
<g>
<path d="M2208 1775 c-3 -33 -4 -62 -2 -63 1 -2 8 14 15 37 8 29 9 48 2 63 -9
20 -11 14 -15 -37z"/>
</g>
<g>
<path d="M2965 1777 c-35 -61 -105 -135 -148 -156 -28 -13 -63 -21 -98 -21
-76 0 -126 -16 -163 -53 -18 -18 -23 -24 -12 -15 44 36 110 58 176 58 41 0 80
7 105 19 51 23 115 89 144 147 27 53 24 69 -4 21z"/>
</g>
<g>
<path d="M3450 1793 c-28 -10 -59 -46 -70 -79 -9 -28 -8 -41 8 -78 31 -68 103
-96 217 -81 49 6 55 9 55 30 0 23 -2 23 -77 18 -66 -4 -83 -1 -110 16 -35 22
-52 64 -36 90 19 31 61 25 127 -18 70 -46 96 -51 96 -21 0 11 -5 20 -10 20 -6
0 -34 17 -63 39 -46 34 -111 72 -119 70 -2 0 -10 -3 -18 -6z"/>
</g>
<g>
<path d="M2617 1763 c-3 -16 -4 -29 -3 -30 1 -1 14 11 28 27 l26 30 -23 0
c-17 0 -24 -7 -28 -27z"/>
</g>
<g>
<path d="M3062 1750 c0 -14 2 -19 5 -12 2 6 2 18 0 25 -3 6 -5 1 -5 -13z"/>
</g>
<g>
<path d="M2110 1705 c0 -8 7 -15 16 -15 14 0 14 3 4 15 -7 8 -14 15 -16 15 -2
0 -4 -7 -4 -15z"/>
</g>
<g>
<path d="M3072 1695 c0 -16 2 -24 5 -18 2 7 2 21 0 30 -3 10 -5 5 -5 -12z"/>
</g>
<g>
<path d="M1008 1668 c-8 -4 4 -8 30 -8 23 0 42 2 42 4 0 8 -60 12 -72 4z"/>
</g>
<g>
<path d="M2172 1612 c-73 -26 -78 -33 -63 -81 23 -78 109 -126 213 -119 37 3
65 2 62 -3 -10 -17 -86 -30 -128 -23 -22 4 -45 7 -50 6 -4 -2 -14 3 -22 9 -8
7 -17 9 -20 6 -15 -14 67 -41 136 -44 64 -3 81 -1 114 19 41 24 50 43 70 152
7 37 7 37 -49 62 -77 36 -189 42 -263 16z m235 -32 c44 -19 58 -44 51 -91 -2
-20 -10 -25 -39 -27 -30 -3 -43 3 -72 31 -36 34 -54 75 -43 102 6 18 36 13
103 -15z m-107 -75 c15 -18 6 -45 -14 -45 -18 0 -40 36 -31 50 9 15 31 12 45
-5z m40 -71 c0 -8 -7 -14 -15 -14 -15 0 -21 21 -9 33 10 9 24 -2 24 -19z"/>
</g>
<g>
<path d="M31 1606 c-1 -11 2 -17 5 -13 3 3 4 12 1 19 -3 8 -6 5 -6 -6z"/>
</g>
<g>
<path d="M2960 1564 c-23 -30 -69 -75 -102 -100 -33 -24 -56 -44 -50 -44 27 0
165 129 192 179 19 36 4 23 -40 -35z"/>
</g>
<g>
<path d="M24 1480 c0 -58 1 -81 3 -52 2 28 2 76 0 105 -2 28 -3 5 -3 -53z"/>
</g>
<g>
<path d="M3073 1535 c-1 -22 1 -32 4 -23 2 10 2 28 0 40 -2 13 -4 5 -4 -17z"/>
</g>
<g>
<path d="M2080 1513 c0 -19 22 -63 32 -63 12 0 10 6 -12 42 -11 18 -20 28 -20
21z"/>
</g>
<g>
<path d="M1030 1456 c-190 -97 -518 -183 -715 -187 -27 0 -59 -4 -70 -9 -48
-19 43 -23 174 -6 160 19 333 61 463 111 132 51 125 50 132 21 3 -13 19 -34
36 -46 l29 -21 -24 43 c-29 51 -31 75 -7 82 22 8 70 46 57 45 -5 0 -39 -15
-75 -33z"/>
</g>
<g>
<path d="M3060 1475 c0 -44 -86 -237 -128 -287 -14 -17 -44 -44 -66 -59 -21
-16 -35 -29 -29 -29 22 0 95 65 129 117 53 81 124 273 100 273 -3 0 -6 -7 -6
-15z"/>
</g>
<g>
<path d="M3641 1462 c-42 -100 -172 -254 -266 -317 -78 -51 -159 -90 -240
-113 -104 -31 -271 -61 -378 -68 l-95 -7 5 -33 c8 -49 -27 -43 -92 15 -20 19
-51 31 -95 40 -176 34 -341 111 -452 210 -65 59 -152 182 -169 241 -22 73 -34
48 -29 -59 l5 -100 45 -32 c111 -81 207 -210 249 -336 24 -71 29 -212 10 -291
-6 -26 -31 -89 -56 -141 -38 -79 -59 -108 -127 -177 -68 -67 -99 -90 -177
-128 -160 -78 -352 -116 -584 -116 -179 0 -293 38 -400 132 l-45 40 0 -50 c0
-42 -4 -54 -26 -71 l-26 -20 46 -12 c49 -12 62 -39 29 -58 -15 -8 -11 -10 20
-11 36 0 37 1 37 35 0 45 11 45 104 0 l72 -36 240 3 c238 3 239 3 349 36 61
18 153 54 205 79 83 40 107 58 190 142 78 78 103 112 137 181 55 113 73 187
73 306 0 79 -5 117 -26 187 -15 48 -25 90 -21 93 3 3 56 -12 119 -34 62 -21
136 -45 165 -52 29 -6 78 -27 109 -46 84 -50 98 -52 149 -15 39 28 61 34 175
51 189 28 310 62 430 122 90 45 117 65 195 143 50 50 107 110 128 135 36 42
38 48 35 105 l-3 60 -14 -33z"/>
</g>
<g>
<path d="M2714 1396 c-88 -41 -168 -128 -189 -206 -3 -14 8 0 24 30 39 70 106
131 184 170 34 16 55 30 47 30 -8 0 -38 -11 -66 -24z"/>
</g>
<g>
<path d="M2010 1355 c37 -39 136 -82 230 -101 47 -9 92 -23 101 -30 27 -24 31
-16 8 15 -22 31 -24 31 -187 67 -35 7 -89 27 -119 44 -55 29 -56 29 -33 5z"/>
</g>
<g>
<path d="M2468 1374 c-5 -4 -8 -24 -8 -45 0 -35 -3 -39 -32 -47 -29 -7 -33
-12 -30 -38 4 -31 15 -50 56 -99 37 -44 34 -7 -4 40 -32 40 -39 75 -17 75 28
0 48 36 45 80 -2 23 -6 38 -10 34z"/>
</g>
<g>
<path d="M2779 1283 c-49 -48 -75 -81 -69 -87 6 -6 15 -4 25 4 12 10 15 10 15
-1 0 -7 16 11 36 41 20 30 44 64 53 75 10 11 21 26 25 33 16 28 -11 7 -85 -65z"/>
</g>
<g>
<path d="M1 1262 c-1 -59 -9 -52 109 -95 42 -16 90 -66 90 -94 0 -6 -19 -15
-43 -21 -46 -12 -90 -51 -106 -95 -14 -36 -14 -340 -1 -386 14 -49 66 -100
109 -107 109 -18 131 -42 111 -124 -18 -75 -9 -194 20 -250 12 -25 28 -55 34
-67 10 -21 18 -23 101 -23 l90 0 -30 24 c-23 19 -31 21 -33 10 -5 -21 -49 -17
-73 7 -42 42 -69 119 -69 197 0 71 22 140 50 157 16 10 11 25 -8 25 -23 0 -52
30 -52 55 0 10 7 26 15 35 15 16 11 16 -50 3 -80 -19 -130 -9 -159 30 -19 26
-21 44 -24 190 -4 189 3 232 41 261 26 19 31 19 100 6 166 -32 362 1 564 95
106 50 285 163 278 176 -3 4 -49 -13 -103 -40 -158 -79 -279 -112 -486 -135
-205 -22 -256 -7 -275 85 -6 29 -9 31 -63 34 -80 5 -111 24 -130 80 -3 12 -6
-2 -7 -33z"/>
</g>
<g>
<path d="M1111 1277 c14 -31 82 -63 163 -78 84 -14 110 -6 32 11 -68 14 -135
41 -177 71 l-29 21 11 -25z"/>
</g>
<g>
<path d="M1757 1223 c-25 -40 -31 -45 -56 -40 -20 4 -38 -1 -64 -19 -44 -30
-49 -49 -10 -39 34 8 55 24 47 36 -3 5 5 9 17 9 29 0 13 -19 -52 -60 -62 -40
-54 -60 9 -24 61 35 139 110 147 142 11 44 -9 42 -38 -5z"/>
</g>
<g>
<path d="M1867 1129 c88 -92 153 -238 153 -344 0 -78 -34 -174 -92 -260 -95
-144 -233 -225 -498 -296 -93 -25 -345 -37 -434 -20 -77 14 -85 6 -9 -10 84
-18 301 -15 398 6 316 68 499 184 596 380 40 81 44 96 47 176 4 90 -9 150 -48
229 -27 53 -109 159 -133 171 -13 7 -5 -6 20 -32z"/>
</g>
<g>
<path d="M1497 1143 c-44 -18 -48 -33 -9 -33 39 1 73 22 58 36 -9 8 -22 7 -49
-3z"/>
</g>
<g>
<path d="M2676 1135 c-9 -9 -16 -24 -16 -33 0 -9 -3 -28 -6 -42 -3 -15 2 -10
12 13 12 28 22 37 41 37 18 0 24 5 21 17 -4 24 -32 28 -52 8z"/>
</g>
<g>
<path d="M1750 1024 c52 -103 68 -191 47 -265 -19 -64 -65 -122 -117 -149
-106 -54 -290 -45 -485 23 -113 40 -127 42 -230 42 -100 0 -115 -2 -167 -28
-32 -16 -67 -42 -80 -60 l-22 -32 37 32 c52 45 83 60 157 73 80 14 164 6 255
-27 195 -70 363 -90 479 -59 161 44 231 190 176 367 -17 57 -72 159 -84 159
-3 0 12 -34 34 -76z"/>
</g>
<g>
<path d="M1481 1076 c-19 -7 -37 -18 -39 -24 -7 -21 32 -13 62 13 32 28 28 30
-23 11z"/>
</g>
<g>
<path d="M1554 1005 c-82 -48 -168 -67 -331 -73 -145 -4 -153 -5 -153 -25 0
-11 -16 -35 -36 -53 -28 -27 -31 -34 -17 -34 10 0 72 -14 138 -30 131 -33 235
-40 288 -20 59 24 125 79 146 123 21 43 28 121 13 131 -5 3 -26 -6 -48 -19z
m-34 -93 c0 -32 -64 -78 -130 -93 -67 -15 -270 29 -230 50 8 5 58 11 110 15
52 3 118 12 145 20 57 16 105 20 105 8z"/>
</g>
<g>
<path d="M2640 1000 c0 -5 5 -10 10 -10 6 0 10 5 10 10 0 6 -4 10 -10 10 -5 0
-10 -4 -10 -10z"/>
</g>
<g>
<path d="M1000 960 c-13 -9 -13 -10 0 -9 8 0 24 4 35 9 l20 9 -20 0 c-11 0
-27 -4 -35 -9z"/>
</g>
<g>
<path d="M900 828 c-36 -23 -118 -69 -182 -103 -95 -50 -114 -63 -100 -71 17
-11 115 35 274 127 36 22 70 39 75 39 4 0 8 11 8 25 0 14 -2 25 -5 24 -3 0
-34 -19 -70 -41z"/>
</g>
<g>
<path d="M540 588 c-78 -28 -125 -34 -135 -19 -3 5 5 17 17 25 29 21 17 20
-62 -3 -46 -14 -57 -20 -36 -20 23 -1 27 -5 23 -20 -4 -17 -1 -18 31 -9 48 13
149 6 188 -13 39 -20 56 -4 52 49 l-3 37 -75 -27z"/>
</g>
<g>
<path d="M601 491 c-30 -55 8 -153 62 -159 32 -4 32 -3 8 40 -11 18 -25 54
-32 81 -13 55 -24 65 -38 38z"/>
</g>
<g>
<path d="M440 431 c0 -17 3 -18 30 -8 17 6 30 15 30 19 0 4 -13 8 -30 8 -23 0
-30 -5 -30 -19z"/>
</g>
<g>
<path d="M462 244 c3 -39 11 -79 17 -90 12 -18 12 -18 6 1 -4 11 -9 45 -12 75
l-6 54 39 -32 c47 -39 95 -43 118 -10 9 12 16 29 16 38 0 9 -5 5 -13 -9 -28
-55 -75 -53 -133 7 l-37 37 5 -71z"/>
</g>
<g>
<path d="M430 150 c0 -11 4 -20 9 -20 5 0 7 9 4 20 -3 11 -7 20 -9 20 -2 0 -4
-9 -4 -20z"/>
</g>
<g>
<path d="M572 115 c24 -26 28 -27 42 -12 17 17 20 15 -47 33 -21 6 -21 5 5
-21z"/>
</g>
</g>
</svg>
