<?xml version="1.0" standalone="no"?>
<!DOCTYPE svg PUBLIC "-//W3C//DTD SVG 20010904//EN"
 "http://www.w3.org/TR/2001/REC-SVG-20010904/DTD/svg10.dtd">
<svg version="1.0" xmlns="http://www.w3.org/2000/svg"
 width="377.885627pt" height="283.464567pt" viewBox="0 0 377.885627 283.464567"
 preserveAspectRatio="xMidYMid meet">
<metadata>
Created by potrace 1.11, written by Peter Selinger 2001-2013
</metadata>
<g transform="translate(0.051427,283.376741) scale(0.113464,-0.113464)"
fill="#000000" stroke="none">
<g>
<path d="M0 2483 c0 -13 30 -33 49 -33 19 0 12 20 -6 21 -13 0 -14 2 -4 6 7 3
24 -6 37 -20 16 -17 30 -24 44 -20 11 3 27 0 35 -7 8 -6 19 -9 24 -6 5 4 12 2
16 -4 4 -6 -5 -10 -19 -10 -29 0 -36 -24 -10 -34 20 -8 29 -8 21 0 -3 3 6 17
21 30 26 23 26 23 5 24 -12 0 -25 5 -28 11 -4 6 -13 8 -20 5 -7 -2 -17 0 -22
5 -5 5 -20 11 -33 14 -12 2 -30 11 -40 20 -19 18 -70 16 -70 -2z"/>
</g>
<g>
<path d="M1775 2479 c4 -5 -13 -7 -39 -4 -36 3 -46 1 -46 -10 0 -8 -6 -15 -14
-15 -8 0 -16 -4 -18 -10 -1 -5 -23 -11 -48 -14 -52 -6 -123 -18 -235 -41 -44
-10 -104 -19 -133 -22 -48 -5 -54 -3 -59 16 -7 28 -21 27 -35 -4 -6 -14 -18
-25 -27 -25 -12 0 -9 -6 9 -20 20 -16 22 -22 11 -29 -8 -5 -10 -14 -6 -21 4
-7 3 -15 -2 -19 -5 -3 -1 -13 8 -23 16 -15 17 -14 16 19 -1 23 3 38 12 41 9 3
11 -1 6 -18 -5 -15 -1 -26 12 -36 10 -9 12 -13 6 -9 -8 4 -13 0 -13 -10 0 -9
4 -13 10 -10 5 3 23 -1 41 -10 29 -16 31 -15 27 2 -2 11 -11 17 -21 15 -9 -2
-20 5 -24 15 -4 10 -13 23 -21 29 -12 9 -12 13 -2 19 7 4 16 2 20 -6 7 -10 11
-10 25 1 15 12 15 14 1 22 -26 14 -20 43 9 44 14 1 36 5 49 8 21 5 23 3 19
-17 l-5 -22 20 23 c11 12 28 22 39 22 15 0 15 -2 3 -10 -26 -16 -3 -22 27 -6
19 11 23 15 11 16 -10 0 -18 4 -18 10 0 5 6 7 13 5 7 -3 33 -1 58 3 41 8 48 7
60 -12 8 -12 16 -30 19 -40 3 -11 10 -20 15 -21 6 -1 7 0 3 3 -5 2 -8 11 -8
21 0 9 -5 22 -12 29 -8 8 -8 12 -1 12 6 0 16 -7 23 -15 14 -17 50 -20 50 -4 0
5 -4 7 -10 4 -5 -3 -10 -1 -10 4 0 6 -6 11 -14 11 -8 0 -16 7 -20 15 -8 21 36
20 61 -2 15 -14 18 -24 12 -45 -4 -16 -3 -28 2 -28 5 0 9 -11 9 -25 0 -20 5
-25 24 -25 14 0 28 5 31 10 3 6 2 10 -2 10 -5 0 -9 28 -10 62 -1 35 -7 64 -12
66 -23 8 -10 22 19 22 20 0 30 5 30 15 0 20 10 19 26 -2 8 -11 13 -13 14 -5 0
6 7 12 15 12 8 0 15 -6 15 -12 0 -9 4 -8 10 2 7 12 10 12 10 1 0 -8 6 -11 15
-7 8 3 27 1 41 -5 15 -5 29 -8 31 -5 2 2 -18 11 -46 21 -31 10 -48 21 -45 28
2 7 -4 13 -16 14 -11 1 -18 -2 -15 -8z m-595 -155 c0 -11 -19 -2 -24 12 -5 14
-4 15 9 4 8 -7 15 -14 15 -16z"/>
</g>
<g>
<path d="M3140 2483 c-8 -3 -30 -11 -48 -20 -18 -8 -54 -17 -78 -19 -25 -2
-78 -13 -117 -24 -39 -11 -82 -20 -94 -20 -13 0 -31 -4 -41 -9 -9 -5 -35 -14
-57 -20 -22 -5 -67 -18 -100 -28 -47 -14 -71 -16 -110 -10 -49 9 -192 10 -205
2 -3 -2 -26 1 -50 6 -70 16 -172 19 -167 6 2 -7 13 -12 24 -12 11 -1 28 -7 37
-14 11 -10 16 -10 16 -2 0 7 5 9 10 6 6 -3 10 0 10 7 1 7 12 0 26 -17 23 -27
26 -27 21 -8 -4 20 -3 21 15 12 11 -6 26 -8 33 -5 8 3 16 0 18 -7 3 -9 8 -9
20 1 12 10 21 11 36 3 11 -6 22 -7 25 -2 9 13 96 3 124 -15 23 -15 25 -15 19
0 -5 14 -3 14 16 3 12 -6 24 -15 27 -18 7 -8 47 -29 56 -29 3 0 1 7 -6 15 -7
8 -19 15 -26 15 -8 0 -14 7 -14 15 0 16 16 21 22 6 4 -12 58 -2 58 11 0 5 -4
6 -10 3 -5 -3 -15 -3 -21 1 -18 11 48 34 73 25 12 -4 36 -2 57 5 31 11 38 11
49 -4 10 -13 12 -13 12 -1 0 8 -4 19 -9 25 -6 5 2 10 22 11 25 2 29 0 17 -8
-11 -8 -5 -9 23 -4 27 4 37 2 37 -7 0 -7 8 2 16 20 12 22 23 32 40 32 12 0 25
4 29 10 3 5 21 8 41 6 19 -1 42 3 52 10 9 6 37 12 62 14 73 3 80 4 80 12 0 14
28 -3 39 -25 6 -12 9 -14 7 -4 -3 9 -1 17 5 17 6 0 7 5 3 11 -5 9 3 10 30 5
21 -4 36 -3 36 3 0 16 -148 27 -190 14z"/>
</g>
<g>
<path d="M234 2449 c-7 -11 15 -23 65 -34 24 -5 46 -16 49 -24 3 -9 -2 -11
-19 -7 -18 5 -20 4 -9 -3 9 -5 29 -11 45 -13 17 -2 36 -10 43 -18 11 -13 13
-13 22 2 6 10 17 15 25 11 11 -4 13 -1 8 13 -4 12 -3 15 5 10 8 -4 16 2 21 16
6 15 10 17 10 7 1 -12 8 -15 27 -11 16 3 23 9 20 18 -3 8 -1 14 4 14 6 0 10
-4 10 -8 0 -4 16 -8 35 -9 20 -1 52 -9 71 -18 20 -9 38 -15 40 -12 2 2 -26 18
-64 35 -62 29 -72 31 -122 23 -30 -5 -75 -16 -100 -25 -43 -15 -47 -15 -90 7
-25 12 -47 25 -50 28 -7 9 -40 7 -46 -2z m216 -50 c0 -5 -4 -7 -10 -4 -5 3
-10 8 -10 11 0 2 5 4 10 4 6 0 10 -5 10 -11z"/>
</g>
<g>
<path d="M1900 2450 c0 -5 5 -12 11 -15 6 -4 8 -13 5 -20 -2 -7 1 -18 7 -24 8
-8 6 -11 -8 -11 -23 0 -7 -20 18 -24 9 -1 28 -13 42 -26 25 -23 36 -16 13 9
-10 10 -8 10 10 0 12 -8 20 -19 18 -26 -3 -6 3 -17 12 -25 16 -12 16 -11 2 6
-14 17 -13 18 7 12 18 -6 22 -3 20 14 -1 11 -5 20 -11 20 -5 0 -22 14 -38 30
-15 17 -33 30 -38 30 -6 0 -10 5 -10 10 0 6 -7 10 -15 10 -8 0 -15 6 -15 14 0
8 -7 16 -15 20 -8 3 -15 1 -15 -4z"/>
</g>
<g>
<path d="M0 2440 c0 -7 24 -20 36 -20 13 0 1 19 -16 23 -11 3 -20 2 -20 -3z"/>
</g>
<g>
<path d="M3078 2427 c-9 -7 -26 -19 -38 -27 -12 -8 -29 -21 -38 -28 -15 -11
-14 -12 8 -5 14 4 44 8 67 8 23 0 37 3 30 7 -12 8 3 12 30 9 8 -1 10 5 7 14
-7 17 -24 21 -24 5 0 -5 -5 -10 -11 -10 -6 0 -8 9 -4 20 7 23 -2 25 -27 7z"/>
</g>
<g>
<path d="M70 2420 c20 -13 33 -13 25 0 -3 6 -14 10 -23 10 -15 0 -15 -2 -2
-10z"/>
</g>
<g>
<path d="M117 2403 c4 -11 3 -14 -5 -9 -7 4 -12 2 -12 -3 0 -17 27 -13 34 5 8
22 8 24 -9 24 -9 0 -12 -6 -8 -17z"/>
</g>
<g>
<path d="M1816 2413 c-11 -11 6 -23 30 -23 14 0 23 4 20 9 -7 11 -43 21 -50
14z"/>
</g>
<g>
<path d="M3150 2410 c0 -5 14 -10 30 -10 20 0 30 -5 30 -15 0 -9 6 -12 17 -8
11 4 12 8 5 11 -7 2 -12 10 -12 18 0 9 -11 14 -35 14 -19 0 -35 -4 -35 -10z"/>
</g>
<g>
<path d="M40 2401 c0 -10 19 -25 25 -20 1 2 -3 10 -11 17 -8 7 -14 8 -14 3z"/>
</g>
<g>
<path d="M1045 2380 c-3 -5 -1 -10 4 -10 6 0 11 5 11 10 0 6 -2 10 -4 10 -3 0
-8 -4 -11 -10z"/>
</g>
<g>
<path d="M3172 2373 c8 -10 6 -13 -6 -13 -9 0 -16 -5 -16 -10 0 -7 6 -7 19 -1
26 15 33 37 10 37 -13 0 -15 -3 -7 -13z"/>
</g>
<g>
<path d="M284 2367 c-8 -21 2 -35 16 -21 5 5 6 15 0 24 -8 12 -10 12 -16 -3z"/>
</g>
<g>
<path d="M720 2348 c-11 -18 -20 -41 -20 -50 0 -9 -3 -23 -6 -32 -3 -9 -1 -16
5 -16 6 0 10 3 10 8 -5 27 2 44 17 38 8 -3 12 -2 9 4 -3 6 3 10 15 10 12 0 19
4 16 9 -4 5 -1 11 5 13 9 3 9 9 0 26 -16 30 -28 28 -51 -10z"/>
</g>
<g>
<path d="M915 2369 c-4 -6 0 -16 9 -22 10 -8 13 -17 7 -26 -7 -11 -10 -9 -16
8 -6 21 -35 30 -35 11 0 -5 -4 -10 -10 -10 -5 0 -10 7 -10 15 0 9 -9 15 -25
15 -19 0 -25 -5 -25 -21 0 -13 -4 -18 -12 -13 -6 4 -8 3 -4 -4 3 -6 -1 -17 -9
-25 -20 -21 -19 -27 5 -27 11 0 20 5 20 10 0 6 3 9 8 9 4 -1 14 -1 22 0 12 1
12 3 2 10 -8 5 -12 17 -10 27 3 16 7 14 23 -13 10 -18 22 -30 26 -27 12 7 39
-7 33 -17 -3 -5 -1 -9 4 -9 6 0 13 12 16 26 4 15 13 32 21 40 11 11 15 11 25
-1 7 -8 10 -15 6 -15 -4 0 1 -11 10 -25 15 -23 15 -27 0 -49 -15 -23 -15 -25
4 -23 11 1 20 8 20 15 0 12 3 12 15 2 12 -10 15 -10 15 4 0 9 4 16 9 16 5 0 7
9 4 20 -5 18 -20 25 -50 21 -6 -1 -14 3 -18 9 -3 5 -1 10 4 10 6 0 11 10 11
23 0 18 -2 19 -10 7 -8 -13 -10 -12 -10 3 0 10 -8 17 -19 17 -11 0 -23 5 -26
10 -8 13 -22 13 -30 -1z"/>
</g>
<g>
<path d="M993 2374 c3 -3 12 -4 19 -1 8 3 5 6 -6 6 -11 1 -17 -2 -13 -5z"/>
</g>
<g>
<path d="M3294 2370 c-5 -4 -18 -10 -29 -13 -11 -3 -1 -5 23 -6 23 0 42 3 42
8 0 13 -26 21 -36 11z"/>
</g>
<g>
<path d="M537 2346 c-53 -46 -67 -55 -82 -50 -8 4 -15 1 -15 -5 0 -14 15 -14
57 1 46 17 61 1 40 -41 -9 -17 -11 -31 -6 -31 5 0 14 11 19 25 11 30 30 33 37
5 5 -20 6 -20 24 1 23 27 23 29 3 29 -9 0 -12 -5 -8 -12 5 -9 2 -8 -10 1 -13
11 -14 16 -4 22 7 5 9 9 3 9 -5 0 -2 5 8 11 9 5 21 8 26 4 5 -3 12 -1 16 4 3
6 12 8 19 5 7 -3 16 3 20 13 4 9 4 14 0 10 -4 -4 -13 -2 -20 4 -9 7 -19 7 -33
0 -11 -6 -22 -7 -25 -2 -12 19 -46 18 -69 -3z"/>
</g>
<g>
<path d="M1083 2355 c-7 -8 -13 -19 -13 -25 0 -5 -5 -10 -12 -10 -19 0 19 -36
41 -37 17 -1 18 2 11 28 -5 17 -6 37 -3 45 7 18 -8 18 -24 -1z"/>
</g>
<g>
<path d="M1712 2359 c5 -14 68 -53 68 -42 0 6 -11 15 -25 21 -14 6 -25 16 -25
22 0 5 -5 10 -11 10 -6 0 -9 -5 -7 -11z"/>
</g>
<g>
<path d="M1430 2350 c0 -5 5 -10 10 -10 6 0 10 5 10 10 0 6 -4 10 -10 10 -5 0
-10 -4 -10 -10z"/>
</g>
<g>
<path d="M3090 2351 c0 -6 5 -11 10 -11 6 0 10 2 10 4 0 3 -4 8 -10 11 -5 3
-10 1 -10 -4z"/>
</g>
<g>
<path d="M61 2331 l-24 -18 24 -7 c23 -6 24 -7 5 -21 -11 -8 -16 -15 -11 -15
5 0 4 -5 -3 -12 -19 -19 -14 -33 6 -15 23 21 32 21 32 1 0 -8 5 -12 10 -9 6 3
10 0 10 -8 0 -7 15 -18 34 -24 33 -10 34 -10 32 18 -2 28 -26 59 -56 73 -8 3
-3 5 12 3 19 -3 25 0 21 10 -3 8 -11 12 -17 10 -6 -3 -20 4 -31 14 -19 17 -21
17 -44 0z m49 -57 c0 -2 -4 -4 -10 -4 -5 0 -10 5 -10 11 0 5 5 7 10 4 6 -3 10
-8 10 -11z"/>
</g>
<g>
<path d="M230 2340 c0 -5 2 -10 4 -10 3 0 8 5 11 10 3 6 1 10 -4 10 -6 0 -11
-4 -11 -10z"/>
</g>
<g>
<path d="M350 2346 c0 -2 7 -7 16 -10 8 -3 12 -2 9 4 -6 10 -25 14 -25 6z"/>
</g>
<g>
<path d="M1480 2340 c-13 -8 -12 -10 3 -10 9 0 17 5 17 10 0 12 -1 12 -20 0z"/>
</g>
<g>
<path d="M2820 2335 c0 -14 25 -27 34 -18 11 11 6 21 -14 26 -12 3 -20 0 -20
-8z"/>
</g>
<g>
<path d="M2915 2340 c-3 -5 1 -10 9 -10 9 0 16 5 16 10 0 6 -4 10 -9 10 -6 0
-13 -4 -16 -10z"/>
</g>
<g>
<path d="M0 2320 c0 -11 7 -20 15 -20 13 0 14 4 5 20 -6 11 -13 20 -15 20 -3
0 -5 -9 -5 -20z"/>
</g>
<g>
<path d="M3010 2330 c0 -5 2 -10 4 -10 3 0 8 5 11 10 3 6 1 10 -4 10 -6 0 -11
-4 -11 -10z"/>
</g>
<g>
<path d="M274 2316 c-7 -19 1 -46 15 -46 6 0 8 7 5 15 -4 8 -1 15 4 15 11 0
32 -34 53 -83 l11 -28 14 27 c16 31 18 48 4 39 -16 -10 -50 5 -50 22 0 13 3
13 18 2 9 -7 14 -9 10 -5 -4 5 -3 16 4 23 10 12 14 11 29 -9 10 -12 21 -20 24
-16 12 11 -34 48 -61 48 -14 0 -22 -4 -19 -10 7 -11 -23 -2 -42 13 -9 6 -15 4
-19 -7z"/>
</g>
<g>
<path d="M220 2295 c-6 -15 -12 -31 -14 -34 -2 -3 8 -15 22 -25 14 -11 21 -13
16 -5 -15 24 -12 58 6 51 13 -5 13 -4 0 14 -8 10 -15 21 -17 23 -1 2 -7 -9
-13 -24z"/>
</g>
<g>
<path d="M1280 2311 c0 -6 4 -13 10 -16 6 -3 7 1 4 9 -7 18 -14 21 -14 7z"/>
</g>
<g>
<path d="M1910 2308 c0 -23 48 -78 68 -77 15 1 15 2 0 6 -9 2 -20 12 -23 21
-3 9 -14 28 -25 42 -15 19 -20 21 -20 8z"/>
</g>
<g>
<path d="M2174 2304 c3 -9 6 -18 6 -20 0 -2 4 -4 9 -4 5 0 7 9 4 20 -3 11 -10
20 -15 20 -6 0 -7 -7 -4 -16z"/>
</g>
<g>
<path d="M2680 2313 c0 -5 9 -19 20 -33 16 -20 19 -21 13 -5 -6 18 -5 18 10 6
25 -20 21 -5 -5 19 -22 20 -38 26 -38 13z"/>
</g>
<g>
<path d="M1411 2299 c1 -8 -1 -22 -6 -32 -6 -14 -10 -16 -16 -6 -6 10 -10 9
-15 -6 -4 -11 -11 -22 -15 -25 -12 -8 2 -51 14 -43 6 4 8 -4 4 -23 -5 -27 -4
-27 9 -9 8 10 14 25 14 32 0 7 6 10 14 7 16 -6 33 15 19 25 -9 6 -9 14 -1 65
2 10 -3 21 -10 23 -7 3 -12 -1 -11 -8z m-1 -80 c0 -5 -4 -9 -10 -9 -5 0 -10 7
-10 16 0 8 5 12 10 9 6 -3 10 -10 10 -16z"/>
</g>
<g>
<path d="M1727 2300 c6 -7 22 -18 35 -24 12 -7 22 -18 21 -24 -2 -7 4 -12 12
-12 8 0 15 7 15 15 0 8 -7 15 -15 15 -8 0 -15 4 -15 9 0 5 -8 11 -17 15 -10 3
-25 9 -33 12 -12 5 -12 4 -3 -6z"/>
</g>
<g>
<path d="M3297 2299 c7 -7 15 -10 18 -7 3 3 -2 9 -12 12 -14 6 -15 5 -6 -5z"/>
</g>
<g>
<path d="M2825 2290 c-3 -5 -1 -10 4 -10 6 0 11 5 11 10 0 6 -2 10 -4 10 -3 0
-8 -4 -11 -10z"/>
</g>
<g>
<path d="M2940 2291 c0 -6 5 -11 10 -11 6 0 10 2 10 4 0 3 -4 8 -10 11 -5 3
-10 1 -10 -4z"/>
</g>
<g>
<path d="M3023 2294 c3 -3 12 -4 19 -1 8 3 5 6 -6 6 -11 1 -17 -2 -13 -5z"/>
</g>
<g>
<path d="M6 2281 c-4 -7 -5 -15 -2 -18 9 -9 19 4 14 18 -4 11 -6 11 -12 0z"/>
</g>
<g>
<path d="M1853 2284 c3 -3 12 -4 19 -1 8 3 5 6 -6 6 -11 1 -17 -2 -13 -5z"/>
</g>
<g>
<path d="M1890 2281 c0 -6 5 -13 10 -16 6 -3 10 -16 10 -28 1 -19 2 -20 11 -5
7 12 6 23 -3 38 -13 21 -28 27 -28 11z"/>
</g>
<g>
<path d="M2055 2276 c-17 -20 -16 -35 3 -45 14 -8 19 -6 19 5 0 8 -6 13 -13
10 -8 -3 -11 0 -7 9 3 8 9 12 14 9 5 -3 9 -1 9 5 0 16 -14 20 -25 7z"/>
</g>
<g>
<path d="M2270 2284 c0 -2 9 -8 20 -14 11 -6 20 -7 20 -2 0 6 -9 12 -20 15
-11 3 -20 3 -20 1z"/>
</g>
<g>
<path d="M3153 2284 c3 -3 12 -4 19 -1 8 3 5 6 -6 6 -11 1 -17 -2 -13 -5z"/>
</g>
<g>
<path d="M3230 2276 c0 -3 5 -8 10 -11 6 -3 10 -1 10 4 0 6 -4 11 -10 11 -5 0
-10 -2 -10 -4z"/>
</g>
<g>
<path d="M1231 2261 c-8 -5 -9 -11 -3 -15 5 -3 12 1 16 9 6 17 6 18 -13 6z"/>
</g>
<g>
<path d="M2100 2260 c-8 -5 -11 -13 -6 -17 5 -4 11 -2 13 5 3 6 10 9 15 6 7
-4 8 -2 4 4 -9 14 -7 14 -26 2z"/>
</g>
<g>
<path d="M2534 2242 c20 -21 39 -32 55 -31 l26 1 -25 7 c-16 5 -24 13 -22 24
2 10 -4 17 -12 17 -8 0 -23 3 -33 7 -13 4 -9 -3 11 -25z"/>
</g>
<g>
<path d="M2883 2264 c3 -3 12 -4 19 -1 8 3 5 6 -6 6 -11 1 -17 -2 -13 -5z"/>
</g>
<g>
<path d="M3010 2260 c-9 -6 -10 -10 -3 -10 6 0 15 5 18 10 8 12 4 12 -15 0z"/>
</g>
<g>
<path d="M3186 2261 c-18 -7 -18 -8 -2 -14 19 -8 36 -1 36 14 0 10 -7 11 -34
0z"/>
</g>
<g>
<path d="M770 2246 c0 -10 -9 -20 -20 -23 -15 -4 -19 -11 -15 -27 5 -19 4 -18
-8 3 -13 22 -14 22 -21 5 -7 -18 -8 -17 -20 5 -17 31 -80 40 -71 10 4 -13 1
-19 -9 -19 -9 0 -17 1 -18 2 -2 1 -13 -4 -25 -10 -17 -9 -22 -9 -27 4 -3 8
-11 12 -17 8 -21 -13 19 -33 49 -25 15 5 32 6 37 4 6 -2 21 6 33 17 21 20 27
16 23 -17 -1 -7 10 -12 26 -11 15 1 40 -2 54 -6 25 -7 26 -5 33 40 3 26 4 50
1 52 -3 3 -5 -3 -5 -12z"/>
</g>
<g>
<path d="M820 2250 c0 -5 5 -10 10 -10 6 0 10 5 10 10 0 6 -4 10 -10 10 -5 0
-10 -4 -10 -10z"/>
</g>
<g>
<path d="M1290 2250 c0 -5 4 -10 9 -10 6 0 13 5 16 10 3 6 -1 10 -9 10 -9 0
-16 -4 -16 -10z"/>
</g>
<g>
<path d="M2330 2250 c0 -5 5 -10 10 -10 6 0 10 5 10 10 0 6 -4 10 -10 10 -5 0
-10 -4 -10 -10z"/>
</g>
<g>
<path d="M2660 2250 c0 -5 2 -10 4 -10 3 0 8 5 11 10 3 6 1 10 -4 10 -6 0 -11
-4 -11 -10z"/>
</g>
<g>
<path d="M2970 2250 c0 -5 2 -10 4 -10 3 0 8 5 11 10 3 6 1 10 -4 10 -6 0 -11
-4 -11 -10z"/>
</g>
<g>
<path d="M896 2241 c-4 -7 -5 -15 -2 -18 9 -9 19 4 14 18 -4 11 -6 11 -12 0z"/>
</g>
<g>
<path d="M1677 2229 c-7 -25 30 -32 53 -9 17 17 17 18 -15 22 -26 3 -35 0 -38
-13z"/>
</g>
<g>
<path d="M2415 2241 c-3 -5 -1 -12 5 -16 5 -3 10 1 10 9 0 18 -6 21 -15 7z"/>
</g>
<g>
<path d="M2694 2229 c-16 -18 -16 -19 5 -19 12 0 19 4 16 10 -8 13 11 13 36 0
10 -6 19 -7 19 -3 0 5 -13 14 -29 20 -25 9 -32 8 -47 -8z"/>
</g>
<g>
<path d="M2778 2239 c15 -6 30 -5 40 1 13 7 8 9 -23 9 -35 0 -37 -1 -17 -10z"/>
</g>
<g>
<path d="M3130 2246 c0 -2 9 -6 20 -9 11 -3 18 -1 14 4 -5 9 -34 13 -34 5z"/>
</g>
<g>
<path d="M273 2221 c-10 -15 -10 -21 0 -25 8 -3 7 -9 -5 -19 -10 -8 -18 -19
-18 -26 0 -6 -8 -11 -17 -11 -15 0 -16 2 -3 10 12 8 12 11 -3 28 -9 10 -14 22
-10 27 5 4 1 6 -7 3 -8 -3 -14 -13 -14 -22 1 -12 -7 -16 -37 -16 -41 0 -52
-14 -20 -25 12 -4 17 -12 14 -24 -2 -9 3 -24 13 -31 15 -13 16 -11 9 30 -7 40
-6 43 9 31 9 -7 16 -23 17 -35 0 -17 2 -18 7 -4 6 15 10 14 35 -7 15 -13 27
-31 27 -39 0 -21 21 -31 31 -15 4 7 11 10 15 7 9 -10 34 17 34 37 0 9 5 13 10
10 6 -3 10 1 10 10 0 9 4 14 8 11 4 -2 8 3 8 13 0 13 -9 17 -39 18 -26 0 -35
-2 -26 -8 11 -6 11 -11 2 -20 -6 -6 -9 -17 -7 -23 2 -6 -5 -17 -16 -24 -11 -7
-20 -9 -21 -5 -1 15 -7 38 -14 55 -4 11 0 18 14 23 12 3 19 10 16 15 -3 4 3
11 12 14 15 6 15 8 3 17 -13 8 -13 10 0 20 13 9 13 10 -2 6 -9 -3 -18 -2 -20
4 -2 5 -9 0 -15 -10z"/>
</g>
<g>
<path d="M434 2224 c4 -9 2 -22 -4 -29 -8 -9 -5 -14 9 -18 15 -3 21 2 26 21 4
16 1 28 -7 33 -21 14 -31 10 -24 -7z"/>
</g>
<g>
<path d="M481 2233 c1 -5 1 -25 0 -46 l-1 -37 -40 6 c-22 4 -40 2 -40 -3 0 -5
10 -10 22 -10 13 -1 24 -7 27 -14 2 -6 14 -20 27 -32 13 -11 21 -25 17 -30 -3
-6 1 -15 9 -21 8 -6 17 -19 21 -30 7 -18 8 -18 27 -1 11 10 17 23 13 29 -4 6
3 2 15 -8 12 -11 22 -25 22 -33 0 -7 3 -13 8 -13 4 0 7 11 7 24 0 13 -3 22 -7
19 -15 -8 -8 36 7 50 11 12 12 17 2 20 -9 3 -9 7 0 17 10 11 17 10 39 -5 21
-13 24 -19 13 -26 -19 -12 39 -11 66 2 16 7 13 8 -14 6 -19 -1 -36 3 -38 10
-3 7 16 12 54 15 63 4 90 -6 73 -27 -8 -9 -6 -14 6 -19 27 -10 37 -7 25 8 -9
11 -9 15 1 19 9 3 7 9 -7 20 -15 12 -17 18 -8 28 15 15 6 39 -13 32 -8 -3 -14
0 -14 7 0 6 -5 8 -10 5 -6 -4 -8 -16 -4 -27 4 -13 2 -18 -4 -14 -6 3 -14 2
-17 -4 -4 -7 -37 -10 -80 -8 -69 2 -76 0 -99 -25 -14 -15 -30 -27 -36 -27 -5
0 -10 -4 -10 -10 0 -15 -26 -12 -40 5 -10 13 -11 18 -1 28 10 9 14 8 22 -6 8
-14 14 -16 25 -6 21 17 17 28 -8 21 -17 -4 -20 -2 -15 11 4 11 1 17 -7 17 -19
0 -24 18 -18 58 3 20 0 32 -7 32 -6 0 -10 -3 -10 -7z"/>
</g>
<g>
<path d="M848 2233 c-18 -5 -25 -23 -9 -23 5 0 12 -11 15 -25 4 -16 11 -22 21
-19 18 7 20 -10 2 -28 -18 -18 -15 -62 4 -66 17 -3 20 23 4 47 -6 11 -3 13 14
8 19 -5 20 -3 10 9 -10 12 -8 16 9 21 12 3 23 12 23 19 2 23 4 28 12 42 11 17
-3 15 -24 -4 -10 -9 -15 -22 -12 -30 8 -21 -21 -17 -42 6 -9 10 -15 26 -12 35
4 8 5 14 4 14 -1 -1 -10 -3 -19 -6z"/>
</g>
<g>
<path d="M1440 2236 c0 -3 5 -8 10 -11 6 -3 10 -1 10 4 0 6 -4 11 -10 11 -5 0
-10 -2 -10 -4z"/>
</g>
<g>
<path d="M2000 2221 c-11 -22 -3 -31 23 -27 20 3 35 16 19 16 -7 0 -12 7 -12
15 0 21 -17 19 -30 -4z"/>
</g>
<g>
<path d="M2190 2231 c0 -6 5 -13 10 -16 6 -3 10 1 10 9 0 9 -4 16 -10 16 -5 0
-10 -4 -10 -9z"/>
</g>
<g>
<path d="M2270 2236 c0 -2 9 -6 20 -9 11 -3 18 -1 14 4 -5 9 -34 13 -34 5z"/>
</g>
<g>
<path d="M3316 2220 c-6 -22 -8 -23 -14 -7 -6 14 -10 15 -22 5 -9 -7 -13 -12
-11 -11 2 2 11 -6 19 -18 14 -20 14 -20 28 7 8 15 13 32 11 38 -2 6 -7 -1 -11
-14z"/>
</g>
<g>
<path d="M397 2210 c-3 -11 -1 -20 4 -20 5 0 9 9 9 20 0 11 -2 20 -4 20 -2 0
-6 -9 -9 -20z"/>
</g>
<g>
<path d="M1298 2218 c-27 -22 -29 -46 -5 -50 12 -2 21 -9 20 -16 -2 -7 7 -11
22 -10 14 1 25 3 25 4 0 8 -39 42 -44 39 -3 -3 -2 1 4 7 12 14 13 38 2 38 -5
0 -15 -6 -24 -12z"/>
</g>
<g>
<path d="M1493 2204 c-24 -26 -18 -35 27 -36 39 -1 42 3 27 35 -15 32 -25 32
-54 1z"/>
</g>
<g>
<path d="M1870 2221 c0 -6 4 -13 10 -16 6 -3 7 1 4 9 -7 18 -14 21 -14 7z"/>
</g>
<g>
<path d="M3053 2215 c-9 -10 -9 -16 -2 -20 14 -9 22 0 17 18 -2 13 -5 13 -15
2z"/>
</g>
<g>
<path d="M3094 2215 c-10 -8 -14 -14 -9 -15 15 0 40 18 34 24 -3 3 -14 -1 -25
-9z"/>
</g>
<g>
<path d="M1090 2209 c0 -5 5 -9 10 -9 6 0 10 -6 10 -13 0 -8 7 -14 15 -14 24
0 17 21 -10 34 -14 6 -25 7 -25 2z"/>
</g>
<g>
<path d="M1750 2210 c-16 -5 -19 -8 -7 -9 9 -1 17 -5 17 -11 0 -5 9 -10 20
-10 11 0 20 5 20 10 0 6 8 10 17 10 9 0 13 3 10 7 -10 10 -49 11 -77 3z m40
-16 c0 -2 -4 -4 -10 -4 -5 0 -10 5 -10 11 0 5 5 7 10 4 6 -3 10 -8 10 -11z"/>
</g>
<g>
<path d="M2780 2200 c0 -5 7 -10 16 -10 8 0 12 5 9 10 -3 6 -10 10 -16 10 -5
0 -9 -4 -9 -10z"/>
</g>
<g>
<path d="M960 2188 c0 -9 5 -20 10 -23 13 -8 13 5 0 25 -8 13 -10 13 -10 -2z"/>
</g>
<g>
<path d="M2490 2196 c0 -3 5 -8 10 -11 6 -3 10 -1 10 4 0 6 -4 11 -10 11 -5 0
-10 -2 -10 -4z"/>
</g>
<g>
<path d="M2860 2190 c-9 -6 -10 -10 -3 -10 6 0 15 5 18 10 8 12 4 12 -15 0z"/>
</g>
<g>
<path d="M0 2178 c0 -27 13 -58 21 -52 14 8 11 34 -6 50 -12 12 -15 12 -15 2z"/>
</g>
<g>
<path d="M995 2180 c3 -5 13 -10 21 -10 8 0 13 -5 12 -11 -2 -6 3 -14 10 -16
18 -7 15 18 -5 33 -21 16 -47 18 -38 4z"/>
</g>
<g>
<path d="M1161 2171 c-24 -24 -27 -41 -8 -41 15 0 44 47 35 56 -4 3 -16 -4
-27 -15z"/>
</g>
<g>
<path d="M1241 2166 c27 -26 32 -27 24 -3 -4 8 -16 18 -27 21 -20 5 -20 4 3
-18z"/>
</g>
<g>
<path d="M1574 2181 c-12 -12 -1 -19 24 -16 15 2 30 4 35 4 4 1 7 5 7 11 0 9
-57 10 -66 1z"/>
</g>
<g>
<path d="M2640 2180 c13 -9 7 -14 -12 -11 -4 0 -5 -6 -2 -14 4 -8 10 -15 16
-15 5 0 7 4 4 9 -4 5 -1 11 6 13 14 5 2 28 -15 28 -7 0 -6 -4 3 -10z"/>
</g>
<g>
<path d="M3270 2181 c0 -6 5 -11 10 -11 6 0 10 2 10 4 0 3 -4 8 -10 11 -5 3
-10 1 -10 -4z"/>
</g>
<g>
<path d="M1070 2151 c5 -19 7 -44 4 -57 -7 -27 23 -48 47 -33 14 8 12 10 -13
13 -7 1 -13 15 -14 33 0 17 -8 42 -17 55 -16 23 -16 23 -7 -11z"/>
</g>
<g>
<path d="M1424 2169 c-3 -6 -1 -15 6 -19 9 -6 8 -14 -5 -34 l-18 -27 26 12
c15 7 23 17 20 25 -3 8 0 14 6 14 18 0 13 18 -8 30 -14 7 -22 7 -27 -1z"/>
</g>
<g>
<path d="M1660 2157 c-7 -12 -8 -23 -2 -29 12 -12 44 2 38 17 -2 7 0 17 5 22
5 5 1 9 -10 9 -10 0 -24 -9 -31 -19z"/>
</g>
<g>
<path d="M1949 2153 c-12 -32 -5 -40 42 -47 52 -8 68 -16 63 -31 -3 -8 1 -12
13 -12 9 1 18 -4 19 -10 1 -7 2 -19 3 -27 0 -7 12 -16 24 -18 20 -4 24 -1 24
24 0 15 -4 28 -9 28 -4 0 -8 9 -8 20 0 11 -3 20 -7 21 -8 0 -55 8 -83 13 -32
6 -70 30 -70 44 0 9 6 12 16 8 8 -3 12 -2 9 4 -11 18 -25 11 -36 -17z m166
-114 c11 -17 -1 -21 -15 -4 -8 9 -8 15 -2 15 6 0 14 -5 17 -11z"/>
</g>
<g>
<path d="M2076 2158 c-3 -13 -7 -25 -8 -27 -2 -2 3 -6 10 -9 7 -2 13 2 11 9
-4 30 2 37 23 31 14 -3 19 -2 14 6 -12 20 -43 13 -50 -10z"/>
</g>
<g>
<path d="M2140 2172 c0 -17 13 -21 33 -10 16 8 23 7 34 -8 12 -17 13 -17 13 4
0 19 -6 22 -40 22 -22 0 -40 -4 -40 -8z"/>
</g>
<g>
<path d="M85 2160 c-3 -5 -2 -10 4 -10 5 0 13 5 16 10 3 6 2 10 -4 10 -5 0
-13 -4 -16 -10z"/>
</g>
<g>
<path d="M1796 2157 c3 -10 9 -15 12 -12 3 3 0 11 -7 18 -10 9 -11 8 -5 -6z"/>
</g>
<g>
<path d="M2012 2157 c-8 -10 -6 -13 9 -13 20 0 25 11 10 20 -5 3 -13 0 -19 -7z"/>
</g>
<g>
<path d="M2243 2151 c1 -12 6 -20 12 -18 14 5 13 29 -2 34 -7 3 -11 -4 -10
-16z"/>
</g>
<g>
<path d="M2293 2163 c-22 -8 -14 -33 12 -43 15 -6 23 -15 19 -23 -3 -8 1 -17
9 -20 10 -4 13 1 9 19 -3 15 -13 26 -28 30 -26 7 -32 20 -11 27 6 2 10 7 7 9
-3 3 -11 3 -17 1z"/>
</g>
<g>
<path d="M2831 2156 c-1 -11 2 -17 5 -13 3 3 4 12 1 19 -3 8 -6 5 -6 -6z"/>
</g>
<g>
<path d="M1890 2145 c0 -12 -6 -15 -20 -10 -14 4 -20 2 -20 -9 0 -9 11 -18 25
-22 19 -5 24 -11 20 -24 -7 -21 24 -32 49 -18 16 9 23 29 9 27 -16 -3 -28 2
-47 16 -15 11 -17 17 -7 29 8 10 9 16 1 21 -5 3 -10 -1 -10 -10z"/>
</g>
<g>
<path d="M2450 2141 c0 -22 -16 -37 -22 -20 -2 6 -12 1 -22 -10 -18 -20 -18
-21 -1 -21 14 0 17 -6 12 -33 -3 -19 -1 -40 4 -48 7 -11 9 -10 9 5 0 19 0 19
14 1 8 -12 20 -16 34 -12 27 6 38 -9 22 -28 -11 -13 -7 -15 20 -15 33 0 33 0
14 21 -19 21 -19 22 3 15 22 -7 47 14 25 22 -7 2 -12 8 -12 13 0 6 3 8 8 5 4
-2 12 6 18 19 9 19 8 29 -3 45 -8 11 -19 17 -25 14 -7 -5 -5 -12 7 -20 12 -9
15 -19 10 -31 -4 -11 -9 -13 -12 -6 -2 7 -14 2 -30 -13 -29 -27 -55 -32 -47
-9 4 8 2 15 -4 15 -12 0 -12 82 0 98 8 8 6 12 -6 12 -9 0 -16 -8 -16 -19z"/>
</g>
<g>
<path d="M2725 2150 c-3 -5 -1 -10 4 -10 6 0 11 5 11 10 0 6 -2 10 -4 10 -3 0
-8 -4 -11 -10z"/>
</g>
<g>
<path d="M1603 2130 c-12 -10 -23 -24 -25 -31 -3 -9 -9 -9 -26 0 -12 6 -22 16
-22 21 0 6 -3 10 -8 10 -4 0 -8 -20 -8 -45 -1 -43 7 -57 22 -34 4 8 9 8 17 0
6 -6 18 -11 27 -11 13 0 13 1 0 10 -12 8 -11 11 8 16 15 4 22 13 20 25 -2 10
6 24 16 32 11 8 15 17 9 20 -5 4 -19 -2 -30 -13z"/>
</g>
<g>
<path d="M1730 2146 c0 -2 9 -6 20 -9 11 -3 20 -1 20 4 0 5 -9 9 -20 9 -11 0
-20 -2 -20 -4z"/>
</g>
<g>
<path d="M1204 2115 c0 -14 6 -25 13 -25 7 0 10 7 7 15 -5 11 -2 13 10 9 9 -3
16 -2 16 4 0 9 -23 22 -40 22 -4 0 -7 -11 -6 -25z"/>
</g>
<g>
<path d="M2110 2125 c7 -8 15 -15 17 -15 3 0 0 7 -7 15 -7 8 -15 15 -17 15 -3
0 0 -7 7 -15z"/>
</g>
<g>
<path d="M973 2124 c3 -4 23 -8 44 -10 28 -3 34 -2 23 6 -16 11 -77 14 -67 4z"/>
</g>
<g>
<path d="M1787 2123 c7 -2 21 -2 30 0 10 3 5 5 -12 5 -16 0 -24 -2 -18 -5z"/>
</g>
<g>
<path d="M2776 2122 c-2 -4 -1 -14 5 -22 7 -13 9 -12 9 2 0 9 10 19 23 21 19
4 19 4 -5 6 -15 0 -29 -3 -32 -7z"/>
</g>
<g>
<path d="M3183 2123 c-7 -2 -13 -11 -13 -19 0 -11 4 -12 19 -4 11 5 28 7 38 3
17 -6 17 -6 1 10 -17 17 -24 19 -45 10z"/>
</g>
<g>
<path d="M2588 2090 c16 -28 32 -39 32 -22 0 12 -30 52 -40 52 -5 0 -1 -13 8
-30z"/>
</g>
<g>
<path d="M2930 2105 c0 -8 2 -15 4 -15 2 0 6 7 10 15 3 8 1 15 -4 15 -6 0 -10
-7 -10 -15z"/>
</g>
<g>
<path d="M2995 2111 c-19 -6 -33 -31 -17 -31 12 0 48 28 42 33 -3 2 -14 1 -25
-2z"/>
</g>
<g>
<path d="M0 2106 c0 -3 5 -8 10 -11 6 -3 10 -1 10 4 0 6 -4 11 -10 11 -5 0
-10 -2 -10 -4z"/>
</g>
<g>
<path d="M99 2097 c-13 -9 -14 -16 -5 -30 9 -15 7 -21 -8 -33 -18 -12 -15 -19
7 -15 4 0 7 -3 7 -8 0 -11 39 -6 51 6 5 5 4 15 -1 23 -8 12 -10 12 -16 -3 -10
-28 -20 -19 -20 18 0 19 3 29 7 23 11 -17 23 -3 16 17 -8 18 -16 19 -38 2z"/>
</g>
<g>
<path d="M766 2102 c-2 -4 0 -14 5 -22 8 -13 10 -13 19 0 5 8 10 18 10 23 0
10 -28 9 -34 -1z"/>
</g>
<g>
<path d="M915 2085 c0 -14 5 -25 12 -25 20 0 27 -22 9 -32 -9 -5 -14 -13 -11
-19 9 -14 25 -11 25 6 0 21 17 19 30 -4 8 -16 5 -25 -14 -48 l-24 -29 22 -21
c14 -13 27 -18 35 -14 9 6 7 10 -9 14 -29 7 -24 52 5 53 39 2 43 4 47 28 4 18
0 26 -13 29 -24 7 -30 -2 -18 -25 11 -21 6 -34 -9 -24 -5 3 -8 21 -7 40 1 31
-3 36 -28 42 -17 3 -32 15 -37 30 -12 30 -15 30 -15 -1z"/>
</g>
<g>
<path d="M1157 2080 c7 -32 19 -45 27 -31 4 6 2 11 -4 11 -7 0 -8 6 0 19 14
27 13 30 -10 28 -15 -1 -18 -6 -13 -27z"/>
</g>
<g>
<path d="M1262 2098 c-16 -16 -15 -38 2 -38 20 0 29 17 19 35 -7 12 -12 12
-21 3z m18 -24 c0 -2 -4 -4 -10 -4 -5 0 -10 5 -10 11 0 5 5 7 10 4 6 -3 10 -8
10 -11z"/>
</g>
<g>
<path d="M1326 2085 c-9 -13 -16 -29 -16 -35 0 -6 -4 -8 -10 -5 -5 3 -10 0
-10 -9 0 -8 -3 -22 -7 -32 -4 -11 -3 -15 4 -11 16 10 43 -3 43 -20 0 -10 -7
-13 -22 -8 -20 5 -21 4 -5 -5 9 -6 21 -8 27 -5 5 3 15 -3 22 -15 7 -11 19 -20
26 -20 17 0 6 36 -19 64 -11 11 -17 26 -15 32 2 6 -1 17 -7 23 -9 9 -9 14 -1
19 15 9 28 52 16 52 -5 0 -17 -11 -26 -25z"/>
</g>
<g>
<path d="M1650 2100 c13 -8 13 -10 -1 -10 -12 0 -15 -7 -11 -26 3 -19 1 -25
-7 -20 -7 5 -11 -2 -11 -18 0 -19 -5 -26 -19 -26 -28 0 -37 -20 -12 -27 12 -3
21 -9 21 -13 0 -4 11 -5 24 -3 15 3 23 10 19 18 -2 8 -12 11 -20 8 -13 -5 -13
-3 -4 15 7 12 16 22 22 22 6 0 7 -4 4 -10 -10 -16 4 -12 36 12 24 18 33 20 47
11 9 -6 16 -16 14 -23 -1 -7 3 -10 10 -7 7 2 12 10 10 17 -2 8 3 10 14 6 11
-4 18 0 21 14 3 11 10 20 15 20 5 0 7 -9 3 -20 -5 -15 -3 -18 8 -14 8 3 17 -1
20 -9 4 -10 -3 -12 -27 -9 -17 3 -28 1 -24 -3 5 -5 -1 -14 -12 -22 -11 -8 -20
-20 -20 -27 0 -7 -9 -21 -20 -31 -14 -12 -17 -22 -10 -30 5 -6 7 -15 3 -18 -3
-4 0 -7 7 -7 15 0 50 38 50 54 0 6 -9 0 -19 -13 -12 -16 -21 -20 -25 -12 -4 6
-3 11 2 11 6 0 13 11 16 24 6 26 32 41 50 28 16 -12 56 -13 56 -1 0 6 -12 9
-27 7 -15 -2 -28 2 -31 10 -3 9 3 13 19 10 30 -4 38 26 13 53 -9 10 -14 22
-11 25 6 6 -16 34 -27 34 -3 0 -6 -8 -6 -17 -1 -16 -2 -16 -15 1 -15 19 -15
19 -15 -3 0 -16 -4 -21 -15 -17 -8 3 -15 1 -15 -3 0 -5 -9 -7 -20 -4 -11 3
-20 10 -20 15 0 5 -8 7 -19 3 -13 -4 -20 0 -24 15 -3 11 -11 20 -19 20 -10 0
-9 -3 2 -10z"/>
</g>
<g>
<path d="M2860 2100 c0 -5 2 -10 4 -10 3 0 8 5 11 10 3 6 1 10 -4 10 -6 0 -11
-4 -11 -10z"/>
</g>
<g>
<path d="M960 2090 c0 -5 5 -10 10 -10 6 0 10 5 10 10 0 6 -4 10 -10 10 -5 0
-10 -4 -10 -10z"/>
</g>
<g>
<path d="M2141 2079 c7 -14 14 -18 21 -11 13 13 2 32 -18 32 -12 0 -13 -4 -3
-21z"/>
</g>
<g>
<path d="M2220 2096 c0 -3 5 -8 10 -11 6 -3 10 -1 10 4 0 6 -4 11 -10 11 -5 0
-10 -2 -10 -4z"/>
</g>
<g>
<path d="M2660 2093 c0 -13 27 -49 33 -43 3 3 -3 16 -14 29 -10 13 -19 19 -19
14z"/>
</g>
<g>
<path d="M2710 2093 c0 -5 5 -15 10 -23 7 -12 9 -10 7 8 -1 19 -17 33 -17 15z"/>
</g>
<g>
<path d="M1013 2083 c9 -2 25 -2 35 0 9 3 1 5 -18 5 -19 0 -27 -2 -17 -5z"/>
</g>
<g>
<path d="M3245 2080 c-3 -5 -1 -10 4 -10 6 0 11 5 11 10 0 6 -2 10 -4 10 -3 0
-8 -4 -11 -10z"/>
</g>
<g>
<path d="M30 2064 c0 -7 8 -10 20 -7 11 3 20 8 20 12 0 4 -9 7 -20 7 -11 0
-20 -6 -20 -12z"/>
</g>
<g>
<path d="M210 2076 c0 -2 7 -7 16 -10 8 -3 12 -2 9 4 -6 10 -25 14 -25 6z"/>
</g>
<g>
<path d="M370 2065 c-11 -13 -10 -15 6 -13 11 2 21 -1 24 -7 3 -5 -5 -11 -17
-13 -30 -4 -29 -16 3 -37 25 -16 26 -16 20 2 -3 10 -1 25 4 33 8 12 10 12 11
-5 0 -15 2 -16 6 -5 3 8 11 18 17 22 6 5 2 8 -11 8 -13 0 -21 5 -19 13 1 6 1
8 -2 4 -2 -4 -10 -3 -17 3 -9 7 -16 6 -25 -5z"/>
</g>
<g>
<path d="M1404 2061 c-18 -14 -22 -36 -15 -70 1 -2 7 2 15 8 10 8 16 9 21 1 9
-15 35 -12 35 5 0 8 -4 15 -10 15 -5 0 -10 11 -10 24 0 33 -11 38 -36 17z"/>
</g>
<g>
<path d="M1860 2076 c0 -3 5 -8 10 -11 6 -3 10 -1 10 4 0 6 -4 11 -10 11 -5 0
-10 -2 -10 -4z"/>
</g>
<g>
<path d="M1983 2073 c9 -2 25 -2 35 0 9 3 1 5 -18 5 -19 0 -27 -2 -17 -5z"/>
</g>
<g>
<path d="M2373 2060 c-11 -16 -10 -18 2 -14 8 4 15 12 15 20 0 19 -3 18 -17
-6z"/>
</g>
<g>
<path d="M2995 2064 c-12 -10 -14 -14 -5 -12 8 3 20 -3 25 -13 10 -18 11 -18
23 2 11 17 11 20 -5 17 -10 -2 -17 2 -15 10 3 15 2 15 -23 -4z"/>
</g>
<g>
<path d="M1231 2056 c-1 -11 2 -17 5 -13 3 3 4 12 1 19 -3 8 -6 5 -6 -6z"/>
</g>
<g>
<path d="M2179 2063 c-1 -5 -1 -11 0 -15 0 -5 -6 -8 -14 -8 -21 0 -19 -12 5
-33 11 -9 20 -12 20 -7 0 6 6 10 14 10 8 0 17 4 20 9 3 5 -2 8 -12 7 -12 -1
-16 5 -15 22 2 19 -15 34 -18 15z"/>
</g>
<g>
<path d="M2214 2058 c-4 -7 -3 -8 5 -4 7 4 20 -2 31 -16 19 -23 19 -23 33 -3
18 23 11 41 -8 25 -9 -8 -15 -8 -20 0 -8 13 -32 13 -41 -2z"/>
</g>
<g>
<path d="M3066 2061 c-4 -5 -2 -12 3 -15 5 -4 12 -2 15 3 4 5 2 12 -3 15 -5 4
-12 2 -15 -3z"/>
</g>
<g>
<path d="M3109 2065 c-8 -30 8 -76 20 -58 3 6 15 13 26 16 13 3 7 5 -15 6 -27
1 -31 4 -20 11 11 7 11 10 2 10 -7 0 -10 5 -7 10 3 6 4 10 1 10 -3 0 -7 -2 -7
-5z"/>
</g>
<g>
<path d="M3301 2061 c-7 -5 -9 -11 -4 -14 5 -3 15 -2 22 2 7 5 9 11 4 14 -5 3
-15 2 -22 -2z"/>
</g>
<g>
<path d="M181 2043 c-10 -11 -8 -17 11 -33 13 -11 34 -19 48 -19 l25 0 -22 18
c-13 11 -23 26 -23 33 0 19 -22 19 -39 1z"/>
</g>
<g>
<path d="M340 2051 c0 -5 -8 -11 -17 -13 -15 -3 -14 -5 5 -10 17 -5 22 -2 22
13 0 10 -2 19 -5 19 -3 0 -5 -4 -5 -9z"/>
</g>
<g>
<path d="M783 2050 c-36 -15 -27 -25 22 -27 31 -1 45 2 45 12 0 7 -7 16 -16
19 -19 7 -23 7 -51 -4z"/>
</g>
<g>
<path d="M1990 2052 c0 -5 11 -12 25 -14 14 -3 25 -1 25 3 0 5 -4 9 -9 9 -5 0
-16 3 -25 6 -9 3 -16 2 -16 -4z"/>
</g>
<g>
<path d="M2770 2050 c0 -5 7 -10 16 -10 8 0 12 5 9 10 -3 6 -10 10 -16 10 -5
0 -9 -4 -9 -10z"/>
</g>
<g>
<path d="M2843 2054 c3 -3 12 -4 19 -1 8 3 5 6 -6 6 -11 1 -17 -2 -13 -5z"/>
</g>
<g>
<path d="M6 2043 c-11 -12 -6 -22 14 -28 11 -3 20 -14 20 -23 0 -12 3 -13 11
-5 14 14 3 33 -17 33 -8 0 -13 4 -9 9 6 11 -9 23 -19 14z"/>
</g>
<g>
<path d="M650 2036 c0 -8 6 -16 12 -18 10 -4 9 -14 -4 -44 -23 -53 -19 -103
11 -133 19 -19 25 -21 32 -10 13 21 11 24 -16 39 -31 16 -32 27 -4 35 16 5 18
9 9 15 -7 4 -10 17 -7 29 3 12 1 24 -5 27 -6 4 -5 9 3 14 7 5 22 2 36 -7 14
-10 23 -11 23 -4 0 6 -5 11 -11 11 -6 0 -8 7 -5 16 3 8 2 12 -4 9 -6 -3 -10 0
-10 7 0 10 -2 10 -9 -1 -11 -17 -32 -5 -24 14 3 9 -1 15 -11 15 -9 0 -16 -6
-16 -14z"/>
</g>
<g>
<path d="M720 2046 c0 -3 5 -8 10 -11 6 -3 10 -1 10 4 0 6 -4 11 -10 11 -5 0
-10 -2 -10 -4z"/>
</g>
<g>
<path d="M1192 2030 c-10 -16 -10 -24 0 -40 7 -11 16 -20 21 -20 4 0 5 4 2 10
-3 6 1 7 9 4 22 -9 21 22 -2 46 -17 19 -18 19 -30 0z"/>
</g>
<g>
<path d="M2342 2026 c7 -8 15 -12 17 -11 5 6 -10 25 -20 25 -5 0 -4 -6 3 -14z"/>
</g>
<g>
<path d="M2713 2028 c-14 -24 -11 -38 8 -38 10 0 19 -5 19 -11 0 -6 -9 -8 -22
-3 -22 6 -22 6 -5 -13 19 -21 23 -38 7 -28 -20 12 -110 16 -110 5 0 -6 4 -9 9
-6 5 4 11 2 13 -4 2 -6 14 -12 26 -15 13 -2 33 -7 44 -11 15 -4 18 -3 13 6 -5
9 -4 11 4 6 16 -10 51 3 51 20 0 8 7 14 15 14 24 0 17 18 -7 22 -13 2 -23 8
-22 13 1 6 -6 15 -15 22 -11 9 -12 12 -3 13 7 0 10 5 7 10 -8 14 -22 13 -32
-2z"/>
</g>
<g>
<path d="M2890 2030 c0 -5 4 -10 9 -10 6 0 13 5 16 10 3 6 -1 10 -9 10 -9 0
-16 -4 -16 -10z"/>
</g>
<g>
<path d="M3210 2030 c-13 -8 -12 -10 3 -10 9 0 17 5 17 10 0 12 -1 12 -20 0z"/>
</g>
<g>
<path d="M1062 2018 c-15 -15 -16 -54 -2 -63 6 -3 10 -14 10 -24 0 -10 8 -25
18 -32 15 -12 16 -12 5 2 -7 9 -11 33 -9 55 4 52 -5 79 -22 62z"/>
</g>
<g>
<path d="M1520 2021 c-19 -5 -26 -13 -27 -35 -2 -26 -1 -27 11 -11 7 10 23 18
36 19 26 1 38 21 18 28 -7 2 -24 2 -38 -1z"/>
</g>
<g>
<path d="M2652 2018 c3 -7 13 -15 24 -17 16 -3 17 -1 5 13 -16 19 -34 21 -29
4z"/>
</g>
<g>
<path d="M2810 2026 c0 -3 5 -8 10 -11 6 -3 10 -1 10 4 0 6 -4 11 -10 11 -5 0
-10 -2 -10 -4z"/>
</g>
<g>
<path d="M300 2010 c0 -13 18 -22 24 -11 3 5 -1 11 -9 15 -8 3 -15 1 -15 -4z"/>
</g>
<g>
<path d="M779 1998 c0 -7 -2 -24 -3 -37 l-3 -24 19 24 c12 14 16 25 9 27 -6 2
-9 8 -5 13 3 5 0 9 -5 9 -6 0 -11 -6 -12 -12z"/>
</g>
<g>
<path d="M909 1992 c6 -10 17 -24 25 -32 14 -10 16 -9 16 7 0 11 -11 25 -25
31 -23 11 -25 10 -16 -6z"/>
</g>
<g>
<path d="M1106 2001 c-3 -5 -3 -16 0 -24 3 -9 1 -25 -6 -36 -9 -18 -8 -21 7
-21 27 0 48 17 49 40 1 23 -6 25 -25 8 -11 -11 -12 -9 -7 9 7 22 -8 41 -18 24z"/>
</g>
<g>
<path d="M1716 2001 c-3 -5 1 -12 10 -15 27 -11 37 -7 24 9 -14 17 -26 19 -34
6z"/>
</g>
<g>
<path d="M2055 2000 c-4 -6 -15 -8 -25 -5 -10 3 -21 2 -24 -3 -8 -13 39 -21
58 -10 17 10 22 28 7 28 -6 0 -13 -5 -16 -10z"/>
</g>
<g>
<path d="M2866 1998 c3 -4 12 -8 20 -8 8 0 14 -4 14 -9 0 -5 9 -7 20 -4 16 4
20 0 20 -22 0 -20 -4 -26 -16 -21 -8 3 -12 2 -9 -4 3 -6 14 -10 24 -10 13 0
18 7 17 23 -3 39 28 64 37 30 3 -12 5 -8 6 9 1 29 2 28 -71 12 -16 -3 -28 -2
-28 3 0 5 -9 9 -19 9 -11 0 -17 -4 -15 -8z"/>
</g>
<g>
<path d="M3025 2000 c-3 -5 -2 -10 4 -10 5 0 13 5 16 10 3 6 2 10 -4 10 -5 0
-13 -4 -16 -10z"/>
</g>
<g>
<path d="M3067 1999 c7 -7 15 -10 18 -7 3 3 -2 9 -12 12 -14 6 -15 5 -6 -5z"/>
</g>
<g>
<path d="M160 1987 c0 -7 9 -18 20 -25 24 -15 27 0 4 22 -19 19 -24 20 -24 3z"/>
</g>
<g>
<path d="M830 1986 c0 -18 6 -21 15 -7 3 5 1 12 -5 16 -5 3 -10 -1 -10 -9z"/>
</g>
<g>
<path d="M872 1970 c4 -23 1 -30 -9 -26 -8 3 -11 1 -8 -4 3 -6 12 -10 19 -10
8 0 19 -7 26 -15 7 -8 18 -15 24 -15 6 0 5 4 -3 9 -7 5 -11 13 -7 19 3 6 -1
15 -9 20 -9 4 -17 18 -18 30 -1 12 -5 22 -10 22 -5 0 -7 -14 -5 -30z"/>
</g>
<g>
<path d="M1411 1986 c-1 -11 2 -17 5 -13 3 3 4 12 1 19 -3 8 -6 5 -6 -6z"/>
</g>
<g>
<path d="M2204 1989 c-3 -5 -1 -9 5 -9 5 0 16 -3 25 -6 9 -3 16 -2 16 4 0 13
-38 23 -46 11z"/>
</g>
<g>
<path d="M2840 1991 c0 -6 5 -11 10 -11 6 0 10 2 10 4 0 3 -4 8 -10 11 -5 3
-10 1 -10 -4z"/>
</g>
<g>
<path d="M3144 1989 c-2 -4 3 -10 12 -13 8 -3 13 -10 10 -15 -9 -14 20 -21 33
-8 16 16 14 30 -3 24 -10 -4 -13 -1 -10 8 4 9 -1 13 -16 12 -12 -1 -23 -4 -26
-8z"/>
</g>
<g>
<path d="M3200 1996 c0 -2 7 -7 16 -10 8 -3 12 -2 9 4 -6 10 -25 14 -25 6z"/>
</g>
<g>
<path d="M11 1981 c-8 -6 -9 -11 -3 -15 6 -3 14 -1 17 5 9 14 2 20 -14 10z"/>
</g>
<g>
<path d="M1685 1968 c9 -16 19 -28 22 -28 2 0 2 4 -2 9 -3 5 3 12 12 14 15 4
15 5 -2 6 -12 0 -27 7 -34 14 -8 6 -6 0 4 -15z"/>
</g>
<g>
<path d="M2593 1977 c-2 -4 13 -7 36 -6 22 2 38 7 35 11 -7 10 -64 7 -71 -5z"/>
</g>
<g>
<path d="M519 1978 c-6 -21 -5 -39 2 -44 5 -3 9 0 9 6 0 7 7 10 15 6 19 -7 47
3 40 15 -3 4 -12 6 -20 2 -8 -3 -15 0 -15 6 0 9 -28 17 -31 9z"/>
</g>
<g>
<path d="M600 1971 c0 -6 4 -13 10 -16 6 -3 7 1 4 9 -7 18 -14 21 -14 7z"/>
</g>
<g>
<path d="M1530 1976 c0 -3 7 -12 16 -20 8 -9 11 -16 5 -16 -6 0 -10 -11 -9
-25 2 -16 8 -25 19 -25 20 0 42 -24 31 -35 -4 -4 3 -4 15 -1 24 8 40 -9 25
-27 -8 -9 -3 -12 19 -13 24 -1 29 3 29 21 0 13 -11 43 -25 66 -22 38 -31 44
-26 16 1 -5 -3 -6 -8 -3 -5 4 -11 3 -14 -1 -2 -5 -2 -2 -1 4 2 7 -12 24 -30
38 -31 24 -46 30 -46 21z"/>
</g>
<g>
<path d="M1905 1954 c-22 -35 -14 -50 29 -52 28 -1 34 2 29 14 -5 13 -7 13
-14 2 -6 -9 -9 -2 -9 19 0 42 -14 49 -35 17z"/>
</g>
<g>
<path d="M2100 1970 c0 -5 2 -10 4 -10 3 0 8 5 11 10 3 6 1 10 -4 10 -6 0 -11
-4 -11 -10z"/>
</g>
<g>
<path d="M3010 1970 c0 -5 5 -10 10 -10 6 0 10 5 10 10 0 6 -4 10 -10 10 -5 0
-10 -4 -10 -10z"/>
</g>
<g>
<path d="M3040 1970 c0 -5 5 -10 10 -10 6 0 10 5 10 10 0 6 -4 10 -10 10 -5 0
-10 -4 -10 -10z"/>
</g>
<g>
<path d="M3083 1969 c-6 -6 -9 -18 -6 -25 3 -8 -1 -14 -8 -14 -23 -1 11 -16
51 -24 l35 -6 -26 22 c-15 13 -28 31 -30 41 -3 14 -7 15 -16 6z"/>
</g>
<g>
<path d="M3115 1970 c-9 -15 19 -40 44 -40 12 0 13 2 3 8 -6 5 -18 16 -25 27
-11 14 -16 15 -22 5z"/>
</g>
<g>
<path d="M3252 1960 c-7 -12 -17 -18 -23 -15 -12 8 -41 -14 -33 -26 3 -5 14
-5 25 1 27 15 43 3 24 -17 -9 -8 -14 -18 -11 -21 3 -3 14 4 23 15 10 11 28 23
41 27 29 10 17 29 -14 22 -14 -4 -24 -2 -24 4 0 5 15 10 33 11 27 0 29 2 12 9
-31 13 -39 12 -53 -10z"/>
</g>
<g>
<path d="M45 1961 c-3 -5 -1 -12 5 -16 5 -3 10 1 10 9 0 18 -6 21 -15 7z"/>
</g>
<g>
<path d="M295 1960 c3 -5 13 -10 21 -10 8 0 14 5 14 10 0 6 -9 10 -21 10 -11
0 -17 -4 -14 -10z"/>
</g>
<g>
<path d="M419 1963 c-1 -5 -1 -11 0 -15 0 -5 -3 -8 -9 -8 -5 0 -10 -6 -10 -14
0 -8 -7 -16 -15 -20 -9 -3 -15 0 -15 9 0 8 -5 15 -11 15 -7 0 -9 -9 -6 -23 4
-12 2 -29 -3 -37 -9 -13 -11 -13 -20 0 -6 9 -10 10 -10 3 0 -19 20 -26 36 -12
12 10 13 9 8 -5 -4 -12 0 -16 15 -16 22 0 28 14 10 25 -19 12 24 34 68 35 23
0 45 4 48 10 3 6 -1 7 -9 4 -10 -4 -16 -1 -16 7 0 12 -2 12 -9 0 -13 -21 -32
-3 -25 25 5 18 2 24 -10 24 -9 0 -17 -3 -17 -7z m11 -44 c0 -5 -4 -7 -10 -4
-5 3 -10 8 -10 11 0 2 5 4 10 4 6 0 10 -5 10 -11z"/>
</g>
<g>
<path d="M1245 1960 c3 -5 11 -10 16 -10 6 0 7 5 4 10 -3 6 -11 10 -16 10 -6
0 -7 -4 -4 -10z"/>
</g>
<g>
<path d="M2160 1961 c0 -9 41 -23 48 -16 2 2 1 8 -3 14 -8 13 -45 15 -45 2z"/>
</g>
<g>
<path d="M2272 1958 c5 -15 28 -23 28 -10 0 5 -7 13 -16 16 -10 4 -14 1 -12
-6z"/>
</g>
<g>
<path d="M2360 1955 c-11 -13 -10 -14 4 -9 9 3 16 10 16 15 0 13 -6 11 -20 -6z"/>
</g>
<g>
<path d="M2390 1938 c0 -10 6 -18 13 -18 21 0 40 -17 32 -29 -5 -9 -10 -9 -21
0 -8 6 -17 9 -20 7 -3 -3 15 -17 40 -31 26 -14 46 -24 46 -22 0 16 -14 34 -23
28 -6 -3 -7 -1 -3 6 4 6 1 24 -7 41 -11 21 -12 30 -3 33 6 3 -4 5 -21 4 -25 0
-33 -4 -33 -19z"/>
</g>
<g>
<path d="M2839 1947 c7 -9 11 -18 7 -18 -3 -1 -10 -2 -15 -3 -22 -3 -22 -16 0
-17 13 0 34 -2 46 -5 12 -2 25 1 28 6 3 6 -1 10 -9 10 -19 0 -21 16 -3 23 6 3
2 6 -10 6 -12 1 -30 4 -40 8 -16 6 -16 5 -4 -10z"/>
</g>
<g>
<path d="M2528 1943 c-21 -3 -28 -10 -28 -26 0 -12 -3 -32 -6 -44 -5 -17 -2
-23 10 -23 9 0 16 -4 16 -10 0 -5 3 -9 8 -8 4 1 20 -4 35 -10 16 -7 36 -12 45
-11 10 0 6 4 -8 8 -37 12 -68 33 -66 45 2 6 1 8 -1 4 -3 -5 -9 -8 -15 -8 -6 0
-6 6 2 15 6 8 9 18 6 24 -3 5 6 19 21 30 16 11 24 20 18 19 -5 0 -22 -3 -37
-5z"/>
</g>
<g>
<path d="M250 1930 c8 -5 20 -10 25 -10 6 0 3 5 -5 10 -8 5 -19 10 -25 10 -5
0 -3 -5 5 -10z"/>
</g>
<g>
<path d="M1154 1925 c-6 -14 71 -97 81 -87 7 7 -16 46 -37 60 -10 7 -18 20
-18 28 0 18 -19 18 -26 -1z"/>
</g>
<g>
<path d="M1241 1926 c-1 -11 2 -17 5 -13 3 3 4 12 1 19 -3 8 -6 5 -6 -6z"/>
</g>
<g>
<path d="M1311 1913 c4 -38 17 -53 45 -53 31 0 41 20 19 37 -25 17 -39 17 -31
-2 3 -8 1 -15 -3 -15 -13 0 -22 28 -11 35 15 10 12 25 -6 25 -11 0 -15 -8 -13
-27z"/>
</g>
<g>
<path d="M1850 1934 c0 -3 6 -12 14 -20 19 -18 27 -18 20 0 -5 14 -34 31 -34
20z"/>
</g>
<g>
<path d="M2984 1933 c10 -11 36 -12 36 -2 0 5 -10 9 -22 9 -12 0 -18 -3 -14
-7z"/>
</g>
<g>
<path d="M180 1919 c-13 -8 -13 -10 0 -19 8 -5 20 -10 27 -10 7 0 10 -7 7 -15
-5 -11 -2 -13 10 -9 9 3 16 17 16 31 0 14 -4 22 -10 18 -6 -4 -16 -2 -23 4 -8
6 -18 6 -27 0z"/>
</g>
<g>
<path d="M1040 1921 c0 -6 5 -11 10 -11 6 0 10 2 10 4 0 3 -4 8 -10 11 -5 3
-10 1 -10 -4z"/>
</g>
<g>
<path d="M2298 1919 c-23 -13 -13 -36 17 -41 20 -4 23 -2 16 11 -5 9 -10 21
-12 28 -3 8 -9 9 -21 2z"/>
</g>
<g>
<path d="M7 1913 c-12 -12 -7 -22 8 -17 8 4 15 10 15 15 0 11 -14 12 -23 2z"/>
</g>
<g>
<path d="M783 1907 c0 -7 9 -14 19 -14 16 -2 16 0 4 13 -18 17 -23 18 -23 1z"/>
</g>
<g>
<path d="M2030 1906 c0 -8 7 -16 15 -20 10 -4 15 1 15 14 0 11 -7 20 -15 20
-8 0 -15 -6 -15 -14z"/>
</g>
<g>
<path d="M3315 1910 c-3 -5 -1 -10 4 -10 6 0 11 5 11 10 0 6 -2 10 -4 10 -3 0
-8 -4 -11 -10z"/>
</g>
<g>
<path d="M125 1900 c3 -5 10 -10 16 -10 5 0 9 5 9 10 0 6 -7 10 -16 10 -8 0
-12 -4 -9 -10z"/>
</g>
<g>
<path d="M266 1891 c-19 -21 -12 -48 16 -57 26 -8 37 5 15 18 -13 7 -17 17
-13 34 8 29 4 30 -18 5z"/>
</g>
<g>
<path d="M860 1901 c0 -7 -6 -11 -14 -8 -10 4 -13 -2 -12 -21 1 -34 -16 -44
-29 -15 -9 22 -45 39 -45 22 0 -5 7 -9 16 -9 11 0 14 -5 10 -16 -6 -17 9 -36
37 -47 9 -3 17 -14 17 -24 0 -16 2 -16 15 -2 12 12 14 22 6 41 -7 20 -7 28 3
31 7 3 12 14 11 26 -1 23 -15 42 -15 22z"/>
</g>
<g>
<path d="M2540 1902 c0 -11 22 -32 33 -32 5 0 4 6 -2 13 -6 8 -8 17 -4 20 3 4
-1 7 -10 7 -9 0 -17 -4 -17 -8z"/>
</g>
<g>
<path d="M2611 1906 c2 -2 15 -9 29 -15 24 -11 24 -11 6 3 -16 13 -49 24 -35
12z"/>
</g>
<g>
<path d="M2950 1903 c0 -6 -9 -13 -20 -16 -11 -3 -20 -1 -20 4 0 4 -8 5 -17 2
-15 -6 -15 -7 3 -14 32 -13 51 -10 58 7 4 9 4 19 1 22 -3 3 -5 1 -5 -5z"/>
</g>
<g>
<path d="M48 1889 c-9 -5 -14 -20 -13 -39 1 -23 -2 -30 -12 -26 -8 3 -11 1 -8
-4 3 -6 13 -10 21 -10 11 0 13 6 9 20 -4 11 -2 20 4 20 6 0 14 0 19 1 8 1 22
20 22 30 0 12 -26 17 -42 8z"/>
</g>
<g>
<path d="M560 1896 c0 -2 7 -6 15 -10 8 -3 15 -1 15 4 0 6 -7 10 -15 10 -8 0
-15 -2 -15 -4z"/>
</g>
<g>
<path d="M707 1893 c-4 -3 -7 -11 -7 -17 0 -6 5 -5 12 2 6 6 9 14 7 17 -3 3
-9 2 -12 -2z"/>
</g>
<g>
<path d="M1113 1885 c-9 -10 -7 -14 10 -19 27 -7 35 1 16 18 -12 12 -16 12
-26 1z"/>
</g>
<g>
<path d="M1261 1891 c-7 -5 -12 -13 -10 -19 2 -6 14 -2 28 9 23 19 9 27 -18
10z"/>
</g>
<g>
<path d="M2251 1891 c-9 -6 -7 -10 8 -14 12 -3 21 -1 21 3 0 14 -15 19 -29 11z"/>
</g>
<g>
<path d="M2750 1886 c0 -8 5 -18 10 -21 6 -3 10 1 10 9 0 8 -4 18 -10 21 -5 3
-10 -1 -10 -9z"/>
</g>
<g>
<path d="M2830 1890 c0 -5 5 -10 10 -10 6 0 10 5 10 10 0 6 -4 10 -10 10 -5 0
-10 -4 -10 -10z"/>
</g>
<g>
<path d="M513 1878 c5 -14 1 -18 -18 -18 -14 0 -25 -5 -25 -11 0 -7 -12 -8
-32 -4 -32 6 -32 5 -13 -10 26 -21 94 -16 109 7 8 14 7 22 -8 35 -18 17 -19
17 -13 1z"/>
</g>
<g>
<path d="M1829 1878 c-1 -7 -1 -21 0 -30 3 -21 -19 -24 -37 -6 -7 7 -13 8 -13
3 -1 -6 -2 -17 -3 -25 0 -8 -9 -15 -18 -15 -21 0 -36 -15 -17 -16 8 -1 19 -1
25 0 7 1 14 -8 17 -20 3 -12 10 -18 16 -14 6 3 15 -4 20 -17 6 -13 10 -17 10
-10 1 9 6 10 20 2 25 -13 71 -13 71 0 0 6 12 11 28 11 17 1 20 3 9 6 -9 2 -16
8 -14 11 2 4 -4 15 -15 25 -17 16 -18 16 -18 -10 0 -14 -3 -23 -7 -20 -3 4
-12 -1 -19 -11 -15 -20 -19 -17 -28 21 -5 20 -3 27 9 27 8 0 15 4 15 9 0 18
-17 20 -39 5 -16 -12 -19 -19 -12 -28 18 -21 0 -26 -21 -6 -26 24 -17 50 17
50 15 0 24 4 20 9 -3 6 1 13 8 18 10 6 10 12 -5 26 -12 11 -18 13 -19 5z"/>
</g>
<g>
<path d="M1887 1878 c-3 -10 4 -25 19 -39 13 -12 24 -17 24 -11 0 6 -5 14 -11
17 -6 4 -14 16 -18 28 -6 16 -9 17 -14 5z"/>
</g>
<g>
<path d="M1946 1868 c-3 -13 -2 -26 3 -31 5 -5 11 3 13 18 6 32 -8 43 -16 13z"/>
</g>
<g>
<path d="M3005 1880 c3 -5 14 -10 23 -10 15 0 15 2 2 10 -20 13 -33 13 -25 0z"/>
</g>
<g>
<path d="M3116 1877 c5 -14 102 -32 113 -22 9 10 -9 17 -53 20 -25 2 -50 6
-55 10 -6 3 -8 0 -5 -8z"/>
</g>
<g>
<path d="M448 1873 c6 -2 18 -2 25 0 6 3 1 5 -13 5 -14 0 -19 -2 -12 -5z"/>
</g>
<g>
<path d="M914 1864 c3 -9 6 -28 6 -42 1 -24 2 -25 13 -10 15 19 44 18 58 -3 6
-9 8 -1 7 28 -3 43 -14 57 -20 26 -3 -16 -4 -16 -20 0 -22 22 -52 23 -44 1z"/>
</g>
<g>
<path d="M1020 1864 c0 -8 5 -12 10 -9 6 3 10 10 10 16 0 5 -4 9 -10 9 -5 0
-10 -7 -10 -16z"/>
</g>
<g>
<path d="M3260 1876 c0 -3 5 -8 10 -11 6 -3 10 -1 10 4 0 6 -4 11 -10 11 -5 0
-10 -2 -10 -4z"/>
</g>
<g>
<path d="M97 1863 c-3 -5 -8 -27 -12 -51 l-7 -43 29 6 c46 11 53 14 53 25 0 5
-12 10 -26 10 -14 0 -23 4 -19 9 3 5 0 13 -6 16 -5 4 -8 13 -5 21 6 15 0 19
-7 7z"/>
</g>
<g>
<path d="M190 1869 c0 -9 36 -49 44 -49 3 0 6 9 6 21 0 14 -5 19 -14 16 -7 -3
-19 0 -25 6 -6 6 -11 9 -11 6z"/>
</g>
<g>
<path d="M563 1855 c-11 -29 26 -55 76 -53 25 1 40 3 33 6 -6 2 -12 9 -12 16
0 6 -12 12 -27 13 -49 1 -52 3 -47 18 4 8 1 15 -5 15 -7 0 -14 -7 -18 -15z"/>
</g>
<g>
<path d="M1410 1861 c0 -6 5 -11 10 -11 6 0 10 2 10 4 0 3 -4 8 -10 11 -5 3
-10 1 -10 -4z"/>
</g>
<g>
<path d="M2225 1860 c-9 -14 26 -62 41 -56 8 3 14 1 14 -4 0 -6 7 -10 15 -10
8 0 15 7 15 15 0 8 -5 15 -11 15 -5 0 -7 5 -4 10 3 6 1 10 -4 10 -6 0 -11 -5
-11 -12 0 -6 -8 -3 -20 7 -11 10 -17 22 -14 26 3 5 1 9 -5 9 -5 0 -13 -4 -16
-10z"/>
</g>
<g>
<path d="M2310 1862 c0 -4 9 -13 20 -20 11 -7 20 -17 20 -23 0 -13 51 -58 67
-59 6 0 15 -5 19 -12 5 -8 2 -9 -11 -4 -18 7 -18 6 0 -14 10 -11 24 -20 31
-20 7 0 16 -10 19 -22 4 -11 19 -32 32 -44 22 -20 23 -25 9 -30 -33 -13 -15
-21 32 -14 26 5 50 6 55 3 4 -2 7 1 7 8 0 6 -8 9 -20 6 -10 -3 -27 2 -37 10
-10 8 -12 12 -5 8 6 -3 12 -1 12 5 0 6 -8 10 -17 8 -11 -2 -19 6 -24 22 -5 17
-7 19 -8 7 -1 -10 -6 -15 -11 -12 -6 4 -8 10 -5 15 8 13 -14 62 -24 55 -5 -3
-19 9 -31 26 -13 17 -28 28 -36 25 -7 -3 -16 4 -20 16 -3 12 -14 29 -23 38
-18 19 -51 33 -51 22z"/>
</g>
<g>
<path d="M2590 1860 c-19 -12 -5 -26 38 -35 26 -5 32 -3 32 9 0 9 -12 21 -26
26 -30 12 -26 12 -44 0z"/>
</g>
<g>
<path d="M1295 1850 c-8 -13 -1 -24 14 -19 6 3 7 10 2 18 -6 10 -10 10 -16 1z"/>
</g>
<g>
<path d="M1700 1850 c-1 -8 -2 -20 -1 -26 1 -7 -6 -14 -14 -18 -17 -6 -11 -26
7 -26 6 0 9 3 5 6 -9 10 17 32 44 37 23 4 23 4 -3 6 -16 0 -28 8 -31 19 -4 13
-5 13 -7 2z"/>
</g>
<g>
<path d="M2692 1851 c-11 -7 -11 -9 2 -14 10 -4 16 -1 16 8 0 17 -1 17 -18 6z"/>
</g>
<g>
<path d="M1116 1841 c-3 -5 5 -8 19 -7 14 0 25 4 25 9 0 10 -38 9 -44 -2z"/>
</g>
<g>
<path d="M2105 1840 c-3 -5 -1 -10 4 -10 6 0 11 5 11 10 0 6 -2 10 -4 10 -3 0
-8 -4 -11 -10z"/>
</g>
<g>
<path d="M732 1833 c-15 -6 -6 -23 14 -23 8 0 14 7 14 15 0 15 -6 17 -28 8z"/>
</g>
<g>
<path d="M1180 1826 c0 -8 5 -18 10 -21 6 -3 10 3 10 14 0 12 -4 21 -10 21 -5
0 -10 -6 -10 -14z"/>
</g>
<g>
<path d="M1340 1836 c0 -3 5 -8 10 -11 6 -3 10 -1 10 4 0 6 -4 11 -10 11 -5 0
-10 -2 -10 -4z"/>
</g>
<g>
<path d="M2130 1831 c0 -6 5 -11 10 -11 6 0 10 2 10 4 0 3 -4 8 -10 11 -5 3
-10 1 -10 -4z"/>
</g>
<g>
<path d="M2180 1831 c0 -3 8 -18 17 -31 10 -14 16 -26 14 -28 -1 -2 0 -6 2 -8
3 -3 5 10 5 29 0 26 -5 36 -19 40 -10 3 -19 2 -19 -2z"/>
</g>
<g>
<path d="M332 1808 c2 -6 10 -14 18 -16 8 -3 10 0 5 8 -6 10 -4 12 8 7 10 -3
17 -2 17 3 0 6 -12 10 -26 10 -15 0 -24 -5 -22 -12z"/>
</g>
<g>
<path d="M415 1810 c-3 -5 -1 -10 4 -10 6 0 11 5 11 10 0 6 -2 10 -4 10 -3 0
-8 -4 -11 -10z"/>
</g>
<g>
<path d="M1456 1811 c-3 -5 6 -11 19 -14 25 -4 40 4 28 17 -9 9 -41 7 -47 -3z"/>
</g>
<g>
<path d="M1941 1806 c-1 -11 2 -17 5 -13 3 3 4 12 1 19 -3 8 -6 5 -6 -6z"/>
</g>
<g>
<path d="M2420 1810 c0 -5 2 -10 4 -10 3 0 8 5 11 10 3 6 1 10 -4 10 -6 0 -11
-4 -11 -10z"/>
</g>
<g>
<path d="M2730 1811 c0 -5 5 -13 10 -16 6 -3 10 -2 10 4 0 5 -4 13 -10 16 -5
3 -10 2 -10 -4z"/>
</g>
<g>
<path d="M2840 1808 c0 -4 24 -7 53 -6 28 1 62 -2 74 -6 12 -4 24 -2 28 4 6
10 -9 11 -117 14 -21 1 -38 -2 -38 -6z"/>
</g>
<g>
<path d="M250 1801 c0 -6 5 -11 10 -11 6 0 10 2 10 4 0 3 -4 8 -10 11 -5 3
-10 1 -10 -4z"/>
</g>
<g>
<path d="M490 1800 c0 -5 -11 -13 -26 -16 -20 -5 -24 -12 -22 -32 4 -32 24
-40 31 -12 3 12 13 20 25 20 25 0 34 -21 14 -36 -12 -8 -11 -12 4 -25 10 -7
15 -9 11 -2 -6 9 1 11 23 8 17 -2 28 0 24 6 -3 5 -10 6 -16 3 -7 -5 -9 -2 -5
8 3 9 0 21 -6 27 -6 6 -7 11 -3 11 5 0 -3 11 -18 25 -30 27 -36 30 -36 15z"/>
</g>
<g>
<path d="M1015 1800 c-3 -5 -1 -10 4 -10 6 0 11 5 11 10 0 6 -2 10 -4 10 -3 0
-8 -4 -11 -10z"/>
</g>
<g>
<path d="M1050 1795 c0 -8 5 -15 10 -15 6 0 10 7 10 15 0 8 -4 15 -10 15 -5 0
-10 -7 -10 -15z"/>
</g>
<g>
<path d="M1960 1800 c0 -5 5 -10 10 -10 6 0 10 5 10 10 0 6 -4 10 -10 10 -5 0
-10 -4 -10 -10z"/>
</g>
<g>
<path d="M2055 1793 c-14 -14 -18 -14 -26 -2 -6 10 -9 10 -9 2 0 -7 -6 -13
-14 -13 -34 0 -21 -15 14 -16 31 -1 40 3 49 22 12 28 9 30 -14 7z"/>
</g>
<g>
<path d="M2700 1795 c0 -9 -9 -15 -25 -15 -27 0 -32 -9 -13 -28 8 -8 44 -12
103 -11 49 1 80 4 68 6 -13 2 -23 9 -23 14 0 6 5 7 10 4 6 -3 10 -2 10 3 0 18
-50 33 -71 21 -23 -12 -54 -4 -44 11 3 5 1 10 -4 10 -6 0 -11 -7 -11 -15z m52
-42 c-7 -3 -16 -2 -19 1 -4 3 2 6 13 5 11 0 14 -3 6 -6z"/>
</g>
<g>
<path d="M45 1790 c3 -5 10 -10 16 -10 5 0 9 5 9 10 0 6 -7 10 -16 10 -8 0
-12 -4 -9 -10z"/>
</g>
<g>
<path d="M216 1785 c-3 -8 -4 -15 -2 -15 2 0 9 7 16 15 7 9 8 15 2 15 -5 0
-12 -7 -16 -15z"/>
</g>
<g>
<path d="M1142 1775 c3 -14 1 -25 -5 -25 -6 0 -8 -3 -5 -6 4 -3 15 -1 26 5 23
12 19 51 -5 51 -11 0 -14 -7 -11 -25z"/>
</g>
<g>
<path d="M1260 1796 c0 -11 19 -15 25 -6 3 5 -1 10 -9 10 -9 0 -16 -2 -16 -4z"/>
</g>
<g>
<path d="M1347 1794 c-4 -4 -4 -11 -1 -16 6 -10 24 -1 24 13 0 10 -14 12 -23
3z"/>
</g>
<g>
<path d="M1090 1780 c0 -5 -8 -10 -17 -11 -15 0 -15 -2 2 -9 33 -14 43 -11 38
10 -5 20 -23 28 -23 10z"/>
</g>
<g>
<path d="M1200 1786 c0 -3 5 -8 10 -11 6 -3 10 -1 10 4 0 6 -4 11 -10 11 -5 0
-10 -2 -10 -4z"/>
</g>
<g>
<path d="M1429 1788 c-1 -2 -3 -13 -4 -26 -2 -17 1 -20 11 -11 7 6 10 17 7 25
-5 13 -11 18 -14 12z"/>
</g>
<g>
<path d="M1499 1769 c-10 -19 -9 -20 13 -14 29 9 31 11 23 24 -10 17 -23 13
-36 -10z"/>
</g>
<g>
<path d="M316 1771 c-4 -7 -5 -15 -2 -18 9 -9 19 4 14 18 -4 11 -6 11 -12 0z"/>
</g>
<g>
<path d="M620 1770 c0 -5 2 -10 4 -10 3 0 8 5 11 10 3 6 1 10 -4 10 -6 0 -11
-4 -11 -10z"/>
</g>
<g>
<path d="M1650 1774 c0 -24 62 -93 84 -94 5 0 18 -8 28 -17 13 -11 22 -14 26
-7 4 6 14 14 22 17 12 4 12 6 -2 6 -9 1 -18 7 -21 14 -2 6 -3 4 -2 -5 4 -22
-13 -24 -21 -3 -4 8 -13 15 -21 15 -8 0 -11 5 -8 10 4 6 10 8 15 5 5 -3 4 8
-1 25 -14 39 -27 46 -43 24 -13 -17 -15 -17 -30 -1 -18 18 -26 21 -26 11z m80
-48 c0 -2 -7 -6 -15 -10 -8 -3 -15 -1 -15 4 0 6 7 10 15 10 8 0 15 -2 15 -4z"/>
</g>
<g>
<path d="M2260 1771 c0 -6 5 -11 10 -11 6 0 10 2 10 4 0 3 -4 8 -10 11 -5 3
-10 1 -10 -4z"/>
</g>
<g>
<path d="M2510 1771 c0 -6 4 -12 8 -15 5 -3 9 1 9 9 0 8 -4 15 -9 15 -4 0 -8
-4 -8 -9z"/>
</g>
<g>
<path d="M2605 1770 c3 -5 10 -10 16 -10 5 0 9 5 9 10 0 6 -7 10 -16 10 -8 0
-12 -4 -9 -10z"/>
</g>
<g>
<path d="M184 1754 c3 -9 6 -18 6 -20 0 -2 7 -4 15 -4 8 0 12 -6 9 -14 -6 -17
11 -30 27 -20 8 4 8 9 0 17 -23 23 -10 26 24 7 20 -11 39 -20 43 -20 4 0 -1 5
-11 11 -9 6 -14 15 -11 21 5 7 1 9 -9 5 -10 -4 -20 0 -25 10 -5 9 -24 18 -42
20 -26 2 -31 0 -26 -13z"/>
</g>
<g>
<path d="M685 1760 c-3 -5 -1 -10 4 -10 6 0 11 5 11 10 0 6 -2 10 -4 10 -3 0
-8 -4 -11 -10z"/>
</g>
<g>
<path d="M888 1751 c3 -9 10 -19 16 -23 6 -4 4 -9 -7 -14 -21 -8 -22 -20 -1
-28 10 -4 14 -1 12 6 -3 7 1 18 8 25 18 19 10 46 -13 48 -15 1 -19 -3 -15 -14z"/>
</g>
<g>
<path d="M940 1760 c0 -5 2 -10 4 -10 3 0 8 5 11 10 3 6 1 10 -4 10 -6 0 -11
-4 -11 -10z"/>
</g>
<g>
<path d="M1257 1764 c-4 -4 -7 -12 -7 -18 0 -6 4 -5 9 3 8 13 12 13 27 0 15
-12 17 -12 12 1 -5 17 -30 25 -41 14z"/>
</g>
<g>
<path d="M2070 1763 c0 -4 16 -13 35 -19 31 -10 36 -9 33 4 -3 16 -68 30 -68
15z"/>
</g>
<g>
<path d="M53 1754 c3 -3 12 -4 19 -1 8 3 5 6 -6 6 -11 1 -17 -2 -13 -5z"/>
</g>
<g>
<path d="M100 1750 c0 -5 4 -10 9 -10 6 0 13 5 16 10 3 6 -1 10 -9 10 -9 0
-16 -4 -16 -10z"/>
</g>
<g>
<path d="M340 1750 c-13 -8 -13 -11 3 -27 12 -12 17 -13 17 -4 0 11 3 11 15 1
8 -7 12 -16 10 -21 -3 -4 3 -17 14 -28 24 -24 38 -9 16 16 -9 10 -26 30 -38
45 -16 21 -26 26 -37 18z"/>
</g>
<g>
<path d="M2570 1743 c0 -10 9 -24 21 -31 11 -7 27 -29 35 -48 9 -22 21 -34 34
-34 11 0 20 5 20 10 0 6 -6 10 -14 10 -13 0 -46 56 -46 80 0 7 -7 10 -15 6 -8
-3 -14 0 -12 6 1 6 -4 13 -10 15 -8 3 -13 -3 -13 -14z"/>
</g>
<g>
<path d="M17 1744 c-9 -10 4 -34 19 -34 8 0 14 4 14 9 0 12 -26 32 -33 25z"/>
</g>
<g>
<path d="M642 1742 c-9 -6 -6 -14 13 -30 16 -14 27 -18 31 -10 4 6 0 16 -9 23
-9 7 -14 15 -10 18 9 10 -9 8 -25 -1z"/>
</g>
<g>
<path d="M995 1739 c-4 -6 -5 -12 -2 -15 2 -3 7 2 10 11 7 17 1 20 -8 4z"/>
</g>
<g>
<path d="M1596 1735 c-9 -26 -7 -32 5 -12 6 10 9 21 6 23 -2 3 -7 -2 -11 -11z"/>
</g>
<g>
<path d="M1980 1731 c-14 -26 -13 -38 2 -23 11 11 20 42 12 42 -2 0 -8 -9 -14
-19z"/>
</g>
<g>
<path d="M2320 1740 c8 -5 20 -10 25 -10 6 0 3 5 -5 10 -8 5 -19 10 -25 10 -5
0 -3 -5 5 -10z"/>
</g>
<g>
<path d="M155 1730 c-3 -5 -1 -10 4 -10 6 0 11 5 11 10 0 6 -2 10 -4 10 -3 0
-8 -4 -11 -10z"/>
</g>
<g>
<path d="M940 1718 c0 -16 -5 -28 -11 -28 -7 0 -5 -9 5 -24 11 -18 12 -26 3
-29 -6 -2 -9 -8 -5 -12 4 -4 14 -2 22 4 12 10 17 8 26 -8 6 -12 7 -21 1 -21
-5 0 -11 5 -13 11 -2 6 -9 0 -16 -15 -10 -21 -9 -26 3 -26 9 0 12 -6 8 -15 -4
-12 3 -11 31 6 29 17 34 24 25 35 -9 11 -8 14 5 14 9 0 16 -3 16 -8 0 -8 60
-31 105 -39 l30 -5 -22 21 c-12 11 -31 21 -43 21 -12 0 -20 7 -21 18 -1 9 -2
24 -3 32 0 9 -10 14 -23 13 -13 -2 -23 2 -23 7 0 6 -4 10 -10 10 -5 0 -10 -9
-10 -20 0 -12 5 -17 13 -14 18 6 52 -20 43 -34 -10 -16 -26 -15 -22 1 1 6 1 9
-1 5 -3 -4 -15 -2 -28 4 -20 9 -23 16 -19 42 4 28 3 29 -6 8 -8 -19 -13 -21
-29 -13 -11 7 -17 19 -16 34 2 13 -1 30 -6 38 -6 10 -9 6 -9 -13z"/>
</g>
<g>
<path d="M1021 1721 c-9 -16 -8 -18 8 -14 12 3 17 11 14 19 -7 18 -10 18 -22
-5z"/>
</g>
<g>
<path d="M1473 1717 c-14 -29 -9 -37 18 -30 22 6 24 13 6 37 -12 17 -14 16
-24 -7z"/>
</g>
<g>
<path d="M1537 1720 c-3 -11 -1 -20 4 -20 5 0 9 9 9 20 0 11 -2 20 -4 20 -2 0
-6 -9 -9 -20z"/>
</g>
<g>
<path d="M86 1708 c9 -31 11 -33 30 -18 13 12 17 11 25 -1 7 -12 9 -12 9 2 0
22 -20 39 -48 39 -20 0 -22 -4 -16 -22z"/>
</g>
<g>
<path d="M1320 1714 c0 -8 -5 -12 -10 -9 -13 8 -8 -18 5 -27 6 -4 24 -8 40 -8
17 0 38 -7 48 -14 18 -14 24 -32 7 -21 -5 3 -10 1 -10 -4 0 -15 25 -14 38 2 5
6 9 23 7 37 -1 14 -3 30 -4 37 -2 18 -38 26 -61 13 -11 -6 -19 -14 -17 -18 1
-4 -2 -9 -8 -12 -5 -3 -11 5 -13 18 -4 25 -22 31 -22 6z"/>
</g>
<g>
<path d="M2500 1726 c0 -3 5 -8 10 -11 6 -3 10 -1 10 4 0 6 -4 11 -10 11 -5 0
-10 -2 -10 -4z"/>
</g>
<g>
<path d="M777 1713 c-9 -2 -15 -9 -12 -14 9 -14 22 -11 29 6 3 8 4 14 3 14 -1
-1 -10 -3 -20 -6z"/>
</g>
<g>
<path d="M1128 1708 c5 -5 16 -8 23 -6 8 3 3 7 -10 11 -17 4 -21 3 -13 -5z"/>
</g>
<g>
<path d="M1179 1709 c-11 -7 -9 -9 7 -9 11 0 26 -6 33 -12 10 -11 11 -10 6 4
-8 21 -28 29 -46 17z"/>
</g>
<g>
<path d="M1630 1711 c0 -6 5 -11 10 -11 6 0 10 2 10 4 0 3 -4 8 -10 11 -5 3
-10 1 -10 -4z"/>
</g>
<g>
<path d="M2270 1707 c-25 -10 -25 -10 10 -17 42 -7 49 -4 29 14 -11 11 -20 12
-39 3z"/>
</g>
<g>
<path d="M2 1679 c0 -16 4 -29 9 -29 5 0 9 -8 9 -17 0 -13 3 -14 12 -5 9 9 8
16 -5 30 -12 13 -14 21 -6 29 7 7 6 12 -4 16 -10 4 -14 -3 -15 -24z"/>
</g>
<g>
<path d="M467 1703 c-7 -10 28 -53 42 -53 17 0 13 13 -13 38 -14 12 -27 19
-29 15z"/>
</g>
<g>
<path d="M2383 1702 c-7 -4 -9 -13 -4 -21 6 -9 10 -7 14 8 3 12 4 21 4 21 -1
0 -7 -4 -14 -8z"/>
</g>
<g>
<path d="M2652 1703 c-6 -2 -10 -9 -6 -14 8 -14 21 -11 28 6 6 15 1 17 -22 8z"/>
</g>
<g>
<path d="M1600 1685 c-8 -9 -9 -19 -4 -24 14 -14 84 -31 84 -20 0 5 -11 11
-25 15 -14 3 -22 10 -19 15 3 5 10 7 15 4 5 -4 9 -1 9 4 0 6 -4 11 -9 11 -5 0
-16 2 -24 5 -7 3 -20 -1 -27 -10z"/>
</g>
<g>
<path d="M2002 1685 c-21 -11 -21 -13 -6 -19 11 -4 21 -1 26 8 5 9 16 13 26
10 14 -5 15 -4 2 5 -18 13 -18 13 -48 -4z"/>
</g>
<g>
<path d="M2544 1691 c9 -14 46 -20 46 -7 0 6 -11 13 -26 14 -14 1 -23 -2 -20
-7z"/>
</g>
<g>
<path d="M2155 1680 c-3 -5 3 -10 15 -10 12 0 18 5 15 10 -3 6 -10 10 -15 10
-5 0 -12 -4 -15 -10z"/>
</g>
<g>
<path d="M540 1666 c0 -9 5 -16 10 -16 6 0 10 4 10 9 0 6 -4 13 -10 16 -5 3
-10 -1 -10 -9z"/>
</g>
<g>
<path d="M650 1663 c0 -11 -3 -14 -8 -7 -4 5 -16 10 -28 10 -15 0 -20 -5 -16
-18 2 -10 13 -18 23 -18 22 0 68 -19 89 -36 10 -9 21 -10 30 -4 12 8 12 10 -4
10 -11 0 -16 5 -13 14 4 9 -2 12 -17 11 -36 -4 -50 9 -37 34 10 17 9 21 -4 21
-8 0 -15 -8 -15 -17z"/>
</g>
<g>
<path d="M690 1665 c-7 -9 -10 -18 -7 -21 3 -3 10 4 17 15 13 25 8 27 -10 6z"/>
</g>
<g>
<path d="M795 1670 c-8 -12 12 -40 28 -40 7 0 7 4 -1 12 -18 18 -14 30 7 23
11 -3 22 -1 26 5 4 6 -6 10 -24 10 -16 0 -33 -5 -36 -10z"/>
</g>
<g>
<path d="M2330 1671 c0 -6 5 -11 10 -11 6 0 10 2 10 4 0 3 -4 8 -10 11 -5 3
-10 1 -10 -4z"/>
</g>
<g>
<path d="M145 1660 c-4 -6 -12 -7 -18 -3 -7 4 -5 -3 3 -16 17 -25 33 -25 35 2
2 21 -11 32 -20 17z"/>
</g>
<g>
<path d="M210 1660 c-12 -8 -10 -10 8 -10 13 0 20 4 17 10 -7 12 -6 12 -25 0z"/>
</g>
<g>
<path d="M330 1663 c0 -4 5 -15 10 -23 8 -13 10 -13 10 2 0 9 -4 20 -10 23 -5
3 -10 3 -10 -2z"/>
</g>
<g>
<path d="M1198 1650 c-10 -11 -14 -21 -9 -24 7 -5 41 28 41 39 0 10 -16 3 -32
-15z"/>
</g>
<g>
<path d="M1485 1660 c-8 -13 -1 -24 14 -19 6 3 7 10 2 18 -6 10 -10 10 -16 1z"/>
</g>
<g>
<path d="M2117 1659 c7 -7 15 -10 18 -7 3 3 -2 9 -12 12 -14 6 -15 5 -6 -5z"/>
</g>
<g>
<path d="M2208 1656 c-25 -18 -24 -40 1 -27 14 8 23 5 39 -14 12 -14 29 -25
37 -25 8 0 18 -1 22 -2 8 -4 14 33 6 45 -3 4 -11 0 -19 -10 -9 -12 -13 -13
-14 -5 0 7 -4 10 -10 7 -5 -3 -10 -1 -10 5 0 10 -24 40 -32 40 -2 0 -11 -7
-20 -14z"/>
</g>
<g>
<path d="M2410 1660 c0 -5 5 -10 10 -10 6 0 10 5 10 10 0 6 -4 10 -10 10 -5 0
-10 -4 -10 -10z"/>
</g>
<g>
<path d="M1274 1645 c22 -17 36 -19 36 -6 0 10 -24 21 -43 21 -7 0 -3 -7 7
-15z"/>
</g>
<g>
<path d="M1312 1628 c-6 -18 -9 -34 -7 -37 3 -2 5 1 5 8 0 7 15 0 35 -15 23
-18 35 -22 35 -13 0 8 -9 20 -20 27 -11 7 -20 21 -20 31 0 33 -15 32 -28 -1z"/>
</g>
<g>
<path d="M2156 1645 c4 -8 10 -12 15 -9 11 6 2 24 -11 24 -5 0 -7 -7 -4 -15z"/>
</g>
<g>
<path d="M2440 1651 c0 -10 30 -24 37 -17 3 2 -5 9 -16 16 -12 6 -21 7 -21 1z"/>
</g>
<g>
<path d="M389 1648 c-9 -31 -7 -47 5 -42 8 3 12 14 9 25 -5 16 -11 25 -14 17z"/>
</g>
<g>
<path d="M460 1635 c0 -9 11 -20 25 -25 14 -5 25 -14 25 -19 0 -6 -7 -7 -17
-4 -11 4 -14 3 -9 -5 4 -7 18 -12 32 -12 21 0 24 4 19 20 -4 13 -2 20 7 20 9
0 9 3 -2 10 -8 5 -23 7 -33 4 -10 -3 -19 1 -23 10 -8 20 -24 21 -24 1z"/>
</g>
<g>
<path d="M1360 1640 c0 -5 5 -10 10 -10 6 0 10 5 10 10 0 6 -4 10 -10 10 -5 0
-10 -4 -10 -10z"/>
</g>
<g>
<path d="M1697 1637 c-3 -8 1 -14 9 -14 16 0 19 13 5 21 -5 3 -11 0 -14 -7z"/>
</g>
<g>
<path d="M1797 1643 c-4 -3 -1 -13 5 -21 10 -11 8 -17 -7 -29 -20 -14 -20 -15
0 -11 13 2 23 -5 30 -19 5 -13 13 -23 17 -23 13 0 19 39 9 57 -13 26 -47 54
-54 46z"/>
</g>
<g>
<path d="M1959 1645 c-4 -16 -1 -42 5 -57 7 -15 10 -16 23 -3 16 17 43 20 43
5 0 -5 -4 -10 -10 -10 -5 0 -7 -7 -4 -15 5 -12 10 -13 20 -4 14 11 34 5 34
-11 0 -5 -7 -6 -17 -3 -10 4 -14 2 -10 -4 10 -16 84 -15 90 1 4 11 -1 14 -20
13 -18 -1 -26 3 -29 16 -4 27 -14 34 -24 17 -9 -14 -14 -7 -11 13 0 4 -5 7
-11 7 -7 0 -24 9 -38 20 -25 19 -39 25 -41 15z"/>
</g>
<g>
<path d="M2070 1642 c0 -6 10 -18 23 -27 12 -8 20 -19 17 -23 -3 -4 5 -8 18
-10 18 -3 22 1 22 21 0 18 -5 25 -17 23 -10 -2 -28 4 -40 12 -14 8 -23 10 -23
4z"/>
</g>
<g>
<path d="M2340 1620 c-15 -36 -5 -52 36 -56 14 -2 34 -10 43 -18 19 -18 71
-22 71 -6 0 10 -19 14 -52 12 -9 -1 -22 5 -28 13 -10 13 -8 15 14 15 15 0 37
-5 48 -11 15 -8 23 -8 32 2 8 9 8 10 -1 5 -7 -4 -13 -2 -13 3 0 6 -9 11 -20
11 -11 0 -20 5 -20 10 0 6 -7 10 -16 10 -9 0 -12 5 -8 12 5 7 0 9 -14 6 -13
-4 -20 -2 -19 5 1 6 -7 13 -19 15 -16 2 -24 -5 -34 -28z"/>
</g>
<g>
<path d="M1105 1631 c-3 -5 -1 -12 5 -16 5 -3 10 1 10 9 0 18 -6 21 -15 7z"/>
</g>
<g>
<path d="M1510 1620 c-10 -7 -11 -10 -2 -10 6 0 12 -7 12 -16 0 -10 6 -14 15
-10 8 3 27 -2 43 -11 25 -14 32 -14 59 -3 17 8 29 19 26 26 -3 10 -9 9 -21 -2
-21 -17 -37 -18 -37 -1 0 6 -15 13 -35 15 -19 2 -37 8 -40 12 -3 5 -12 5 -20
0z"/>
</g>
<g>
<path d="M860 1609 c0 -5 9 -9 20 -9 11 0 20 2 20 4 0 2 -9 6 -20 9 -11 3 -20
1 -20 -4z"/>
</g>
<g>
<path d="M1227 1613 c-4 -10 -1 -41 8 -77 6 -21 5 -27 -4 -22 -6 4 -11 13 -11
21 0 7 -7 15 -15 19 -21 8 -19 -7 5 -37 25 -31 25 -37 1 -37 -11 0 -23 -4 -26
-10 -3 -6 1 -7 9 -4 9 3 16 1 16 -4 0 -6 8 -10 18 -10 9 1 32 -2 51 -6 26 -6
32 -5 29 5 -3 8 -11 14 -20 14 -8 0 -22 7 -30 15 -12 12 -12 18 -3 27 7 7 14
10 16 8 2 -1 10 3 16 10 8 9 9 16 3 20 -6 3 -10 1 -10 -4 0 -6 -7 -11 -15 -11
-18 0 -20 20 -2 21 6 0 2 4 -10 9 -22 9 -23 40 -1 40 5 0 6 5 3 10 -7 12 -22
13 -28 3z"/>
</g>
<g>
<path d="M1729 1616 c-8 -34 -2 -67 13 -72 9 -2 19 -11 22 -19 3 -8 12 -15 21
-15 8 0 15 -5 15 -12 0 -6 3 -9 6 -6 10 10 -15 46 -36 53 -11 4 -18 11 -15 16
4 5 0 9 -7 9 -8 0 -9 3 -3 8 15 10 13 34 -2 40 -7 2 -14 1 -14 -2z"/>
</g>
<g>
<path d="M280 1595 c0 -8 2 -15 4 -15 2 0 6 7 10 15 3 8 1 15 -4 15 -6 0 -10
-7 -10 -15z"/>
</g>
<g>
<path d="M315 1597 c-5 -7 -12 -21 -13 -31 -3 -17 -2 -18 12 -7 9 8 14 16 11
19 -3 3 0 11 6 19 6 7 8 13 3 13 -5 -1 -13 -6 -19 -13z"/>
</g>
<g>
<path d="M585 1600 c-3 -6 1 -7 9 -4 18 7 21 14 7 14 -6 0 -13 -4 -16 -10z"/>
</g>
<g>
<path d="M790 1601 c0 -6 4 -13 10 -16 6 -3 7 1 4 9 -7 18 -14 21 -14 7z"/>
</g>
<g>
<path d="M1167 1603 c-8 -8 25 -33 35 -27 5 3 8 12 8 20 0 14 -31 20 -43 7z"/>
</g>
<g>
<path d="M2170 1590 c0 -11 -5 -20 -11 -20 -5 0 -7 -4 -4 -10 3 -5 11 -10 16
-10 6 0 7 5 4 10 -3 6 -1 10 4 10 6 0 11 9 11 20 0 11 -4 20 -10 20 -5 0 -10
-9 -10 -20z"/>
</g>
<g>
<path d="M70 1580 c0 -13 5 -20 13 -17 16 5 16 29 0 35 -8 2 -13 -5 -13 -18z"/>
</g>
<g>
<path d="M222 1588 c-17 -17 -15 -33 2 -19 11 9 15 9 18 -1 3 -8 6 -9 11 -1
11 17 -17 35 -31 21z"/>
</g>
<g>
<path d="M1464 1584 c3 -9 6 -20 6 -25 0 -6 5 -7 12 -3 7 5 9 2 5 -9 -4 -11
-2 -14 9 -10 7 3 14 9 14 14 0 16 17 10 43 -16 14 -14 28 -22 31 -16 10 15 -5
40 -20 34 -8 -3 -14 0 -14 6 0 6 -7 11 -16 11 -8 0 -22 7 -30 15 -21 20 -48
20 -40 -1z"/>
</g>
<g>
<path d="M1687 1579 c7 -7 15 -10 18 -7 3 3 -2 9 -12 12 -14 6 -15 5 -6 -5z"/>
</g>
<g>
<path d="M1891 1576 c-1 -11 2 -17 5 -13 3 3 4 12 1 19 -3 8 -6 5 -6 -6z"/>
</g>
<g>
<path d="M574 1564 c3 -9 6 -17 6 -19 0 -2 16 -13 36 -25 38 -24 55 -22 29 4
-9 9 -14 20 -10 25 6 11 -26 31 -50 31 -12 0 -15 -5 -11 -16z m44 -12 c2 -7
-3 -12 -12 -12 -9 0 -16 7 -16 16 0 17 22 14 28 -4z"/>
</g>
<g>
<path d="M893 1572 c-6 -4 -10 -11 -10 -17 1 -5 -11 -11 -26 -13 -24 -3 -28
-7 -25 -30 2 -21 11 -29 36 -37 17 -5 32 -13 32 -17 0 -11 132 -10 149 1 11 7
8 11 -10 17 -13 4 -28 7 -32 6 -5 -2 -24 2 -43 7 -22 6 -34 6 -34 -1 0 -5 -6
-8 -12 -5 -7 2 -11 12 -10 22 3 17 2 17 -13 5 -14 -12 -18 -12 -25 1 -7 10 -4
15 13 19 13 3 23 14 25 28 4 24 2 25 -15 14z"/>
</g>
<g>
<path d="M7 1563 c-4 -3 -7 -18 -7 -32 0 -19 3 -22 12 -13 6 6 12 21 13 32 2
20 -6 26 -18 13z"/>
</g>
<g>
<path d="M276 1553 c-6 -14 -5 -15 5 -6 7 7 10 15 7 18 -3 3 -9 -2 -12 -12z"/>
</g>
<g>
<path d="M385 1560 c-3 -5 0 -10 7 -10 8 0 21 -9 31 -20 9 -11 22 -20 29 -19
10 0 10 2 1 6 -7 2 -13 16 -13 29 0 13 -5 24 -11 24 -5 0 -7 -4 -4 -10 3 -5 1
-10 -4 -10 -6 0 -11 5 -11 10 0 6 -4 10 -9 10 -6 0 -13 -4 -16 -10z"/>
</g>
<g>
<path d="M660 1555 c-6 -7 -1 -16 11 -23 11 -7 19 -8 19 -2 0 5 -4 10 -10 10
-5 0 -10 5 -10 11 0 7 9 5 24 -5 14 -8 26 -12 28 -7 2 5 13 12 26 15 15 5 24
3 28 -8 7 -17 34 -22 34 -6 0 6 -7 10 -15 10 -8 0 -15 4 -15 8 0 12 -110 9
-120 -3z"/>
</g>
<g>
<path d="M1800 1555 c0 -8 4 -15 10 -15 5 0 7 7 4 15 -4 8 -8 15 -10 15 -2 0
-4 -7 -4 -15z"/>
</g>
<g>
<path d="M1910 1561 c0 -7 9 -15 20 -18 23 -6 25 -22 7 -47 -10 -14 -18 -15
-38 -7 -20 7 -26 6 -26 -5 0 -10 15 -13 59 -11 49 2 56 4 41 14 -24 18 -8 28
22 15 26 -12 59 -6 49 9 -3 5 -14 9 -25 9 -16 0 -19 5 -14 20 8 25 -3 26 -21
3 -8 -11 -13 -13 -14 -5 0 6 -8 12 -18 12 -10 0 -23 5 -30 12 -9 9 -12 9 -12
-1z"/>
</g>
<g>
<path d="M2326 1555 c18 -14 18 -14 -6 -15 -14 0 -31 4 -39 9 -9 6 -19 5 -26
-2 -24 -22 -7 -25 94 -18 11 1 10 6 -4 21 -10 11 -23 20 -28 20 -6 0 -2 -7 9
-15z"/>
</g>
<g>
<path d="M520 1550 c0 -5 4 -10 9 -10 6 0 13 5 16 10 3 6 -1 10 -9 10 -9 0
-16 -4 -16 -10z"/>
</g>
<g>
<path d="M924 1539 c0 -24 21 -32 23 -9 1 10 -4 20 -11 23 -6 3 -12 -3 -12
-14z"/>
</g>
<g>
<path d="M1648 1533 c-11 -14 -11 -15 2 -11 8 3 23 1 32 -4 13 -6 16 -5 12 6
-9 22 -31 27 -46 9z"/>
</g>
<g>
<path d="M2500 1540 c0 -6 16 -10 35 -10 45 0 45 14 0 17 -19 2 -35 -2 -35 -7z"/>
</g>
<g>
<path d="M217 1519 c6 -22 23 -26 23 -5 0 8 -6 16 -14 19 -10 4 -12 0 -9 -14z"/>
</g>
<g>
<path d="M290 1530 c0 -5 2 -10 4 -10 3 0 8 5 11 10 3 6 1 10 -4 10 -6 0 -11
-4 -11 -10z"/>
</g>
<g>
<path d="M470 1530 c0 -5 5 -10 10 -10 6 0 10 5 10 10 0 6 -4 10 -10 10 -5 0
-10 -4 -10 -10z"/>
</g>
<g>
<path d="M545 1530 c-3 -5 -2 -10 4 -10 5 0 13 5 16 10 3 6 2 10 -4 10 -5 0
-13 -4 -16 -10z"/>
</g>
<g>
<path d="M1901 1533 c-1 -8 -8 -10 -18 -6 -16 6 -16 5 -4 -11 16 -19 37 -7 28
16 -4 9 -6 9 -6 1z"/>
</g>
<g>
<path d="M3195 1530 c-3 -5 -1 -10 4 -10 6 0 11 5 11 10 0 6 -2 10 -4 10 -3 0
-8 -4 -11 -10z"/>
</g>
<g>
<path d="M94 1506 c-10 -21 -8 -25 12 -35 21 -9 24 -8 24 8 0 24 -10 51 -19
51 -3 0 -11 -11 -17 -24z"/>
</g>
<g>
<path d="M357 1513 c-11 -11 -17 -13 -17 -5 0 8 -9 4 -22 -8 -16 -15 -33 -20
-55 -18 -26 3 -33 0 -33 -13 0 -10 -7 -24 -15 -33 -20 -19 -19 -21 9 -24 16
-1 26 6 35 24 6 15 16 22 23 18 6 -4 17 1 24 10 11 15 16 16 36 5 13 -7 28
-12 33 -10 6 2 18 5 29 7 39 7 29 16 -11 9 -47 -7 -51 -1 -27 33 18 26 15 28
-9 5z"/>
</g>
<g>
<path d="M1417 1513 c11 -29 46 -46 41 -21 -3 14 -28 37 -40 38 -4 0 -4 -8 -1
-17z"/>
</g>
<g>
<path d="M1820 1520 c0 -5 5 -10 10 -10 6 0 10 5 10 10 0 6 -4 10 -10 10 -5 0
-10 -4 -10 -10z"/>
</g>
<g>
<path d="M777 1501 c-3 -14 -1 -18 9 -14 16 6 18 19 5 27 -5 3 -11 -3 -14 -13z"/>
</g>
<g>
<path d="M1308 1512 c-33 -7 -19 -30 23 -37 22 -4 43 -4 46 -1 4 3 -7 6 -23 6
-19 0 -25 3 -16 9 18 11 -6 29 -30 23z"/>
</g>
<g>
<path d="M1600 1512 c0 -5 7 -13 16 -16 10 -4 14 -1 12 6 -5 15 -28 23 -28 10z"/>
</g>
<g>
<path d="M1715 1510 c8 -12 -16 -50 -32 -50 -19 0 -16 17 5 29 14 9 11 10 -16
9 -19 -1 -36 -6 -38 -10 -3 -4 -16 -3 -31 3 -14 5 -28 7 -31 4 -3 -3 0 -5 6
-5 7 0 12 -5 12 -11 0 -6 -7 -9 -14 -6 -10 4 -13 1 -9 -9 6 -17 14 -18 48 -2
23 10 29 9 55 -20 22 -25 28 -39 24 -60 -7 -43 5 -53 49 -38 20 7 34 16 30 20
-4 4 0 4 10 0 10 -4 19 0 23 9 3 8 23 18 45 21 22 4 37 11 34 16 -3 6 -1 10 4
10 6 0 11 5 11 12 0 6 -11 1 -24 -11 -15 -14 -26 -19 -31 -12 -3 6 -1 11 5 11
6 0 8 5 4 11 -4 8 -9 7 -15 -2 -4 -7 -5 -17 -3 -21 3 -4 0 -8 -5 -8 -6 0 -11
5 -11 10 0 6 -4 10 -10 10 -5 0 -10 -7 -10 -16 0 -14 -3 -14 -16 -4 -13 11
-16 10 -21 -8 -6 -23 -12 -26 -37 -16 -20 8 -21 43 -1 50 8 4 15 17 15 31 0
13 -4 21 -10 18 -6 -3 -7 1 -4 10 4 9 13 14 20 11 8 -3 14 -1 14 3 0 9 -24 21
-41 21 -6 0 -8 -4 -4 -10z"/>
</g>
<g>
<path d="M43 1503 c-7 -2 -13 -11 -13 -19 0 -16 26 -19 35 -4 3 6 1 10 -5 10
-6 0 -8 5 -5 10 7 11 6 11 -12 3z"/>
</g>
<g>
<path d="M546 1502 c-2 -4 4 -13 14 -20 16 -10 18 -8 17 8 -1 20 -21 27 -31
12z"/>
</g>
<g>
<path d="M1091 1489 c-17 -16 -20 -24 -10 -35 6 -8 7 -14 2 -14 -17 0 -9 -38
10 -53 18 -12 18 -14 1 -28 -16 -13 -17 -12 -11 5 6 15 4 17 -10 11 -26 -11
-66 -7 -74 7 -6 9 -10 8 -15 -5 -3 -9 -10 -17 -15 -17 -5 0 -4 9 3 20 7 11 19
18 25 15 19 -7 43 5 43 22 0 10 -7 14 -20 10 -10 -3 -21 0 -24 7 -3 8 -7 7
-14 -3 -6 -9 -24 -12 -51 -9 -28 2 -41 0 -41 -9 0 -16 -80 19 -97 43 -7 10
-14 15 -14 11 -1 -4 -2 -11 -3 -16 -3 -21 -17 -22 -45 -1 -17 12 -31 17 -31
12 0 -6 7 -12 15 -16 8 -3 15 -10 15 -16 0 -7 -6 -8 -19 -1 -16 9 -18 6 -17
-18 1 -16 4 -27 8 -25 4 2 9 0 13 -6 3 -6 -4 -10 -16 -10 -42 0 -9 -13 43 -17
29 -2 55 -8 56 -14 2 -5 10 -9 18 -9 9 0 13 -4 10 -9 -3 -4 6 -6 21 -3 25 5
25 6 8 18 -23 17 -14 28 15 19 11 -4 19 -13 18 -22 -2 -8 5 -20 14 -27 14 -8
21 -7 35 7 16 16 16 17 0 17 -9 0 -17 5 -17 10 0 6 12 10 26 10 20 0 25 -4 20
-17 -4 -9 -1 -20 6 -25 18 -11 30 -10 23 2 -3 6 -1 10 4 10 6 0 11 7 11 15 0
22 31 18 37 -5 3 -12 14 -20 27 -20 17 0 18 -2 6 -10 -12 -8 -11 -10 7 -10 27
0 38 16 17 24 -20 8 -9 26 16 26 12 0 20 -8 22 -22 3 -23 48 -40 48 -19 0 6
-4 11 -10 11 -5 0 -7 7 -4 15 9 22 35 18 41 -5 6 -24 20 -25 42 -6 21 19 46
21 101 11 36 -6 41 -9 25 -16 -12 -4 -14 -8 -5 -8 8 0 23 4 33 8 15 6 12 9
-17 21 -20 7 -36 17 -36 22 0 11 17 10 25 -1 3 -6 18 -6 37 0 17 5 34 6 37 4
2 -3 0 -5 -6 -5 -20 0 -9 -45 12 -48 16 -2 17 -1 6 7 -23 15 14 44 55 43 30
-1 33 1 25 15 -5 11 -5 23 2 34 9 15 13 15 36 -8 14 -13 35 -29 46 -35 20 -11
20 -11 1 11 -21 23 -16 27 15 10 20 -10 20 -10 4 15 -20 31 -46 40 -89 32 -24
-5 -37 -1 -54 14 -12 12 -27 18 -32 15 -6 -3 -10 -1 -10 4 0 16 -26 13 -40 -4
-8 -9 -9 -15 -2 -15 6 0 14 5 17 10 9 14 54 -22 48 -37 -3 -7 0 -13 6 -13 6 0
11 6 11 13 0 8 3 8 9 -2 10 -15 2 -48 -8 -34 -3 4 -19 9 -36 10 -22 2 -26 0
-15 -7 13 -8 12 -10 -4 -10 -14 0 -17 6 -14 25 6 27 -9 35 -18 10 -5 -12 -19
-14 -66 -11 -58 5 -60 4 -43 -14 10 -11 12 -20 6 -24 -5 -4 -13 -1 -16 4 -5 7
-12 5 -21 -7 -13 -17 -14 -17 -20 5 -3 12 -13 22 -20 22 -8 0 -14 9 -14 20 0
13 -7 20 -20 20 -11 0 -20 5 -20 11 0 5 -4 8 -9 5 -4 -3 -6 -16 -4 -29 4 -20
0 -25 -21 -29 -22 -4 -26 -2 -21 13 4 11 0 19 -10 21 -12 2 -9 11 17 43 18 21
28 36 22 32 -7 -4 -14 0 -18 8 -8 21 -28 19 -55 -6z m29 -25 c0 -2 -7 -4 -16
-4 -8 0 -12 5 -9 10 6 9 25 5 25 -6z m-260 -79 c0 -8 -4 -15 -10 -15 -5 0 -7
7 -4 15 4 8 8 15 10 15 2 0 4 -7 4 -15z m350 5 c0 -5 -4 -10 -10 -10 -5 0 -10
5 -10 10 0 6 5 10 10 10 6 0 10 -4 10 -10z m-45 -30 c-3 -5 -11 -10 -16 -10
-6 0 -7 5 -4 10 3 6 11 10 16 10 6 0 7 -4 4 -10z"/>
</g>
<g>
<path d="M157 1493 c-3 -5 1 -13 8 -20 10 -9 14 -8 18 8 5 18 -16 28 -26 12z"/>
</g>
<g>
<path d="M480 1484 c0 -7 27 -34 34 -34 13 0 5 28 -10 34 -19 7 -24 8 -24 0z"/>
</g>
<g>
<path d="M740 1475 c14 -17 20 -19 20 -6 0 5 -7 12 -16 15 -14 5 -15 4 -4 -9z"/>
</g>
<g>
<path d="M1513 1474 c30 -16 44 -14 32 5 -3 6 -18 11 -33 11 l-27 -1 28 -15z"/>
</g>
<g>
<path d="M1840 1481 c0 -6 5 -13 10 -16 6 -3 10 1 10 9 0 9 -4 16 -10 16 -5 0
-10 -4 -10 -9z"/>
</g>
<g>
<path d="M600 1468 c0 -9 5 -20 10 -23 6 -4 8 -11 4 -16 -3 -6 -15 -4 -30 5
-28 19 -61 21 -66 4 -3 -9 -10 -8 -23 5 -11 11 -24 15 -34 11 -9 -4 -30 -8
-48 -8 -53 -2 -41 -21 17 -26 30 -3 54 -8 53 -12 -2 -5 -3 -15 -3 -23 0 -11
-12 -15 -48 -15 -44 0 -86 -17 -104 -44 -13 -18 -9 -24 23 -35 26 -9 30 -8 25
4 -4 10 1 15 15 15 11 0 27 7 35 15 11 11 21 12 40 5 19 -8 25 -7 22 2 -3 7
-15 16 -29 20 -18 5 -12 6 19 5 24 0 46 -5 48 -9 3 -4 -1 -8 -9 -8 -13 0 -33
-29 -25 -35 12 -10 48 -14 53 -5 3 6 11 8 16 5 5 -4 9 -1 9 5 0 6 -7 13 -15
16 -8 4 -13 10 -10 14 3 5 1 11 -4 14 -5 3 -7 16 -3 29 5 22 5 22 -16 3 -28
-24 -41 -13 -17 14 13 14 22 17 29 10 5 -5 18 -10 27 -10 9 0 29 -6 44 -14 26
-14 26 -15 7 -25 -11 -6 -28 -8 -36 -5 -9 3 -16 2 -16 -3 0 -8 91 -45 98 -39
2 2 -2 13 -10 25 -11 18 -10 23 10 41 12 11 22 26 21 33 0 9 -2 9 -6 0 -2 -7
-10 -13 -15 -13 -6 0 -8 3 -5 7 4 3 1 13 -6 21 -10 13 -9 14 1 8 7 -4 19 0 28
8 16 17 16 17 -43 20 -10 1 -21 6 -25 11 -5 6 -8 3 -8 -7z m-195 -128 c3 -6
-1 -7 -9 -4 -18 7 -21 14 -7 14 6 0 13 -4 16 -10z"/>
</g>
<g>
<path d="M1760 1470 c0 -5 2 -10 4 -10 3 0 8 5 11 10 3 6 1 10 -4 10 -6 0 -11
-4 -11 -10z"/>
</g>
<g>
<path d="M1790 1466 c0 -3 5 -8 10 -11 6 -3 10 -1 10 4 0 6 -4 11 -10 11 -5 0
-10 -2 -10 -4z"/>
</g>
<g>
<path d="M1330 1450 c8 -5 20 -10 25 -10 6 0 3 5 -5 10 -8 5 -19 10 -25 10 -5
0 -3 -5 5 -10z"/>
</g>
<g>
<path d="M50 1429 c0 -11 5 -17 10 -14 6 3 10 13 10 21 0 8 -4 14 -10 14 -5 0
-10 -9 -10 -21z"/>
</g>
<g>
<path d="M315 1440 c-3 -5 -1 -10 4 -10 6 0 11 5 11 10 0 6 -2 10 -4 10 -3 0
-8 -4 -11 -10z"/>
</g>
<g>
<path d="M90 1430 c0 -5 5 -10 10 -10 6 0 10 5 10 10 0 6 -4 10 -10 10 -5 0
-10 -4 -10 -10z"/>
</g>
<g>
<path d="M140 1425 c-11 -13 -9 -15 14 -13 14 1 25 7 23 12 -6 17 -23 17 -37
1z"/>
</g>
<g>
<path d="M316 1404 c-8 -22 -8 -24 8 -24 15 0 28 24 19 34 -11 10 -21 7 -27
-10z"/>
</g>
<g>
<path d="M7 1403 c-16 -16 -5 -40 26 -54 l32 -14 0 31 c0 20 -4 30 -11 27 -7
-2 -15 0 -19 6 -7 12 -19 14 -28 4z"/>
</g>
<g>
<path d="M195 1389 c-11 -17 1 -21 15 -4 8 9 8 15 2 15 -6 0 -14 -5 -17 -11z"/>
</g>
<g>
<path d="M137 1370 c24 -10 49 -48 37 -58 -4 -4 -9 -1 -11 6 -5 14 -43 17 -43
3 0 -5 7 -14 15 -21 8 -7 12 -16 9 -21 -9 -15 3 -10 21 7 15 15 17 15 22 -5 7
-26 14 -26 44 -1 20 16 22 21 9 29 -8 6 -11 13 -7 17 3 4 13 1 22 -6 13 -10
15 -9 15 7 0 10 -7 28 -15 39 -13 17 -14 17 -15 2 0 -19 -20 -25 -20 -7 0 8
-5 7 -15 -1 -13 -10 -19 -10 -33 4 -10 9 -27 16 -38 15 -17 0 -17 -1 3 -9z
m75 -37 c-7 -3 -16 -2 -19 1 -4 3 2 6 13 5 11 0 14 -3 6 -6z"/>
</g>
<g>
<path d="M88 1348 c9 -9 15 -9 24 0 9 9 7 12 -12 12 -19 0 -21 -3 -12 -12z"/>
</g>
<g>
<path d="M660 1353 c0 -15 19 -37 26 -31 3 4 -1 14 -10 23 -9 9 -16 13 -16 8z"/>
</g>
<g>
<path d="M1810 1356 c0 -10 28 -13 41 -5 10 6 7 9 -13 9 -16 0 -28 -2 -28 -4z"/>
</g>
<g>
<path d="M715 1339 c-10 -15 0 -21 27 -17 l23 3 -22 13 c-15 8 -24 9 -28 1z"/>
</g>
<g>
<path d="M1500 1315 c-10 -13 -9 -15 9 -15 11 0 21 4 21 9 0 18 -18 21 -30 6z"/>
</g>
<g>
<path d="M1558 1324 c-10 -3 -18 -10 -18 -15 0 -14 28 -11 33 4 4 9 7 9 18 -1
12 -11 11 -15 -5 -27 -33 -25 -183 -48 -160 -25 5 5 24 10 42 12 17 1 32 6 32
9 0 10 -72 -1 -87 -13 -7 -5 -17 -7 -23 -3 -12 7 -53 -19 -43 -28 10 -11 108
-8 160 4 27 7 67 21 91 32 39 19 48 20 125 8 119 -17 279 -47 467 -87 200 -42
200 -42 200 -57 0 -7 9 -18 20 -25 27 -16 25 -34 -2 -30 -18 2 -24 -2 -26 -22
-2 -20 -1 -22 8 -10 6 9 13 11 18 5 7 -11 48 -35 57 -35 3 0 -4 10 -15 23 -19
20 -19 22 -4 25 9 2 20 -2 24 -8 4 -7 13 -9 19 -6 6 4 11 2 11 -3 0 -6 16 -18
36 -26 48 -20 67 -19 29 2 -47 24 -64 43 -57 61 4 13 3 15 -9 6 -23 -17 -54
-12 -51 9 2 10 -3 17 -13 17 -15 0 -15 1 0 16 9 9 15 24 13 33 -4 22 -33 21
-32 -1 2 -22 -2 -22 -41 1 -16 10 -30 24 -30 31 0 7 -6 15 -14 18 -10 3 -12 0
-8 -12 7 -18 -1 -20 -22 -7 -7 5 -10 14 -7 20 4 6 2 11 -3 11 -6 0 -11 -7 -11
-16 0 -9 -6 -14 -12 -11 -7 2 -13 12 -13 22 0 10 -5 20 -12 22 -7 3 -9 -4 -6
-17 5 -18 2 -21 -13 -18 -12 2 -18 11 -16 23 2 19 2 19 -11 3 -17 -22 -37 -23
-37 -3 0 8 -5 15 -11 15 -5 0 -7 -5 -3 -11 4 -7 -1 -9 -12 -7 -11 2 -18 10
-16 16 1 7 -5 12 -13 12 -8 0 -15 -6 -15 -12 -1 -9 -4 -8 -13 2 -13 16 -67 24
-67 9 0 -5 -4 -9 -10 -9 -5 0 -10 7 -10 15 0 18 -16 20 -24 3 -3 -9 -8 -8 -16
5 -11 17 -32 24 -27 10 1 -5 -2 -8 -8 -8 -5 0 -9 3 -7 8 1 4 -5 7 -14 7 -9 0
-12 -5 -8 -11 4 -7 1 -10 -7 -7 -8 3 -13 11 -11 17 1 6 -5 11 -14 11 -8 0 -12
-4 -9 -10 4 -6 -6 -8 -27 -6 -46 6 -46 7 -18 16 l25 8 -27 1 c-14 1 -29 -5
-32 -11 -3 -10 -9 -8 -19 5 -11 14 -16 15 -20 5 -4 -10 -7 -10 -14 0 -5 6 -20
12 -34 12 -13 0 -42 2 -64 4 -22 3 -48 2 -57 0z"/>
</g>
<g>
<path d="M440 1311 c0 -11 31 -24 39 -16 3 3 -1 10 -9 15 -19 12 -30 12 -30 1z"/>
</g>
<g>
<path d="M585 1310 c3 -5 10 -10 16 -10 5 0 9 5 9 10 0 6 -7 10 -16 10 -8 0
-12 -4 -9 -10z"/>
</g>
<g>
<path d="M733 1304 c3 -3 12 -4 19 -1 8 3 5 6 -6 6 -11 1 -17 -2 -13 -5z"/>
</g>
<g>
<path d="M295 1290 c3 -5 14 -10 23 -10 15 0 15 2 2 10 -20 13 -33 13 -25 0z"/>
</g>
<g>
<path d="M427 1276 c-3 -6 4 -13 14 -13 22 -2 25 12 5 20 -8 3 -16 0 -19 -7z"/>
</g>
<g>
<path d="M1276 1281 c-3 -5 0 -11 8 -14 15 -6 26 1 26 15 0 11 -27 10 -34 -1z"/>
</g>
<g>
<path d="M356 1262 c24 -22 65 -27 57 -6 -3 8 -8 14 -12 15 -3 0 -19 2 -35 4
-28 4 -28 3 -10 -13z"/>
</g>
<g>
<path d="M498 1273 c6 -2 18 -2 25 0 6 3 1 5 -13 5 -14 0 -19 -2 -12 -5z"/>
</g>
<g>
<path d="M0 1255 c0 -8 2 -15 4 -15 2 0 6 7 10 15 3 8 1 15 -4 15 -6 0 -10 -7
-10 -15z"/>
</g>
<g>
<path d="M290 1255 c-9 -11 -23 -14 -49 -10 -25 4 -33 3 -25 -5 15 -15 64 -23
64 -10 0 7 6 8 19 1 14 -8 22 -7 32 6 12 14 11 15 -9 9 -23 -8 -32 8 -9 17 7
4 8 6 1 6 -6 1 -17 -6 -24 -14z"/>
</g>
<g>
<path d="M54 1225 c-2 -19 2 -25 15 -23 20 4 21 42 1 46 -10 2 -15 -6 -16 -23z"/>
</g>
<g>
<path d="M142 1237 c-5 -7 -12 -22 -15 -35 -4 -18 -2 -22 9 -18 12 4 12 2 4
-14 -10 -18 -7 -20 21 -20 18 0 30 3 26 6 -10 10 22 36 34 28 8 -4 9 -3 5 4
-4 7 -2 12 3 12 6 0 11 -4 11 -10 0 -5 15 -10 33 -9 l32 0 -39 15 c-23 8 -53
12 -73 8 -20 -4 -33 -2 -33 4 0 6 4 12 9 14 5 2 3 8 -4 15 -10 10 -15 10 -23
0z"/>
</g>
<g>
<path d="M1090 1246 c0 -3 5 -8 10 -11 6 -3 10 -1 10 4 0 6 -4 11 -10 11 -5 0
-10 -2 -10 -4z"/>
</g>
<g>
<path d="M2530 1207 c0 -18 22 -28 38 -18 14 8 2 25 -20 29 -10 2 -18 -3 -18
-11z"/>
</g>
<g>
<path d="M3 1197 c4 -14 28 -16 25 -2 -2 5 -9 10 -16 11 -7 2 -11 -3 -9 -9z"/>
</g>
<g>
<path d="M2671 1191 c-7 -5 -12 -14 -9 -21 5 -17 74 -39 90 -29 28 19 64 10
196 -48 8 -3 10 0 6 11 -3 9 -10 13 -15 10 -5 -3 -12 2 -15 10 -8 21 -75 40
-161 45 -7 1 -12 7 -10 14 3 15 -61 21 -82 8z"/>
</g>
<g>
<path d="M80 1186 c0 -3 5 -8 10 -11 6 -3 10 -1 10 4 0 6 -4 11 -10 11 -5 0
-10 -2 -10 -4z"/>
</g>
<g>
<path d="M500 1161 c-23 -7 -22 -8 13 -12 20 -3 43 -1 50 3 8 5 9 8 0 8 -6 0
-17 2 -25 4 -7 2 -24 1 -38 -3z"/>
</g>
<g>
<path d="M880 1160 c0 -5 11 -10 24 -10 14 0 28 5 31 10 4 6 -7 10 -24 10 -17
0 -31 -4 -31 -10z"/>
</g>
<g>
<path d="M2485 1146 c-14 -18 -15 -18 -11 -3 6 19 -15 20 -21 1 -4 -13 45 -36
58 -28 6 3 18 -1 28 -10 15 -13 24 -14 46 -6 18 7 31 7 40 0 6 -5 15 -7 18 -3
4 3 17 -3 30 -15 12 -11 34 -25 48 -31 24 -8 28 -7 33 12 8 30 -10 46 -49 42
-22 -2 -36 2 -39 11 -3 8 -12 14 -21 14 -9 0 -28 8 -42 18 -15 9 -24 12 -21 7
4 -6 3 -17 -3 -25 -5 -8 -9 -10 -9 -4 0 12 -47 12 -71 0 -8 -4 -4 1 9 10 26
19 28 31 7 31 -8 0 -22 -10 -30 -21z"/>
</g>
<g>
<path d="M615 1149 c18 -5 33 -5 39 1 7 7 -4 10 -29 9 -40 -1 -40 -1 -10 -10z"/>
</g>
<g>
<path d="M800 1156 c0 -10 28 -13 41 -5 10 6 7 9 -13 9 -16 0 -28 -2 -28 -4z"/>
</g>
<g>
<path d="M85 1142 c2 -3 -16 -18 -40 -33 -48 -30 -61 -55 -23 -43 13 3 30 10
38 15 13 7 13 8 0 9 -8 0 3 10 24 20 30 15 42 17 53 8 10 -8 17 -8 24 -1 7 7
2 13 -18 18 -35 10 -65 13 -58 7z"/>
</g>
<g>
<path d="M2035 1104 c-35 -18 -48 -30 -22 -21 9 4 17 2 17 -3 0 -6 5 -10 10
-10 6 0 10 8 10 18 0 11 3 13 8 5 5 -8 13 -9 22 -3 25 16 31 11 25 -20 -6 -35
19 -44 28 -10 3 12 14 20 27 20 11 0 18 -4 15 -10 -3 -5 -13 -10 -21 -10 -21
0 -17 -17 8 -34 29 -21 38 -20 39 2 1 15 2 15 6 1 2 -9 17 -19 34 -23 29 -6
41 -26 15 -26 -34 0 -66 -19 -59 -36 5 -15 7 -15 15 -1 5 9 15 14 23 11 8 -4
13 -10 10 -14 -6 -10 89 -17 112 -9 16 5 15 7 -1 16 -11 6 -16 15 -12 22 12
18 25 13 32 -14 3 -14 13 -25 23 -25 13 0 13 2 2 9 -18 11 -5 51 17 51 15 0
15 2 1 15 -17 18 -50 28 -96 29 -34 1 -35 16 0 16 40 1 -4 17 -65 24 -32 4
-60 11 -63 16 -3 5 -21 7 -41 5 -27 -2 -34 0 -30 11 8 20 -50 19 -89 -2z m155
-63 c0 -5 -9 -7 -20 -4 -11 3 -20 7 -20 9 0 2 9 4 20 4 11 0 20 -4 20 -9z m86
-2 c3 -6 1 -15 -7 -19 -14 -9 -49 5 -49 20 0 14 47 13 56 -1z m61 -40 c2 -11
-1 -18 -6 -14 -6 3 -9 14 -8 25 2 23 10 17 14 -11z m-12 -29 c4 -6 -7 -10 -27
-9 -27 0 -30 2 -13 9 27 12 33 12 40 0z"/>
</g>
<g>
<path d="M1890 1100 c0 -5 5 -10 10 -10 6 0 10 5 10 10 0 6 -4 10 -10 10 -5 0
-10 -4 -10 -10z"/>
</g>
<g>
<path d="M1927 1074 c-28 -15 -29 -38 -2 -27 8 3 23 2 33 -3 9 -4 20 -8 24 -8
18 -3 18 -16 0 -16 -30 0 -28 -17 3 -22 13 -3 22 -2 20 3 -3 4 -1 18 4 31 7
15 10 17 10 7 1 -9 8 -20 17 -23 10 -4 14 -2 10 6 -3 7 -9 21 -12 31 -4 9 -15
17 -25 17 -10 0 -21 5 -24 10 -8 14 -25 12 -58 -6z"/>
</g>
<g>
<path d="M2584 1063 c0 -10 5 -21 9 -24 5 -3 5 -18 1 -33 -5 -21 -9 -24 -20
-15 -8 6 -21 9 -29 5 -9 -3 -18 1 -21 8 -3 8 -12 17 -20 20 -9 3 -12 1 -9 -4
3 -6 -1 -10 -9 -10 -23 0 -29 -19 -13 -44 10 -15 12 -27 5 -39 -12 -22 8 -87
26 -87 10 0 12 16 8 62 -4 58 -3 61 13 45 22 -23 38 -22 30 2 -8 26 12 37 33
18 9 -8 28 -18 42 -22 l25 -7 -22 21 c-28 27 -31 55 -4 46 10 -3 24 1 31 10
10 12 16 13 28 3 12 -10 11 -7 -2 14 -10 16 -23 25 -32 21 -8 -3 -11 -9 -8
-14 3 -5 -2 -9 -11 -9 -8 0 -21 11 -27 25 -13 29 -26 33 -24 8z"/>
</g>
<g>
<path d="M1856 1055 c4 -8 10 -12 15 -9 14 8 10 24 -6 24 -9 0 -12 -6 -9 -15z"/>
</g>
<g>
<path d="M1803 1052 c-36 -4 -41 -13 -18 -32 9 -7 13 -21 10 -31 -4 -13 -1
-19 9 -19 9 0 16 7 16 15 0 9 9 15 25 15 14 0 25 -5 25 -11 0 -20 33 -4 36 19
4 23 -11 31 -18 10 -3 -7 -14 -2 -29 13 -18 18 -32 24 -56 21z"/>
</g>
<g>
<path d="M2056 1050 c-13 -4 -16 -9 -8 -14 7 -4 19 -3 28 2 21 12 5 22 -20 12z"/>
</g>
<g>
<path d="M2909 1027 c24 -26 54 -27 44 -1 -3 8 -8 14 -12 14 -3 0 -17 3 -31 7
l-25 6 24 -26z"/>
</g>
<g>
<path d="M3015 1042 c-5 -4 -11 -18 -13 -32 -2 -23 -1 -24 11 -7 8 9 21 17 30
17 10 0 14 5 11 15 -7 16 -23 19 -39 7z"/>
</g>
<g>
<path d="M1927 1023 c-10 -9 -9 -23 2 -23 5 0 11 7 15 15 5 15 -5 20 -17 8z"/>
</g>
<g>
<path d="M1655 1009 c-12 -19 26 -37 58 -28 38 11 44 17 22 25 -10 4 -20 1
-25 -6 -7 -11 -12 -10 -25 3 -19 20 -22 20 -30 6z"/>
</g>
<g>
<path d="M2850 1004 c0 -14 42 -58 58 -61 24 -3 52 6 52 18 0 6 -8 8 -19 4
-14 -4 -20 1 -25 20 -4 14 -10 25 -15 25 -5 0 -7 -10 -4 -22 l6 -23 -20 23
c-20 21 -33 28 -33 16z"/>
</g>
<g>
<path d="M2020 969 c0 -16 5 -19 23 -15 12 3 16 3 10 0 -23 -10 -13 -32 20
-43 22 -8 28 -14 19 -20 -9 -5 -10 -15 -4 -31 l9 -24 6 26 c4 15 16 30 27 33
11 3 20 12 20 20 0 7 6 16 13 19 9 5 9 7 0 12 -7 3 -9 12 -6 20 3 8 0 14 -6
14 -6 0 -11 -6 -11 -14 0 -7 -7 -19 -15 -26 -13 -11 -13 -15 -3 -21 9 -6 9 -9
1 -9 -19 0 -43 12 -43 22 0 5 5 6 10 3 6 -3 10 4 10 18 0 20 -4 23 -30 19 -18
-3 -30 0 -30 7 0 6 -4 11 -10 11 -5 0 -10 -9 -10 -21z"/>
</g>
<g>
<path d="M1587 950 c-43 -20 -68 -40 -49 -40 7 0 12 -7 12 -15 0 -19 -19 -20
-26 -2 -4 11 -17 12 -62 4 -31 -5 -66 -16 -77 -23 -11 -8 -29 -14 -40 -14 -11
0 -38 -5 -60 -11 l-39 -11 32 -14 c35 -14 41 -31 16 -41 -9 -3 -21 3 -30 16
-17 24 -34 28 -34 7 0 -17 -58 -29 -94 -20 -16 4 -26 2 -26 -5 0 -6 20 -11 48
-11 41 -1 45 -2 30 -14 -10 -7 -18 -17 -18 -23 0 -16 -25 -63 -33 -63 -5 0 -7
8 -5 17 4 20 -40 73 -60 73 -12 0 -12 -3 -2 -15 8 -10 9 -15 1 -15 -16 0 -51
-32 -45 -42 9 -15 32 -8 30 8 -1 21 14 27 34 14 13 -9 13 -11 1 -19 -11 -7 -9
-10 10 -13 14 -2 29 -15 39 -33 8 -16 16 -32 17 -33 1 -2 10 -1 21 2 18 6 19
10 9 36 -13 34 -4 48 19 30 9 -8 14 -23 11 -37 -4 -19 -1 -23 12 -17 32 13
100 12 112 -2 18 -22 42 -18 36 7 -8 28 25 21 38 -9 10 -23 35 -31 35 -10 0 6
3 8 7 5 8 -9 53 40 53 59 0 7 4 14 9 14 5 0 16 3 24 6 17 6 29 -19 21 -41 -4
-8 -14 -15 -24 -15 -11 0 -22 -5 -25 -10 -4 -6 -3 -9 2 -8 4 2 9 0 11 -4 6
-20 0 -35 -23 -60 -14 -15 -25 -32 -25 -38 0 -5 -4 -10 -10 -10 -5 0 -10 5
-10 10 0 6 -7 10 -17 10 -14 0 -14 -2 2 -20 10 -11 27 -20 37 -20 10 0 21 -7
24 -15 4 -10 15 -12 35 -8 18 3 29 1 29 -5 0 -6 15 -15 33 -20 39 -11 106 -4
86 9 -11 7 -12 12 -1 29 17 27 15 38 -2 14 -14 -18 -15 -18 -25 9 -6 16 -8 34
-4 40 4 7 -5 4 -20 -6 -15 -9 -27 -13 -27 -7 0 5 5 10 10 10 7 0 8 13 5 34 -6
30 -4 34 22 41 15 5 33 9 38 9 6 1 12 5 15 10 3 5 -16 10 -42 11 -52 1 -84 19
-55 31 28 10 2 46 -28 38 -16 -4 -30 0 -40 10 -9 8 -23 12 -31 9 -14 -5 -14
-3 -3 16 17 26 46 36 64 21 7 -6 16 -7 19 -2 3 5 19 9 37 10 34 1 55 12 23 12
-11 0 -30 7 -43 16 -22 16 -24 16 -33 0 -6 -11 -16 -15 -28 -11 -10 3 -30 3
-44 -1 -21 -5 -24 -9 -15 -20 17 -20 1 -34 -31 -27 -19 3 -30 1 -30 -6 0 -6 9
-11 20 -11 11 0 20 -5 20 -11 0 -7 10 -9 25 -5 23 6 24 5 14 -23 -6 -16 -19
-37 -30 -47 -18 -16 -19 -16 -25 14 -4 18 -11 32 -17 32 -18 0 -92 -23 -105
-34 -10 -7 -16 -6 -22 4 -7 11 -13 10 -34 -4 l-26 -16 -16 40 c-9 22 -23 40
-31 40 -8 0 -11 5 -8 11 4 6 13 8 21 5 16 -6 65 14 59 24 -2 3 25 5 60 4 36
-1 68 2 71 7 4 8 -7 12 -26 11 -3 0 -5 11 -5 24 0 16 4 23 13 19 8 -3 27 6 44
20 34 29 101 34 132 10 27 -21 46 -19 46 5 0 16 7 20 33 21 29 0 30 1 10 9
-25 10 -30 29 -11 48 22 22 -6 30 -45 12z m26 -25 c-7 -21 -13 -19 -13 6 0 11
4 18 10 14 5 -3 7 -12 3 -20z m-23 -45 c0 -5 -4 -10 -10 -10 -5 0 -10 5 -10
10 0 6 5 10 10 10 6 0 10 -4 10 -10z m-240 -69 c0 -5 -7 -14 -15 -21 -13 -10
-15 -9 -15 9 0 12 6 21 15 21 8 0 15 -4 15 -9z m245 -195 c17 -12 18 -15 3
-37 -11 -18 -13 -30 -5 -47 8 -18 7 -27 -6 -40 -16 -15 -17 -15 -17 7 0 23 -1
24 -20 6 -19 -18 -20 -17 -20 3 0 11 5 24 11 27 6 4 9 19 8 33 -2 29 9 62 20
62 4 0 16 -6 26 -14z m-75 -97 c0 -5 -4 -7 -10 -4 -5 3 -10 8 -10 11 0 2 5 4
10 4 6 0 10 -5 10 -11z"/>
</g>
<g>
<path d="M1690 958 c0 -4 4 -8 9 -8 5 0 11 -10 13 -22 2 -12 9 -23 16 -26 9
-3 11 3 6 22 -4 16 -2 26 5 26 6 0 11 4 11 8 0 5 -13 9 -30 9 -16 0 -30 -4
-30 -9z"/>
</g>
<g>
<path d="M1858 940 c27 -31 55 -39 68 -19 4 7 21 9 45 5 24 -4 39 -2 39 4 0 5
-6 10 -14 10 -8 0 -16 5 -18 12 -3 7 -12 6 -30 -6 -26 -17 -47 -8 -33 14 3 6
-1 10 -9 10 -9 0 -16 -7 -16 -15 0 -8 -3 -15 -6 -15 -3 0 -12 7 -20 15 -28 28
-33 15 -6 -15z"/>
</g>
<g>
<path d="M1774 949 c-8 -13 15 -39 44 -50 31 -12 45 -3 32 21 -12 22 -67 43
-76 29z"/>
</g>
<g>
<path d="M1640 931 c-14 -27 -13 -31 8 -31 27 0 33 -10 21 -34 -10 -20 -9 -20
10 2 l19 22 7 -30 c8 -35 20 -39 28 -9 4 15 -5 31 -34 60 -21 21 -41 39 -44
39 -2 0 -9 -9 -15 -19z"/>
</g>
<g>
<path d="M2600 921 c0 -22 -19 -30 -21 -8 0 9 -2 9 -6 -1 -4 -9 -8 -10 -18 -2
-10 9 -16 6 -25 -9 -8 -16 -8 -19 3 -16 7 3 21 -1 32 -9 11 -9 15 -16 7 -16
-10 0 -10 -4 0 -20 13 -21 38 -27 38 -10 0 6 -4 10 -8 10 -7 0 -8 25 -3 49 1
2 7 -2 15 -9 8 -6 12 -18 9 -26 -3 -8 0 -14 7 -14 6 0 9 4 6 9 -6 10 24 25 32
16 3 -3 0 -5 -7 -5 -8 0 -10 -7 -6 -19 4 -15 0 -21 -17 -24 -17 -3 -15 -5 7
-4 17 0 46 -3 65 -7 31 -6 33 -5 18 7 -10 8 -15 17 -11 20 3 4 -2 7 -11 7 -12
0 -16 5 -12 15 3 8 -6 27 -19 42 -24 28 -24 28 -25 5 0 -14 -4 -20 -10 -17 -6
4 -10 16 -8 28 2 14 -3 23 -14 25 -13 2 -18 -3 -18 -17z"/>
</g>
<g>
<path d="M2870 920 c0 -5 2 -10 4 -10 3 0 8 5 11 10 3 6 1 10 -4 10 -6 0 -11
-4 -11 -10z"/>
</g>
<g>
<path d="M2428 888 c-2 -15 -9 -22 -21 -22 -9 1 -17 -3 -18 -10 0 -6 -4 -1 -9
10 -11 27 -68 39 -72 15 -2 -8 7 -25 19 -38 32 -31 30 -50 -2 -29 -14 9 -30
14 -35 11 -6 -3 -10 2 -10 12 -1 25 -26 56 -39 48 -6 -3 -11 -1 -11 4 0 6 -9
11 -21 11 -13 0 -18 -4 -13 -12 5 -8 2 -9 -9 -5 -9 3 -19 2 -22 -4 -4 -5 -11
-7 -16 -4 -5 4 -9 1 -9 -5 0 -6 14 -8 38 -4 28 4 41 2 51 -10 11 -13 11 -16
-1 -16 -8 0 -19 5 -26 12 -19 19 -23 3 -7 -28 25 -48 17 -73 -12 -36 -12 15
-13 14 -8 -13 3 -16 2 -24 -1 -17 -3 6 -12 12 -19 12 -18 0 -24 -21 -13 -42 6
-14 5 -16 -7 -12 -26 11 -16 -14 17 -40 22 -17 36 -22 43 -15 7 7 4 15 -9 25
-11 8 -16 14 -12 14 4 0 0 8 -10 17 -16 17 -15 18 25 26 35 7 41 11 36 28 -5
14 -2 19 12 19 17 1 17 1 -1 11 -31 18 3 30 36 13 26 -14 39 -44 18 -44 -5 0
-7 -7 -4 -15 4 -11 -5 -16 -35 -21 -45 -7 -60 -19 -36 -28 14 -5 14 -8 0 -29
-14 -22 -14 -26 0 -37 12 -10 16 -8 23 11 6 14 11 18 16 11 4 -6 2 -21 -4 -33
-7 -11 -9 -23 -6 -27 3 -3 6 0 6 8 0 9 3 10 13 2 17 -15 57 -11 57 5 0 7 -11
13 -25 13 -29 0 -32 8 -7 26 15 12 15 13 1 14 -10 0 -19 11 -21 25 -3 13 -1
22 3 19 5 -2 17 4 27 14 11 11 26 22 33 25 11 4 9 8 -6 20 -21 16 -15 35 7 21
7 -5 19 -9 27 -9 18 0 27 -25 9 -25 -7 -1 2 -7 21 -15 18 -8 38 -15 45 -14 7
0 6 2 -1 6 -7 2 -13 13 -13 23 0 10 -14 25 -32 34 l-33 17 38 -6 c45 -7 50 9
5 21 l-33 8 33 3 c19 3 32 10 32 19 0 8 4 14 8 14 4 0 8 9 9 20 2 28 -15 25
-19 -2z m-163 -39 c-9 -14 -15 -11 -15 7 0 8 5 12 10 9 6 -4 8 -11 5 -16z"/>
</g>
<g>
<path d="M2822 892 c-13 -2 -26 -10 -28 -17 -3 -8 -19 -17 -35 -20 -34 -8 -39
-24 -6 -21 37 4 131 38 145 53 11 11 8 13 -20 11 -18 -2 -43 -4 -56 -6z"/>
</g>
<g>
<path d="M1857 878 c-10 -5 -25 -7 -33 -4 -17 7 -18 -6 -2 -22 9 -9 9 -12 0
-12 -26 0 -10 -17 17 -18 20 0 32 6 40 21 11 22 11 22 6 1 -6 -21 -5 -22 28
-5 32 15 33 17 13 24 -12 5 -25 9 -31 10 -5 1 -12 5 -15 9 -3 3 -13 2 -23 -4z"/>
</g>
<g>
<path d="M2006 862 c-4 -6 -13 -9 -21 -5 -25 9 -17 -13 10 -27 30 -16 38 -10
27 20 -5 15 -11 19 -16 12z"/>
</g>
<g>
<path d="M2455 861 c-3 -5 -1 -12 5 -16 5 -3 10 1 10 9 0 18 -6 21 -15 7z"/>
</g>
<g>
<path d="M2052 851 c-11 -7 -11 -9 1 -14 9 -3 18 1 21 9 6 16 -2 18 -22 5z"/>
</g>
<g>
<path d="M1954 825 c4 -13 2 -16 -9 -11 -26 9 -17 -13 17 -43 18 -16 30 -32
27 -36 -4 -3 -14 2 -23 11 -9 9 -20 13 -24 9 -4 -4 4 -16 17 -26 l24 -20 -22
-29 c-22 -30 -14 -43 9 -15 7 9 19 14 25 11 20 -7 35 8 24 24 -8 13 -10 13
-19 0 -9 -13 -10 -13 -10 0 0 20 28 109 29 91 1 -8 9 -20 19 -28 16 -14 16
-14 0 -9 -33 10 -18 -10 22 -32 33 -18 40 -18 40 -6 0 20 -36 67 -58 76 -15 6
-15 7 1 7 10 1 15 6 12 11 -4 6 -15 8 -25 5 -11 -3 -33 1 -51 10 -30 16 -32
16 -25 0z m39 -36 c3 -13 1 -19 -6 -16 -15 5 -22 37 -9 37 5 0 12 -9 15 -21z"/>
</g>
<g>
<path d="M2140 821 c0 -11 4 -22 9 -25 11 -7 23 22 15 35 -9 16 -24 10 -24
-10z"/>
</g>
<g>
<path d="M1650 815 c0 -7 11 -15 25 -17 32 -7 32 4 0 19 -20 9 -25 8 -25 -2z"/>
</g>
<g>
<path d="M2466 814 c-9 -22 -8 -24 8 -18 8 3 17 1 20 -4 8 -14 48 -2 43 12 -2
6 -13 11 -24 12 -11 1 -25 4 -31 8 -5 3 -13 -1 -16 -10z"/>
</g>
<g>
<path d="M1710 810 c0 -5 7 -10 16 -10 8 0 12 5 9 10 -3 6 -10 10 -16 10 -5 0
-9 -4 -9 -10z"/>
</g>
<g>
<path d="M1755 810 c-3 -5 -1 -10 4 -10 6 0 11 5 11 10 0 6 -2 10 -4 10 -3 0
-8 -4 -11 -10z"/>
</g>
<g>
<path d="M2076 785 c4 -8 8 -15 10 -15 2 0 4 7 4 15 0 8 -4 15 -10 15 -5 0 -7
-7 -4 -15z"/>
</g>
<g>
<path d="M1670 770 c-20 -12 -9 -21 18 -13 12 3 19 9 16 14 -7 11 -15 11 -34
-1z"/>
</g>
<g>
<path d="M1856 758 c3 -10 1 -18 -5 -18 -6 0 -11 6 -11 14 0 10 -16 14 -57 14
-50 1 -56 0 -40 -12 21 -16 22 -32 1 -40 -20 -8 -41 4 -24 14 6 4 -13 7 -42 6
l-54 0 19 -23 c15 -16 24 -20 37 -13 11 6 21 5 27 -1 8 -8 17 -8 31 0 11 6 23
11 25 11 9 0 15 -40 6 -45 -13 -8 1 -35 18 -35 11 0 13 4 6 13 -20 25 -11 47
19 47 28 0 32 -6 28 -47 -1 -15 4 -23 14 -23 9 0 16 -7 16 -16 0 -12 -9 -14
-42 -12 -28 2 -42 7 -40 16 1 6 -2 12 -8 12 -5 0 -10 -4 -10 -8 0 -14 35 -42
52 -42 9 0 18 -7 22 -15 8 -22 25 -18 19 4 -7 28 13 34 31 9 18 -26 83 -48
141 -48 42 1 81 22 71 38 -3 6 0 13 6 15 8 4 7 6 -4 6 -9 1 -26 -11 -38 -26
l-21 -28 3 30 c2 21 -2 30 -14 33 -11 2 -18 -3 -18 -12 0 -23 -17 -20 -25 4
-8 25 3 43 21 36 8 -3 14 1 14 10 0 14 -19 13 -67 -2 -7 -2 -13 1 -13 7 0 6
-6 9 -12 6 -7 -2 -12 -14 -10 -25 4 -28 -6 -27 -41 4 -38 32 -30 59 14 50 28
-5 30 -4 18 10 -7 8 -21 13 -32 10 -14 -3 -17 -1 -12 11 3 9 0 20 -7 24 -9 6
-3 10 18 15 25 5 31 10 26 26 -4 15 -7 17 -13 6 -6 -9 -9 -9 -9 -1 0 6 -9 11
-20 10 -14 -1 -18 -6 -14 -19z"/>
</g>
<g>
<path d="M2350 700 c0 -5 2 -10 4 -10 3 0 8 5 11 10 3 6 1 10 -4 10 -6 0 -11
-4 -11 -10z"/>
</g>
<g>
<path d="M2430 681 c0 -5 -14 -11 -31 -15 -17 -3 -28 -10 -25 -14 3 -5 -5 -8
-16 -7 -12 1 -24 7 -26 13 -2 7 -8 10 -13 6 -14 -9 17 -34 43 -34 27 0 88 35
88 50 0 5 -4 10 -10 10 -5 0 -10 -4 -10 -9z"/>
</g>
<g>
<path d="M985 670 c-3 -5 1 -10 9 -10 9 0 16 -4 16 -10 0 -5 -4 -10 -9 -10 -5
0 -11 -8 -13 -17 -2 -12 8 -24 29 -35 18 -10 35 -18 38 -18 12 0 3 21 -16 39
-12 11 -18 25 -14 31 7 11 -11 40 -26 40 -4 0 -11 -4 -14 -10z"/>
</g>
<g>
<path d="M2101 672 c-1 -7 5 -15 13 -18 16 -6 29 -44 14 -41 -6 1 -13 -4 -15
-10 -5 -15 16 -17 37 -3 12 7 12 12 2 22 -6 6 -12 21 -12 31 0 13 -5 17 -14
14 -8 -3 -17 -1 -20 6 -3 9 -5 8 -5 -1z"/>
</g>
<g>
<path d="M1060 657 c0 -3 11 -17 25 -31 l25 -25 0 25 c0 15 -4 23 -10 19 -6
-4 -17 -1 -25 5 -8 7 -15 10 -15 7z"/>
</g>
<g>
<path d="M1061 609 c11 -11 23 -18 26 -15 9 8 -17 36 -33 36 -10 0 -7 -7 7
-21z"/>
</g>
<g>
<path d="M1250 611 c0 -18 40 -22 62 -7 25 18 17 22 -12 6 -13 -7 -21 -7 -25
0 -8 13 -25 13 -25 1z"/>
</g>
<g>
<path d="M1644 596 c-8 -22 -2 -27 16 -16 12 7 12 12 3 21 -10 10 -14 9 -19
-5z"/>
</g>
<g>
<path d="M1690 585 c0 -8 4 -15 9 -15 5 0 11 7 15 15 3 9 0 15 -9 15 -8 0 -15
-7 -15 -15z"/>
</g>
<g>
<path d="M2157 594 c-4 -4 -4 -11 -1 -16 6 -10 24 -1 24 13 0 10 -14 12 -23 3z"/>
</g>
<g>
<path d="M1110 580 c-9 -6 -10 -10 -3 -10 6 0 15 5 18 10 8 12 4 12 -15 0z"/>
</g>
<g>
<path d="M1200 580 c-12 -7 -12 -12 -2 -22 9 -9 12 -9 12 4 0 9 6 19 13 21 6
3 8 6 2 6 -5 0 -17 -4 -25 -9z"/>
</g>
<g>
<path d="M1245 580 c-3 -5 -1 -10 4 -10 6 0 11 5 11 10 0 6 -2 10 -4 10 -3 0
-8 -4 -11 -10z"/>
</g>
<g>
<path d="M1120 556 c0 -2 7 -6 15 -10 8 -3 15 -1 15 4 0 6 -7 10 -15 10 -8 0
-15 -2 -15 -4z"/>
</g>
<g>
<path d="M1253 554 c3 -3 12 -4 19 -1 8 3 5 6 -6 6 -11 1 -17 -2 -13 -5z"/>
</g>
<g>
<path d="M1737 553 c-12 -11 -8 -36 10 -55 9 -10 11 -18 6 -18 -6 0 -13 -6
-16 -13 -4 -10 3 -14 21 -13 22 1 28 7 32 31 6 36 43 47 59 18 7 -15 18 -18
46 -15 36 4 36 4 13 20 -12 9 -34 16 -48 17 -14 0 -24 6 -22 13 1 7 -1 12 -5
13 -5 0 -17 2 -28 4 -11 2 -23 -1 -28 -8 -7 -9 -10 -9 -14 1 -5 13 -16 16 -26
5z"/>
</g>
<g>
<path d="M1090 540 c-9 -6 -10 -10 -3 -10 6 0 15 5 18 10 8 12 4 12 -15 0z"/>
</g>
<g>
<path d="M1190 536 c0 -3 5 -8 10 -11 6 -3 10 -1 10 4 0 6 -4 11 -10 11 -5 0
-10 -2 -10 -4z"/>
</g>
<g>
<path d="M1369 518 c-7 -21 -3 -48 7 -52 19 -7 27 10 14 34 -9 18 -18 25 -21
18z"/>
</g>
<g>
<path d="M771 456 c-8 -10 -9 -16 -1 -21 5 -3 13 1 16 10 9 22 -1 29 -15 11z"/>
</g>
<g>
<path d="M1348 448 c11 -10 67 -13 67 -3 0 5 -17 10 -37 10 -20 0 -34 -3 -30
-7z"/>
</g>
<g>
<path d="M837 443 c-4 -3 -7 -11 -7 -17 0 -6 5 -5 12 2 6 6 9 14 7 17 -3 3 -9
2 -12 -2z"/>
</g>
<g>
<path d="M1453 444 c3 -3 12 -4 19 -1 8 3 5 6 -6 6 -11 1 -17 -2 -13 -5z"/>
</g>
<g>
<path d="M790 430 c0 -5 5 -10 10 -10 6 0 10 5 10 10 0 6 -4 10 -10 10 -5 0
-10 -4 -10 -10z"/>
</g>
<g>
<path d="M1460 409 c0 -5 5 -7 10 -4 6 3 10 1 10 -4 0 -6 7 -11 15 -11 9 0 12
6 9 15 -7 17 -44 21 -44 4z"/>
</g>
<g>
<path d="M1623 384 c3 -3 12 -4 19 -1 8 3 5 6 -6 6 -11 1 -17 -2 -13 -5z"/>
</g>
<g>
<path d="M2925 310 c-3 -6 1 -7 9 -4 18 7 21 14 7 14 -6 0 -13 -4 -16 -10z"/>
</g>
<g>
<path d="M3315 281 c3 -24 -1 -31 -26 -41 l-29 -13 26 -13 c34 -18 43 -18 18
1 -18 14 -18 14 4 8 20 -5 22 -2 22 41 0 25 -4 46 -9 46 -5 0 -8 -13 -6 -29z"/>
</g>
<g>
<path d="M3240 282 c-8 -9 -14 -23 -12 -30 2 -10 -3 -12 -17 -7 -15 4 -21 2
-21 -8 0 -12 6 -13 28 -8 15 5 26 14 24 21 -1 7 3 18 9 26 17 20 7 25 -11 6z"/>
</g>
<g>
<path d="M2941 276 c-1 -11 2 -17 5 -13 3 3 4 12 1 19 -3 8 -6 5 -6 -6z"/>
</g>
<g>
<path d="M2956 259 c-19 -37 -14 -49 10 -25 9 10 23 15 31 12 8 -3 19 -6 24
-6 5 0 9 -7 9 -16 0 -12 4 -14 13 -7 6 5 26 6 42 2 17 -3 24 -7 18 -8 -25 -2
-12 -19 19 -25 39 -8 49 0 17 14 -24 9 -24 9 3 7 15 -2 30 -6 34 -10 10 -9 24
-9 24 1 0 12 -53 32 -87 32 -24 0 -33 5 -33 16 0 17 2 17 78 -3 13 -3 22 -1
22 6 0 6 -7 11 -16 11 -14 0 -14 3 -3 16 11 14 9 15 -27 8 -21 -4 -51 -15 -65
-25 -31 -22 -46 -13 -22 13 15 17 5 27 -11 11 -11 -11 -50 -10 -57 1 -4 4 -14
-7 -23 -25z"/>
</g>
<g>
<path d="M2875 269 c-4 -5 -15 -7 -26 -4 -10 4 -19 3 -19 -2 0 -4 -17 -9 -38
-10 -50 -2 -110 -23 -116 -39 -3 -7 4 -20 16 -28 22 -15 43 -12 33 5 -11 17
20 35 63 36 39 2 41 0 32 -18 -9 -15 -7 -19 5 -19 8 0 15 7 15 16 0 8 4 12 10
9 6 -3 7 1 4 9 -4 11 0 16 11 16 9 0 14 -4 11 -8 -3 -5 1 -9 8 -9 7 0 18 8 24
17 8 13 6 19 -9 28 -12 8 -20 8 -24 1z"/>
</g>
<g>
<path d="M2614 191 c-17 -10 -46 -17 -69 -16 -22 0 -46 -5 -54 -12 -18 -19 -7
-27 17 -14 24 13 45 14 38 3 -11 -19 68 3 89 24 30 30 18 39 -21 15z"/>
</g>
<g>
<path d="M2920 200 c0 -5 7 -10 15 -10 8 0 15 -4 15 -10 0 -5 11 -10 24 -10
13 0 27 -7 30 -16 5 -12 2 -15 -10 -10 -24 9 -36 -3 -19 -20 13 -13 19 -13 42
-2 39 19 35 39 -10 52 -22 6 -35 15 -31 19 5 4 1 5 -8 2 -9 -4 -19 -2 -23 4
-8 14 -25 14 -25 1z"/>
</g>
<g>
<path d="M2753 169 c29 -17 19 -26 -27 -25 -55 1 -76 -15 -52 -39 14 -15 16
-15 16 -1 0 9 -5 16 -12 16 -6 0 -9 2 -6 5 9 9 38 -6 38 -20 0 -20 25 -25 63
-13 32 10 34 12 20 27 -11 10 -12 16 -4 19 6 2 8 8 5 14 -4 6 0 14 7 19 9 6 1
9 -26 9 -32 -1 -36 -3 -22 -11z"/>
</g>
<g>
<path d="M2830 165 c0 -11 11 -15 37 -15 41 0 35 13 -9 24 -21 5 -28 3 -28 -9z"/>
</g>
<g>
<path d="M3077 169 c7 -7 15 -10 18 -7 3 3 -2 9 -12 12 -14 6 -15 5 -6 -5z"/>
</g>
<g>
<path d="M2443 132 c-12 -2 -27 -10 -33 -18 -11 -12 -7 -14 23 -14 36 0 57 15
41 29 -5 4 -19 5 -31 3z"/>
</g>
<g>
<path d="M2871 123 c-7 -8 -11 -16 -8 -19 2 -2 10 2 17 11 17 20 9 27 -9 8z"/>
</g>
<g>
<path d="M3178 132 c-53 -3 -70 -18 -54 -47 12 -22 46 -30 46 -11 0 6 6 0 13
-14 13 -26 54 -36 49 -12 -1 8 2 11 8 7 8 -5 7 -12 -2 -23 -11 -14 -10 -15 5
-9 10 4 34 7 53 7 22 0 34 5 34 14 0 10 -10 13 -34 11 -21 -2 -39 2 -46 10 -6
8 -17 12 -25 9 -7 -3 -16 0 -21 7 -5 9 1 11 24 6 24 -5 30 -3 26 8 -4 10 0 12
15 8 12 -3 21 -12 21 -20 0 -23 35 -11 38 13 4 31 -45 43 -150 36z m7 -23 c11
-17 0 -20 -21 -4 -17 13 -17 14 -2 15 9 0 20 -5 23 -11z m135 -25 c0 -2 -4 -4
-10 -4 -5 0 -10 5 -10 11 0 5 5 7 10 4 6 -3 10 -8 10 -11z"/>
</g>
<g>
<path d="M2217 119 c7 -7 15 -10 18 -7 3 3 -2 9 -12 12 -14 6 -15 5 -6 -5z"/>
</g>
<g>
<path d="M2495 120 c-3 -5 -1 -10 5 -10 6 0 8 -4 5 -10 -3 -5 -1 -10 4 -10 13
0 14 27 2 35 -5 3 -12 1 -16 -5z"/>
</g>
<g>
<path d="M2340 110 c-8 -5 -12 -11 -9 -14 3 -3 14 1 25 9 21 16 8 20 -16 5z"/>
</g>
<g>
<path d="M2930 110 c0 -5 7 -10 15 -10 8 0 15 5 15 10 0 6 -7 10 -15 10 -8 0
-15 -4 -15 -10z"/>
</g>
<g>
<path d="M2649 94 c6 -3 9 -10 5 -15 -3 -5 0 -9 6 -9 15 0 7 23 -9 26 -8 2 -8
1 -2 -2z"/>
</g>
<g>
<path d="M3035 90 c3 -4 -2 -11 -11 -14 -9 -4 -14 -9 -11 -12 3 -3 14 -1 25 5
14 7 25 6 42 -6 22 -16 23 -16 17 1 -6 14 -4 17 10 12 11 -5 14 -4 8 2 -13 12
-87 23 -80 12z"/>
</g>
<g>
<path d="M2237 76 c-14 -11 -15 -15 -5 -19 10 -4 10 -8 2 -14 -8 -5 -4 -14 12
-26 13 -10 24 -14 24 -9 0 6 -8 13 -17 16 -11 5 -14 10 -7 14 14 9 28 52 17
52 -4 0 -16 -7 -26 -14z"/>
</g>
<g>
<path d="M2315 70 c-3 -5 -2 -10 4 -10 5 0 13 5 16 10 3 6 2 10 -4 10 -5 0
-13 -4 -16 -10z"/>
</g>
<g>
<path d="M2477 56 c3 -15 2 -17 -5 -8 -7 11 -10 11 -15 -2 -9 -22 16 -20 37 3
16 17 16 19 -2 23 -16 4 -19 1 -15 -16z"/>
</g>
<g>
<path d="M2521 57 c-10 -26 3 -35 24 -17 19 16 19 26 0 34 -10 4 -19 -2 -24
-17z"/>
</g>
<g>
<path d="M2169 68 c-7 -24 -5 -38 4 -35 15 5 22 37 8 37 -6 0 -11 -1 -12 -2z"/>
</g>
<g>
<path d="M2765 57 c22 -18 55 -22 55 -7 0 6 -9 10 -19 10 -11 0 -28 3 -38 6
-16 6 -16 5 2 -9z"/>
</g>
<g>
<path d="M2850 66 c0 -3 5 -8 10 -11 6 -3 10 -1 10 4 0 6 -4 11 -10 11 -5 0
-10 -2 -10 -4z"/>
</g>
<g>
<path d="M2113 44 c3 -3 12 -4 19 -1 8 3 5 6 -6 6 -11 1 -17 -2 -13 -5z"/>
</g>
<g>
<path d="M2290 44 c0 -5 9 -15 20 -22 11 -7 20 -11 20 -9 0 2 -9 12 -20 22
-11 10 -20 14 -20 9z"/>
</g>
<g>
<path d="M2430 40 c0 -17 17 -47 23 -40 2 3 -2 16 -10 30 -7 14 -13 18 -13 10z"/>
</g>
<g>
<path d="M2557 43 c-8 -8 40 -33 62 -32 9 0 11 3 4 5 -7 3 -9 12 -6 20 6 17
-13 19 -21 2 -5 -10 -7 -10 -12 0 -6 13 -17 16 -27 5z"/>
</g>
<g>
<path d="M3030 46 c0 -2 7 -6 15 -10 8 -3 15 -1 15 4 0 6 -7 10 -15 10 -8 0
-15 -2 -15 -4z"/>
</g>
<g>
<path d="M2731 23 c-7 -8 -11 -16 -8 -19 2 -2 10 2 17 11 17 20 9 27 -9 8z"/>
</g>
<g>
<path d="M2903 34 c3 -3 12 -4 19 -1 8 3 5 6 -6 6 -11 1 -17 -2 -13 -5z"/>
</g>
<g>
<path d="M3073 20 c-1 -11 3 -20 8 -20 6 0 7 6 3 13 -6 9 -4 9 7 0 15 -15 49
-17 49 -4 0 5 -8 11 -17 14 -10 2 -25 8 -33 11 -11 5 -16 0 -17 -14z"/>
</g>
<g>
<path d="M2364 12 c8 -8 22 -12 30 -9 27 11 18 26 -15 25 -27 -1 -28 -3 -15
-16z"/>
</g>
<g>
<path d="M2660 25 c0 -2 9 -9 20 -15 16 -9 20 -8 20 5 0 8 -9 15 -20 15 -11 0
-20 -2 -20 -5z"/>
</g>
<g>
<path d="M2776 21 c-11 -4 -15 -10 -9 -14 5 -3 19 0 29 8 20 15 11 18 -20 6z"/>
</g>
<g>
<path d="M2838 23 c-31 -8 -19 -23 17 -23 36 0 47 13 19 24 -9 3 -16 5 -17 5
-1 -1 -10 -3 -19 -6z"/>
</g>
<g>
<path d="M2940 15 c-24 -14 -22 -14 34 -15 51 0 57 2 46 15 -16 19 -47 19 -80
0z"/>
</g>
<g>
<path d="M2514 9 c-3 -5 6 -9 20 -9 31 0 34 6 6 13 -11 3 -23 1 -26 -4z"/>
</g>
<g>
<path d="M3156 12 c-3 -5 14 -9 37 -10 30 -1 38 1 27 8 -19 12 -57 13 -64 2z"/>
</g>
</g>
</svg>
