<?xml version="1.0" standalone="no"?>
<!DOCTYPE svg PUBLIC "-//W3C//DTD SVG 20010904//EN"
 "http://www.w3.org/TR/2001/REC-SVG-20010904/DTD/svg10.dtd">
<svg version="1.0" xmlns="http://www.w3.org/2000/svg"
 width="404.653742pt" height="283.464567pt" viewBox="0 0 404.653742 283.464567"
 preserveAspectRatio="xMidYMid meet">
<metadata>
Created by potrace 1.11, written by Peter Selinger 2001-2013
</metadata>
<g transform="translate(0.000000,283.528833) scale(0.118667,-0.118667)"
fill="#000000" stroke="none">
<g>
<path d="M0 2365 c0 -14 2 -25 5 -25 39 0 1262 -173 1660 -235 127 -20 334
-51 460 -70 127 -19 327 -49 445 -68 118 -18 229 -34 245 -34 17 0 153 -19
302 -41 150 -23 277 -42 283 -42 5 0 10 13 10 29 0 28 -1 28 -72 35 -40 4
-113 13 -163 21 -139 22 -312 46 -395 55 -41 5 -133 18 -205 30 -138 23 -281
45 -355 55 -118 16 -397 57 -505 75 -66 10 -183 28 -260 40 -77 12 -162 25
-190 30 -27 5 -68 12 -90 14 -101 13 -345 47 -395 56 -30 5 -120 19 -200 30
-80 11 -156 22 -170 25 -14 2 -70 9 -125 15 -55 6 -131 15 -170 20 -109 15
-115 14 -115 -15z"/>
</g>
<g>
<path d="M2047 1663 c-4 -3 -7 -11 -7 -17 0 -6 5 -5 12 2 6 6 9 14 7 17 -3 3
-9 2 -12 -2z"/>
</g>
<g>
<path d="M321 1559 c-18 -15 -27 -16 -52 -7 -25 8 -33 8 -41 -3 -7 -11 -11
-11 -15 -1 -8 20 -43 14 -43 -8 0 -11 -4 -20 -8 -20 -16 0 -53 -42 -48 -55 2
-7 -1 -16 -9 -19 -11 -4 -11 -12 -3 -40 12 -38 28 -45 48 -21 20 25 32 17 26
-17 -4 -29 -3 -31 8 -15 7 9 19 17 27 17 8 0 6 -6 -7 -15 -15 -11 -16 -17 -6
-23 7 -5 10 -17 7 -28 -5 -15 -4 -14 7 3 l13 22 24 -25 c19 -20 21 -27 11 -39
-9 -11 -9 -15 -1 -15 7 0 9 -5 6 -10 -4 -6 -12 -4 -21 5 -9 8 -21 12 -27 8 -6
-4 -26 -6 -44 -5 -18 2 -33 -2 -33 -7 0 -13 54 -25 58 -12 5 14 72 -19 72 -36
0 -10 -16 -12 -72 -7 -40 4 -75 8 -76 10 -2 1 0 35 5 74 11 81 15 76 -69 83
-55 5 -58 4 -58 -17 0 -19 4 -21 34 -18 53 6 71 -13 73 -77 l2 -53 -55 4 c-77
7 -67 -6 16 -20 78 -13 108 -14 70 -2 l-25 8 27 1 c18 1 29 -5 33 -19 6 -20
50 -29 57 -12 3 9 121 67 155 77 12 3 24 1 28 -4 4 -7 13 -6 25 2 25 15 26 31
1 18 -20 -11 -31 -5 -31 15 0 17 51 28 60 13 4 -6 13 -8 19 -5 6 4 8 12 5 18
-4 6 3 5 16 -2 12 -6 24 -9 28 -6 3 3 0 6 -6 6 -7 0 -12 5 -12 11 0 7 10 9 25
5 14 -4 25 -2 25 4 0 5 -5 10 -10 10 -7 0 -7 6 0 20 13 25 -4 27 -20 3 -10
-16 -11 -15 -6 5 3 19 2 21 -9 12 -11 -9 -15 -5 -18 17 -3 15 -4 7 -4 -19 1
-25 -1 -44 -4 -42 -4 2 -9 -2 -12 -10 -4 -9 -14 -12 -25 -9 -11 2 -30 -1 -42
-7 -13 -7 -25 -8 -29 -4 -10 15 -36 10 -43 -7 -6 -16 -68 -25 -68 -9 0 22 14
40 31 40 21 0 26 16 7 23 -7 3 2 6 20 6 22 1 32 6 32 17 0 8 4 13 9 10 5 -3
11 0 14 8 4 9 14 12 26 9 12 -3 18 -9 16 -14 -3 -4 -12 -6 -20 -3 -11 5 -12 1
-3 -18 15 -31 46 -32 40 -1 -3 14 1 25 11 29 9 3 14 11 11 19 -3 7 4 15 15 18
21 5 31 47 11 47 -5 0 -10 -6 -10 -13 0 -16 -30 -19 -48 -4 -10 8 -9 13 3 27
14 15 14 21 3 39 -7 12 -16 21 -21 21 -4 0 -7 8 -5 18 2 9 -3 16 -9 15 -7 -2
-12 3 -10 10 3 19 -56 16 -82 -4z m49 -29 c0 -5 -4 -10 -9 -10 -6 0 -13 5 -16
10 -3 6 1 10 9 10 9 0 16 -4 16 -10z m-97 -26 c9 -3 13 -13 9 -27 -5 -19 -4
-19 10 -6 9 7 14 17 12 20 -2 4 6 9 17 12 15 4 23 0 26 -13 4 -15 9 -17 23
-10 24 13 33 1 14 -18 -14 -14 -14 -16 0 -24 25 -14 19 -29 -9 -22 -21 5 -24
3 -19 -10 4 -11 13 -15 25 -11 11 4 19 2 19 -3 0 -14 -28 -23 -36 -11 -3 6
-12 8 -19 5 -7 -2 -18 1 -24 7 -9 9 -10 8 -5 -7 6 -16 4 -18 -9 -13 -9 3 -17
2 -17 -3 0 -6 4 -10 10 -10 5 0 7 -7 4 -15 -10 -24 -52 -19 -56 7 -2 14 -12
24 -28 28 -21 5 -25 12 -24 38 1 18 -2 30 -6 27 -4 -3 -10 2 -14 10 -4 10 6
21 32 34 44 22 46 23 65 15z m137 -4 c0 -5 -4 -10 -10 -10 -5 0 -10 5 -10 10
0 6 5 10 10 10 6 0 10 -4 10 -10z m30 -99 c0 -5 -7 -12 -16 -15 -14 -5 -15 -4
-4 9 14 17 20 19 20 6z m-100 -182 c0 -12 -47 -12 -55 0 -6 11 23 20 43 13 6
-2 12 -8 12 -13z"/>
</g>
<g>
<path d="M755 1560 c-4 -6 -15 -8 -26 -5 -13 5 -19 2 -19 -10 0 -9 7 -16 18
-14 33 3 35 -1 12 -21 -18 -16 -20 -20 -7 -20 19 0 23 -15 7 -25 -6 -4 -8 -11
-5 -16 4 -5 -2 -9 -12 -9 -15 0 -16 -2 -3 -10 10 -6 17 -5 23 5 10 19 25 19
61 0 36 -19 36 -19 36 10 0 17 -6 25 -17 26 -11 0 -13 3 -5 6 20 8 14 22 -8
16 -16 -4 -20 0 -20 21 0 14 -3 25 -7 25 -5 -1 -15 -1 -23 0 -13 1 -13 2 0 11
8 5 12 12 8 15 -3 4 -9 1 -13 -5z"/>
</g>
<g>
<path d="M650 1543 c-19 -6 -29 -12 -22 -12 9 -1 10 -6 2 -20 -5 -11 -7 -27
-4 -35 4 -12 0 -16 -17 -17 -17 -1 -19 -3 -6 -6 30 -8 17 -29 -15 -24 -5 0 -8
-3 -8 -9 0 -5 7 -10 15 -10 8 0 15 -5 15 -10 0 -6 -13 -8 -30 -5 -16 3 -30 1
-30 -4 0 -13 45 -22 67 -14 17 6 17 5 -1 -16 -17 -18 -17 -21 -3 -15 18 6 19
3 21 -51 2 -41 20 -38 24 5 3 24 -2 38 -15 48 -16 12 -16 15 -3 25 16 13 23
47 10 47 -5 0 -11 -6 -13 -12 -4 -8 -6 -7 -6 3 -1 9 8 19 19 22 13 3 18 1 13
-6 -4 -6 0 -8 10 -4 9 3 18 1 21 -6 2 -7 5 -4 5 6 1 9 -5 17 -11 17 -8 1 -6 6
4 14 10 7 15 16 11 19 -3 4 -12 2 -20 -5 -17 -13 -26 -6 -17 15 3 9 12 13 20
10 10 -4 12 0 8 11 -3 9 -11 13 -18 10 -6 -3 -3 1 6 8 27 23 8 35 -32 21z"/>
</g>
<g>
<path d="M1450 1558 c-1 -2 -3 -68 -5 -148 -3 -133 -2 -137 5 -50 16 172 17
200 8 200 -4 0 -8 -1 -8 -2z"/>
</g>
<g>
<path d="M1945 1529 c-30 -36 -28 -51 5 -59 22 -5 42 -37 33 -52 -2 -5 10 -8
28 -8 31 0 31 0 15 25 -26 39 -18 43 13 7 32 -35 42 -32 34 10 -5 26 -8 27
-64 27 -32 0 -63 2 -69 6 -17 11 18 50 45 50 21 1 24 -3 19 -19 -6 -18 -5 -19
9 -8 10 9 17 10 22 2 3 -5 11 -10 18 -10 6 0 2 7 -9 15 -10 8 -15 15 -10 15 5
0 3 7 -4 15 -20 25 -56 18 -85 -16z"/>
</g>
<g>
<path d="M1252 1543 c15 -2 42 -2 60 0 18 2 6 4 -27 4 -33 0 -48 -2 -33 -4z"/>
</g>
<g>
<path d="M2106 1528 c10 -14 21 -24 23 -22 3 3 -6 15 -18 27 l-24 22 19 -27z"/>
</g>
<g>
<path d="M2176 1528 c10 -14 21 -24 23 -22 3 3 -6 15 -18 27 l-24 22 19 -27z"/>
</g>
<g>
<path d="M3040 1540 c0 -5 4 -10 9 -10 5 0 18 -3 28 -6 16 -5 16 -4 -1 10 -23
18 -36 20 -36 6z"/>
</g>
<g>
<path d="M3140 1542 c0 -4 10 -9 22 -9 18 -2 20 0 8 7 -18 12 -30 13 -30 2z"/>
</g>
<g>
<path d="M2250 1525 c7 -8 15 -15 17 -15 3 0 0 7 -7 15 -7 8 -15 15 -17 15 -3
0 0 -7 7 -15z"/>
</g>
<g>
<path d="M3365 1530 c-3 -5 -1 -10 4 -10 6 0 11 5 11 10 0 6 -2 10 -4 10 -3 0
-8 -4 -11 -10z"/>
</g>
<g>
<path d="M3342 1490 c0 -19 2 -27 5 -17 2 9 2 25 0 35 -3 9 -5 1 -5 -18z"/>
</g>
<g>
<path d="M2384 1497 c-3 -9 -16 -12 -34 -9 -18 3 -30 0 -30 -7 0 -6 9 -11 20
-11 13 0 18 -5 14 -15 -8 -21 15 -75 32 -75 8 0 14 5 14 11 0 7 31 9 90 8 87
-3 91 -2 121 27 24 22 29 25 23 9 -7 -18 -6 -19 10 -6 26 21 7 27 -106 34 -99
6 -141 1 -118 -13 9 -5 6 -10 -10 -15 -24 -8 -46 7 -36 24 4 6 19 11 33 11 25
0 24 14 0 15 -7 1 -11 6 -9 13 3 16 -7 15 -14 -1z m106 -78 c0 -6 -4 -7 -10
-4 -5 3 -10 11 -10 16 0 6 5 7 10 4 6 -3 10 -11 10 -16z"/>
</g>
<g>
<path d="M2730 1501 c-26 -4 -36 -12 -38 -28 -3 -19 1 -23 22 -23 19 0 26 5
26 20 0 13 7 20 20 20 11 0 20 5 20 10 0 6 -3 9 -7 9 -5 -1 -24 -4 -43 -8z"/>
</g>
<g>
<path d="M1196 1448 c-4 -29 -9 -70 -12 -90 -5 -30 -3 -38 10 -38 17 0 22 15
8 24 -4 3 -6 22 -4 43 4 31 6 34 13 18 4 -11 8 -35 8 -54 1 -19 4 -32 7 -28 9
8 -7 177 -16 177 -5 0 -11 -24 -14 -52z"/>
</g>
<g>
<path d="M2810 1490 c0 -5 9 -10 21 -10 21 0 21 0 -1 -18 -15 -12 -18 -19 -9
-19 8 0 67 -3 132 -7 73 -5 117 -4 117 2 0 14 -26 22 -73 23 -64 0 -122 14
-119 27 1 8 -11 12 -33 12 -19 0 -35 -4 -35 -10z"/>
</g>
<g>
<path d="M3082 1455 c3 -29 28 -42 40 -20 5 8 14 15 20 15 7 0 7 -4 0 -13 -9
-10 -1 -17 37 -31 52 -18 231 -32 231 -17 0 10 -42 16 -172 26 l-78 7 0 29 c0
27 -2 29 -40 29 -36 0 -40 -2 -38 -25z"/>
</g>
<g>
<path d="M1858 1449 c-2 -3 -34 -12 -73 -20 l-70 -14 0 -35 0 -35 66 -3 c58
-2 68 -6 79 -27 7 -13 10 -34 7 -47 -3 -13 -1 -32 3 -43 6 -14 9 -1 9 43 1 46
5 62 15 62 8 0 19 14 25 32 11 31 11 31 -9 13 -16 -14 -25 -16 -42 -7 -22 10
-22 11 10 18 28 6 62 43 62 68 0 7 -79 3 -82 -5z"/>
</g>
<g>
<path d="M2205 1434 c-49 -8 -94 -19 -99 -24 -10 -10 48 -6 81 5 6 2 13 0 15
-5 3 -9 100 19 114 33 9 9 1 8 -111 -9z"/>
</g>
<g>
<path d="M764 1405 c-4 -10 -10 -12 -18 -7 -11 10 -43 8 -54 -2 -3 -3 3 -6 14
-6 11 0 27 -12 36 -27 10 -16 18 -22 18 -14 0 11 3 11 17 0 11 -10 14 -10 9
-1 -4 6 -2 12 3 12 6 0 11 -4 11 -8 0 -12 39 -12 46 0 4 7 2 8 -4 4 -7 -4 -12
-1 -12 8 0 9 -7 16 -16 16 -13 0 -14 3 -5 14 9 11 8 15 -5 20 -25 9 -34 7 -40
-9z"/>
</g>
<g>
<path d="M1014 1377 c-13 -34 -10 -52 7 -57 16 -5 16 -7 -3 -30 -14 -17 -22
-21 -25 -12 -4 9 -10 7 -23 -8 -16 -19 -19 -19 -34 -5 -22 22 -21 46 2 39 16
-5 16 -5 -1 6 -9 6 -15 15 -12 21 3 5 0 6 -8 3 -9 -3 -13 -13 -9 -26 4 -15 2
-19 -7 -13 -10 5 -11 2 -7 -13 6 -18 3 -20 -29 -19 -19 1 -35 5 -35 9 0 4 -4
8 -9 8 -6 0 -6 -12 0 -30 10 -28 29 -41 29 -20 0 6 7 10 16 10 8 0 12 -5 9
-10 -8 -14 47 -1 56 13 10 14 52 -12 45 -29 -3 -8 -3 -14 0 -14 2 0 9 10 14
23 6 15 9 17 9 6 1 -10 13 -19 33 -23 17 -3 32 -5 33 -4 11 14 11 80 1 90 -6
6 -10 25 -8 41 3 21 1 28 -7 22 -8 -4 -11 -1 -9 10 4 22 -20 32 -28 12z m45
-153 c3 -16 1 -17 -13 -5 -19 16 -21 34 -3 29 6 -3 14 -13 16 -24z"/>
</g>
<g>
<path d="M1150 1355 c0 -19 -5 -35 -10 -35 -7 0 -7 -7 0 -21 7 -11 9 -26 7
-34 -9 -22 15 -37 28 -18 11 15 13 15 24 -5 6 -12 18 -22 26 -22 8 0 15 -3 15
-8 0 -4 30 -9 68 -11 99 -4 102 -5 102 -12 0 -4 11 -9 24 -11 18 -4 23 -1 19
9 -5 11 5 13 48 8 30 -4 66 -11 81 -17 34 -13 58 -5 58 20 0 27 -55 43 -161
47 -50 2 -93 6 -97 9 -9 10 -72 7 -72 -3 0 -16 18 -22 23 -9 3 8 6 6 6 -4 2
-29 -25 -20 -54 17 -22 29 -24 39 -14 51 6 8 9 17 6 20 -11 11 -47 -17 -53
-41 -8 -31 -26 -33 -22 -3 4 29 -19 35 -25 6 -2 -13 -5 5 -6 40 -1 64 -21 90
-21 27z"/>
</g>
<g>
<path d="M2150 1369 c-41 -5 -79 -11 -85 -14 -13 -6 144 4 215 14 l55 9 -55
-1 c-30 0 -89 -3 -130 -8z"/>
</g>
<g>
<path d="M2438 1265 c3 -103 1 -117 -12 -112 -13 5 -16 -3 -16 -53 l0 -60 -41
6 c-29 5 -43 3 -49 -6 -7 -11 -15 -11 -48 -1 -44 15 -59 10 -72 -24 -8 -21
-14 -23 -47 -19 -29 3 -33 2 -18 -5 14 -7 -25 -10 -124 -10 -113 -1 -141 2
-134 12 5 6 7 23 3 37 -6 24 -9 25 -68 22 -54 -3 -62 -1 -63 15 0 12 -5 8 -12
-12 -8 -20 -20 -31 -37 -33 -19 -2 -22 0 -12 10 18 18 15 28 -8 28 -11 0 -20
4 -20 9 0 5 -18 16 -40 25 -22 9 -40 20 -40 26 0 5 -7 7 -15 4 -8 -4 -15 -1
-15 5 0 7 -9 5 -25 -5 -31 -21 -24 -34 17 -29 18 2 40 -2 52 -11 21 -16 21
-16 -4 -9 -21 5 -22 4 -7 -5 10 -6 23 -10 30 -7 14 4 37 -17 37 -35 0 -10 -2
-10 -9 1 -10 16 -116 22 -144 8 -10 -4 -24 -5 -30 0 -7 5 -25 8 -42 7 -16 -1
-45 1 -62 6 -20 5 -33 5 -33 -1 0 -5 -19 -10 -42 -10 l-43 -1 40 -8 c22 -5 87
-12 143 -16 83 -6 106 -4 112 7 8 11 19 11 74 -4 35 -9 82 -17 105 -17 42 0
69 -19 29 -21 -13 -1 -3 -5 22 -10 65 -11 539 -11 520 1 -31 20 4 22 112 6
111 -16 267 -22 255 -10 -3 3 -37 6 -75 5 -54 -1 -69 2 -69 14 0 14 22 16 43
3 13 -8 54 1 54 12 0 5 -23 10 -52 12 -42 2 -52 0 -56 -14 -6 -24 -14 -23 -30
3 -10 15 -11 24 -3 32 15 15 14 27 -3 27 -11 0 -13 26 -10 147 3 81 6 149 8
151 6 6 454 -19 502 -27 29 -6 46 -4 59 6 14 9 15 13 4 13 -8 0 -77 4 -154 9
-77 6 -207 13 -290 16 l-150 7 3 -117z m-11 -212 c-3 -10 -5 -2 -5 17 0 19 2
27 5 18 2 -10 2 -26 0 -35z m-569 -51 c3 -16 -2 -22 -17 -22 -24 0 -33 13 -25
35 9 23 38 14 42 -13z m552 7 c0 -16 -4 -19 -22 -13 -32 9 -35 14 -18 24 24
16 40 11 40 -11z m-153 0 c14 -14 6 -39 -12 -39 -15 0 -28 27 -19 41 7 12 18
11 31 -2z"/>
</g>
<g>
<path d="M1997 1343 c7 -2 21 -2 30 0 10 3 5 5 -12 5 -16 0 -24 -2 -18 -5z"/>
</g>
<g>
<path d="M778 1323 c-12 -3 -17 -18 -20 -54 -1 -27 1 -49 6 -49 15 0 35 34 36
58 0 13 4 21 9 18 5 -4 7 3 4 14 -3 11 -8 19 -12 19 -3 -1 -13 -3 -23 -6z"/>
</g>
<g>
<path d="M3380 1320 c19 -13 30 -13 30 0 0 6 -10 10 -22 10 -19 0 -20 -2 -8
-10z"/>
</g>
<g>
<path d="M150 1306 c0 -9 5 -16 10 -16 6 0 10 4 10 9 0 6 -4 13 -10 16 -5 3
-10 -1 -10 -9z"/>
</g>
<g>
<path d="M731 1306 c-1 -11 2 -17 5 -13 3 3 4 12 1 19 -3 8 -6 5 -6 -6z"/>
</g>
<g>
<path d="M990 1306 c0 -3 5 -8 10 -11 6 -3 10 -1 10 4 0 6 -4 11 -10 11 -5 0
-10 -2 -10 -4z"/>
</g>
<g>
<path d="M595 1290 c3 -5 10 -10 16 -10 5 0 9 5 9 10 0 6 -7 10 -16 10 -8 0
-12 -4 -9 -10z"/>
</g>
<g>
<path d="M1094 1287 c3 -10 6 -25 6 -33 0 -8 5 -14 11 -14 12 0 2 40 -14 55
-7 7 -8 4 -3 -8z"/>
</g>
<g>
<path d="M2015 1290 c-3 -5 -1 -10 4 -10 6 0 11 5 11 10 0 6 -2 10 -4 10 -3 0
-8 -4 -11 -10z"/>
</g>
<g>
<path d="M3370 1289 c0 -7 6 -17 13 -23 9 -8 11 -46 9 -139 l-3 -128 -37 3
-37 3 3 64 c3 44 1 61 -7 57 -6 -4 -11 -16 -11 -26 0 -10 -8 -21 -17 -23 -17
-4 -17 -5 0 -6 13 -1 17 -10 17 -36 0 -31 -3 -35 -27 -36 -21 -1 -23 -2 -8 -6
11 -3 25 -9 32 -15 7 -6 14 -5 18 2 9 14 28 13 50 -4 16 -12 17 -16 6 -30 -16
-19 -50 -21 -57 -3 -5 13 -139 23 -147 10 -3 -5 -22 -7 -44 -5 -178 14 -389
19 -395 9 -3 -5 -14 -50 -23 -99 -24 -124 -30 -120 166 -114 87 2 162 7 168
10 5 3 14 36 21 73 6 38 14 76 16 85 5 16 20 17 172 11 153 -5 166 -5 154 10
-8 9 -11 21 -7 28 4 6 10 81 13 166 4 125 2 157 -9 164 -19 12 -29 11 -29 -2z
m-375 -363 c11 -3 23 -5 27 -5 4 -1 9 -11 11 -23 4 -20 4 -19 6 5 1 19 6 27
19 27 14 0 15 -2 2 -10 -8 -5 -13 -11 -12 -12 2 -2 -1 -19 -6 -38 -6 -21 -11
-27 -11 -15 -1 14 -7 7 -20 -22 -15 -31 -25 -41 -43 -41 -12 0 -63 -1 -112 -1
-110 -2 -120 5 -112 74 8 71 21 78 136 71 52 -3 104 -8 115 -10z"/>
</g>
<g>
<path d="M1733 1278 c2 -7 1 -20 -4 -29 -7 -14 -2 -18 27 -24 19 -3 42 -9 50
-12 8 -3 14 0 14 6 0 6 -8 11 -17 11 -28 1 -54 25 -47 44 4 11 1 16 -11 16 -9
0 -15 -6 -12 -12z"/>
</g>
<g>
<path d="M556 1265 c-3 -9 0 -15 8 -15 7 0 13 7 13 15 0 8 -4 15 -8 15 -4 0
-9 -7 -13 -15z"/>
</g>
<g>
<path d="M705 1253 c0 -24 15 -53 27 -53 2 0 4 18 5 40 2 32 -2 40 -15 40 -13
0 -18 -8 -17 -27z"/>
</g>
<g>
<path d="M510 1256 c0 -3 5 -8 10 -11 6 -3 10 -1 10 4 0 6 -4 11 -10 11 -5 0
-10 -2 -10 -4z"/>
</g>
<g>
<path d="M1905 1241 c-8 -27 -4 -33 14 -22 10 6 11 14 3 26 -9 17 -10 16 -17
-4z"/>
</g>
<g>
<path d="M2257 1254 c-7 -8 4 -44 14 -44 12 0 12 37 0 44 -4 3 -11 3 -14 0z"/>
</g>
<g>
<path d="M630 1246 c0 -3 5 -8 10 -11 6 -3 10 -1 10 4 0 6 -4 11 -10 11 -5 0
-10 -2 -10 -4z"/>
</g>
<g>
<path d="M1990 1230 c0 -11 5 -20 10 -20 6 0 10 9 10 20 0 11 -4 20 -10 20 -5
0 -10 -9 -10 -20z"/>
</g>
<g>
<path d="M2040 1242 c0 -5 6 -16 13 -26 13 -18 14 -18 20 -2 4 10 5 22 1 27
-7 11 -34 12 -34 1z"/>
</g>
<g>
<path d="M2118 1243 c6 -2 12 -13 12 -24 0 -10 5 -19 10 -19 6 0 10 11 10 25
0 19 -5 25 -22 24 -13 0 -17 -3 -10 -6z"/>
</g>
<g>
<path d="M536 1225 c-3 -9 0 -18 9 -21 25 -10 33 0 15 19 -16 16 -18 16 -24 2z"/>
</g>
<g>
<path d="M1100 1221 c0 -6 5 -11 10 -11 6 0 10 2 10 4 0 3 -4 8 -10 11 -5 3
-10 1 -10 -4z"/>
</g>
<g>
<path d="M631 1211 c-9 -6 -2 -10 24 -13 32 -4 35 -3 19 9 -21 15 -24 16 -43
4z"/>
</g>
<g>
<path d="M802 1190 c0 -14 2 -19 5 -12 2 6 2 18 0 25 -3 6 -5 1 -5 -13z"/>
</g>
<g>
<path d="M2585 1205 c26 -9 105 -12 105 -4 0 5 -26 9 -57 8 -32 0 -53 -2 -48
-4z"/>
</g>
<g>
<path d="M1727 1170 c-10 -17 -13 -30 -8 -30 6 0 14 -1 18 -2 4 -2 10 12 14
30 8 40 -1 41 -24 2z"/>
</g>
<g>
<path d="M2250 1190 c0 -5 7 -10 16 -10 8 0 12 5 9 10 -3 6 -10 10 -16 10 -5
0 -9 -4 -9 -10z"/>
</g>
<g>
<path d="M3100 1190 c0 -5 7 -7 15 -4 8 4 15 8 15 10 0 2 -7 4 -15 4 -8 0 -15
-4 -15 -10z"/>
</g>
<g>
<path d="M336 1182 c-3 -6 3 -12 15 -15 12 -3 19 -1 16 6 -5 15 -24 20 -31 9z"/>
</g>
<g>
<path d="M385 1180 c-8 -13 -1 -24 14 -19 6 3 7 10 2 18 -6 10 -10 10 -16 1z"/>
</g>
<g>
<path d="M1960 1156 l0 -36 68 0 69 0 -5 30 c-3 25 -9 30 -31 30 -14 0 -43 3
-63 6 l-38 7 0 -37z"/>
</g>
<g>
<path d="M2121 1164 c8 -10 15 -12 17 -5 6 17 27 13 48 -10 19 -21 19 -21 -10
-18 -17 3 -31 -1 -33 -8 -3 -9 9 -13 42 -13 42 0 45 1 35 19 -15 30 -51 51
-83 51 -26 0 -28 -2 -16 -16z"/>
</g>
<g>
<path d="M830 1156 c0 -18 6 -21 15 -7 3 5 1 12 -5 16 -5 3 -10 -1 -10 -9z"/>
</g>
<g>
<path d="M1890 1160 c0 -5 -7 -10 -17 -10 -9 0 -14 -2 -11 -5 8 -9 58 6 58 16
0 5 -7 9 -15 9 -8 0 -15 -4 -15 -10z"/>
</g>
<g>
<path d="M2508 1138 c-2 -13 -1 -36 3 -53 5 -24 7 -20 8 23 1 54 -4 68 -11 30z"/>
</g>
<g>
<path d="M82 1143 c10 -2 28 -2 40 0 13 2 5 4 -17 4 -22 1 -32 -1 -23 -4z"/>
</g>
<g>
<path d="M638 1125 c-5 -24 4 -26 35 -9 17 10 16 11 -6 21 -22 10 -25 9 -29
-12z"/>
</g>
<g>
<path d="M1210 1146 c0 -3 5 -8 10 -11 6 -3 10 -1 10 4 0 6 -4 11 -10 11 -5 0
-10 -2 -10 -4z"/>
</g>
<g>
<path d="M1455 1140 c-16 -7 -14 -9 12 -7 17 0 29 5 27 9 -6 10 -13 9 -39 -2z"/>
</g>
<g>
<path d="M1640 1138 c0 -9 -5 -18 -12 -20 -7 -3 -8 -7 -3 -10 16 -9 34 17 24
33 -7 11 -9 11 -9 -3z"/>
</g>
<g>
<path d="M1355 1130 c3 -5 11 -10 16 -10 6 0 7 5 4 10 -3 6 -11 10 -16 10 -6
0 -7 -4 -4 -10z"/>
</g>
<g>
<path d="M2960 1119 c0 -39 -19 -59 -56 -59 -21 0 -33 -4 -29 -10 8 -13 -7
-17 -81 -23 l-61 -5 5 27 c8 45 20 51 101 53 l76 2 -90 5 c-96 6 -125 4 -125
-10 0 -5 6 -6 13 -3 12 4 14 -15 8 -66 -1 -12 -3 -13 -10 -1 -14 22 -34 8 -37
-27 -3 -26 0 -32 16 -32 10 0 25 9 33 20 13 19 22 20 113 15 54 -3 93 -2 87 1
-17 8 -16 34 1 34 8 0 17 7 20 16 3 8 10 12 16 9 6 -4 10 10 10 34 0 23 -2 41
-5 41 -3 0 -5 -9 -5 -21z"/>
</g>
<g>
<path d="M281 1121 c-8 -5 -12 -19 -9 -34 5 -23 1 -26 -35 -33 -22 -3 -54 -12
-71 -20 l-31 -13 50 0 c40 1 45 3 25 9 -15 5 32 8 123 8 82 0 151 3 154 6 4 3
-5 6 -20 6 -14 0 -29 5 -32 11 -4 6 -13 8 -21 5 -22 -8 -5 20 19 32 16 8 18
11 6 11 -9 1 -22 -5 -28 -13 -17 -21 -63 -13 -74 13 -10 22 -32 27 -56 12z
m49 -51 c0 -5 -4 -10 -9 -10 -6 0 -13 5 -16 10 -3 6 1 10 9 10 9 0 16 -4 16
-10z m32 -17 c-7 -3 -16 -2 -19 1 -4 3 2 6 13 5 11 0 14 -3 6 -6z"/>
</g>
<g>
<path d="M516 1121 c-4 -5 3 -7 14 -4 23 6 26 13 6 13 -8 0 -17 -4 -20 -9z"/>
</g>
<g>
<path d="M1670 1120 c0 -5 7 -10 15 -10 8 0 15 5 15 10 0 6 -7 10 -15 10 -8 0
-15 -4 -15 -10z"/>
</g>
<g>
<path d="M3010 1115 c0 -27 5 -30 57 -30 44 -1 52 2 50 17 -4 24 -17 35 -17
15 0 -23 -20 -22 -21 1 -1 16 -2 16 -6 0 -2 -10 -9 -18 -14 -18 -5 0 -9 8 -10
18 0 14 -2 14 -9 -3 -7 -17 -9 -17 -9 -2 -1 21 -21 23 -21 2z"/>
</g>
<g>
<path d="M3135 1120 c-3 -5 -1 -10 4 -10 6 0 11 5 11 10 0 6 -2 10 -4 10 -3 0
-8 -4 -11 -10z"/>
</g>
<g>
<path d="M2535 1115 c24 -8 154 -11 149 -4 -3 5 -40 9 -82 8 -42 0 -72 -2 -67
-4z"/>
</g>
<g>
<path d="M540 1101 c0 -13 -43 -22 -54 -11 -6 6 -14 10 -20 10 -5 0 4 -11 22
-23 17 -13 29 -26 27 -29 -6 -5 134 -18 203 -18 23 0 42 5 42 10 0 6 1 13 3
17 1 3 -18 7 -43 7 -25 1 -50 4 -56 8 -6 4 -30 10 -52 14 -23 4 -42 10 -42 15
0 5 -7 9 -15 9 -8 0 -15 -4 -15 -9z m25 -21 c3 -5 19 -10 36 -10 16 0 29 -5
29 -11 0 -6 -14 -9 -32 -6 -43 5 -69 17 -62 28 7 12 21 11 29 -1z"/>
</g>
<g>
<path d="M1843 1093 c20 -2 54 -2 75 0 20 2 3 4 -38 4 -41 0 -58 -2 -37 -4z"/>
</g>
<g>
<path d="M2665 1080 c-3 -5 -2 -10 4 -10 5 0 13 5 16 10 3 6 2 10 -4 10 -5 0
-13 -4 -16 -10z"/>
</g>
<g>
<path d="M778 1074 c-3 -3 -4 -14 -1 -25 4 -15 14 -19 51 -19 53 0 47 21 -7
22 -25 1 -29 4 -20 15 9 10 8 13 -3 13 -8 0 -17 -3 -20 -6z"/>
</g>
<g>
<path d="M870 1056 c24 -22 34 -24 191 -31 141 -5 167 -4 172 8 4 12 -5 15
-44 15 -27 1 -49 -4 -49 -9 0 -6 -7 -3 -16 5 -18 18 -34 21 -34 5 0 -6 -9 -8
-21 -4 -35 12 -93 13 -119 3 -16 -6 -26 -6 -28 1 -2 6 -12 11 -22 11 -10 0
-22 5 -25 10 -3 6 -11 10 -18 10 -6 0 0 -11 13 -24z"/>
</g>
<g>
<path d="M3141 1056 c-1 -11 2 -17 5 -13 3 3 4 12 1 19 -3 8 -6 5 -6 -6z"/>
</g>
<g>
<path d="M3180 1056 c0 -2 11 -6 25 -8 14 -3 25 -1 25 3 0 5 -11 9 -25 9 -14
0 -25 -2 -25 -4z"/>
</g>
<g>
<path d="M2500 1043 c0 -5 22 -8 49 -8 27 0 53 3 57 8 4 4 -18 7 -49 7 -31 0
-57 -3 -57 -7z"/>
</g>
<g>
<path d="M2960 1035 c0 -8 2 -15 4 -15 2 0 6 7 10 15 3 8 1 15 -4 15 -6 0 -10
-7 -10 -15z"/>
</g>
<g>
<path d="M1924 999 c-3 -5 21 -9 52 -9 32 0 55 2 53 4 -10 8 -100 13 -105 5z"/>
</g>
<g>
<path d="M3137 624 c-14 -15 -6 -24 21 -24 25 0 195 -40 235 -55 9 -4 17 -3
17 3 0 14 -57 33 -245 79 -11 2 -24 1 -28 -3z"/>
</g>
<g>
<path d="M2680 581 c0 -6 11 -11 24 -11 27 0 66 -42 66 -71 0 -27 11 -49 24
-49 7 0 35 -11 62 -25 44 -23 54 -24 97 -15 45 9 193 13 172 4 -6 -2 -51 -8
-100 -13 l-90 -8 100 -1 c55 0 111 4 125 8 17 5 19 8 8 9 -10 1 -18 7 -18 14
0 9 -30 12 -112 13 -94 1 -157 5 -200 13 -5 0 -8 8 -8 17 0 10 6 14 15 10 10
-4 15 1 15 14 0 11 -6 20 -12 21 -7 0 -4 4 7 9 17 7 15 9 -11 9 -17 1 -51 12
-75 25 -56 31 -89 40 -89 27z"/>
</g>
<g>
<path d="M3150 584 c0 -18 24 -44 41 -44 21 0 148 -33 192 -49 21 -8 27 -7 27
3 0 26 -37 44 -140 70 -113 28 -120 29 -120 20z"/>
</g>
<g>
<path d="M2974 553 c4 -5 22 -13 39 -20 31 -11 31 -11 -23 -12 -30 -1 -65 -4
-77 -7 -25 -7 -38 -33 -23 -48 12 -12 149 -11 162 2 5 5 29 3 61 -6 29 -7 99
-27 157 -42 58 -15 113 -31 123 -35 13 -6 17 -2 17 18 0 16 -7 28 -17 31 -16
4 -249 76 -365 111 -53 17 -65 18 -54 8z m164 -74 c23 -7 40 -14 38 -16 -5 -5
-116 27 -116 33 0 3 8 3 18 0 9 -2 36 -10 60 -17z"/>
</g>
<g>
<path d="M2555 539 c4 -6 14 -8 23 -4 8 3 19 0 24 -7 6 -10 8 -8 8 5 0 12 -8
17 -31 17 -19 0 -28 -4 -24 -11z"/>
</g>
<g>
<path d="M2703 534 c3 -3 12 -4 19 -1 8 3 5 6 -6 6 -11 1 -17 -2 -13 -5z"/>
</g>
<g>
<path d="M2043 504 c-3 -8 0 -21 7 -27 10 -10 12 -8 6 7 -4 12 -1 23 6 28 11
6 11 8 0 8 -7 0 -15 -7 -19 -16z"/>
</g>
<g>
<path d="M2506 510 c-18 -6 -18 -7 -2 -13 11 -4 16 -13 12 -22 -3 -8 5 -26 17
-39 19 -20 38 -26 116 -35 82 -10 96 -10 110 4 9 9 11 15 4 15 -6 0 -19 7 -28
16 -9 10 -26 18 -38 20 -12 1 -45 7 -73 13 -28 5 -60 7 -72 4 -16 -4 -21 0
-24 20 -2 19 -7 23 -22 17z"/>
</g>
<g>
<path d="M2140 473 c0 -18 5 -33 10 -33 6 0 10 4 10 9 0 12 83 22 95 10 5 -5
14 -9 20 -9 5 0 3 5 -5 11 -11 8 -2 9 36 6 27 -3 56 -2 64 3 17 11 40 2 40
-16 0 -8 5 -14 11 -14 5 0 8 -4 4 -9 -3 -5 -36 -13 -73 -17 l-67 -7 40 -12
c48 -13 114 -2 133 23 7 9 12 31 10 47 l-3 30 -163 5 -162 5 0 -32z"/>
</g>
<g>
<path d="M1891 469 c-5 -13 -12 -53 -15 -89 -4 -36 -9 -81 -12 -101 l-5 -35
-92 -1 c-169 -2 -179 -2 -171 -14 5 -8 45 -10 135 -7 115 5 154 0 117 -15 -8
-3 -6 -6 4 -6 12 -1 19 10 23 37 15 92 44 181 63 191 33 18 131 -5 382 -89 96
-32 209 -65 250 -75 41 -9 100 -25 130 -35 51 -18 80 -18 51 -1 -7 5 -101 34
-209 66 -109 31 -289 86 -402 122 -113 35 -213 67 -222 70 -12 4 -20 -2 -27
-18z"/>
</g>
<g>
<path d="M2481 404 c-9 -11 -10 -19 -2 -27 7 -7 12 -6 17 6 3 9 14 17 23 17
14 0 14 2 1 10 -20 13 -22 12 -39 -6z"/>
</g>
<g>
<path d="M2823 404 c3 -3 12 -4 19 -1 8 3 5 6 -6 6 -11 1 -17 -2 -13 -5z"/>
</g>
<g>
<path d="M2705 358 c26 -20 206 -32 336 -23 55 4 98 9 95 12 -2 3 -96 6 -208
7 -112 2 -212 6 -223 11 l-20 7 20 -14z"/>
</g>
<g>
<path d="M2519 339 c13 -5 76 -21 140 -35 64 -13 128 -28 143 -33 14 -5 47 -6
71 -4 27 3 47 1 51 -6 5 -7 -5 -11 -29 -11 -23 0 -34 -4 -30 -10 8 -12 97 -3
105 11 6 9 152 24 328 35 61 3 112 10 112 14 0 15 -23 16 -114 4 -213 -29
-333 -35 -373 -19 -21 8 -67 19 -103 25 -36 7 -80 18 -99 26 -21 9 -68 14
-130 13 -72 0 -90 -3 -72 -10z m271 -40 c11 -7 4 -8 -25 -3 -50 8 -58 14 -19
14 16 0 36 -5 44 -11z"/>
</g>
<g>
<path d="M3140 260 c-63 -4 -123 -8 -132 -9 -10 0 -18 -6 -18 -12 0 -8 38 -10
133 -5 190 8 287 17 287 27 0 10 -93 9 -270 -1z"/>
</g>
<g>
<path d="M1265 214 c-233 -20 -470 -70 -715 -153 l-175 -60 92 0 c65 -1 94 3
100 12 9 15 58 33 183 70 200 59 437 94 650 96 69 1 159 4 200 8 68 6 72 7 40
15 -41 10 -302 18 -375 12z"/>
</g>
<g>
<path d="M2788 208 c5 -5 16 -8 23 -6 8 3 3 7 -10 11 -17 4 -21 3 -13 -5z"/>
</g>
<g>
<path d="M598 133 c6 -2 18 -2 25 0 6 3 1 5 -13 5 -14 0 -19 -2 -12 -5z"/>
</g>
</g>
</svg>
