<?xml version="1.0" standalone="no"?>
<!DOCTYPE svg PUBLIC "-//W3C//DTD SVG 20010904//EN"
 "http://www.w3.org/TR/2001/REC-SVG-20010904/DTD/svg10.dtd">
<svg version="1.0" xmlns="http://www.w3.org/2000/svg"
 width="275.844177pt" height="283.464567pt" viewBox="0 0 275.844177 283.464567"
 preserveAspectRatio="xMidYMid meet">
<metadata>
Created by potrace 1.11, written by Peter Selinger 2001-2013
</metadata>
<g transform="translate(-5.711634,285.023345) scale(0.113555,-0.113555)"
fill="#000000" stroke="none">
<g>
<path d="M689 2495 c-14 -7 -30 -25 -37 -39 -15 -33 -21 -33 -79 4 -58 37 -82
37 -140 3 l-46 -27 -39 23 c-22 12 -42 21 -44 19 -2 -2 17 -24 41 -48 l45 -44
48 47 c26 26 54 47 63 47 8 0 47 -33 87 -73 l72 -72 0 -313 c0 -304 -1 -312
-20 -312 -17 0 -18 -3 -10 -26 10 -25 13 -80 3 -56 -3 8 -11 4 -25 -13 -21
-27 -47 -32 -66 -13 -9 9 -11 2 -8 -26 2 -21 9 -43 17 -49 11 -10 11 -9 0 6
-11 14 -11 17 1 17 16 0 38 -19 38 -33 0 -4 -6 -5 -12 -1 -7 4 5 -11 28 -32
50 -48 90 -131 98 -203 8 -75 -8 -56 -51 61 -18 51 -31 78 -28 59 4 -27 48
-145 81 -218 4 -7 -22 -21 -73 -37 -43 -14 -69 -25 -57 -26 19 0 87 18 124 34
12 5 24 -11 50 -64 43 -88 51 -85 11 5 -17 37 -31 74 -31 81 0 28 21 12 50
-38 16 -29 30 -47 30 -40 0 23 -29 70 -59 94 -25 19 -30 33 -36 87 -5 46 -4
62 4 57 15 -10 14 3 -2 19 -8 7 -22 53 -31 102 -10 48 -22 95 -27 103 -8 12
-9 11 -5 -5 15 -61 18 -95 7 -95 -6 0 -14 7 -17 15 -4 8 -12 15 -19 15 -26 0
-27 21 -2 58 13 20 30 52 37 70 11 27 17 32 35 28 14 -4 28 0 36 11 25 29 189
90 189 70 0 -3 -17 -15 -37 -27 -21 -12 -46 -33 -56 -46 -16 -21 -11 -20 27
10 49 37 106 53 213 59 50 3 63 1 67 -12 3 -10 4 -8 3 4 -2 16 -10 20 -35 18
-20 0 -32 3 -29 10 7 21 32 29 61 18 23 -9 27 -16 22 -35 -5 -20 4 -34 47 -78
46 -46 113 -145 104 -154 -1 -2 -31 6 -66 16 -98 31 -103 29 -74 -27 21 -41
24 -59 21 -125 -3 -75 -2 -78 19 -78 26 0 28 -12 12 -58 -8 -22 -24 -37 -62
-55 -90 -44 -173 -67 -240 -67 l-63 0 4 -72 3 -73 -24 28 -24 28 -66 -32 c-63
-31 -80 -50 -57 -64 13 -8 13 -25 1 -25 -5 0 -22 5 -38 11 -26 10 -27 11 -10
24 18 13 18 13 -1 20 -29 9 -72 44 -72 59 0 15 46 10 70 -8 12 -9 -81 106
-100 124 -3 3 -38 53 -78 113 -95 140 -136 227 -129 272 7 41 -17 70 -27 33
-16 -62 9 -146 74 -247 22 -34 40 -66 40 -71 0 -6 5 -10 10 -10 6 0 10 -4 10
-10 0 -27 -33 -4 -68 50 -49 73 -167 303 -192 374 -12 33 -19 43 -19 28 -2
-54 129 -323 216 -444 31 -42 77 -95 104 -118 36 -30 50 -50 55 -77 4 -20 20
-57 36 -82 25 -41 27 -47 13 -61 -14 -13 -19 -13 -53 8 -79 49 -126 65 -187
66 -65 0 -122 -23 -162 -66 -74 -80 -102 -241 -58 -328 29 -57 75 -218 75
-263 0 -26 -7 -61 -15 -77 -14 -27 -14 -33 0 -60 8 -16 15 -36 15 -43 0 -23
65 -75 109 -88 59 -17 132 9 154 57 19 40 24 83 6 52 -5 -10 -30 -30 -55 -44
-37 -22 -54 -26 -94 -22 -27 3 -61 13 -77 24 l-28 18 58 8 c79 10 102 24 43
26 -46 2 -126 28 -126 41 0 4 13 12 30 18 57 22 58 65 5 236 -27 83 -33 183
-13 189 9 3 9 6 0 11 -12 8 -42 -40 -42 -67 0 -8 -5 -18 -11 -22 -17 -10 -5
182 14 226 32 73 102 129 163 130 101 1 260 -124 239 -190 -3 -10 -1 -21 5
-25 6 -4 10 11 10 41 0 44 33 124 51 124 5 0 25 -11 45 -25 68 -46 215 -71
357 -60 48 4 87 4 87 1 0 -35 -64 -103 -127 -135 -56 -28 -61 -27 -69 14 -7
37 -38 85 -56 85 -6 0 -4 -8 4 -17 15 -17 51 -94 46 -98 -2 -1 -17 -7 -35 -14
-32 -13 -85 -61 -66 -61 5 0 18 9 28 20 10 11 36 25 57 32 34 10 42 9 66 -9
15 -11 37 -35 50 -53 12 -18 22 -26 22 -18 0 8 -16 33 -35 55 l-35 41 30 12
c16 7 35 18 41 26 6 8 17 14 24 14 32 0 104 -106 105 -153 0 -28 -42 -42 -89
-29 -23 5 -41 9 -41 8 0 0 4 -15 9 -33 9 -30 7 -32 -21 -42 -44 -15 -67 -14
-139 10 -38 12 -95 21 -140 22 -80 2 -109 15 -109 48 0 11 -14 32 -32 48 -23
20 -33 39 -37 71 -5 39 -9 45 -40 53 -44 11 -89 -7 -97 -40 -11 -42 4 -105 45
-193 73 -157 75 -212 10 -329 -17 -29 -28 -55 -26 -58 8 -7 77 58 93 89 42 81
36 165 -22 301 -33 77 -44 137 -24 137 5 0 34 -33 63 -73 62 -83 100 -107 174
-107 26 0 82 -9 123 -20 93 -24 126 -25 167 -2 152 84 141 81 204 52 52 -23
135 -26 182 -6 18 7 45 28 60 45 l27 33 43 -21 c43 -21 356 -91 405 -91 55 1
-4 18 -203 61 -110 23 -203 45 -207 48 -4 4 -34 182 -67 396 -33 215 -72 461
-86 547 -14 86 -25 173 -25 192 0 32 -11 47 -116 149 l-116 114 3 216 4 217
-47 0 c-26 0 -50 -4 -53 -10 -3 -6 -48 -10 -101 -10 -77 0 -94 -3 -94 -15 0
-12 16 -15 88 -15 55 0 92 -4 100 -12 7 -7 12 -43 12 -90 l0 -78 -100 0 c-82
0 -100 -3 -100 -15 0 -12 16 -15 88 -15 55 0 92 -4 100 -12 16 -16 16 -168 0
-168 -6 0 -68 -2 -136 -3 l-124 -4 -54 67 -54 68 2 233 3 234 370 3 c204 1
380 0 393 -3 22 -5 23 -10 20 -78 l-3 -72 -62 -3 -63 -3 0 -199 c0 -109 4
-201 8 -204 5 -3 7 30 5 73 l-4 78 53 6 c29 4 74 7 99 7 31 0 51 6 60 16 12
15 5 16 -86 9 -55 -4 -98 -5 -95 -2 10 10 184 77 202 77 22 0 23 8 1 32 -20
22 -12 40 48 108 l39 45 27 -27 26 -27 60 85 60 84 113 0 c140 0 139 0 131
-137 -6 -101 -7 -99 52 -87 l31 7 0 72 c0 59 -4 75 -20 90 -11 10 -20 26 -20
37 0 16 10 18 103 18 67 0 107 -4 115 -12 7 -7 12 -44 12 -95 0 -46 3 -83 8
-83 24 1 52 14 42 20 -6 4 -17 40 -24 80 -17 100 -30 110 -150 109 -50 0 -100
-4 -110 -8 -11 -4 -35 -2 -55 5 -44 16 -179 18 -218 4 -15 -6 -51 -35 -79 -65
-44 -47 -56 -55 -87 -55 -48 0 -106 -51 -140 -124 -22 -46 -32 -56 -83 -80
-55 -26 -59 -27 -71 -10 -29 40 -8 98 41 114 53 17 76 52 76 116 0 42 -5 59
-26 83 l-26 31 -371 0 c-298 -1 -377 -4 -398 -15z m236 -660 c113 0 122 2 154
25 l33 25 26 -35 c15 -19 62 -72 106 -117 90 -92 105 -115 106 -158 0 -28 -2
-27 -32 22 -47 72 -151 181 -182 189 -14 3 -54 1 -89 -5 -35 -6 -95 -11 -134
-11 -48 0 -89 -7 -127 -21 -74 -29 -86 -23 -86 41 0 28 5 60 10 71 11 19 12
19 53 -3 37 -20 57 -23 162 -23z m475 -515 c12 -85 39 -265 60 -400 53 -329
56 -360 39 -359 -8 0 -45 37 -84 81 -66 77 -143 138 -172 138 -10 0 -11 -5 -4
-19 9 -16 5 -20 -30 -30 -23 -7 -43 -10 -45 -8 -3 2 -8 24 -13 48 -5 24 -9 36
-10 26 -1 -17 -3 -17 -23 -3 -16 11 -46 16 -105 16 -45 0 -85 5 -88 10 -4 6
-12 7 -18 3 -31 -19 -154 13 -175 46 -15 22 -15 25 12 47 30 27 103 33 124 12
9 -9 12 -9 12 2 0 9 5 7 14 -6 12 -16 25 -19 77 -17 34 2 67 7 73 13 5 5 21
10 34 10 13 0 20 4 17 10 -10 15 -55 12 -61 -5 -4 -10 -14 -13 -30 -9 -13 4
-30 2 -37 -4 -19 -16 -64 -3 -71 21 -3 12 -6 27 -6 32 0 10 107 38 127 34 4
-1 19 3 33 9 23 10 21 11 -22 11 -27 1 -48 5 -48 9 0 5 17 16 37 26 l37 18 23
-29 c13 -15 31 -53 40 -83 17 -53 17 -54 21 -22 2 20 -5 49 -17 73 -12 22 -21
42 -21 44 0 3 30 25 68 48 43 28 74 57 87 80 19 35 19 39 2 101 -22 82 -22
131 0 148 9 7 35 31 57 53 l41 41 12 -31 c7 -16 21 -100 33 -185z m-720 99 c0
-6 -4 -7 -10 -4 -5 3 -10 11 -10 16 0 6 5 7 10 4 6 -3 10 -11 10 -16z m-207
-259 c10 -16 25 -30 33 -30 8 0 14 -5 14 -11 0 -6 -12 -9 -27 -7 -29 3 -69 50
-59 67 11 18 20 13 39 -19z m900 -555 l105 -120 -26 -15 c-17 -9 -55 -14 -99
-15 -66 0 -74 2 -103 30 -18 17 -45 55 -60 86 l-29 56 47 51 c26 27 50 49 54
49 3 -1 54 -56 111 -122z"/>
<g>
<path d="M1041 982 c-8 -14 -6 -18 10 -19 10 -1 19 4 19 12 0 22 -18 27 -29 7z"/>
</g>
<g>
<path d="M920 970 c-13 -8 -12 -10 3 -10 9 0 17 -5 17 -12 0 -6 3 -9 6 -5 3 3
2 12 -3 21 -6 10 -13 12 -23 6z"/>
</g>
<g>
<path d="M960 961 c0 -6 4 -12 8 -15 5 -3 9 1 9 9 0 8 -4 15 -9 15 -4 0 -8 -4
-8 -9z"/>
</g>
</g>
<g>
<path d="M95 2492 c-25 -5 -45 -21 -45 -36 0 -6 5 -3 11 7 8 14 25 17 111 17
56 0 99 2 97 4 -7 6 -153 13 -174 8z"/>
</g>
<g>
<path d="M1950 2452 l-95 -3 -64 -90 c-35 -49 -67 -89 -70 -89 -3 0 -15 14
-27 30 l-21 31 -37 -45 c-20 -24 -36 -48 -36 -52 0 -4 12 -21 27 -36 l27 -28
-26 -27 c-13 -16 -46 -56 -71 -89 l-46 -62 49 -41 49 -41 56 73 c31 39 60 72
64 72 5 0 34 -33 65 -72 l57 -73 100 0 99 0 0 275 c0 151 -1 274 -2 273 -2 -1
-46 -4 -98 -6z m47 -44 c17 -14 6 -417 -12 -437 -10 -10 -26 -12 -62 -6 -39 6
-55 15 -88 50 -22 24 -56 51 -76 59 -39 16 -60 10 -117 -34 -37 -30 -38 -11
-2 46 27 42 31 57 28 104 l-3 55 42 6 c50 6 74 26 118 94 18 28 39 56 46 62
28 22 98 23 126 1z"/>
<g>
<path d="M1849 2300 c-20 -16 -46 -52 -58 -80 l-22 -51 30 -64 c20 -44 40 -71
63 -85 74 -46 108 -1 111 147 2 84 -1 103 -18 128 l-20 30 -3 -157 c-1 -94 -6
-158 -12 -158 -6 0 -10 3 -10 8 0 4 -24 39 -53 78 l-54 71 29 39 c78 103 90
124 71 124 -10 0 -35 -13 -54 -30z"/>
</g>
<g>
<path d="M1860 2137 c0 -2 9 -14 20 -27 l20 -23 0 26 c0 20 -5 27 -20 27 -11
0 -20 -2 -20 -3z"/>
</g>
</g>
<g>
<path d="M128 2438 c26 -13 25 1 22 -295 l-2 -233 66 0 66 0 0 178 c0 97 -4
183 -9 190 -16 25 -29 -40 -34 -161 -4 -119 -15 -153 -39 -129 -16 16 -32 406
-17 433 7 13 21 19 46 19 31 0 44 -8 83 -50 54 -59 87 -64 140 -25 45 33 62
32 99 -10 l31 -36 0 -214 c0 -180 -2 -215 -14 -215 -24 0 -28 33 -25 198 2
115 0 163 -10 181 -24 44 -31 2 -31 -199 l0 -195 65 -64 65 -63 0 289 0 289
-65 64 -65 64 -55 -54 -55 -54 -53 52 -53 52 -89 -1 c-72 0 -86 -2 -67 -11z"/>
</g>
<g>
<path d="M710 2229 l0 -220 43 -50 42 -49 118 0 117 0 0 60 0 60 -100 0 -100
0 0 45 0 45 100 0 100 0 0 60 0 60 -100 0 -100 0 0 51 0 50 99 -4 100 -4 -2
58 -2 59 -157 0 -158 0 0 -221z m179 185 c33 -4 61 -10 61 -14 0 -5 -23 -11
-52 -15 -100 -14 -140 -94 -79 -156 22 -21 39 -29 65 -29 47 0 46 -16 -1 -25
-125 -23 -120 -178 6 -187 25 -2 46 -9 49 -15 3 -10 -14 -13 -63 -13 -58 0
-69 3 -90 26 -14 15 -26 43 -29 67 -10 85 -13 334 -4 350 10 19 38 21 137 11z"/>
</g>
<g>
<path d="M1040 2405 l0 -45 70 0 70 0 0 -233 0 -232 105 -105 105 -105 0 80 0
80 -40 35 -40 35 -1 220 -1 220 66 3 66 3 0 44 0 45 -200 0 -200 0 0 -45z
m264 6 c3 -4 -6 -23 -20 -42 l-25 -34 3 -228 c2 -125 0 -227 -4 -227 -4 0 -14
13 -23 30 -12 23 -15 69 -15 230 0 188 -1 204 -21 231 -11 16 -17 33 -14 39 7
12 112 13 119 1z"/>
</g>
<g>
<path d="M2183 2432 c15 -16 17 -51 17 -278 l0 -259 100 -100 100 -100 0 73
c0 71 0 72 -40 108 l-40 36 0 269 0 269 -77 0 c-73 0 -75 -1 -60 -18z m98 -24
c5 -58 3 -528 -2 -528 -4 0 -13 10 -21 23 -12 17 -16 77 -21 263 -3 133 -3
244 0 248 11 11 43 6 44 -6z"/>
</g>
<g>
<path d="M60 2438 c0 -2 11 -19 25 -38 l25 -34 -6 -235 -7 -236 26 -27 c24
-26 32 -28 102 -28 69 0 78 2 100 26 23 24 25 35 25 115 0 63 4 92 14 102 20
20 66 10 75 -17 5 -11 11 -105 15 -207 l7 -187 -23 -16 c-12 -9 -42 -16 -65
-16 -40 0 -45 3 -79 50 -20 28 -38 50 -40 50 -2 0 11 -30 29 -67 l34 -66 56
-1 c30 -1 55 3 54 8 -1 5 14 14 33 19 19 6 36 11 37 12 1 0 -4 25 -12 55 -21
79 -20 110 5 110 24 0 26 13 5 30 -12 10 -15 45 -15 193 l0 180 -40 -44 -39
-44 -46 47 -45 47 0 -170 0 -170 -87 3 -88 3 -5 258 -5 258 -32 20 c-18 12
-33 19 -33 17z"/>
</g>
<g>
<path d="M330 2238 c29 -35 56 -63 60 -63 4 0 30 27 58 60 58 67 49 87 -17 41
-20 -14 -40 -26 -45 -26 -4 0 -24 11 -44 25 -62 42 -66 28 -12 -37z"/>
</g>
<g>
<path d="M2383 2270 c-23 -9 -23 -12 -23 -183 l0 -173 40 -39 41 -40 -3 -89
c-2 -63 -7 -91 -16 -94 -7 -2 -67 49 -133 114 -65 65 -119 113 -119 106 0 -6
45 -56 100 -110 74 -73 100 -105 100 -124 0 -22 4 -24 30 -20 18 2 41 17 56
35 25 30 26 36 21 107 -4 48 -15 95 -31 130 -16 36 -25 48 -25 33 -1 -12 -5
-24 -10 -27 -23 -14 -30 28 -32 179 l-1 160 33 22 c26 18 29 23 14 22 -11 0
-30 -4 -42 -9z"/>
</g>
<g>
<path d="M2118 2153 c-26 -3 -38 -9 -38 -19 0 -11 9 -15 33 -12 17 2 32 -1 32
-7 -2 -67 -31 -425 -90 -1127 -48 -577 -49 -592 -36 -584 15 10 10 -45 112
1185 11 140 25 265 30 278 11 29 12 294 2 291 -5 -1 -25 -3 -45 -5z"/>
</g>
<g>
<path d="M2088 1998 c-3 -112 -3 -113 -28 -116 -36 -5 -50 -22 -18 -22 50 0
58 21 58 141 0 60 -2 109 -5 109 -2 0 -6 -51 -7 -112z"/>
</g>
<g>
<path d="M1715 1990 c-23 -26 -15 -33 25 -23 31 8 31 9 12 26 -18 16 -20 16
-37 -3z"/>
</g>
<g>
<path d="M1500 1955 c13 -14 26 -25 28 -25 3 0 -5 11 -18 25 -13 14 -26 25
-28 25 -3 0 5 -11 18 -25z"/>
</g>
<g>
<path d="M1668 1923 c-27 -32 -31 -49 -4 -19 14 16 26 31 26 33 0 7 -8 2 -22
-14z"/>
</g>
<g>
<path d="M1511 1885 c-77 -88 -110 -204 -91 -323 22 -133 89 -231 194 -282
215 -106 450 55 464 315 3 58 -1 99 -13 141 -23 80 -61 144 -85 144 -24 0 -26
-13 -4 -31 8 -7 26 -33 39 -59 116 -229 -29 -511 -265 -513 -84 -1 -145 26
-209 92 -68 70 -95 140 -95 251 0 103 26 176 84 243 22 25 40 48 40 51 0 17
-32 2 -59 -29z"/>
</g>
<g>
<path d="M1397 1880 c13 -15 23 -42 26 -70 l4 -45 1 46 c2 38 -2 49 -25 70
l-28 24 22 -25z"/>
</g>
<g>
<path d="M556 1757 c22 -23 41 -38 43 -34 4 10 -59 77 -72 77 -5 0 8 -19 29
-43z"/>
</g>
<g>
<path d="M169 1723 c-13 -17 -13 -17 6 -3 11 8 22 16 24 17 2 2 0 3 -6 3 -6 0
-17 -8 -24 -17z"/>
</g>
<g>
<path d="M1703 1711 c-83 -52 -50 -191 46 -191 82 0 122 106 64 169 -37 40
-70 46 -110 22z m81 -32 c49 -38 26 -129 -33 -129 -28 0 -53 20 -64 52 -9 26
11 74 36 86 30 15 31 15 61 -9z"/>
</g>
<g>
<path d="M1033 1684 c1 -13 -10 -31 -30 -48 -18 -15 -33 -32 -33 -36 0 -16 31
-40 52 -40 11 0 35 -7 54 -16 43 -20 60 -9 66 44 3 20 8 46 13 57 7 19 7 19
-8 -1 -8 -11 -18 -37 -22 -57 -4 -20 -10 -37 -14 -37 -14 0 -106 33 -115 41
-10 9 20 49 37 49 6 0 0 -12 -14 -27 -18 -19 -19 -25 -7 -20 10 3 20 2 23 -3
4 -6 14 -10 23 -9 13 0 12 3 -5 11 -18 9 -20 14 -11 34 14 30 18 30 41 -2 15
-20 16 -28 7 -39 -8 -10 -9 -15 -2 -15 22 0 23 39 3 59 -12 12 -21 26 -21 32
0 5 -5 7 -10 4 -6 -3 -15 4 -20 17 -9 21 -10 21 -7 2z"/>
</g>
<g>
<path d="M1111 1646 c-1 -11 2 -17 5 -13 3 3 4 12 1 19 -3 8 -6 5 -6 -6z"/>
</g>
<g>
<path d="M754 1595 c14 -22 29 -57 33 -78 3 -20 10 -40 16 -44 13 -8 0 62 -18
97 -7 14 -23 34 -36 45 -20 18 -20 16 5 -20z"/>
</g>
<g>
<path d="M501 1611 c-1 -9 -9 -12 -27 -8 -19 3 -24 1 -20 -10 4 -10 0 -13 -16
-11 -11 2 -23 -1 -25 -7 -1 -6 22 -11 57 -12 52 -1 59 1 51 15 -4 10 -11 24
-14 32 -4 11 -6 12 -6 1z"/>
</g>
<g>
<path d="M344 1574 c3 -9 6 -19 6 -24 0 -4 11 -3 25 3 35 17 32 37 -6 37 -24
0 -30 -3 -25 -16z"/>
</g>
<g>
<path d="M833 1553 c9 -2 25 -2 35 0 9 3 1 5 -18 5 -19 0 -27 -2 -17 -5z"/>
</g>
<g>
<path d="M891 1546 c2 -2 22 -6 44 -9 28 -5 34 -4 20 3 -19 8 -73 14 -64 6z"/>
</g>
<g>
<path d="M390 1535 c0 -5 13 -23 29 -40 38 -40 47 -70 24 -79 -13 -5 -26 2
-45 24 -16 16 -28 26 -28 22 0 -15 48 -62 64 -62 8 0 23 12 34 27 17 24 22 25
36 14 9 -8 14 -16 11 -19 -2 -3 -11 1 -20 8 -9 8 -15 8 -15 2 0 -13 36 -25 50
-17 6 4 18 1 26 -6 8 -6 17 -9 20 -6 3 2 -33 28 -80 57 -47 28 -90 59 -96 68
-5 9 -10 13 -10 7z"/>
</g>
<g>
<path d="M1000 1530 l-25 -8 25 0 c14 0 36 4 50 8 l25 8 -25 0 c-14 0 -36 -4
-50 -8z"/>
</g>
<g>
<path d="M695 1485 c7 -31 34 -80 40 -73 3 2 -7 26 -21 53 -20 37 -25 42 -19
20z"/>
</g>
<g>
<path d="M830 1485 c6 -8 18 -11 26 -8 8 3 14 1 14 -3 0 -5 42 -10 93 -11 l92
-1 -75 8 c-41 4 -94 12 -118 18 -35 8 -41 8 -32 -3z"/>
</g>
<g>
<path d="M1581 1491 c-9 -6 -11 -15 -6 -27 8 -18 8 -18 12 -1 4 16 11 17 44
12 47 -8 54 10 8 19 -40 8 -41 8 -58 -3z"/>
</g>
<g>
<path d="M610 1455 c0 -8 4 -15 10 -15 5 0 7 7 4 15 -4 8 -8 15 -10 15 -2 0
-4 -7 -4 -15z"/>
</g>
<g>
<path d="M1152 1408 c-19 -20 -24 -21 -32 -8 -8 12 -10 10 -10 -9 0 -18 4 -22
20 -18 17 4 18 1 13 -27 -9 -48 -9 -48 3 -53 7 -2 9 8 6 27 -3 21 2 37 14 51
17 19 17 20 0 13 -18 -7 -18 -6 -1 19 21 33 17 34 -13 5z"/>
</g>
<g>
<path d="M822 1404 c9 -9 40 -25 70 -35 l53 -18 -38 -1 c-52 0 -114 -27 -99
-42 9 -9 17 -7 32 7 25 23 101 26 147 7 18 -8 36 -26 43 -43 15 -35 25 -31 16
6 -5 18 -20 32 -49 45 l-42 20 48 0 c48 0 54 4 37 30 -8 13 -10 12 -10 -4 0
-17 -5 -18 -57 -12 -32 4 -83 18 -113 32 -39 18 -50 20 -38 8z"/>
</g>
<g>
<path d="M1612 1390 c0 -14 2 -19 5 -12 2 6 2 18 0 25 -3 6 -5 1 -5 -13z"/>
</g>
<g>
<path d="M750 1289 c0 -3 14 -18 30 -34 17 -16 30 -26 30 -24 0 3 -13 18 -30
34 -16 16 -30 26 -30 24z"/>
</g>
<g>
<path d="M800 1190 c12 -17 23 -30 25 -30 9 0 -22 50 -33 55 -7 3 -4 -8 8 -25z"/>
</g>
<g>
<path d="M1106 1213 c-3 -3 -6 -16 -5 -27 0 -15 2 -17 6 -6 3 8 10 18 16 21 6
4 6 9 -1 12 -5 4 -12 4 -16 0z"/>
</g>
<g>
<path d="M943 1134 c3 -3 12 -4 19 -1 8 3 5 6 -6 6 -11 1 -17 -2 -13 -5z"/>
</g>
<g>
<path d="M812 1060 c0 -14 2 -19 5 -12 2 6 2 18 0 25 -3 6 -5 1 -5 -13z"/>
</g>
<g>
<path d="M1738 1070 c-20 -4 -55 -19 -77 -33 -118 -78 -130 -259 -24 -359 103
-98 268 -65 329 66 29 63 31 144 5 201 -16 36 -90 114 -109 115 -4 1 -25 4
-47 8 -22 4 -57 5 -77 2z m85 -31 c44 -12 102 -59 124 -103 9 -18 16 -55 16
-86 0 -210 -256 -276 -350 -90 -55 107 2 246 114 280 39 12 52 11 96 -1z"/>
<g>
<path d="M1735 895 c-14 -13 -25 -33 -25 -43 0 -29 38 -72 64 -72 64 0 91 79
40 119 -34 27 -50 26 -79 -4z m59 -11 c22 -8 21 -63 0 -71 -36 -13 -68 33 -44
62 14 17 21 18 44 9z"/>
</g>
</g>
<g>
<path d="M282 760 c-7 -11 -11 -20 -9 -20 2 0 12 9 22 20 10 11 14 20 9 20 -5
0 -15 -9 -22 -20z"/>
</g>
<g>
<path d="M368 733 c-34 -21 -58 -80 -57 -136 2 -31 3 -34 6 -12 9 75 15 97 38
121 13 14 36 29 52 34 20 6 22 8 8 9 -11 0 -32 -7 -47 -16z"/>
</g>
<g>
<path d="M701 698 c-1 -38 -6 -50 -28 -67 l-26 -21 24 3 c35 5 53 48 41 95
l-10 37 -1 -47z"/>
</g>
<g>
<path d="M753 730 c-13 -5 -23 -12 -23 -16 0 -3 8 -3 18 2 9 4 40 10 67 14
l50 7 -45 1 c-25 0 -55 -3 -67 -8z"/>
</g>
<g>
<path d="M666 585 c-11 -8 -15 -15 -9 -15 6 0 16 7 23 15 16 19 11 19 -14 0z"/>
</g>
<g>
<path d="M373 573 c4 -3 2 -12 -4 -20 -9 -9 -8 -13 0 -13 6 0 11 2 11 4 0 2 3
11 6 20 4 10 1 16 -7 16 -7 0 -9 -3 -6 -7z"/>
</g>
<g>
<path d="M911 556 c-1 -11 2 -17 5 -13 3 3 4 12 1 19 -3 8 -6 5 -6 -6z"/>
</g>
<g>
<path d="M935 490 c-16 -16 -26 -30 -24 -30 3 0 18 14 34 30 16 17 26 30 24
30 -3 0 -18 -13 -34 -30z"/>
</g>
<g>
<path d="M331 500 c0 -8 4 -22 9 -30 12 -18 12 -2 0 25 -6 13 -9 15 -9 5z"/>
</g>
<g>
<path d="M350 446 c0 -3 5 -8 10 -11 6 -3 10 -1 10 4 0 6 -4 11 -10 11 -5 0
-10 -2 -10 -4z"/>
</g>
<g>
<path d="M390 361 c0 -16 12 -41 19 -41 13 0 9 25 -6 38 -7 7 -13 8 -13 3z"/>
</g>
<g>
<path d="M422 240 c0 -19 2 -27 5 -17 2 9 2 25 0 35 -3 9 -5 1 -5 -18z"/>
</g>
</g>
</svg>
