<?xml version="1.0" standalone="no"?>
<!DOCTYPE svg PUBLIC "-//W3C//DTD SVG 20010904//EN"
 "http://www.w3.org/TR/2001/REC-SVG-20010904/DTD/svg10.dtd">
<svg version="1.0" xmlns="http://www.w3.org/2000/svg"
 width="296.753390pt" height="283.464567pt" viewBox="0 0 296.753390 283.464567"
 preserveAspectRatio="xMidYMid meet">
<metadata>
Created by potrace 1.11, written by Peter Selinger 2001-2013
</metadata>
<g transform="translate(0.000000,283.464567) scale(0.110728,-0.110728)"
fill="#000000" stroke="none">
<g>
<path d="M2 2503 c1 -43 2 -48 5 -20 4 35 6 37 40 37 l35 0 -7 -77 c-4 -43 -9
-81 -12 -85 -2 -5 -17 -8 -34 -8 -26 0 -29 -3 -29 -30 0 -30 1 -31 38 -24 20
4 44 7 52 6 8 -1 231 -2 494 -2 524 0 511 -1 535 58 11 26 10 37 -8 76 -11 25
-35 64 -53 86 l-33 40 -512 0 -513 0 2 -57z m445 -17 c2 -2 1 -20 -2 -40 -5
-24 -13 -36 -24 -37 -10 0 -8 -3 7 -10 15 -5 22 -16 20 -26 -3 -16 -19 -18
-173 -18 l-170 0 -3 46 c-2 25 2 57 7 72 l10 26 162 -4 c89 -2 164 -6 166 -9z
m186 -6 c13 -19 13 -19 30 0 19 23 47 26 65 8 9 -9 12 -9 12 0 0 18 57 15 64
-3 5 -14 8 -14 28 -1 29 18 182 21 196 3 5 -7 13 -27 17 -44 4 -19 13 -33 21
-33 9 0 14 -11 14 -29 l0 -29 -150 -1 c-131 0 -151 2 -159 17 -9 15 -10 15
-16 1 -5 -14 -27 -17 -145 -17 -77 -1 -141 2 -144 6 -2 4 -1 34 3 67 l6 60 55
6 c30 3 63 6 72 7 9 1 23 -7 31 -18z"/>
<g>
<path d="M137 2473 c-4 -3 -7 -28 -7 -54 0 -33 5 -49 15 -53 24 -9 65 11 65
33 0 10 3 33 6 50 4 20 3 31 -5 31 -6 0 -11 -12 -11 -27 0 -52 -11 -73 -36
-73 -22 0 -23 3 -17 50 6 49 4 57 -10 43z"/>
</g>
<g>
<path d="M247 2462 c-27 -30 -20 -42 23 -42 22 0 40 -4 40 -9 0 -18 -30 -33
-55 -27 -27 7 -35 -8 -10 -18 22 -8 62 10 75 34 16 30 3 43 -36 37 -36 -6 -43
3 -19 23 8 6 23 9 36 5 14 -5 19 -4 15 4 -11 17 -51 13 -69 -7z"/>
</g>
<g>
<path d="M368 2473 c-10 -2 -18 -13 -18 -22 0 -10 -3 -33 -6 -50 l-6 -31 43 2
c37 1 39 2 12 5 -25 3 -33 9 -33 24 0 14 7 19 28 20 l27 2 -27 4 c-39 6 -37
33 2 33 17 0 30 5 30 10 0 10 -21 11 -52 3z"/>
</g>
<g>
<path d="M518 2473 c-10 -2 -18 -13 -18 -22 0 -10 -3 -33 -6 -50 l-6 -31 43 2
c37 1 39 2 12 5 -25 3 -33 9 -33 24 0 14 7 19 25 19 14 0 25 4 25 9 0 4 -11 6
-25 3 -18 -3 -25 0 -25 12 0 11 9 16 30 16 17 0 30 5 30 10 0 10 -21 11 -52 3z"/>
</g>
<g>
<path d="M666 2438 l-24 -41 -16 36 c-22 53 -36 46 -35 -15 2 -48 2 -50 8 -18
l7 35 14 -27 c16 -34 23 -35 40 -3 18 34 31 31 24 -5 -4 -19 -2 -30 5 -30 7 0
11 21 11 55 0 30 -2 55 -4 55 -3 0 -16 -19 -30 -42z"/>
</g>
<g>
<path d="M737 2425 c-15 -30 -23 -55 -18 -55 6 0 13 9 16 20 8 26 41 26 55 -1
7 -11 13 -19 16 -17 5 6 -29 108 -36 108 -3 0 -18 -25 -33 -55z m33 10 c0 -8
-4 -15 -10 -15 -5 0 -7 7 -4 15 4 8 8 15 10 15 2 0 4 -7 4 -15z"/>
</g>
<g>
<path d="M841 2454 c-25 -32 -27 -57 -6 -78 18 -17 56 -8 63 15 4 11 2 12 -9
2 -24 -24 -49 -16 -49 15 0 33 32 67 55 59 8 -4 15 -2 15 3 0 21 -49 9 -69
-16z"/>
</g>
<g>
<path d="M936 2458 c-20 -29 -11 -41 30 -36 22 3 34 0 34 -8 0 -22 -29 -36
-57 -29 -26 6 -27 5 -12 -10 28 -28 99 15 85 51 -5 13 -15 15 -41 11 -19 -3
-35 -2 -35 2 0 16 30 33 50 28 11 -3 20 -1 20 4 0 19 -59 9 -74 -13z"/>
</g>
<g>
<path d="M870 2425 c0 -9 6 -12 15 -9 8 4 15 10 15 15 0 5 -7 9 -15 9 -8 0
-15 -7 -15 -15z"/>
</g>
<g>
<path d="M1035 2380 c-3 -5 -1 -10 4 -10 6 0 11 5 11 10 0 6 -2 10 -4 10 -3 0
-8 -4 -11 -10z"/>
</g>
</g>
<g>
<path d="M38 2487 c-5 -10 -8 -42 -7 -70 l1 -52 9 45 c11 54 9 106 -3 77z"/>
</g>
<g>
<path d="M1864 2416 l-36 -36 4 -90 c4 -86 0 -100 -28 -100 -2 0 -22 38 -44
84 -45 95 -88 138 -156 155 -60 15 -131 -2 -202 -49 -43 -28 -71 -39 -116 -44
-74 -8 -151 -49 -187 -99 -29 -40 -59 -127 -59 -170 0 -41 36 -113 81 -162
l42 -45 -7 -93 c-7 -100 -16 -117 -67 -117 -36 0 -45 15 -53 81 -4 30 -18 79
-31 108 -29 63 -30 80 -8 152 20 67 19 88 -8 140 -42 84 -165 101 -314 44 -44
-17 -87 -27 -118 -26 -26 1 -60 -5 -76 -14 -39 -19 -71 -88 -71 -151 0 -27 -7
-74 -15 -104 -25 -93 -20 -168 16 -236 30 -55 31 -61 20 -107 -22 -98 -7 -167
47 -200 60 -37 60 -32 -1 -89 -57 -53 -61 -60 -82 -170 -3 -15 -28 -50 -55
-77 -28 -28 -50 -54 -50 -58 -1 -4 -5 -28 -10 -53 -6 -32 -4 -56 6 -85 7 -22
14 -52 14 -66 0 -14 8 -33 19 -43 20 -18 146 -56 186 -56 14 0 81 -11 148 -25
67 -13 180 -29 251 -35 70 -5 132 -13 137 -16 33 -20 -32 -54 -103 -54 -29 1
-84 7 -121 14 -149 29 -247 -26 -219 -123 7 -21 12 -48 12 -59 0 -11 11 -34
25 -50 14 -17 25 -35 25 -40 0 -18 -60 -25 -104 -12 -53 15 -89 2 -116 -42
-23 -38 -27 -131 -8 -173 l11 -25 892 0 892 0 11 25 c22 47 25 119 8 153 -22
43 -37 49 -142 54 -51 3 -97 9 -103 12 -8 5 6 27 39 63 54 59 68 92 54 131
-18 50 -52 64 -155 64 -52 0 -105 -1 -119 -2 -51 -2 -595 11 -607 15 -7 2 -13
9 -13 15 0 6 33 10 85 10 67 0 99 5 152 26 60 22 79 25 158 21 89 -4 371 14
472 31 39 7 63 18 93 46 22 20 58 44 80 52 45 18 80 60 80 96 0 32 -75 134
-139 187 -29 25 -54 54 -57 69 -3 15 -14 54 -25 86 -25 80 -24 98 11 165 21
39 45 66 81 91 68 46 99 100 99 171 0 45 6 64 32 105 27 41 33 61 36 121 3 61
0 80 -21 125 -30 65 -126 172 -179 199 -21 11 -36 24 -34 28 8 12 134 23 230
20 310 -8 326 -7 326 30 l0 26 -117 -2 c-71 -1 -123 3 -130 9 -9 7 -13 7 -13
-1 0 -12 -56 -15 -63 -3 -3 4 -8 35 -12 69 l-7 62 64 0 c34 0 76 2 91 6 20 5
33 2 47 -10 19 -17 21 -17 39 -1 32 29 56 17 59 -31 2 -31 8 -42 23 -46 17 -5
19 0 19 52 0 57 0 58 -38 75 -32 15 -62 17 -198 13 -170 -4 -471 6 -516 18
-23 6 -33 2 -64 -29z m86 -85 c0 -88 -5 -101 -41 -101 l-29 0 0 78 c0 43 3 82
7 85 3 4 19 7 35 7 l28 0 0 -69z m-326 45 c18 -7 42 -26 54 -40 32 -41 65
-160 57 -204 -19 -104 -102 -170 -132 -106 -7 15 -10 30 -8 34 2 4 -33 6 -78
4 -101 -4 -111 -5 -117 -14 -3 -4 -24 -17 -47 -29 -23 -11 -61 -39 -85 -62
-52 -50 -63 -52 -110 -26 -87 47 -93 212 -11 295 20 21 32 30 27 22 -6 -10 -3
-10 7 2 25 26 63 38 122 38 51 0 53 -1 70 -40 29 -68 22 -97 -33 -134 -48 -32
-110 -8 -110 43 0 23 31 51 56 51 30 0 38 -14 23 -42 -11 -21 -11 -22 5 -9 28
23 16 55 -21 59 -43 4 -88 -37 -77 -71 12 -40 33 -54 92 -61 31 -4 66 -8 77
-10 42 -7 140 117 133 167 -4 28 -43 35 -52 10 -4 -10 -2 -19 3 -21 6 -2 11
-10 11 -18 0 -25 -35 -15 -69 20 -40 42 -37 73 10 107 66 47 143 60 203 35z
m659 -6 c37 0 47 -4 47 -16 0 -9 -8 -23 -17 -31 -10 -8 -12 -12 -5 -8 7 4 12
0 12 -9 0 -8 -8 -17 -17 -19 -17 -4 -17 -5 0 -6 13 -1 17 -8 15 -23 -3 -23 -5
-23 -168 -23 l-165 0 0 65 0 65 75 6 c41 4 98 5 125 3 28 -2 71 -4 98 -4z
m-1353 -195 c34 -18 60 -62 60 -103 0 -55 -30 -132 -55 -144 -18 -8 -22 -15
-16 -27 6 -10 4 -19 -7 -28 -16 -11 -16 -12 -1 -13 20 0 33 -40 18 -55 -15
-14 -39 21 -40 59 -1 21 -3 25 -6 11 -6 -23 15 -122 27 -130 4 -3 6 5 4 17
l-5 23 12 -22 c9 -17 17 -20 45 -16 33 6 34 5 34 -31 0 -24 -7 -42 -21 -55
-69 -60 -69 -60 -69 -31 0 11 -6 20 -14 20 -7 0 -25 9 -40 21 -18 14 -26 16
-26 7 0 -21 29 -58 46 -58 8 0 17 -6 20 -14 3 -8 13 -12 25 -9 13 4 19 0 19
-12 0 -11 5 -15 15 -11 26 10 16 -10 -12 -23 -24 -11 -25 -11 -12 5 13 16 9
17 -71 11 -47 -4 -102 -7 -123 -7 -25 0 -36 -4 -31 -11 4 -6 29 -9 62 -7 l55
3 14 -40 c7 -22 19 -44 25 -50 7 -7 9 -7 5 0 -3 6 21 33 54 60 32 28 59 55 59
62 0 13 29 19 125 27 33 2 49 1 35 -3 -22 -6 -23 -8 -6 -14 10 -4 24 -3 30 2
7 6 22 8 34 5 33 -9 106 32 148 83 31 37 84 73 109 73 11 0 5 -52 -9 -79 -32
-61 -147 -123 -234 -125 -40 -1 -57 3 -66 17 -7 9 -17 17 -22 17 -4 0 6 -15
23 -32 17 -18 38 -46 47 -63 14 -23 16 -25 13 -7 -3 12 -2 22 2 22 10 0 31
-70 31 -105 0 -21 3 -25 13 -17 6 5 49 13 95 17 71 6 85 5 95 -9 7 -9 21 -18
32 -18 14 -1 20 -10 21 -27 1 -14 5 -37 9 -50 6 -17 5 -22 -3 -17 -6 3 -17 -3
-25 -14 -10 -14 -20 -18 -33 -13 -17 6 -17 5 -6 -9 11 -14 8 -31 -22 -110 -32
-88 -36 -93 -65 -96 -27 -3 -31 0 -31 20 0 13 -3 32 -6 43 -3 12 3 29 15 42
12 12 21 27 21 33 0 5 5 10 10 10 6 0 10 -7 10 -16 0 -21 27 -47 35 -34 3 6
-1 13 -9 16 -9 3 -16 12 -16 19 0 25 -23 29 -41 7 -23 -29 -35 -28 -44 6 -3
15 -17 45 -30 67 -12 22 -24 45 -25 50 -1 6 -6 18 -11 27 -5 9 -5 18 -1 20 5
2 4 19 -1 38 l-10 35 -8 -55 c-8 -58 -4 -94 11 -85 11 7 54 -75 68 -130 17
-63 42 -244 36 -260 -7 -17 -87 -45 -128 -45 -50 0 -61 12 -47 51 20 54 26
220 11 288 -10 47 -17 62 -34 67 -11 3 -36 17 -53 31 -31 23 -46 20 -22 -4 16
-16 -29 -43 -82 -50 -34 -5 -45 -2 -56 13 -13 18 -14 18 -9 -6 22 -94 26 -355
7 -435 -6 -25 -15 -32 -55 -43 -53 -15 -114 -9 -122 12 -3 7 4 40 15 72 30 92
71 305 70 370 0 33 -3 53 -6 47 -6 -17 -34 -2 -90 50 -24 22 -41 33 -37 24 8
-23 -3 -22 -15 1 -7 13 -6 27 5 46 22 44 18 60 -45 179 -58 110 -91 205 -91
265 0 17 -5 34 -11 38 -6 3 -20 26 -31 51 -10 24 -23 41 -28 38 -17 -10 -23
44 -10 93 14 58 26 72 57 72 33 0 69 -20 54 -29 -8 -5 -4 -25 16 -68 28 -60
28 -60 64 -55 34 4 37 2 37 -22 0 -15 7 -35 16 -45 17 -18 16 -19 -13 -26 -17
-4 -37 -16 -45 -27 -9 -12 -19 -17 -27 -12 -9 5 -11 2 -6 -9 3 -9 1 -18 -6
-21 -9 -3 -8 -5 1 -5 7 -1 10 -5 7 -11 -3 -5 0 -10 7 -10 8 0 19 13 25 29 12
32 56 66 72 56 7 -4 5 -15 -5 -30 -10 -16 -14 -34 -9 -54 7 -31 31 -58 42 -47
3 3 14 -1 24 -10 10 -9 25 -14 34 -11 33 13 8 101 -40 142 l-24 20 35 1 c33 0
84 35 84 58 0 5 -12 -2 -27 -16 -40 -38 -73 -44 -106 -18 -45 35 -32 86 23 92
27 3 40 -26 20 -46 -8 -8 -15 -6 -27 9 l-15 20 4 -20 c2 -14 11 -20 28 -20 22
0 25 4 25 35 0 28 -4 36 -22 38 -12 2 -32 -2 -45 -9 -29 -16 -98 -21 -98 -7 0
5 -9 22 -20 38 -23 32 -18 39 43 65 46 19 120 19 157 0 38 -20 70 -62 70 -94
1 -32 46 -69 63 -52 8 8 8 11 0 11 -7 0 -19 24 -27 54 -18 62 -67 112 -118
121 -38 7 -141 1 -157 -9 -6 -4 -11 -5 -11 -2 0 8 79 48 125 62 56 18 150 17
185 -1z m485 -35 c-4 -12 -9 -19 -12 -17 -3 3 -2 15 2 27 4 12 9 19 12 17 3
-3 2 -15 -2 -27z m546 10 c30 -6 82 -24 115 -40 34 -17 70 -30 81 -30 24 0 58
-35 48 -50 -3 -6 -1 -9 6 -8 7 2 15 -6 17 -17 4 -17 2 -18 -12 -6 -13 11 -16
11 -16 -1 0 -10 9 -15 22 -14 16 1 31 -12 52 -44 25 -36 31 -57 34 -110 3 -68
3 -68 -63 -159 -21 -29 -23 -35 -10 -48 21 -21 18 -82 -5 -120 -11 -18 -24
-33 -28 -33 -5 0 -19 -9 -32 -20 -13 -11 -34 -20 -46 -20 -18 0 -25 -7 -30
-27 -3 -16 -21 -56 -40 -91 -34 -62 -34 -62 -18 -105 9 -23 17 -52 18 -64 0
-11 4 -19 8 -17 11 7 20 -35 14 -61 -5 -18 -1 -25 14 -30 11 -3 20 -15 20 -26
0 -10 7 -19 15 -19 8 0 15 -5 15 -11 0 -5 5 -7 10 -4 6 3 10 1 10 -4 0 -6 3
-10 8 -9 11 3 55 -23 69 -41 7 -9 13 -24 13 -33 0 -9 12 -23 28 -30 40 -19 41
-53 2 -91 -18 -17 -43 -33 -58 -35 -46 -6 -82 -31 -82 -57 0 -21 -6 -25 -44
-30 -25 -4 -51 -5 -58 -2 -7 2 -20 1 -29 -4 -40 -20 -327 -34 -431 -20 -74 10
-78 9 -125 -17 -43 -24 -59 -27 -153 -29 -58 -1 -124 -5 -147 -9 -41 -6 -79 8
-68 25 2 4 -73 13 -168 19 -95 7 -201 19 -237 28 -36 8 -102 18 -147 22 -45 4
-88 13 -95 20 -6 6 -29 12 -51 12 -66 0 -102 35 -59 59 16 9 15 12 -11 38 -26
28 -37 80 -19 97 4 4 7 20 7 34 0 21 8 31 32 42 18 8 33 21 33 28 0 7 14 12
35 12 24 0 35 -5 35 -15 0 -19 14 -19 29 -1 10 12 8 15 -11 18 -30 4 -37 42
-10 59 16 10 17 16 9 39 -20 54 38 130 100 130 12 0 25 5 28 10 3 6 14 10 24
10 10 0 21 8 24 19 3 11 16 20 35 23 46 7 59 -24 42 -99 -7 -32 -17 -63 -22
-69 -5 -7 -7 -17 -6 -24 2 -7 -3 -15 -9 -17 -7 -3 -13 1 -13 9 0 10 -2 10 -9
-1 -6 -9 -4 -19 5 -28 20 -20 18 -35 -4 -29 -15 5 -17 1 -14 -34 4 -35 1 -40
-16 -40 -12 0 -24 5 -28 11 -13 22 -137 -18 -149 -49 -8 -22 2 -27 31 -13 22
10 30 9 44 -4 22 -20 30 -19 30 5 0 11 7 20 15 20 19 0 37 -67 25 -91 -20 -36
19 -69 80 -69 16 0 45 -11 64 -24 43 -29 116 -39 184 -26 58 11 93 26 105 46
6 10 14 11 33 4 57 -22 182 -7 262 32 38 18 47 19 70 7 16 -8 66 -13 127 -14
70 -1 111 -6 137 -18 20 -9 75 -20 121 -23 139 -11 297 41 297 97 0 23 -23 35
-83 44 -26 4 -50 11 -53 16 -10 16 17 49 55 69 21 10 41 26 44 35 8 20 1 19
-33 -5 -16 -11 -42 -23 -58 -26 l-30 -6 -4 57 c-3 54 -2 56 20 52 26 -5 27 -4
6 58 -16 44 -16 48 0 57 9 5 25 18 35 30 11 11 24 17 29 14 5 -3 12 5 14 19 5
21 -1 18 -49 -25 -58 -53 -79 -56 -69 -9 3 17 1 29 -5 29 -20 0 15 -334 45
-421 8 -24 12 -47 7 -52 -4 -4 -46 -7 -92 -5 l-84 3 -3 65 c-4 73 21 267 44
349 14 50 14 87 -1 42 -8 -26 -43 -27 -108 -5 l-47 16 25 30 c40 47 29 49 -17
4 -24 -23 -53 -48 -66 -56 -47 -30 -87 -238 -64 -327 8 -29 9 -50 3 -56 -14
-14 -139 -4 -156 13 -12 13 -12 24 1 89 28 134 102 311 130 311 13 0 14 13 8
94 -6 86 -5 98 15 131 23 39 28 60 8 34 -25 -32 -91 -40 -149 -18 -33 13 -27
33 14 50 36 15 115 79 108 88 -3 3 -8 5 -12 4 -13 -5 -9 44 5 54 6 6 22 13 35
16 20 5 22 2 16 -16 -4 -12 -12 -33 -19 -47 -14 -27 -4 -70 15 -70 6 0 8 -4 5
-10 -4 -7 3 -7 20 0 71 27 207 2 245 -46 12 -14 9 -14 -14 4 -16 12 -33 22
-39 22 -12 0 93 -99 106 -100 4 0 12 20 19 45 12 43 13 44 57 48 36 3 29 4
-29 7 -41 2 -83 4 -92 3 -10 0 -18 4 -18 9 0 4 -3 7 -7 7 -27 -4 -34 3 -28 29
5 23 0 32 -25 50 -23 18 -30 30 -30 58 0 42 19 52 53 29 24 -15 26 -15 32 5 4
14 1 28 -10 40 -12 13 -15 25 -10 37 5 10 9 26 9 35 1 9 7 23 14 30 11 11 16
10 28 -6 16 -22 19 -76 5 -76 -5 0 -11 10 -13 22 -2 12 -8 23 -15 25 -8 3 -7
-6 3 -27 9 -17 14 -43 11 -57 -4 -21 -3 -23 10 -11 17 18 28 78 19 112 -3 13
-16 28 -29 33 -18 6 -15 9 23 14 l45 6 -52 1 c-29 1 -53 -2 -53 -8 0 -5 -7 -7
-16 -3 -9 3 -47 0 -85 -7 -64 -12 -69 -15 -65 -37 9 -46 -34 -132 -65 -133 -9
0 -22 7 -29 15 -19 23 -90 19 -138 -7 -22 -13 -55 -43 -74 -67 -33 -44 -83
-70 -101 -52 -22 22 -20 160 2 146 5 -3 21 14 34 38 29 49 100 117 122 117 8
0 21 16 29 35 17 40 95 95 135 95 51 0 78 -59 51 -111 -10 -18 -13 -18 -40 -4
-30 16 -107 20 -127 7 -6 -4 18 -7 52 -7 52 0 70 -5 96 -24 22 -16 34 -20 37
-13 2 7 7 10 12 7 4 -3 7 3 6 13 0 9 5 16 12 14 8 -1 10 2 7 8 -9 14 23 50 39
44 7 -3 23 7 36 21 22 23 22 25 4 25 -13 0 -4 11 30 35 27 19 53 32 57 29 5
-3 6 8 3 25 -7 31 -7 31 77 39 9 1 41 -3 70 -8z m-1466 -368 c14 -56 37 -128
50 -158 21 -48 22 -55 8 -49 -13 5 -12 1 5 -18 12 -13 22 -34 22 -48 0 -19 2
-21 10 -9 7 11 13 5 29 -30 21 -45 26 -94 15 -124 -5 -12 -20 -16 -63 -16 -61
0 -105 21 -127 62 -27 49 -8 154 32 176 17 9 15 13 -15 41 -19 18 -30 35 -25
42 4 7 3 9 -4 5 -6 -3 -17 12 -28 39 -21 56 -14 134 18 200 l22 44 12 -27 c7
-15 25 -73 39 -130z m731 105 c22 8 16 -27 -10 -71 l-24 -38 -7 31 c-9 40 3
97 17 83 6 -6 17 -8 24 -5z m-256 -17 c0 -5 -5 -10 -11 -10 -5 0 -7 5 -4 10 3
6 8 10 11 10 2 0 4 -4 4 -10z m750 -58 c0 -15 -7 -38 -16 -51 -9 -12 -19 -46
-23 -74 l-6 -52 -45 0 c-60 0 -63 21 -12 88 22 29 47 67 56 85 21 40 46 43 46
4z m-963 -4 c6 -7 13 -29 17 -48 3 -20 2 -29 -2 -22 -5 7 -15 12 -22 10 -16
-3 -44 47 -35 62 9 14 31 13 42 -2z m237 -29 c-5 -8 -10 -6 -16 5 -5 9 -6 21
-2 27 5 8 10 6 16 -5 5 -9 6 -21 2 -27z m-125 -271 c1 -5 -4 -8 -10 -8 -5 0
-8 4 -5 9 4 5 1 11 -6 13 -7 3 -8 9 -3 18 7 11 10 10 16 -6 4 -10 8 -22 8 -26z
m466 18 c12 -12 11 -15 -8 -20 -42 -11 -77 -7 -71 8 5 13 17 18 57 25 5 0 15
-5 22 -13z m156 -126 l-10 -25 0 25 c-1 14 3 36 7 50 l7 25 3 -25 c2 -14 -2
-37 -7 -50z m-681 -189 c-1 -36 -26 -171 -51 -273 l-31 -128 -35 0 c-40 0 -73
15 -73 33 0 7 16 52 36 101 33 81 65 199 79 289 l6 37 34 -26 c19 -15 35 -29
35 -33z m287 31 c16 -10 42 -84 53 -151 11 -63 -3 -180 -22 -192 -29 -18 -99
-22 -115 -7 -13 14 -13 19 0 45 36 68 40 182 12 274 -8 24 46 47 72 31z m563
-22 c-8 -25 -2 -193 8 -225 7 -23 14 -29 31 -27 22 3 51 -13 51 -29 0 -5 -13
-9 -29 -9 -16 0 -31 -6 -35 -15 -6 -18 -86 -21 -117 -5 -16 9 -19 22 -19 83 1
109 22 206 51 228 28 22 66 21 59 -1z m80 -10 c14 0 31 -4 38 -8 18 -12 5 -37
-20 -39 -11 -1 -26 -7 -32 -13 -8 -8 -4 -9 16 -1 34 13 38 2 26 -72 -8 -47
-14 -58 -33 -63 -13 -3 -33 -1 -44 6 -19 10 -21 20 -21 107 0 94 0 95 23 89
12 -3 33 -6 47 -6z m-745 -24 c0 0 6 -12 14 -25 12 -22 11 -26 -5 -38 -17 -12
-16 -13 5 -13 20 0 21 -2 11 -15 -7 -8 -10 -21 -7 -29 6 -15 -12 -26 -44 -26
-14 0 -18 7 -17 28 1 15 5 32 10 38 4 6 0 19 -10 30 -24 25 -7 67 23 58 11 -4
20 -7 20 -8z m-16 -248 c-27 -10 -36 -3 -19 17 10 12 16 13 27 3 13 -10 11
-13 -8 -20z m731 -101 c-1 -34 -17 -41 -60 -27 -64 21 -66 37 -8 50 36 7 68
-3 68 -23z m-670 -3 c25 -8 52 -17 60 -21 13 -5 -80 -30 -117 -32 -14 -1 -17
27 -7 53 7 19 8 19 64 0z m-250 -370 c0 -12 6 -15 23 -10 40 10 158 -5 165
-22 3 -9 1 -17 -4 -19 -6 -2 -9 -26 -7 -53 l3 -50 -156 1 -155 0 6 54 c7 51 6
55 -14 55 -33 0 -28 38 7 46 15 3 32 7 37 9 6 2 29 4 53 4 32 1 42 -3 42 -15z
m361 0 c14 -13 38 -16 101 -16 55 1 85 -3 90 -11 6 -9 8 -9 8 1 0 8 21 12 70
12 57 0 70 -3 70 -16 0 -13 5 -12 27 6 23 18 35 20 82 14 31 -4 59 -12 63 -18
6 -8 8 -7 8 2 0 20 119 16 127 -4 3 -9 0 -20 -7 -24 -9 -6 -11 -21 -6 -54 l7
-46 -78 -2 c-185 -5 -246 -1 -258 16 -11 14 -13 14 -18 2 -5 -12 -35 -15 -167
-15 l-162 0 4 38 c3 36 2 38 -19 28 -13 -6 -23 -21 -25 -36 -2 -21 -9 -27 -35
-29 l-33 -3 0 49 c0 78 9 110 34 115 51 10 100 6 117 -9z m903 -24 c4 -5 4
-14 0 -22 -5 -7 -7 -21 -6 -31 2 -12 -5 -19 -27 -23 -24 -5 -31 -12 -31 -29 0
-20 -6 -23 -70 -29 -91 -8 -110 1 -110 55 0 24 4 38 10 34 5 -3 7 0 4 8 -3 8
6 23 21 35 24 19 35 20 113 15 48 -3 91 -9 96 -13z m-1114 -200 c0 -5 -9 -10
-20 -10 -11 0 -20 5 -20 10 0 6 9 10 20 10 11 0 20 -4 20 -10z m510 -45 c0
-12 13 -15 56 -15 34 0 53 -4 49 -10 -4 -7 3 -6 20 0 35 13 346 11 363 -2 8
-7 12 -7 12 0 0 7 47 11 131 11 l132 1 -7 -31 c-3 -17 -6 -37 -6 -45 0 -7 -12
-15 -27 -17 -26 -4 -26 -4 5 -6 33 -1 44 -22 20 -37 -7 -4 -86 -9 -177 -10
-140 -3 -168 -1 -183 13 -15 14 -18 14 -23 1 -5 -12 -44 -15 -245 -15 l-240
-1 0 59 c0 53 -2 59 -21 59 -14 0 -19 5 -17 18 6 31 158 58 158 27z m-906 -55
c-5 -42 -3 -60 5 -60 6 0 11 12 11 26 0 16 4 23 12 18 7 -5 8 -3 4 5 -5 7 0
21 9 31 15 17 33 19 162 19 156 0 159 -1 145 -54 -6 -22 -16 -32 -38 -36 l-29
-7 33 -1 c24 -1 32 -6 32 -20 0 -15 -10 -19 -56 -25 -35 -4 -61 -2 -69 4 -9 8
-15 8 -20 0 -8 -13 -55 -13 -55 0 0 7 -6 7 -17 1 -10 -5 -60 -9 -110 -9 l-93
0 0 53 c0 29 3 67 6 84 6 27 10 31 41 31 l34 0 -7 -60z m544 28 c8 -7 12 -7
12 1 0 7 27 11 80 11 70 0 81 -2 90 -21 13 -22 5 -73 -9 -65 -5 3 -8 -2 -7
-12 3 -37 -131 -71 -161 -41 -8 8 -13 8 -17 0 -12 -18 -74 -13 -86 6 -10 17
-10 17 -20 0 -14 -22 -59 -22 -67 -1 -6 15 11 56 45 111 12 19 22 22 70 22 32
-1 63 -6 70 -11z"/>
<g>
<path d="M1910 2338 c0 -24 -3 -54 -6 -68 -5 -17 -3 -22 4 -15 12 12 21 125
10 125 -5 0 -8 -19 -8 -42z"/>
</g>
<g>
<path d="M1500 2277 c19 -10 25 -21 25 -45 0 -18 3 -32 7 -32 13 0 9 65 -4 78
-7 7 -21 12 -32 12 -19 0 -18 -2 4 -13z"/>
</g>
<g>
<path d="M1671 2179 c-1 -8 -15 -37 -32 -64 -17 -27 -24 -43 -14 -35 22 19 57
89 51 103 -2 7 -5 6 -5 -4z"/>
</g>
<g>
<path d="M2007 2313 c-7 -64 10 -85 51 -63 23 14 27 22 29 65 l1 50 -12 -50
c-10 -40 -17 -51 -35 -53 -21 -3 -22 0 -20 42 4 62 -7 68 -14 9z"/>
</g>
<g>
<path d="M2126 2344 c-27 -27 -20 -46 17 -44 47 3 49 2 36 -21 -8 -16 -18 -20
-40 -17 -18 3 -28 1 -26 -6 5 -14 54 -11 73 5 8 6 14 23 14 37 0 23 -3 24 -35
19 -26 -4 -35 -2 -35 8 0 16 35 29 50 20 5 -3 10 -1 10 4 0 17 -47 13 -64 -5z"/>
</g>
<g>
<path d="M2243 2350 c-19 -8 -23 -17 -23 -55 l0 -45 38 2 c35 1 35 1 6 5 -26
3 -31 8 -27 24 4 12 15 20 32 20 l26 2 -27 4 c-35 5 -38 33 -4 33 14 0 28 5
31 10 8 12 -22 12 -52 0z"/>
</g>
<g>
<path d="M526 1990 c10 -40 35 -90 46 -90 7 0 7 5 0 13 -6 7 -20 33 -32 57
-11 25 -17 34 -14 20z"/>
</g>
<g>
<path d="M1030 1500 c0 -11 5 -20 10 -20 6 0 10 9 10 20 0 11 -4 20 -10 20 -5
0 -10 -9 -10 -20z"/>
</g>
<g>
<path d="M1057 1474 c-11 -11 -8 -44 3 -44 15 0 24 30 13 41 -5 5 -12 6 -16 3z"/>
</g>
<g>
<path d="M1013 1412 c-13 -8 -6 -52 7 -52 4 0 13 6 19 14 6 7 22 11 35 9 13
-3 27 1 31 7 5 9 1 10 -15 5 -15 -5 -20 -4 -16 4 5 7 1 9 -9 5 -8 -4 -21 -1
-28 4 -7 6 -18 8 -24 4z"/>
</g>
<g>
<path d="M1130 1396 c0 -9 -1 -19 -2 -23 -2 -3 3 -8 10 -10 14 -5 17 33 2 42
-5 3 -10 -1 -10 -9z"/>
</g>
<g>
<path d="M1330 1270 c0 -5 6 -10 14 -10 8 0 17 -8 19 -17 4 -17 5 -17 6 -1 0
10 -8 22 -19 28 -14 7 -20 7 -20 0z"/>
</g>
<g>
<path d="M1405 1220 c-3 -5 -2 -10 4 -10 5 0 13 5 16 10 3 6 2 10 -4 10 -5 0
-13 -4 -16 -10z"/>
</g>
<g>
<path d="M1914 2080 c31 -43 34 -53 24 -70 -7 -11 -17 -20 -23 -20 -5 0 -3 -5
5 -11 13 -9 13 -10 0 -7 -8 2 -27 28 -42 58 -32 61 -38 47 -8 -19 11 -23 17
-47 14 -52 -16 -26 70 5 95 34 10 13 5 23 -28 59 -45 47 -49 58 -24 58 22 0
14 6 -21 14 l-29 7 37 -51z m45 -86 c-17 -21 -31 -17 -19 6 6 11 15 18 21 14
6 -4 6 -11 -2 -20z"/>
</g>
<g>
<path d="M2101 1983 c-6 -21 -10 -49 -10 -63 1 -14 7 2 14 35 15 68 12 87 -4
28z"/>
</g>
<g>
<path d="M2152 1926 c-7 -27 -11 -50 -9 -53 8 -8 29 56 25 78 -2 17 -6 10 -16
-25z"/>
</g>
<g>
<path d="M2206 1929 c-2 -8 -7 -31 -11 -52 -3 -21 -9 -46 -12 -54 -4 -10 -2
-14 5 -9 12 7 37 115 28 123 -3 3 -8 0 -10 -8z"/>
</g>
<g>
<path d="M1967 1869 c-49 -37 -94 -152 -66 -170 17 -11 69 -12 69 -1 0 4 11
20 25 36 14 16 25 35 25 43 0 20 -20 56 -38 69 -13 9 -9 13 21 23 46 15 73 2
82 -39 6 -29 28 -40 40 -20 3 6 2 10 -3 10 -6 0 -8 9 -5 20 4 13 0 20 -10 20
-8 0 -20 7 -27 15 -18 22 -80 18 -113 -6z m25 -74 c9 -19 9 -28 0 -37 -16 -16
-42 8 -42 38 0 32 27 31 42 -1z"/>
</g>
<g>
<path d="M2080 1728 c-11 -15 -17 -28 -13 -28 8 0 83 51 83 56 0 2 -11 3 -25
2 -13 -1 -34 -15 -45 -30z"/>
</g>
<g>
<path d="M1828 1661 c-33 -19 -39 -52 -8 -44 21 5 44 37 38 52 -2 4 -15 0 -30
-8z"/>
</g>
<g>
<path d="M2206 1658 c-29 -45 -46 -97 -35 -104 13 -8 29 13 29 39 0 10 7 33
14 52 17 40 13 45 -8 13z"/>
</g>
<g>
<path d="M2140 1651 c0 -5 -16 -28 -35 -51 -34 -41 -35 -44 -34 -123 l1 -82 9
60 c5 33 7 69 4 81 -3 14 4 29 21 45 31 29 59 79 44 79 -5 0 -10 -4 -10 -9z"/>
</g>
<g>
<path d="M1565 1550 c-3 -6 1 -7 9 -4 18 7 21 14 7 14 -6 0 -13 -4 -16 -10z"/>
</g>
<g>
<path d="M1600 1492 c0 -6 14 -19 30 -29 26 -15 30 -22 24 -48 -10 -48 -54
-71 -82 -43 -9 9 -12 9 -12 0 0 -6 12 -19 26 -29 26 -17 27 -16 50 10 13 15
26 43 30 62 3 19 10 33 14 30 14 -8 23 16 12 27 -8 8 -16 7 -27 -2 -13 -11
-19 -9 -40 10 -14 13 -25 18 -25 12z"/>
</g>
<g>
<path d="M2150 830 c0 -5 2 -10 4 -10 3 0 8 5 11 10 3 6 1 10 -4 10 -6 0 -11
-4 -11 -10z"/>
</g>
<g>
<path d="M2094 798 c-19 -21 -19 -21 6 -8 33 17 33 17 22 24 -5 3 -18 -4 -28
-16z"/>
</g>
<g>
<path d="M455 771 c84 -33 143 -47 123 -28 -7 6 -28 13 -47 13 -22 1 -41 9
-52 23 -12 15 -28 21 -56 21 -37 -1 -36 -1 32 -29z"/>
</g>
<g>
<path d="M2048 772 c-10 -4 -14 -12 -10 -19 6 -9 11 -7 20 7 7 11 11 20 10 19
-2 0 -11 -3 -20 -7z"/>
</g>
<g>
<path d="M635 730 c-19 -8 -19 -9 2 -9 12 -1 44 -9 70 -20 26 -10 75 -21 108
-24 58 -6 57 -6 -24 13 -46 11 -94 26 -107 35 -13 8 -25 15 -26 14 -2 0 -12
-4 -23 -9z"/>
</g>
<g>
<path d="M1876 705 c-3 -10 6 -12 37 -8 89 11 104 19 35 20 -45 0 -68 -4 -72
-12z"/>
</g>
<g>
<path d="M1785 699 c-16 -5 -59 -15 -95 -24 -70 -16 -30 -13 90 8 48 9 68 16
56 20 -10 4 -18 7 -19 6 -1 -1 -15 -5 -32 -10z"/>
</g>
<g>
<path d="M951 667 c11 -13 433 -29 489 -19 46 8 26 10 -120 11 -96 1 -220 4
-275 7 -55 4 -97 4 -94 1z"/>
</g>
<g>
<path d="M680 450 c-25 -8 -25 -8 -2 -9 23 -1 23 -3 17 -58 -5 -41 -4 -55 3
-48 6 6 12 32 14 60 3 43 6 50 28 56 24 7 24 7 -5 7 -16 0 -41 -4 -55 -8z"/>
</g>
<g>
<path d="M768 427 c-11 -27 -10 -97 2 -97 6 0 10 9 10 19 0 17 18 31 41 31 5
0 9 -11 9 -25 0 -14 5 -25 10 -25 6 0 10 25 9 58 -1 39 -3 49 -8 32 -5 -17
-15 -26 -33 -28 -23 -3 -27 1 -30 25 -2 23 -4 25 -10 10z"/>
</g>
<g>
<path d="M877 423 c-10 -9 -9 -91 1 -97 5 -3 22 -1 38 4 l29 8 -32 1 c-39 1
-36 25 5 40 l27 9 -27 1 c-40 1 -36 29 5 34 l32 4 -36 1 c-20 1 -39 -1 -42 -5z"/>
</g>
<g>
<path d="M1042 448 c-7 -7 -11 -36 -11 -67 1 -31 4 -44 6 -30 3 18 15 30 43
43 38 16 55 39 44 57 -8 13 -68 11 -82 -3z m68 -12 c0 -13 -56 -43 -64 -35 -2
2 0 14 5 27 9 25 59 32 59 8z"/>
</g>
<g>
<path d="M1427 393 c-32 -63 -34 -74 -7 -45 26 28 44 28 59 0 11 -22 11 -21 6
6 -3 16 -12 43 -19 60 l-13 31 -26 -52z m29 -10 c-10 -10 -19 5 -10 18 6 11 8
11 12 0 2 -7 1 -15 -2 -18z"/>
</g>
<g>
<path d="M1530 420 c-25 -25 -28 -88 -4 -97 18 -7 64 12 64 27 0 6 -10 4 -24
-5 -21 -14 -25 -14 -36 0 -10 12 -10 21 0 44 13 33 32 44 57 34 11 -4 14 -3 9
5 -11 18 -44 14 -66 -8z"/>
</g>
<g>
<path d="M1148 417 c-5 -10 -8 -35 -8 -55 1 -30 2 -34 11 -19 6 9 9 34 7 55
-2 28 -5 32 -10 19z"/>
</g>
<g>
<path d="M1187 424 c-4 -4 -7 -30 -6 -58 l1 -51 11 38 12 39 23 -31 c12 -17
27 -31 32 -31 6 0 9 24 8 53 -1 43 -2 45 -5 15 -2 -21 -8 -38 -14 -38 -5 0 -9
3 -9 8 0 14 -45 63 -53 56z"/>
</g>
<g>
<path d="M1296 393 c-8 -52 -8 -63 4 -63 6 0 10 17 11 38 0 32 2 35 12 18 23
-36 45 -61 50 -56 11 11 19 100 9 100 -6 0 -12 -17 -14 -37 l-3 -38 -25 37
c-14 21 -28 38 -31 38 -4 0 -9 -17 -13 -37z"/>
</g>
<g>
<path d="M1618 417 c-5 -10 -8 -36 -8 -58 0 -41 17 -51 50 -29 12 8 11 10 -7
10 -19 0 -22 6 -25 48 -2 32 -5 41 -10 29z"/>
</g>
<g>
<path d="M1690 375 c0 -58 3 -60 50 -45 24 8 23 8 -7 9 -21 1 -33 6 -33 15 0
7 15 18 33 24 32 10 32 10 5 11 -40 1 -36 29 5 34 28 3 26 4 -10 5 l-43 2 0
-55z"/>
</g>
<g>
<path d="M1556 384 c-4 -11 -1 -14 11 -12 9 2 18 9 21 16 6 18 -25 15 -32 -4z"/>
</g>
<g>
<path d="M1864 418 c-29 -31 -36 -56 -24 -79 26 -48 93 -2 88 59 -4 46 -33 55
-64 20z m54 -21 c3 -28 -31 -71 -51 -64 -21 7 -20 54 3 77 26 26 44 22 48 -13z"/>
</g>
<g>
<path d="M1980 431 c-22 -6 -25 -13 -28 -56 -2 -46 -1 -48 10 -25 7 13 24 27
38 31 l25 7 -27 1 c-36 1 -39 31 -3 31 14 0 25 5 25 10 0 11 -4 11 -40 1z"/>
</g>
<g>
<path d="M1358 183 c-16 -2 -28 -8 -28 -13 0 -5 7 -7 15 -4 12 5 15 -5 16 -57
l2 -64 9 63 c8 50 14 65 31 72 21 8 21 9 2 8 -11 -1 -32 -3 -47 -5z"/>
</g>
<g>
<path d="M1432 150 c-44 -41 -37 -100 13 -100 12 0 29 8 38 18 22 24 23 88 1
96 -24 9 -28 8 -52 -14z m56 -26 c4 -28 -30 -69 -51 -61 -21 8 -22 36 -1 65
19 27 48 25 52 -4z"/>
</g>
<g>
<path d="M2025 145 c-25 -24 -31 -49 -19 -79 8 -20 48 -21 64 -1 14 17 0 21
-17 4 -28 -28 -45 30 -19 66 8 12 20 16 35 12 24 -6 29 8 5 17 -22 9 -22 9
-49 -19z"/>
</g>
<g>
<path d="M1527 153 c-4 -3 -7 -28 -7 -55 0 -44 2 -48 24 -48 14 0 28 5 32 11
4 7 -2 9 -17 7 -22 -3 -23 0 -20 45 2 47 1 53 -12 40z"/>
</g>
<g>
<path d="M1600 105 c0 -54 0 -55 29 -55 17 0 33 5 37 12 5 8 -2 9 -24 5 -27
-6 -32 -4 -32 13 0 15 7 20 25 20 14 0 25 5 25 10 0 6 -9 10 -20 10 -34 0 -23
28 13 33 28 3 26 4 -10 5 l-43 2 0 -55z"/>
</g>
<g>
<path d="M1696 144 c-3 -9 -5 -34 -5 -57 1 -23 4 -32 6 -19 5 27 15 28 38 2
10 -11 23 -20 28 -20 6 0 0 11 -13 25 l-24 25 22 16 c12 8 22 22 22 30 0 20
-66 19 -74 -2z m52 -6 c-7 -19 -38 -22 -38 -4 0 10 9 16 21 16 12 0 19 -5 17
-12z"/>
</g>
<g>
<path d="M1823 148 c-17 -21 -43 -76 -43 -90 0 -7 7 -2 16 10 17 25 52 29 60
7 4 -8 10 -15 14 -15 8 0 -20 83 -31 95 -4 3 -11 0 -16 -7z m17 -28 c0 -5 -4
-10 -10 -10 -5 0 -10 5 -10 10 0 6 5 10 10 10 6 0 10 -4 10 -10z"/>
</g>
<g>
<path d="M1897 139 c-4 -13 -7 -40 -7 -59 0 -26 3 -31 10 -20 5 8 10 26 10 40
l1 25 20 -24 c11 -13 24 -31 29 -40 12 -22 16 -14 24 47 4 33 3 52 -4 52 -5 0
-10 -16 -10 -35 0 -19 -4 -35 -10 -35 -5 0 -10 3 -10 8 0 4 -11 20 -23 36
l-24 29 -6 -24z"/>
</g>
<g>
<path d="M2109 120 c-1 -22 -2 -46 -3 -52 -1 -17 39 -22 61 -8 15 9 12 10 -14
6 -28 -5 -33 -2 -33 14 0 13 7 20 19 20 11 0 23 5 26 10 4 6 -5 10 -20 10 -36
0 -27 23 11 31 27 6 27 7 -8 8 -38 1 -38 1 -39 -39z"/>
</g>
<g>
<path d="M2051 111 c-9 -16 -8 -18 9 -14 11 3 20 12 20 19 0 20 -18 17 -29 -5z"/>
</g>
<g>
<path d="M1562 100 c0 -14 2 -19 5 -12 2 6 2 18 0 25 -3 6 -5 1 -5 -13z"/>
</g>
<g>
<path d="M507 173 c-4 -3 -7 -33 -7 -65 0 -58 0 -58 29 -58 17 0 33 5 37 11 4
8 -3 9 -26 4 l-33 -7 6 61 c7 61 6 67 -6 54z"/>
</g>
<g>
<path d="M609 141 c-44 -44 -35 -91 17 -91 42 0 72 78 42 108 -18 18 -26 15
-59 -17z m59 -17 c2 -11 -6 -31 -16 -44 -36 -44 -71 0 -39 50 15 26 51 22 55
-6z"/>
</g>
<g>
<path d="M702 125 c0 -22 3 -49 7 -60 7 -18 8 -18 23 5 8 14 23 38 32 53 10
16 15 31 12 34 -3 3 -15 -11 -27 -32 l-23 -38 -12 39 -12 39 0 -40z"/>
</g>
<g>
<path d="M797 153 c-4 -3 -7 -28 -7 -55 0 -46 1 -48 29 -48 17 0 33 5 37 11 4
7 -4 10 -22 7 -34 -4 -42 24 -9 30 33 6 42 22 12 22 -40 0 -35 28 6 33 l32 4
-36 1 c-20 1 -39 -1 -42 -5z"/>
</g>
<g>
<path d="M1183 160 c-20 -8 -23 -17 -23 -60 0 -27 2 -50 5 -50 17 0 66 33 75
49 14 27 13 37 -6 55 -17 18 -20 18 -51 6z m47 -32 c0 -25 -27 -58 -48 -58
-11 0 -13 8 -8 31 3 17 6 35 6 40 0 5 11 9 25 9 19 0 25 -5 25 -22z"/>
</g>
<g>
<path d="M956 114 c-15 -26 -25 -52 -23 -58 2 -6 9 -1 16 12 15 28 47 29 61 1
7 -11 14 -19 16 -16 5 5 -25 87 -36 100 -4 5 -19 -13 -34 -39z m30 -1 c-10
-10 -19 5 -10 18 6 11 8 11 12 0 2 -7 1 -15 -2 -18z"/>
</g>
<g>
<path d="M1046 129 c-9 -47 -7 -81 4 -74 6 3 10 21 10 38 l1 32 20 -24 c11
-13 24 -31 29 -40 12 -23 18 -13 26 47 4 34 3 52 -4 52 -6 0 -12 -17 -14 -37
l-3 -38 -25 37 c-14 21 -28 38 -31 38 -4 0 -9 -14 -13 -31z"/>
</g>
</g>
<g>
<path d="M2468 2340 c-12 -39 -10 -96 3 -83 5 5 9 32 7 59 -2 40 -4 44 -10 24z"/>
</g>
<g>
<path d="M2507 2330 c-4 -18 -7 -44 -6 -59 0 -24 1 -23 13 9 l13 35 7 -28 c8
-35 19 -34 46 6 l21 32 -3 -37 c-2 -21 0 -38 4 -38 4 0 8 15 8 34 0 19 3 41 6
50 11 29 -16 16 -38 -19 l-23 -34 -21 41 -21 41 -6 -33z"/>
</g>
<g>
<path d="M2374 2315 c3 -22 6 -46 6 -52 0 -7 3 -13 8 -13 10 0 64 91 58 97 -3
3 -15 -12 -28 -33 l-23 -39 -3 30 c-2 17 -8 35 -14 40 -7 7 -9 -2 -4 -30z"/>
</g>
<g>
<path d="M2630 2260 c0 -5 5 -10 10 -10 6 0 10 5 10 10 0 6 -4 10 -10 10 -5 0
-10 -4 -10 -10z"/>
</g>
</g>
</svg>
