<?xml version="1.0" standalone="no"?>
<!DOCTYPE svg PUBLIC "-//W3C//DTD SVG 20010904//EN"
 "http://www.w3.org/TR/2001/REC-SVG-20010904/DTD/svg10.dtd">
<svg version="1.0" xmlns="http://www.w3.org/2000/svg"
 width="405.265748pt" height="283.464567pt" viewBox="0 0 405.265748 283.464567"
 preserveAspectRatio="xMidYMid meet">
<metadata>
Created by potrace 1.11, written by Peter Selinger 2001-2013
</metadata>
<g transform="translate(0.000000,283.464567) scale(0.110728,-0.110728)"
fill="#000000" stroke="none">
<g>
<path d="M966 2515 c-64 -70 -77 -101 -70 -171 6 -58 5 -62 -21 -82 -15 -12
-38 -22 -50 -22 -42 0 -180 -40 -242 -70 -34 -17 -84 -51 -113 -77 -111 -100
-142 -216 -80 -301 17 -23 30 -47 30 -53 0 -19 -125 -4 -215 25 -51 16 -103
26 -142 26 l-63 0 0 -46 0 -47 21 27 c26 33 48 33 151 -3 115 -41 196 -52 386
-52 165 -1 412 18 412 32 0 4 -7 10 -15 13 -23 8 -45 68 -45 121 0 55 -12 57
-37 8 -38 -78 -141 -113 -275 -94 -85 11 -128 29 -170 69 -59 54 -28 147 78
241 83 72 215 121 372 136 l70 7 7 47 c4 25 13 61 20 79 14 32 14 32 -10 26
-22 -5 -25 -3 -25 23 0 21 12 42 44 75 36 38 54 48 99 58 47 9 54 14 50 30 -5
17 -14 20 -67 19 -59 -1 -62 -3 -100 -44z"/>
</g>
<g>
<path d="M1328 2521 c36 -29 60 -60 86 -112 20 -39 36 -77 36 -83 0 -7 25 -11
68 -12 57 0 78 -6 132 -35 36 -19 100 -67 142 -107 l77 -74 53 51 c104 101
245 148 417 139 83 -5 87 -4 131 27 97 68 242 78 384 24 31 -11 78 -35 105
-53 42 -29 60 -34 135 -40 96 -7 243 -37 306 -62 83 -33 197 -194 244 -345
l14 -44 1 92 c1 52 -3 95 -9 98 -6 4 -26 31 -45 61 -47 74 -110 140 -160 170
-51 29 -172 60 -308 78 -82 11 -118 21 -173 49 -91 48 -144 66 -227 77 -90 13
-166 0 -265 -43 -70 -32 -87 -35 -197 -40 -144 -5 -220 -28 -316 -93 -36 -24
-75 -44 -87 -44 -12 0 -43 19 -70 43 -70 63 -116 88 -217 122 l-90 30 -47 70
c-26 39 -47 76 -47 83 -1 8 -20 12 -62 12 l-61 0 50 -39z"/>
</g>
<g>
<path d="M1196 2462 c-5 -9 52 -47 60 -39 3 3 -8 14 -25 26 -16 12 -32 18 -35
13z"/>
</g>
<g>
<path d="M1186 2324 c-4 -14 -5 -28 -3 -31 3 -2 8 8 11 23 4 14 5 28 3 31 -3
2 -8 -8 -11 -23z"/>
</g>
<g>
<path d="M2524 2292 c-12 -8 -48 -72 -42 -76 2 -2 24 -15 50 -30 26 -15 57
-43 69 -62 19 -32 20 -39 9 -81 -29 -101 -176 -153 -352 -124 -27 4 -48 4 -48
0 0 -14 106 -33 175 -32 112 3 206 47 240 113 19 37 19 110 1 136 -19 25 -3
44 35 44 16 0 29 5 29 10 0 20 -32 23 -67 6 -62 -30 -72 -1 -16 50 28 26 33
34 19 34 -10 0 -34 -16 -52 -36 -19 -19 -38 -32 -44 -29 -15 9 -12 37 6 63 15
22 9 29 -12 14z"/>
</g>
<g>
<path d="M1375 2250 c-4 -6 -22 -10 -40 -8 -41 2 -75 -24 -75 -59 0 -30 9 -29
35 3 12 15 33 28 48 29 26 3 77 30 77 40 0 10 -39 5 -45 -5z"/>
</g>
<g>
<path d="M2715 2250 c11 -5 38 -8 60 -8 34 0 36 1 15 8 -14 4 -41 8 -60 8 -28
1 -31 -1 -15 -8z"/>
</g>
<g>
<path d="M2273 2209 c-71 -22 -103 -55 -103 -105 0 -73 94 -121 220 -112 60 5
68 3 53 -8 -28 -21 2 -17 47 6 58 29 88 86 75 138 l-6 26 -12 -25 c-29 -58
-155 -13 -175 63 -10 40 -21 42 -99 17z m26 -106 c6 -20 9 -38 8 -39 -7 -6
-48 18 -53 31 -6 15 11 45 27 45 4 0 13 -17 18 -37z m99 25 c21 -21 14 -48
-13 -48 -25 0 -51 32 -40 50 8 14 39 12 53 -2z m52 -69 c0 -24 -23 -21 -28 4
-2 10 3 17 12 17 10 0 16 -9 16 -21z"/>
</g>
<g>
<path d="M980 2171 c-17 -12 -8 -16 54 -25 79 -11 122 -69 114 -156 -4 -36
-15 -59 -48 -101 -45 -56 -70 -106 -70 -136 0 -10 16 9 36 42 20 33 53 78 75
101 25 25 38 46 34 56 -4 9 1 18 11 22 12 5 15 2 10 -10 -5 -12 -2 -15 9 -10
109 41 164 51 295 51 97 0 159 -5 220 -19 47 -11 88 -22 92 -25 4 -4 0 -29 -8
-56 -24 -75 -22 -215 5 -289 11 -32 18 -63 15 -67 -3 -5 -1 -9 5 -9 5 0 18 -8
27 -17 17 -17 17 -17 10 2 -72 175 -70 341 5 473 17 30 28 56 26 58 -10 10
-39 -11 -53 -37 -17 -35 -16 -34 -96 -8 -44 14 -102 22 -195 26 -142 6 -223
-4 -289 -36 -30 -15 -40 -16 -42 -7 -2 7 -14 18 -27 24 -17 8 -25 20 -25 38 0
32 -24 73 -56 97 -28 21 -112 32 -134 18z"/>
</g>
<g>
<path d="M2969 2106 c-2 -3 -45 -10 -94 -16 -117 -14 -140 -19 -129 -29 5 -5
48 -6 95 -4 72 5 92 9 115 29 16 13 26 23 23 24 -3 0 -8 -2 -10 -4z"/>
</g>
<g>
<path d="M2950 2012 c0 -17 47 -109 60 -117 19 -12 10 14 -25 72 -19 32 -35
52 -35 45z"/>
</g>
<g>
<path d="M924 1956 c-15 -12 -17 -17 -6 -28 11 -11 14 -10 22 2 9 14 14 40 7
40 -2 0 -12 -6 -23 -14z"/>
</g>
<g>
<path d="M2710 1941 c0 -5 9 -7 20 -4 11 3 20 7 20 9 0 2 -9 4 -20 4 -11 0
-20 -4 -20 -9z"/>
</g>
<g>
<path d="M2003 1865 c-27 -19 -47 -78 -38 -113 7 -28 52 -82 68 -82 5 0 -5 16
-22 35 -22 25 -31 46 -31 70 0 24 9 45 31 70 32 37 29 46 -8 20z"/>
</g>
<g>
<path d="M2125 1840 c-8 -13 5 -13 25 0 13 8 13 10 -2 10 -9 0 -20 -4 -23 -10z"/>
</g>
<g>
<path d="M2211 1770 l1 -45 10 34 c6 23 6 37 -1 44 -8 8 -11 -2 -10 -33z"/>
</g>
<g>
<path d="M3450 1793 c-28 -10 -59 -46 -70 -79 -9 -28 -8 -41 8 -78 31 -68 103
-96 217 -81 50 6 55 9 55 31 0 23 -2 24 -84 24 -69 0 -88 4 -110 21 -45 35
-27 110 23 94 10 -3 47 -24 80 -45 72 -47 91 -50 91 -15 0 15 -6 25 -14 25 -8
0 -28 12 -43 26 -27 25 -122 85 -133 83 -3 0 -12 -3 -20 -6z"/>
</g>
<g>
<path d="M2630 1780 c-8 -5 -11 -12 -7 -16 4 -4 13 -2 19 4 15 15 7 24 -12 12z"/>
</g>
<g>
<path d="M2914 1706 c-27 -34 -68 -71 -90 -83 -42 -25 -30 -32 15 -9 42 22
144 140 129 150 -2 1 -26 -25 -54 -58z"/>
</g>
<g>
<path d="M2110 1705 c0 -8 7 -15 16 -15 14 0 14 3 4 15 -7 8 -14 15 -16 15 -2
0 -4 -7 -4 -15z"/>
</g>
<g>
<path d="M1017 1663 c7 -2 21 -2 30 0 10 3 5 5 -12 5 -16 0 -24 -2 -18 -5z"/>
</g>
<g>
<path d="M2215 1623 c-102 -21 -132 -56 -103 -117 20 -39 109 -94 163 -98 33
-3 39 0 40 17 0 11 5 20 10 20 6 0 10 -8 9 -17 0 -10 6 -18 15 -18 10 0 12 -3
5 -10 -12 -12 -117 -16 -135 -5 -7 5 -10 3 -7 -6 10 -30 126 -38 185 -14 52
22 73 44 73 75 0 15 7 46 14 68 15 40 14 42 -11 62 -50 39 -177 61 -258 43z
m184 -40 c80 -29 92 -123 16 -123 -59 0 -130 87 -111 136 6 17 17 15 95 -13z
m-105 -69 c22 -21 21 -54 -2 -54 -35 0 -59 51 -29 63 6 3 13 6 14 6 1 1 9 -6
17 -15z"/>
</g>
<g>
<path d="M6 1564 c-9 -24 -7 -152 3 -158 9 -6 21 72 21 137 0 38 -13 50 -24
21z"/>
</g>
<g>
<path d="M1553 1540 c-38 -15 -26 -23 23 -16 50 6 49 8 29 -49 -4 -13 6 -6 28
18 29 31 41 37 75 37 32 0 45 -6 62 -27 18 -24 20 -25 15 -6 -3 12 -1 24 5 28
6 3 8 11 5 16 -8 12 -213 11 -242 -1z"/>
</g>
<g>
<path d="M3641 1462 c-42 -100 -172 -254 -266 -317 -78 -51 -159 -90 -240
-113 -104 -31 -271 -61 -379 -68 -92 -7 -96 -8 -90 -28 21 -66 -7 -71 -72 -14
-40 36 -61 46 -114 57 -103 20 -239 68 -319 114 -130 73 -281 244 -300 340 -5
23 -13 33 -30 35 -20 3 -21 1 -12 -17 6 -11 11 -55 11 -99 l0 -79 40 -27 c66
-44 155 -139 198 -212 61 -103 82 -177 82 -284 0 -115 -11 -162 -67 -279 -38
-79 -59 -108 -127 -177 -68 -67 -99 -90 -177 -128 -106 -51 -238 -88 -374
-105 -131 -16 -320 -14 -390 4 -75 20 -169 70 -219 118 -21 20 -41 37 -43 37
-1 0 -3 -22 -3 -49 0 -41 -4 -53 -26 -70 l-26 -20 46 -12 c56 -14 63 -22 36
-49 l-20 -20 40 0 c36 0 40 3 40 24 0 39 17 40 84 7 l63 -31 254 0 254 0 125
41 c185 60 269 107 370 209 97 96 149 180 185 293 34 107 36 286 4 395 -12 40
-20 75 -17 78 3 2 45 -9 92 -25 48 -17 122 -40 164 -51 42 -12 102 -37 134
-56 68 -41 100 -42 156 -4 29 19 61 31 100 35 108 12 317 57 393 85 156 57
268 141 417 315 42 49 43 51 40 115 l-3 65 -14 -33z"/>
</g>
<g>
<path d="M1013 1446 c-34 -18 -118 -51 -185 -74 -185 -63 -268 -80 -523 -108
-50 -5 -56 -8 -36 -15 64 -25 459 53 621 121 108 46 112 46 133 9 23 -41 30
-34 14 16 -9 30 -9 39 1 43 17 5 59 41 47 41 -5 -1 -38 -16 -72 -33z"/>
</g>
<g>
<path d="M2704 1389 c-55 -26 -114 -78 -138 -120 -15 -26 -8 -21 32 22 28 30
77 70 109 87 64 35 62 43 -3 11z"/>
</g>
<g>
<path d="M3016 1334 c-15 -38 -36 -84 -47 -103 -12 -20 -14 -30 -6 -23 19 16
90 169 85 184 -2 6 -17 -19 -32 -58z"/>
</g>
<g>
<path d="M2468 1352 c-3 -9 -1 -26 3 -37 6 -15 8 -11 8 18 1 40 -4 48 -11 19z"/>
</g>
<g>
<path d="M2778 1278 c-38 -40 -68 -76 -68 -80 0 -10 22 -10 35 0 10 7 92 112
108 139 21 34 -14 6 -75 -59z"/>
</g>
<g>
<path d="M2040 1329 c46 -31 104 -54 201 -78 60 -16 109 -25 109 -22 0 25 -36
43 -137 66 -62 14 -124 30 -138 35 -34 13 -54 13 -35 -1z"/>
</g>
<g>
<path d="M4 1256 l1 -59 68 -22 c64 -21 83 -35 108 -78 13 -23 6 -33 -29 -40
-40 -8 -82 -45 -103 -91 -15 -34 -19 -67 -19 -196 0 -181 9 -221 59 -272 30
-30 48 -38 91 -44 74 -10 95 -32 84 -93 -4 -25 -8 -84 -8 -131 -1 -78 2 -90
35 -155 l35 -70 92 -3 c59 -2 92 1 92 8 0 5 -5 10 -12 10 -6 0 -20 7 -30 17
-17 15 -18 15 -18 0 0 -24 -45 -22 -71 4 -42 42 -69 119 -69 197 0 71 22 140
50 157 16 10 11 25 -8 25 -42 0 -68 64 -37 90 27 22 16 31 -17 13 -22 -11 -57
-17 -102 -17 -59 0 -71 3 -86 22 -25 30 -33 123 -28 299 4 137 6 147 27 164
28 23 65 24 146 4 113 -27 327 9 496 84 83 36 315 166 324 182 3 4 -1 11 -8
17 -8 7 -34 -3 -87 -34 -135 -79 -289 -125 -503 -148 -107 -12 -150 -13 -193
-4 -59 12 -67 21 -83 92 -6 26 -11 30 -41 31 -84 3 -98 6 -123 31 -14 14 -28
35 -30 47 -3 12 -4 -5 -3 -37z"/>
</g>
<g>
<path d="M2412 1280 c-20 -9 -22 -14 -16 -47 4 -23 19 -51 40 -73 38 -39 46
-24 14 25 -26 39 -26 71 0 78 11 3 20 10 20 16 0 13 -26 13 -58 1z"/>
</g>
<g>
<path d="M1124 1255 c33 -25 125 -55 164 -54 l37 1 -45 12 c-25 7 -67 22 -94
34 -58 26 -92 30 -62 7z"/>
</g>
<g>
<path d="M1760 1226 c-11 -19 -30 -38 -40 -41 -11 -4 -20 -13 -20 -21 0 -8 -5
-14 -11 -14 -6 0 -9 7 -5 15 8 22 -21 19 -55 -6 -39 -27 -38 -43 3 -35 l33 6
-35 -29 c-47 -41 -21 -39 43 3 62 40 102 81 116 118 15 41 -4 43 -29 4z"/>
</g>
<g>
<path d="M1504 1145 c-50 -21 -55 -39 -9 -32 43 7 64 22 50 36 -6 6 -22 4 -41
-4z"/>
</g>
<g>
<path d="M2672 1138 c-6 -6 -12 -26 -12 -42 1 -25 3 -28 10 -15 5 9 21 20 36
23 17 5 24 12 22 24 -4 21 -39 27 -56 10z"/>
</g>
<g>
<path d="M1457 1063 c-10 -9 -9 -23 1 -23 5 0 17 7 28 15 19 14 19 14 -2 15
-11 0 -24 -3 -27 -7z"/>
</g>
<g>
<path d="M1743 1050 c3 -8 17 -42 31 -75 35 -84 42 -150 22 -219 -55 -189
-273 -234 -605 -123 -114 37 -135 41 -226 41 -74 0 -109 -4 -135 -17 -19 -10
-26 -15 -15 -12 124 37 213 31 373 -24 203 -70 385 -78 494 -23 61 31 112 92
129 155 21 78 -8 225 -58 291 -8 11 -13 14 -10 6z"/>
</g>
<g>
<path d="M1560 1010 c-14 -11 -61 -32 -105 -46 -68 -23 -103 -28 -231 -32
l-152 -4 -6 -29 c-4 -20 -18 -37 -43 -52 -36 -21 -37 -22 -13 -25 14 -2 80
-17 148 -33 133 -33 232 -39 285 -18 102 40 171 128 165 210 -4 50 -14 56 -48
29z m-60 -114 c0 -19 -43 -52 -87 -67 -56 -18 -223 5 -223 31 0 4 47 13 105
19 58 7 116 16 128 21 35 14 77 12 77 -4z"/>
</g>
<g>
<path d="M2011 876 c-1 -11 2 -17 5 -13 3 3 4 12 1 19 -3 8 -6 5 -6 -6z"/>
</g>
<g>
<path d="M905 827 c-261 -140 -296 -160 -288 -168 13 -13 71 10 195 78 126 69
163 94 157 111 -3 8 -24 1 -64 -21z"/>
</g>
<g>
<path d="M2019 768 c-5 -77 -11 -98 -48 -174 -93 -187 -262 -300 -556 -370
-73 -17 -85 -22 -45 -18 105 12 285 75 387 135 163 97 278 286 271 446 l-3 68
-6 -87z"/>
</g>
<g>
<path d="M565 600 c-22 -10 -66 -21 -98 -25 -51 -7 -57 -6 -51 9 5 14 2 16
-22 11 -57 -13 -65 -17 -61 -28 2 -8 34 -13 87 -14 81 -3 142 -15 167 -35 7
-5 17 -7 23 -3 11 7 14 105 3 104 -5 0 -26 -9 -48 -19z"/>
</g>
<g>
<path d="M596 485 c-22 -58 17 -147 67 -153 31 -4 34 4 11 36 -8 12 -23 46
-32 74 -18 54 -35 70 -46 43z"/>
</g>
<g>
<path d="M440 430 c0 -13 11 -13 30 0 12 8 11 10 -7 10 -13 0 -23 -4 -23 -10z"/>
</g>
<g>
<path d="M460 281 c0 -25 6 -27 13 -6 4 8 2 17 -3 20 -6 4 -10 -3 -10 -14z"/>
</g>
<g>
<path d="M568 223 c6 -2 18 -2 25 0 6 3 1 5 -13 5 -14 0 -19 -2 -12 -5z"/>
</g>
<g>
<path d="M1048 193 c12 -2 32 -2 45 0 12 2 2 4 -23 4 -25 0 -35 -2 -22 -4z"/>
</g>
<g>
<path d="M1233 193 c15 -2 39 -2 55 0 15 2 2 4 -28 4 -30 0 -43 -2 -27 -4z"/>
</g>
<g>
<path d="M580 115 c14 -16 40 -20 40 -6 0 9 -24 21 -42 21 -6 0 -6 -6 2 -15z"/>
</g>
</g>
</svg>
