<?xml version="1.0" standalone="no"?>
<!DOCTYPE svg PUBLIC "-//W3C//DTD SVG 20010904//EN"
 "http://www.w3.org/TR/2001/REC-SVG-20010904/DTD/svg10.dtd">
<svg version="1.0" xmlns="http://www.w3.org/2000/svg"
 width="503.686812pt" height="283.464567pt" viewBox="0 0 503.686812 283.464567"
 preserveAspectRatio="xMidYMid meet">
<metadata>
Created by potrace 1.11, written by Peter Selinger 2001-2013
</metadata>
<g transform="translate(-0.000000,283.464567) scale(0.110728,-0.110728)"
fill="#000000" stroke="none">
<g>
<path d="M85 2313 c0 -238 -2 -252 -28 -347 -14 -54 -34 -107 -42 -116 -14
-15 -15 -58 -12 -321 4 -361 10 -406 111 -749 7 -25 18 -44 24 -43 12 3 36
-66 52 -153 12 -61 9 -223 -5 -278 -7 -25 -5 -28 9 -23 12 5 16 1 16 -18 0
-14 -5 -25 -12 -25 -6 0 -3 -9 7 -20 17 -19 17 -21 1 -33 -14 -11 -15 -20 -6
-77 6 -36 11 -75 12 -87 0 -19 6 -23 29 -23 l29 0 -6 97 -7 96 48 -6 c27 -4
56 -13 64 -21 11 -9 57 -15 137 -19 66 -4 189 -14 273 -23 84 -8 159 -13 167
-10 8 3 14 19 14 35 0 25 5 30 30 36 16 4 34 4 39 1 12 -8 7 -81 -8 -119 -13
-33 -14 -67 -3 -67 15 1 52 73 47 90 -7 21 8 26 118 35 60 6 80 11 84 24 2 9
8 23 13 32 4 9 4 22 -1 30 -5 8 -9 24 -9 36 0 23 7 22 -183 37 l-59 5 7 -35 6
-35 -38 3 c-35 3 -38 6 -43 38 -6 42 21 42 -327 10 -237 -22 -263 -26 -263
-42 0 -15 -9 -18 -60 -18 -70 0 -68 -8 -48 151 16 131 2 221 -61 390 -88 241
-172 632 -174 819 -1 88 2 105 45 230 72 209 83 274 83 495 0 105 -4 207 -8
228 -7 32 -12 37 -35 37 l-27 0 0 -247z m800 -2108 c0 -16 -8 -21 -40 -23 -55
-5 -110 7 -97 20 14 14 70 27 107 25 23 -2 30 -7 30 -22z"/>
</g>
<g>
<path d="M266 2518 c11 -82 13 -87 50 -103 20 -8 38 -15 40 -15 6 0 4 81 -2
123 -6 36 -8 37 -50 37 l-44 0 6 -42z m59 -19 c8 -60 4 -68 -24 -40 -20 20
-28 70 -14 84 18 19 32 3 38 -44z"/>
</g>
<g>
<path d="M458 2548 c9 -9 15 -9 24 0 9 9 7 12 -12 12 -19 0 -21 -3 -12 -12z"/>
</g>
<g>
<path d="M541 2513 c4 -27 8 -83 8 -126 l1 -78 -30 16 c-34 17 -40 18 -40 6 0
-5 20 -21 44 -35 25 -14 54 -38 66 -53 17 -22 23 -25 30 -13 15 23 12 27 -19
33 l-30 6 -3 88 c-2 62 0 91 9 99 9 8 11 26 7 58 -6 39 -10 46 -29 46 -21 0
-21 -3 -14 -47z"/>
</g>
<g>
<path d="M1035 2540 c37 -25 41 -25 48 0 5 18 0 20 -36 20 l-42 0 30 -20z"/>
</g>
<g>
<path d="M1100 2550 c0 -13 37 -50 50 -50 18 0 10 29 -10 35 -11 3 -20 11 -20
16 0 5 -4 9 -10 9 -5 0 -10 -4 -10 -10z"/>
</g>
<g>
<path d="M1457 2433 c-3 -71 -3 -130 -1 -132 2 -3 10 10 16 27 13 33 22 39 33
22 12 -20 25 -9 25 22 0 19 -9 41 -22 55 -20 21 -21 27 -10 57 7 18 10 40 6
49 -4 11 2 17 23 20 19 3 13 4 -18 6 l-46 1 -6 -127z"/>
</g>
<g>
<path d="M647 2543 c-3 -4 1 -37 7 -73 13 -73 39 -91 44 -31 3 30 6 33 30 28
25 -5 25 -4 7 9 -10 8 -22 14 -27 14 -4 0 -8 9 -8 21 0 17 5 20 38 17 37 -3
37 -3 38 -48 1 -25 3 -64 5 -87 1 -23 0 -45 -4 -49 -3 -4 -22 3 -42 15 -20 12
-40 19 -45 16 -7 -5 -4 -99 5 -141 3 -15 15 -24 39 -28 19 -4 37 -13 40 -21 5
-13 107 -85 121 -85 13 0 3 36 -17 58 -20 21 -23 34 -24 115 0 51 -5 115 -12
142 -6 28 -14 67 -17 88 l-6 37 -69 0 c-37 0 -75 3 -83 6 -8 3 -17 2 -20 -3z
m130 -241 c11 -13 8 -57 -4 -71 -7 -9 -73 64 -73 82 0 16 5 18 33 12 17 -4 38
-14 44 -23z"/>
</g>
<g>
<path d="M885 2540 c-17 -27 59 -131 99 -137 11 -2 25 -8 33 -14 18 -15 17
-89 0 -89 -20 0 -47 33 -47 58 0 15 -5 20 -15 16 -8 -4 -22 -1 -30 6 -8 7 -15
10 -15 7 0 -20 32 -153 39 -161 5 -6 12 -46 16 -89 4 -43 12 -82 18 -87 59
-48 76 -60 85 -60 11 0 0 67 -18 114 -7 20 -8 32 0 40 5 5 10 29 10 52 0 51
11 61 35 34 10 -11 25 -20 32 -20 24 0 9 24 -25 40 -23 11 -33 24 -38 47 -13
69 21 79 79 24 46 -42 50 -56 36 -127 -13 -67 -19 -74 -39 -49 -7 8 -24 15
-37 15 -21 0 -23 -3 -14 -14 6 -8 26 -20 44 -27 40 -16 46 -25 42 -63 -3 -17
-6 -52 -9 -77 l-5 -46 50 -32 c28 -17 53 -31 56 -31 7 0 -5 344 -13 365 -5 11
1 15 20 15 37 0 32 11 -19 45 -201 135 -250 170 -295 210 -52 46 -64 52 -75
35z m145 -289 c13 -25 13 -61 1 -61 -14 0 -41 41 -41 62 0 24 27 23 40 -1z"/>
</g>
<g>
<path d="M1660 2546 c0 -3 5 -8 10 -11 6 -3 10 -1 10 4 0 6 -4 11 -10 11 -5 0
-10 -2 -10 -4z"/>
</g>
<g>
<path d="M1393 2455 c-2 -46 -10 -127 -18 -181 -16 -99 -14 -113 21 -114 6 0
19 -9 29 -20 26 -29 15 -98 -21 -127 l-28 -22 18 -98 c34 -189 33 -311 -5
-354 -22 -26 -24 -35 -6 -43 8 -3 7 -9 -7 -20 -10 -8 -15 -19 -11 -25 7 -12
-24 -129 -36 -137 -5 -3 -9 4 -9 16 0 12 -4 18 -10 15 -5 -3 -10 -17 -10 -31
0 -30 -10 -30 -85 1 -79 33 -99 33 -91 1 3 -13 22 -109 41 -213 35 -186 55
-253 75 -253 5 0 10 5 10 10 0 6 12 10 26 10 35 0 21 18 -20 25 l-33 7 -6 171
c-5 136 -10 174 -22 183 -27 20 -16 24 56 24 l71 0 -8 -27 c-4 -16 -8 -41 -9
-58 0 -16 -4 -36 -8 -43 -5 -7 -2 -14 7 -18 21 -8 20 -33 -4 -69 -26 -39 -26
-96 -1 -112 17 -11 19 -10 18 10 -3 28 17 39 21 11 2 -11 -4 -27 -13 -34 -22
-18 -19 -35 10 -48 14 -6 25 -16 25 -22 0 -14 -17 -13 -27 3 -5 7 -10 -3 -13
-28 -4 -34 -10 -42 -42 -57 -20 -10 -39 -21 -41 -25 -6 -9 27 -165 37 -182 4
-6 13 -11 21 -11 10 0 12 10 9 37 -7 48 -24 93 -35 93 -5 0 -9 7 -9 15 0 21
36 19 68 -4 15 -10 39 -20 55 -23 35 -7 35 1 3 169 -14 71 -34 180 -46 244
l-22 116 47 143 c51 154 74 263 75 347 0 47 -30 226 -44 263 -4 10 4 21 23 32
35 19 49 71 35 127 -8 31 -13 36 -43 39 -33 3 -33 4 -27 45 14 99 26 298 19
311 -5 9 -9 -20 -10 -69z m-28 -1635 c-25 -9 -36 -4 -29 15 5 12 10 12 27 3
21 -11 21 -11 2 -18z m-4 -30 c20 -11 26 -45 8 -55 -5 -4 -18 0 -28 9 -10 9
-22 16 -27 15 -19 -3 -34 1 -34 11 0 6 11 10 25 10 14 0 25 5 25 10 0 13 6 13
31 0z"/>
</g>
<g>
<path d="M2120 2516 c0 -8 14 -16 30 -19 17 -4 30 -11 30 -17 0 -6 9 -21 20
-33 12 -12 20 -33 19 -47 -6 -67 14 -97 61 -90 38 5 37 15 -8 105 -30 60 -152
140 -152 101z"/>
</g>
<g>
<path d="M1750 2503 c0 -15 28 -43 43 -43 23 1 49 28 40 42 -10 16 -83 18 -83
1z"/>
</g>
<g>
<path d="M4543 2465 c0 -27 2 -38 4 -22 2 15 2 37 0 50 -2 12 -4 0 -4 -28z"/>
</g>
<g>
<path d="M380 2476 c0 -28 45 -86 66 -86 29 0 10 84 -22 99 -36 16 -44 14 -44
-13z"/>
</g>
<g>
<path d="M1861 2486 c-1 -11 2 -17 5 -13 3 3 4 12 1 19 -3 8 -6 5 -6 -6z"/>
</g>
<g>
<path d="M3295 2483 c3 -10 11 -42 17 -70 6 -29 14 -53 19 -53 4 0 15 -3 24
-7 15 -5 16 -3 6 15 -19 35 -14 69 11 75 12 4 19 9 15 13 -4 4 -18 1 -32 -6
-24 -13 -39 -9 -41 11 -1 5 -2 16 -3 24 0 8 -6 15 -12 15 -7 0 -8 -7 -4 -17z"/>
</g>
<g>
<path d="M1162 2470 c0 -14 2 -19 5 -12 2 6 2 18 0 25 -3 6 -5 1 -5 -13z"/>
</g>
<g>
<path d="M3013 2456 c2 -6 18 -10 36 -10 24 2 31 -2 31 -17 0 -21 15 -25 25
-8 4 6 13 8 21 5 8 -3 14 -2 14 3 0 16 -27 31 -44 25 -9 -3 -16 -2 -16 3 0 5
-16 9 -35 9 -20 0 -34 -4 -32 -10z"/>
</g>
<g>
<path d="M1717 2444 c-9 -10 2 -24 19 -24 8 0 14 7 14 15 0 15 -21 21 -33 9z"/>
</g>
<g>
<path d="M2932 2440 c5 -15 21 -17 26 -2 2 6 -4 12 -13 12 -9 0 -15 -4 -13
-10z"/>
</g>
<g>
<path d="M3150 2420 c0 -5 2 -10 4 -10 3 0 8 5 11 10 3 6 1 10 -4 10 -6 0 -11
-4 -11 -10z"/>
</g>
<g>
<path d="M2348 2397 c-29 -44 -29 -47 -14 -47 15 0 56 37 56 51 0 18 -30 16
-42 -4z"/>
</g>
<g>
<path d="M1855 2400 c-3 -5 -1 -10 4 -10 6 0 11 5 11 10 0 6 -2 10 -4 10 -3 0
-8 -4 -11 -10z"/>
</g>
<g>
<path d="M1777 2386 c-11 -8 -15 -20 -11 -30 5 -12 0 -19 -14 -23 -11 -3 -21
-12 -21 -21 0 -10 -3 -29 -7 -44 -4 -18 -2 -28 5 -28 6 0 11 11 11 24 0 33 26
40 50 14 l20 -21 25 27 c14 15 23 32 19 37 -3 6 -11 3 -19 -7 -14 -20 -45 -13
-45 11 0 9 5 26 11 37 14 26 -1 41 -24 24z"/>
</g>
<g>
<path d="M4544 2280 c0 -69 1 -97 3 -62 2 34 2 90 0 125 -2 34 -3 6 -3 -63z"/>
</g>
<g>
<path d="M590 2358 c0 -24 16 -56 23 -48 3 3 2 20 0 38 -6 36 -23 44 -23 10z"/>
</g>
<g>
<path d="M2926 2361 c-6 -9 8 -88 17 -97 9 -9 28 26 21 38 -5 7 -7 20 -6 29 3
19 -23 44 -32 30z"/>
</g>
<g>
<path d="M1870 2351 c0 -6 5 -11 10 -11 6 0 10 2 10 4 0 3 -4 8 -10 11 -5 3
-10 1 -10 -4z"/>
</g>
<g>
<path d="M2584 2328 c-4 -7 -7 -25 -6 -40 1 -16 -5 -42 -13 -58 -14 -27 -14
-31 -1 -36 24 -9 51 1 47 17 -3 8 -6 38 -7 67 -2 57 -7 71 -20 50z"/>
</g>
<g>
<path d="M3005 2310 c-18 -19 -17 -20 8 -20 17 0 27 5 27 14 0 24 -16 27 -35
6z"/>
</g>
<g>
<path d="M1546 2311 c-9 -14 61 -74 78 -68 9 4 16 12 16 19 0 15 -87 60 -94
49z"/>
</g>
<g>
<path d="M278 2268 c-1 -24 -2 -62 -3 -85 -1 -23 -7 -54 -13 -70 -6 -15 -20
-70 -32 -122 -12 -52 -32 -116 -46 -142 -13 -27 -24 -53 -24 -58 0 -6 17 -13
38 -17 20 -3 46 -12 57 -19 11 -6 32 -15 47 -18 14 -4 34 -10 44 -14 12 -4 15
-3 10 6 -5 7 -19 16 -32 21 -18 7 -24 17 -24 39 0 43 13 45 64 10 39 -25 44
-33 36 -49 -5 -10 -15 -20 -22 -23 -19 -7 9 -32 49 -45 38 -13 43 -9 43 39 0
21 14 93 30 161 17 67 30 135 30 151 0 16 7 30 16 34 20 7 50 -10 46 -27 -1
-6 4 -21 13 -33 8 -12 16 -40 16 -62 l2 -40 10 38 c6 20 14 37 19 37 14 0 9
27 -17 78 -14 28 -25 54 -26 58 0 5 -54 36 -121 69 -66 33 -137 75 -158 93
-21 17 -41 32 -44 32 -3 0 -7 -19 -8 -42z m67 -128 c18 -19 17 -23 -8 -108
-15 -48 -31 -109 -37 -137 -13 -62 -30 -105 -41 -105 -5 0 -13 9 -19 20 -14
26 -3 85 23 130 16 26 22 56 25 127 4 80 7 93 22 93 9 0 25 -9 35 -20z m132
-27 c3 -7 -3 -9 -17 -6 -29 8 -37 25 -9 21 12 -1 24 -8 26 -15z m-17 -55 c35
-49 47 -85 32 -100 -8 -8 -20 -1 -44 23 -18 19 -42 39 -52 44 -18 10 -18 12
-2 43 9 18 21 32 26 32 6 0 24 -19 40 -42z m-39 -85 c20 -27 39 -53 42 -59 8
-14 -11 -74 -24 -74 -7 0 -83 53 -107 75 -4 4 41 105 47 105 4 0 23 -21 42
-47z"/>
</g>
<g>
<path d="M1871 2276 c-9 -10 -9 -16 -1 -21 17 -10 37 12 24 25 -8 8 -15 6 -23
-4z"/>
</g>
<g>
<path d="M3117 2283 c-13 -12 -7 -23 12 -23 10 0 21 7 25 15 5 15 -24 22 -37
8z"/>
</g>
<g>
<path d="M1985 2270 c-3 -5 1 -10 9 -10 9 0 16 5 16 10 0 6 -4 10 -9 10 -6 0
-13 -4 -16 -10z"/>
</g>
<g>
<path d="M3212 2248 c2 -15 11 -24 26 -26 28 -4 30 23 3 38 -28 15 -33 13 -29
-12z"/>
</g>
<g>
<path d="M3482 2240 c0 -14 2 -19 5 -12 2 6 2 18 0 25 -3 6 -5 1 -5 -13z"/>
</g>
<g>
<path d="M2300 2240 c0 -5 2 -10 4 -10 3 0 8 5 11 10 3 6 1 10 -4 10 -6 0 -11
-4 -11 -10z"/>
</g>
<g>
<path d="M3405 2229 c-10 -15 3 -25 16 -12 7 7 7 13 1 17 -6 3 -14 1 -17 -5z"/>
</g>
<g>
<path d="M2900 2220 c0 -5 2 -10 4 -10 3 0 8 5 11 10 3 6 1 10 -4 10 -6 0 -11
-4 -11 -10z"/>
</g>
<g>
<path d="M2230 2205 c0 -9 6 -15 13 -12 14 4 12 20 -3 25 -5 2 -10 -4 -10 -13z"/>
</g>
<g>
<path d="M3549 2168 c0 -2 -3 -16 -5 -32 -5 -26 -3 -28 10 -16 18 14 22 50 6
50 -5 0 -10 -1 -11 -2z"/>
</g>
<g>
<path d="M2060 2151 c0 -5 7 -11 15 -15 9 -3 15 0 15 9 0 8 -7 15 -15 15 -8 0
-15 -4 -15 -9z"/>
</g>
<g>
<path d="M2390 2145 c0 -8 7 -15 15 -15 8 0 15 7 15 15 0 8 -7 15 -15 15 -8 0
-15 -7 -15 -15z"/>
</g>
<g>
<path d="M2886 2145 c-3 -8 3 -19 14 -25 26 -14 40 -12 40 5 0 8 -7 15 -15 15
-8 0 -15 5 -15 10 0 15 -17 12 -24 -5z"/>
</g>
<g>
<path d="M3980 2150 c0 -5 2 -10 4 -10 3 0 8 5 11 10 3 6 1 10 -4 10 -6 0 -11
-4 -11 -10z"/>
</g>
<g>
<path d="M3441 2136 c-1 -11 2 -17 5 -13 3 3 4 12 1 19 -3 8 -6 5 -6 -6z"/>
</g>
<g>
<path d="M3961 2136 c-1 -11 2 -17 5 -13 3 3 4 12 1 19 -3 8 -6 5 -6 -6z"/>
</g>
<g>
<path d="M716 2103 c22 -98 24 -103 49 -103 33 0 31 11 -7 76 -36 59 -52 69
-42 27z"/>
</g>
<g>
<path d="M3102 2109 c-13 -5 -28 -7 -32 -4 -5 3 -11 1 -14 -4 -3 -5 10 -12 30
-16 20 -3 49 -16 64 -27 29 -21 120 -37 120 -21 0 20 -46 52 -66 47 -12 -3
-27 2 -38 15 -21 23 -30 24 -64 10z"/>
</g>
<g>
<path d="M2472 2065 c-19 -20 -21 -27 -11 -43 15 -25 -8 -109 -33 -123 -10 -5
-18 -14 -18 -20 0 -6 4 -8 9 -4 5 3 16 -4 25 -16 13 -19 18 -20 45 -11 25 9
31 8 31 -3 0 -10 13 -13 53 -10 28 1 69 3 90 4 42 1 46 12 16 42 -24 24 -64
22 -148 -7 -33 -11 -47 -12 -57 -3 -16 13 -19 39 -3 39 12 0 59 102 59 128 -1
16 -22 52 -31 52 -2 0 -14 -11 -27 -25z"/>
</g>
<g>
<path d="M3605 2069 c-12 -19 5 -23 22 -6 16 16 16 17 1 17 -9 0 -20 -5 -23
-11z"/>
</g>
<g>
<path d="M3320 2046 c0 -10 9 -16 25 -16 14 0 25 5 25 10 0 6 -4 10 -9 10 -5
0 -16 3 -25 6 -11 4 -16 1 -16 -10z"/>
</g>
<g>
<path d="M2920 2024 c0 -8 5 -12 10 -9 6 3 10 10 10 16 0 5 -4 9 -10 9 -5 0
-10 -7 -10 -16z"/>
</g>
<g>
<path d="M3565 2009 c8 -37 23 -52 43 -44 8 3 27 -6 44 -20 27 -23 48 -32 48
-21 0 3 -9 21 -21 40 -20 34 -23 36 -60 30 -35 -6 -39 -4 -39 14 0 12 -5 24
-11 28 -8 4 -9 -4 -4 -27z"/>
</g>
<g>
<path d="M2212 2000 c0 -14 2 -19 5 -12 2 6 2 18 0 25 -3 6 -5 1 -5 -13z"/>
</g>
<g>
<path d="M2890 2005 c0 -8 5 -15 10 -15 6 0 10 7 10 15 0 8 -4 15 -10 15 -5 0
-10 -7 -10 -15z"/>
</g>
<g>
<path d="M2340 1994 c0 -8 5 -12 10 -9 6 3 10 10 10 16 0 5 -4 9 -10 9 -5 0
-10 -7 -10 -16z"/>
</g>
<g>
<path d="M2128 1972 c-16 -10 -28 -25 -28 -34 0 -22 13 -23 31 -2 8 10 21 13
36 9 24 -6 28 1 17 29 -8 20 -21 19 -56 -2z"/>
</g>
<g>
<path d="M2635 1980 c-3 -5 -1 -10 4 -10 6 0 11 5 11 10 0 6 -2 10 -4 10 -3 0
-8 -4 -11 -10z"/>
</g>
<g>
<path d="M740 1953 c0 -29 12 -63 21 -63 5 0 9 6 9 14 0 28 22 28 50 1 17 -17
30 -23 34 -16 12 19 54 12 70 -11 21 -30 29 -18 21 31 -7 45 -6 44 -137 56
-61 5 -68 4 -68 -12z"/>
</g>
<g>
<path d="M1013 1940 c-7 -17 -7 -41 2 -80 7 -30 27 -136 45 -235 33 -181 41
-205 66 -205 12 0 11 5 -2 25 -13 19 -18 57 -21 153 -2 70 -5 138 -6 152 -2
21 3 25 31 28 19 2 43 -4 60 -15 29 -19 118 -21 106 -2 -3 5 -47 29 -97 52
-100 47 -164 96 -170 130 -3 22 -4 22 -14 -3z"/>
</g>
<g>
<path d="M2867 1940 c-3 -14 -14 -20 -31 -20 -23 0 -26 -4 -26 -35 0 -19 5
-35 11 -35 21 0 69 58 69 84 0 31 -15 35 -23 6z"/>
</g>
<g>
<path d="M1541 1926 c-7 -8 -8 -17 -3 -19 4 -3 13 3 20 14 14 22 0 26 -17 5z"/>
</g>
<g>
<path d="M1600 1910 c0 -19 3 -21 12 -12 9 9 9 15 0 24 -9 9 -12 7 -12 -12z"/>
</g>
<g>
<path d="M3735 1920 l-30 -6 38 -13 c25 -9 37 -19 37 -32 0 -10 7 -19 15 -19
20 0 19 16 -4 39 -10 10 -20 23 -22 28 -2 5 -17 6 -34 3z"/>
</g>
<g>
<path d="M616 1883 c-10 -10 -7 -33 5 -33 6 0 25 -12 43 -27 31 -26 31 -26 34
-4 2 12 -2 28 -8 36 -13 16 -66 36 -74 28z"/>
</g>
<g>
<path d="M4160 1881 c0 -5 7 -15 17 -22 15 -13 15 -12 4 9 -12 23 -21 28 -21
13z"/>
</g>
<g>
<path d="M1910 1853 c0 -15 10 -28 30 -38 34 -18 40 -18 40 -5 0 6 -5 10 -12
10 -7 0 -22 12 -35 28 -22 26 -22 26 -23 5z"/>
</g>
<g>
<path d="M2385 1860 c-3 -5 -1 -10 4 -10 6 0 11 5 11 10 0 6 -2 10 -4 10 -3 0
-8 -4 -11 -10z"/>
</g>
<g>
<path d="M3210 1858 c1 -15 24 -48 34 -48 11 0 7 35 -6 48 -16 16 -28 15 -28
0z"/>
</g>
<g>
<path d="M1315 1840 c3 -5 11 -10 16 -10 6 0 7 5 4 10 -3 6 -11 10 -16 10 -6
0 -7 -4 -4 -10z"/>
</g>
<g>
<path d="M4215 1793 c14 -27 34 -61 45 -78 11 -16 27 -46 37 -65 17 -35 17
-35 20 -9 3 19 -12 48 -58 113 -34 47 -63 86 -65 86 -3 0 7 -21 21 -47z"/>
</g>
<g>
<path d="M557 1793 c-4 -21 -7 -55 -7 -75 0 -37 -1 -38 -37 -38 -36 -1 -37 -1
-18 -16 11 -8 40 -21 65 -28 25 -8 58 -21 74 -30 22 -11 33 -12 43 -4 24 19
14 36 -38 65 l-51 28 7 45 c12 79 11 85 -11 88 -18 3 -22 -4 -27 -35z"/>
</g>
<g>
<path d="M770 1808 c1 -42 29 -140 45 -158 11 -13 14 -28 9 -57 -6 -38 -4 -41
24 -51 37 -13 44 -7 31 25 -5 13 -9 58 -9 99 0 72 1 74 25 74 21 0 25 -5 25
-29 0 -19 10 -40 30 -59 17 -17 30 -40 30 -51 0 -17 -6 -21 -34 -21 -26 0 -36
-5 -41 -20 -8 -26 6 -44 48 -61 18 -7 40 -21 50 -31 20 -20 42 -14 33 9 -4 8
-20 76 -37 152 -32 137 -47 171 -80 171 -10 0 -21 5 -24 10 -10 17 -25 11 -25
-9 0 -14 5 -18 20 -14 11 3 20 1 20 -4 0 -16 -22 -32 -36 -26 -14 5 -28 -20
-38 -69 -11 -51 -26 -29 -26 40 -1 40 -6 74 -14 85 -18 23 -26 22 -26 -5z
m190 -258 c0 -5 -4 -10 -10 -10 -5 0 -10 5 -10 10 0 6 5 10 10 10 6 0 10 -4
10 -10z"/>
</g>
<g>
<path d="M1338 1785 c-2 -19 0 -35 4 -35 4 0 8 16 8 35 0 19 -2 35 -4 35 -2 0
-6 -16 -8 -35z"/>
</g>
<g>
<path d="M2310 1811 c0 -6 5 -11 10 -11 6 0 10 2 10 4 0 3 -4 8 -10 11 -5 3
-10 1 -10 -4z"/>
</g>
<g>
<path d="M2000 1790 c19 -13 30 -13 30 0 0 6 -10 10 -22 10 -19 0 -20 -2 -8
-10z"/>
</g>
<g>
<path d="M2395 1790 c-3 -5 -1 -10 4 -10 6 0 11 5 11 10 0 6 -2 10 -4 10 -3 0
-8 -4 -11 -10z"/>
</g>
<g>
<path d="M3670 1791 c0 -6 5 -13 10 -16 6 -3 10 1 10 9 0 9 -4 16 -10 16 -5 0
-10 -4 -10 -9z"/>
</g>
<g>
<path d="M3210 1764 c0 -8 5 -12 10 -9 6 3 10 10 10 16 0 5 -4 9 -10 9 -5 0
-10 -7 -10 -16z"/>
</g>
<g>
<path d="M3614 1762 c-14 -9 -26 -120 -13 -127 5 -4 9 9 9 27 0 19 5 39 11 45
14 14 8 65 -7 55z"/>
</g>
<g>
<path d="M2350 1745 c-17 -21 -8 -28 15 -11 11 8 14 15 8 19 -6 4 -16 0 -23
-8z"/>
</g>
<g>
<path d="M1621 1711 c-14 -26 -14 -44 1 -39 15 5 29 46 18 53 -5 3 -14 -3 -19
-14z"/>
</g>
<g>
<path d="M2150 1716 c0 -32 13 -46 41 -46 35 0 39 22 7 44 -28 20 -48 20 -48
2z"/>
</g>
<g>
<path d="M1227 1703 c-4 -3 -7 -24 -7 -45 0 -29 4 -38 18 -38 9 0 27 -3 40 -6
20 -6 22 -3 22 30 0 29 -5 38 -30 51 -33 17 -34 17 -43 8z"/>
</g>
<g>
<path d="M2011 1686 c-9 -11 -6 -15 14 -20 34 -9 49 1 31 20 -18 18 -30 18
-45 0z"/>
</g>
<g>
<path d="M125 1681 c-18 -29 -11 -169 16 -346 16 -104 33 -197 37 -204 5 -9
39 -20 78 -27 38 -7 84 -16 103 -20 l34 -7 -6 39 c-5 32 -17 220 -21 339 -1
28 2 30 37 33 23 2 48 -3 62 -12 14 -9 36 -16 50 -16 28 0 66 -16 77 -34 4 -6
8 -28 8 -48 l0 -38 -45 0 c-39 0 -47 3 -55 25 -5 14 -16 25 -25 25 -19 0 -20
-26 0 -34 8 -3 15 -12 15 -19 0 -11 11 -13 43 -10 23 2 47 0 53 -4 7 -4 13
-35 15 -68 l4 -60 -37 3 c-51 5 -48 -12 5 -30 l44 -14 10 85 c6 47 9 104 6
127 -9 73 46 85 88 18 20 -34 21 -44 17 -214 l-4 -178 36 -6 c61 -10 73 -8 65
12 -9 22 -33 153 -49 267 -15 102 -66 225 -94 225 -22 0 -477 157 -523 181
-21 10 -40 15 -44 10z m103 -150 c26 -11 61 -24 77 -29 18 -5 30 -15 29 -25 0
-9 -1 -86 -2 -169 -1 -84 -6 -159 -10 -166 -7 -10 -18 -9 -54 7 -42 18 -47 23
-57 68 -9 39 -41 292 -41 324 0 12 5 12 58 -10z"/>
</g>
<g>
<path d="M3377 1663 c-3 -5 -1 -18 3 -29 7 -17 15 -20 34 -17 31 6 32 7 4 33
-23 21 -34 25 -41 13z"/>
</g>
<g>
<path d="M3281 1641 c-8 -5 -9 -11 -3 -15 13 -8 42 3 42 15 0 11 -21 11 -39 0z"/>
</g>
<g>
<path d="M4330 1620 c0 -33 56 -113 144 -205 l38 -40 -23 40 c-12 22 -31 49
-41 61 -10 11 -18 25 -18 31 0 5 -9 18 -20 28 -11 10 -20 22 -20 27 0 12 -44
78 -52 78 -5 0 -8 -9 -8 -20z"/>
</g>
<g>
<path d="M3225 1621 c-10 -17 12 -21 25 -6 10 12 10 15 -3 15 -9 0 -18 -4 -22
-9z"/>
</g>
<g>
<path d="M2215 1599 c-11 -17 1 -21 15 -4 8 9 8 15 2 15 -6 0 -14 -5 -17 -11z"/>
</g>
<g>
<path d="M3470 1593 c0 -5 14 -19 30 -31 17 -13 30 -19 29 -15 0 11 -59 56
-59 46z"/>
</g>
<g>
<path d="M1215 1563 c8 -34 3 -31 50 -35 35 -3 40 0 43 18 2 17 -5 24 -29 33
-18 6 -41 11 -52 11 -16 0 -18 -5 -12 -27z"/>
</g>
<g>
<path d="M1715 1580 c-11 -18 5 -30 41 -30 36 0 42 8 22 28 -15 15 -54 16 -63
2z"/>
</g>
<g>
<path d="M1913 1535 c-1 -22 1 -32 4 -23 2 10 2 28 0 40 -2 13 -4 5 -4 -17z"/>
</g>
<g>
<path d="M3826 1545 c-3 -8 -1 -15 4 -15 6 0 10 7 10 15 0 8 -2 15 -4 15 -2 0
-6 -7 -10 -15z"/>
</g>
<g>
<path d="M2115 1520 c-3 -5 -1 -10 4 -10 6 0 11 5 11 10 0 6 -2 10 -4 10 -3 0
-8 -4 -11 -10z"/>
</g>
<g>
<path d="M3761 1509 c-19 -16 -22 -22 -12 -29 8 -4 10 -13 7 -19 -4 -6 -2 -11
3 -11 6 0 11 11 11 24 0 14 7 32 16 40 22 23 3 19 -25 -5z"/>
</g>
<g>
<path d="M1221 1498 c-5 -13 -8 -44 -7 -68 1 -38 4 -44 19 -42 10 2 25 -2 33
-9 28 -23 44 -3 44 55 0 56 -13 77 -33 57 -15 -15 -27 -14 -27 3 0 26 -20 28
-29 4z"/>
</g>
<g>
<path d="M1136 1503 c-12 -12 -6 -33 9 -33 8 0 15 6 15 14 0 17 -14 28 -24 19z"/>
</g>
<g>
<path d="M826 1463 c4 -21 12 -54 18 -73 10 -30 15 -34 48 -36 l37 -3 -51 75
c-27 41 -52 74 -55 74 -2 0 -1 -17 3 -37z"/>
</g>
<g>
<path d="M1457 1448 c-29 -69 -31 -80 -11 -76 14 2 21 16 26 53 9 61 4 68 -15
23z"/>
</g>
<g>
<path d="M3846 1455 c-8 -22 6 -38 27 -33 14 3 14 6 -2 27 -16 21 -19 22 -25
6z"/>
</g>
<g>
<path d="M3410 1451 c0 -6 5 -13 10 -16 6 -3 10 1 10 9 0 9 -4 16 -10 16 -5 0
-10 -4 -10 -9z"/>
</g>
<g>
<path d="M3301 1416 c-7 -8 -25 -17 -40 -21 -29 -6 -48 -33 -53 -75 -2 -13
-13 -29 -25 -36 -13 -6 -20 -14 -16 -17 3 -4 -5 -7 -18 -7 -13 0 -30 -4 -38
-9 -11 -7 -9 -10 9 -16 21 -7 22 -11 16 -60 -8 -73 -15 -87 -37 -80 -21 7 -28
-5 -32 -49 -2 -25 4 -29 73 -56 77 -31 100 -36 100 -22 0 4 -14 34 -30 67 -35
71 -37 103 -10 138 12 15 20 40 20 64 0 45 28 107 51 111 26 5 76 -44 104
-103 24 -47 26 -63 22 -132 -2 -43 -11 -98 -20 -123 -9 -25 -20 -72 -26 -105
-12 -70 -51 -115 -101 -115 -34 0 -36 -2 -45 -57 -6 -38 -5 -43 12 -43 10 0
39 20 63 45 25 25 50 43 57 41 16 -7 24 7 25 44 1 32 7 37 26 18 9 -9 13 -7
18 8 4 10 14 27 22 37 14 15 13 17 -2 17 -15 0 -17 8 -13 48 4 54 27 68 45 27
6 -14 17 -25 24 -25 9 0 9 3 0 12 -7 7 -12 20 -12 30 0 13 -8 18 -25 18 -14 0
-25 5 -25 10 0 6 6 10 14 10 15 0 16 16 3 36 -8 14 -3 151 6 161 4 3 7 1 7 -6
0 -7 5 -9 12 -5 8 5 9 2 5 -9 -9 -23 10 -31 21 -10 9 15 12 15 27 3 26 -22
109 -59 118 -53 12 7 -23 42 -37 37 -6 -2 -27 11 -46 31 -29 30 -38 34 -67 29
-32 -6 -33 -5 -33 29 0 41 -25 71 -49 61 -32 -13 -46 -9 -49 14 -2 13 -14 28
-28 34 -29 14 -30 24 -4 38 11 6 20 15 20 20 0 15 -26 12 -39 -4z"/>
</g>
<g>
<path d="M4539 1383 c-2 -21 -1 -56 2 -78 5 -31 6 -22 8 38 1 81 -4 103 -10
40z"/>
</g>
<g>
<path d="M1980 1391 c0 -5 7 -14 15 -21 13 -10 15 -9 15 9 0 12 -6 21 -15 21
-8 0 -15 -4 -15 -9z"/>
</g>
<g>
<path d="M3456 1383 c-4 -9 -2 -21 4 -27 7 -7 10 -7 10 1 0 6 3 18 6 27 3 9 2
16 -4 16 -5 0 -13 -8 -16 -17z"/>
</g>
<g>
<path d="M3716 1364 c-4 -9 -4 -19 -2 -21 8 -8 26 8 26 23 0 19 -16 18 -24 -2z"/>
</g>
<g>
<path d="M3930 1371 c0 -6 5 -11 10 -11 6 0 10 2 10 4 0 3 -4 8 -10 11 -5 3
-10 1 -10 -4z"/>
</g>
<g>
<path d="M1432 1322 c-18 -15 -32 -32 -32 -37 0 -10 86 -45 110 -45 6 0 18 -7
26 -15 9 -8 21 -15 27 -15 12 1 -28 40 -78 75 -25 18 -27 23 -16 43 16 29 3
27 -37 -6z"/>
</g>
<g>
<path d="M2780 1342 c0 -4 14 -20 31 -35 31 -27 60 -32 118 -21 42 9 29 24
-20 24 -22 0 -57 9 -79 20 -43 22 -50 24 -50 12z"/>
</g>
<g>
<path d="M855 1310 c-3 -5 -4 -14 -1 -19 3 -5 17 -80 32 -167 14 -87 28 -162
31 -167 3 -5 10 -4 16 2 16 16 38 13 52 -6 7 -9 36 -22 66 -30 29 -8 57 -20
62 -28 13 -23 27 -18 27 10 0 27 -26 146 -40 180 -12 31 -30 137 -30 177 0 34
-1 35 -46 42 -57 7 -65 3 -57 -35 6 -30 5 -30 -28 -27 -29 3 -34 7 -37 33 -5
38 -32 59 -47 35z m193 -87 c5 -10 12 -44 16 -75 l6 -58 -30 0 -30 0 0 75 c0
59 3 75 15 75 8 0 18 -8 23 -17z m-63 -54 c4 -22 4 -43 1 -46 -3 -3 -21 -2
-41 1 -33 7 -35 9 -35 46 0 39 1 40 34 40 32 0 35 -2 41 -41z m5 -124 c0 -34
-1 -35 -27 -29 -31 8 -43 20 -43 47 0 13 8 17 35 17 33 0 35 -2 35 -35z m88
-17 c7 -7 12 -25 12 -40 0 -23 -4 -28 -23 -28 -31 0 -47 18 -47 52 0 23 4 28
23 28 13 0 28 -5 35 -12z"/>
</g>
<g>
<path d="M3970 1311 c0 -6 8 -19 18 -29 10 -10 21 -26 25 -35 3 -9 10 -17 16
-17 5 0 11 -10 14 -22 4 -12 9 -19 13 -15 4 4 -9 33 -28 64 -35 55 -58 77 -58
54z"/>
</g>
<g>
<path d="M490 1300 c0 -5 -9 -10 -21 -10 -29 0 -19 -22 15 -33 33 -11 36 -9
29 26 -5 25 -23 39 -23 17z"/>
</g>
<g>
<path d="M2980 1290 c13 -9 11 -13 -10 -30 -14 -11 -28 -20 -31 -20 -13 0
-102 -125 -113 -159 -14 -38 -66 -78 -87 -66 -16 11 -2 111 23 164 15 32 18
48 11 60 -12 19 -43 27 -43 11 0 -6 -14 -31 -31 -56 -50 -73 -66 -238 -21
-218 54 23 195 49 259 48 l71 -2 7 45 c8 56 3 62 -27 31 -52 -54 -76 -1 -39
85 18 42 74 97 99 97 6 0 14 5 17 10 4 6 -14 10 -47 10 -38 0 -49 -3 -38 -10z
m-303 -237 c-3 -10 -5 -2 -5 17 0 19 2 27 5 18 2 -10 2 -26 0 -35z"/>
</g>
<g>
<path d="M2210 1198 c0 -7 5 -20 10 -28 8 -12 10 -11 10 7 0 12 -4 25 -10 28
-5 3 -10 0 -10 -7z"/>
</g>
<g>
<path d="M3730 1196 c0 -18 6 -21 15 -7 3 5 1 12 -5 16 -5 3 -10 -1 -10 -9z"/>
</g>
<g>
<path d="M1382 1188 c-7 -7 -8 -17 -1 -30 14 -26 23 -23 36 12 10 26 9 30 -6
30 -9 0 -22 -5 -29 -12z"/>
</g>
<g>
<path d="M440 1176 c0 -8 6 -17 13 -19 9 -4 8 -8 -3 -16 -13 -9 -13 -12 2 -28
23 -22 36 -9 40 37 3 32 0 35 -24 38 -20 2 -28 -1 -28 -12z"/>
</g>
<g>
<path d="M4065 1170 c-3 -5 -1 -10 4 -10 6 0 11 5 11 10 0 6 -2 10 -4 10 -3 0
-8 -4 -11 -10z"/>
</g>
<g>
<path d="M3670 1130 c-13 -8 -12 -10 3 -10 9 0 17 5 17 10 0 12 -1 12 -20 0z"/>
</g>
<g>
<path d="M1730 1101 c-19 -16 -33 -32 -30 -34 10 -9 50 13 50 28 0 8 5 15 10
15 6 0 10 -5 10 -11 0 -6 6 -9 14 -6 7 3 19 0 25 -6 8 -8 14 -8 21 -1 13 13
-4 30 -40 38 -18 4 -34 -2 -60 -23z"/>
</g>
<g>
<path d="M650 1106 c0 -8 10 -13 25 -13 28 0 33 12 9 21 -24 9 -34 7 -34 -8z"/>
</g>
<g>
<path d="M3560 1116 c0 -9 36 -25 78 -34 32 -8 39 -7 35 4 -3 7 -21 16 -41 20
-21 3 -45 8 -54 11 -10 2 -18 2 -18 -1z"/>
</g>
<g>
<path d="M532 1068 c3 -29 7 -33 40 -39 45 -7 48 -5 48 38 0 33 -1 33 -46 33
-45 0 -45 0 -42 -32z"/>
</g>
<g>
<path d="M4110 1073 c0 -6 16 -28 35 -49 34 -38 35 -38 20 -8 -16 33 -55 74
-55 57z"/>
</g>
<g>
<path d="M4541 1066 c-1 -11 2 -17 5 -13 3 3 4 12 1 19 -3 8 -6 5 -6 -6z"/>
</g>
<g>
<path d="M1556 1033 c-2 -2 -2 -13 1 -23 3 -13 13 -18 31 -17 22 2 27 -2 25
-20 -2 -13 2 -23 7 -23 12 0 25 48 16 57 -10 10 -75 31 -80 26z"/>
</g>
<g>
<path d="M217 994 c-3 -3 0 -22 7 -42 l13 -37 124 -13 c68 -7 127 -16 131 -20
3 -4 3 -26 -1 -49 -7 -37 -6 -43 9 -43 13 0 19 11 24 45 l7 45 49 0 c57 0 85
-20 76 -56 -5 -19 -2 -24 13 -24 22 0 43 -31 37 -52 -18 -56 -16 -68 6 -68 34
0 51 -15 44 -37 -9 -29 10 -40 82 -46 60 -5 62 -4 62 18 0 13 -11 31 -25 42
-142 105 -145 107 -145 134 0 15 8 37 18 49 l18 22 31 -35 c17 -20 36 -43 41
-53 5 -9 14 -14 21 -10 7 5 3 23 -15 59 -32 62 -38 67 -89 67 -22 0 -56 5 -75
10 -19 6 -109 24 -200 40 -91 17 -185 37 -209 45 -52 17 -46 16 -54 9z"/>
</g>
<g>
<path d="M2990 954 c-11 -28 -13 -136 -4 -171 6 -21 13 -23 65 -23 54 0 74 10
49 25 -18 11 -10 35 15 45 43 16 29 95 -25 137 -8 7 -32 13 -53 13 -31 0 -39
-4 -47 -26z m109 -30 c29 -36 26 -53 -9 -65 -16 -6 -30 -17 -30 -25 0 -8 -6
-14 -13 -14 -20 0 -28 12 -17 25 7 8 5 22 -5 42 -20 40 -10 63 25 63 19 0 36
-9 49 -26z"/>
</g>
<g>
<path d="M3875 970 c-102 -29 -235 -96 -235 -120 0 -5 -10 -10 -22 -12 -14 -2
-22 -11 -23 -25 -1 -19 7 -15 59 31 49 43 108 76 133 76 2 0 -24 -21 -58 -47
-35 -27 -71 -65 -82 -86 -20 -39 -52 -64 -62 -48 -3 6 -18 6 -38 0 -17 -5 -51
-9 -74 -9 -33 0 -43 -4 -43 -16 0 -9 -8 -18 -19 -21 -11 -3 -23 -21 -31 -46
-17 -60 -56 -139 -80 -165 -53 -56 -49 34 5 113 19 27 37 63 41 80 l7 30 -36
-28 c-21 -16 -57 -37 -81 -48 l-44 -19 13 -50 c13 -50 70 -150 85 -150 28 0
119 149 120 195 0 28 10 39 48 54 20 9 49 11 77 8 44 -6 45 -6 64 32 27 52
128 143 198 177 66 33 160 43 220 24 127 -41 239 -209 279 -419 l14 -75 -75
-76 c-41 -41 -75 -79 -75 -83 0 -4 12 -1 28 6 15 8 33 12 41 9 9 -3 11 0 7 7
-8 12 80 100 102 101 7 0 12 13 12 29 0 16 6 31 13 33 6 3 12 16 12 30 1 15
-4 24 -10 22 -6 -3 -18 25 -29 63 -26 99 -88 224 -135 276 -63 69 -153 118
-231 127 -56 6 -60 8 -25 11 22 1 64 1 94 0 37 -2 51 0 47 8 -8 13 -165 13
-211 1z m17 -27 c-7 -3 -16 -2 -19 1 -4 3 2 6 13 5 11 0 14 -3 6 -6z"/>
</g>
<g>
<path d="M2825 918 c-9 -69 16 -139 46 -131 27 7 32 19 18 45 -7 13 -18 47
-24 77 -14 73 -32 76 -40 9z"/>
</g>
<g>
<path d="M3196 866 c-3 -13 -9 -31 -12 -40 -4 -10 -1 -16 10 -16 10 0 13 6 10
15 -4 9 -1 15 7 15 8 0 15 11 15 25 2 32 -22 33 -30 1z"/>
</g>
<g>
<path d="M931 860 c-1 -14 6 -49 14 -79 8 -30 12 -58 9 -62 -3 -5 2 -22 11
-39 9 -17 17 -49 18 -72 2 -46 18 -58 44 -33 14 15 29 17 95 12 60 -5 78 -3
78 7 0 7 -3 15 -6 19 -3 3 -7 26 -9 52 -2 25 -4 48 -6 50 -2 1 -29 5 -59 6
l-55 4 0 -35 c0 -34 -32 -80 -56 -80 -16 0 -22 29 -9 45 10 12 9 20 -4 40 -22
33 -20 45 7 45 39 0 39 11 -1 54 -20 23 -45 52 -54 66 l-17 25 0 -25z"/>
</g>
<g>
<path d="M1451 850 c-1 -36 16 -101 28 -113 22 -22 13 88 -9 114 l-19 24 0
-25z"/>
</g>
<g>
<path d="M1847 855 c-10 -7 -15 -19 -11 -29 9 -24 21 -20 28 10 9 33 6 36 -17
19z"/>
</g>
<g>
<path d="M2330 852 c-8 -3 -21 -13 -27 -23 -7 -9 -21 -15 -30 -13 -12 3 -23
-5 -34 -23 -11 -20 -30 -32 -63 -42 -26 -7 -52 -19 -57 -25 -71 -88 -69 -82
-33 -125 l26 -32 -53 3 c-30 1 -118 -2 -197 -7 -126 -7 -144 -10 -153 -27 -14
-26 -5 -60 26 -96 13 -16 21 -32 18 -36 -4 -3 -47 -3 -96 0 l-89 7 4 -34 c3
-29 0 -34 -21 -37 -13 -2 -28 1 -33 6 -6 6 -24 6 -46 1 -20 -5 -55 -9 -76 -9
-55 0 -77 -22 -64 -63 12 -41 11 -117 -2 -153 -16 -42 5 -57 92 -63 71 -6 73
-7 76 -34 5 -37 20 -34 24 6 2 27 8 33 31 35 28 3 31 -2 27 -45 -1 -20 3 -23
32 -23 18 0 28 4 22 8 -6 4 -25 29 -43 55 -28 41 -37 48 -58 44 -24 -4 -95 17
-120 36 -24 18 -15 80 18 125 28 39 34 42 77 42 25 0 64 8 86 18 113 51 119
53 129 43 6 -6 18 -11 27 -11 8 0 32 -18 53 -39 41 -42 48 -44 214 -70 39 -6
93 -18 119 -27 35 -12 66 -15 109 -10 51 5 66 2 99 -17 50 -28 65 -51 50 -74
-10 -16 -25 -18 -116 -15 -86 3 -120 -1 -194 -21 -49 -14 -109 -28 -134 -31
-24 -4 -49 -11 -55 -15 -5 -5 -21 -11 -34 -13 -27 -3 -42 -28 -16 -28 8 0 26
6 38 14 12 8 57 17 101 21 43 4 104 16 135 27 63 22 166 18 217 -9 32 -16 40
-10 76 56 10 17 25 31 36 31 10 0 58 -20 106 -45 92 -47 156 -59 156 -30 0 8
-9 15 -20 15 -33 0 -114 31 -138 53 l-22 21 28 18 c16 10 63 30 103 45 41 14
85 34 99 43 14 10 36 21 49 25 14 4 46 21 72 36 52 33 74 30 84 -9 7 -28 33
-55 99 -105 31 -24 37 -34 34 -60 -2 -26 -8 -33 -32 -37 -33 -6 -48 -30 -19
-30 10 0 33 9 51 20 23 14 59 23 113 27 47 4 83 11 90 19 16 19 56 17 67 -3 7
-12 28 -18 73 -21 49 -4 71 -10 93 -29 19 -16 37 -23 50 -19 12 3 34 6 49 6
43 0 23 17 -34 29 -27 6 -63 18 -79 26 -16 8 -47 15 -69 15 -22 0 -43 5 -46
10 -4 6 12 10 42 10 31 0 60 7 81 20 19 12 57 25 85 30 66 12 111 58 103 105
-4 22 0 38 18 59 22 29 23 32 10 97 -7 37 -19 80 -27 96 -25 49 -29 108 -9
126 32 29 90 47 150 47 138 0 195 -51 237 -214 30 -115 32 -144 10 -126 -13
11 -15 2 -15 -69 0 -44 4 -81 8 -81 16 0 32 116 28 204 -4 108 -30 183 -82
245 -105 122 -257 115 -388 -18 l-47 -48 34 -50 c53 -78 60 -189 16 -229 -18
-16 -18 -17 1 -42 34 -43 27 -52 -43 -52 -53 0 -67 -4 -85 -22 -20 -22 -27
-23 -194 -23 l-173 0 -61 33 c-104 56 -151 160 -84 185 28 11 30 15 30 62 1
27 7 68 15 90 23 62 21 64 -45 64 -47 -1 -71 5 -107 25 -25 15 -47 25 -48 24
-2 -2 -1 -16 2 -33 4 -27 12 -32 66 -50 60 -20 62 -22 65 -58 2 -21 -4 -52
-12 -69 -9 -17 -16 -39 -16 -49 0 -22 -32 -41 -54 -33 -9 3 -16 15 -16 26 0
23 -35 90 -73 140 -17 22 -27 46 -25 60 3 21 0 23 -34 20 -37 -3 -38 -3 -38
30 0 31 -6 38 -66 77 -55 37 -77 45 -141 53 -42 5 -80 11 -83 13 -4 2 -16 -2
-26 -10 -27 -20 -37 -18 -54 9 -9 13 -21 21 -30 18z m-10 -42 c0 -5 -4 -10
-10 -10 -5 0 -10 5 -10 10 0 6 5 10 10 10 6 0 10 -4 10 -10z m238 -33 c28 -1
52 -5 52 -9 0 -3 60 -79 133 -168 72 -89 136 -167 140 -174 5 -6 4 -23 -2 -38
-8 -21 -24 -31 -82 -50 -50 -16 -78 -31 -92 -50 -16 -22 -23 -25 -34 -16 -16
13 -96 -16 -174 -64 -25 -15 -50 -28 -55 -28 -5 0 -24 27 -43 60 -19 33 -37
57 -42 55 -4 -3 -44 -12 -88 -20 -77 -15 -84 -15 -148 5 -80 25 -238 51 -258
44 -16 -7 -31 36 -21 61 7 19 32 16 176 -21 69 -18 127 -25 212 -27 l117 -2
-27 35 c-34 46 -41 50 -66 40 -12 -5 -50 -13 -85 -19 -57 -9 -76 -8 -163 15
-55 13 -124 25 -154 25 -30 1 -57 5 -60 10 -3 5 -14 9 -24 9 -19 0 -40 27 -40
50 0 13 59 7 230 -26 96 -19 142 -23 198 -18 62 6 75 4 94 -12 l22 -19 -21 30
c-12 17 -53 61 -92 100 -54 53 -71 76 -71 97 0 24 4 28 29 28 19 0 44 13 71
35 47 39 96 52 141 36 29 -10 34 -8 58 15 22 23 31 25 71 19 25 -4 69 -7 98
-8z m142 -57 c0 -5 -4 -10 -10 -10 -5 0 -10 5 -10 10 0 6 5 10 10 10 6 0 10
-4 10 -10z m-588 -186 c13 -8 9 -21 -8 -28 -22 -8 -148 14 -137 24 17 17 119
20 145 4z m1618 -120 c0 -2 -4 -4 -10 -4 -5 0 -10 5 -10 11 0 5 5 7 10 4 6 -3
10 -8 10 -11z m-570 -232 c0 -10 -6 -27 -14 -38 -13 -17 -15 -17 -21 -2 -7 18
10 58 25 58 6 0 10 -8 10 -18z"/>
<g>
<path d="M2343 684 c3 -3 12 -4 19 -1 8 3 5 6 -6 6 -11 1 -17 -2 -13 -5z"/>
</g>
<g>
<path d="M2484 606 c25 -29 46 -56 46 -60 0 -3 -18 -6 -40 -6 -49 0 -111 -30
-133 -64 -24 -36 -21 -44 5 -11 41 52 141 81 179 52 9 -7 22 -29 30 -50 8 -22
18 -36 26 -33 7 3 24 -9 38 -27 l26 -32 -14 30 c-27 53 -186 255 -201 255 -4
0 13 -24 38 -54z"/>
</g>
<g>
<path d="M2274 615 c-10 -8 -14 -14 -9 -14 6 0 19 6 29 14 11 8 15 15 10 15
-6 0 -19 -7 -30 -15z"/>
</g>
<g>
<path d="M2339 613 c-12 -15 -12 -16 1 -8 8 5 33 12 55 16 l40 6 -41 2 c-28 1
-46 -5 -55 -16z"/>
</g>
<g>
<path d="M2555 600 c-4 -6 12 -10 40 -10 28 0 44 4 40 10 -3 6 -21 10 -40 10
-19 0 -37 -4 -40 -10z"/>
</g>
<g>
<path d="M2600 570 c-8 -5 -10 -10 -5 -10 6 0 17 5 25 10 8 5 11 10 5 10 -5 0
-17 -5 -25 -10z"/>
</g>
</g>
<g>
<path d="M3550 851 c0 -6 5 -11 10 -11 6 0 10 2 10 4 0 3 -4 8 -10 11 -5 3
-10 1 -10 -4z"/>
</g>
<g>
<path d="M555 758 c3 -24 9 -50 11 -60 7 -24 -14 -33 -35 -14 -10 9 -31 16
-47 16 -16 0 -56 7 -89 14 -33 8 -63 12 -67 10 -4 -3 -1 -19 7 -37 7 -18 16
-40 19 -51 5 -16 12 -17 54 -11 69 11 192 14 187 5 -3 -5 13 -11 35 -15 42 -7
96 1 105 15 10 16 -40 39 -90 43 -45 3 -50 5 -51 28 -1 54 -15 99 -30 99 -13
0 -15 -8 -9 -42z"/>
</g>
<g>
<path d="M280 781 c0 -16 26 -31 36 -21 6 6 44 14 85 19 l74 8 -97 2 c-54 0
-98 -3 -98 -8z"/>
</g>
<g>
<path d="M1434 648 c2 -20 11 -35 24 -41 11 -5 22 -19 25 -31 3 -11 9 -31 12
-43 5 -15 3 -23 -4 -23 -6 0 -11 11 -11 25 0 14 -6 25 -13 25 -16 0 -10 -79 8
-100 7 -8 16 -32 19 -53 4 -21 11 -35 15 -32 15 9 19 56 10 135 -11 98 -40
170 -69 170 -16 0 -19 -5 -16 -32z m76 -158 c0 -5 -5 -10 -11 -10 -5 0 -7 5
-4 10 3 6 8 10 11 10 2 0 4 -4 4 -10z"/>
</g>
<g>
<path d="M873 559 c-22 -22 -205 -59 -293 -59 -99 0 -147 11 -167 40 -21 30
-33 24 -33 -15 0 -31 4 -35 38 -45 20 -6 82 -14 138 -17 79 -4 112 -2 155 11
101 32 189 71 189 84 0 15 -12 16 -27 1z"/>
</g>
<g>
<path d="M1163 536 c-18 -6 -33 -13 -33 -17 0 -11 80 -60 90 -54 9 5 -6 64
-19 75 -3 3 -21 1 -38 -4z"/>
</g>
<g>
<path d="M1294 509 c3 -17 6 -41 6 -52 0 -17 5 -19 33 -14 17 3 46 11 62 18
l30 12 -44 13 c-24 8 -50 23 -58 34 -22 31 -36 25 -29 -11z"/>
</g>
<g>
<path d="M3580 481 c0 -21 5 -31 16 -31 11 0 14 8 12 27 -4 39 -28 42 -28 4z"/>
</g>
<g>
<path d="M995 490 c-11 -17 5 -50 24 -50 10 0 33 -3 50 -6 24 -5 31 -3 31 10
0 28 -91 68 -105 46z"/>
</g>
<g>
<path d="M4051 475 c0 -5 6 -19 14 -29 8 -11 15 -15 15 -10 0 6 -7 19 -15 30
-8 10 -14 15 -14 9z"/>
</g>
<g>
<path d="M894 446 c-6 -26 5 -55 30 -76 14 -10 16 -10 16 6 -1 78 -32 126 -46
70z"/>
</g>
<g>
<path d="M4541 456 c-1 -11 2 -17 5 -13 3 3 4 12 1 19 -3 8 -6 5 -6 -6z"/>
</g>
<g>
<path d="M3432 430 c-10 -16 -8 -20 9 -25 26 -9 28 -5 14 22 -11 21 -12 21
-23 3z"/>
</g>
<g>
<path d="M4457 443 c-23 -22 18 -31 58 -12 19 9 18 9 -2 5 -13 -2 -26 0 -29 5
-6 11 -18 12 -27 2z"/>
</g>
<g>
<path d="M1010 382 c0 -38 20 -70 41 -65 27 7 24 25 -11 58 -28 27 -30 28 -30
7z"/>
</g>
<g>
<path d="M3173 354 c3 -3 12 -4 19 -1 8 3 5 6 -6 6 -11 1 -17 -2 -13 -5z"/>
</g>
<g>
<path d="M0 244 c0 -10 13 -14 53 -13 56 1 55 1 -35 24 -11 2 -18 -2 -18 -11z"/>
</g>
<g>
<path d="M4100 120 c0 -11 3 -19 8 -18 17 3 80 -33 111 -66 19 -20 43 -36 54
-36 13 0 6 11 -28 40 -26 22 -59 47 -74 54 -15 8 -33 22 -40 30 -18 22 -31 20
-31 -4z"/>
</g>
<g>
<path d="M4106 68 c-12 -46 -7 -68 15 -68 17 0 20 4 15 23 -3 12 -6 32 -6 45
0 12 -4 22 -9 22 -5 0 -11 -10 -15 -22z"/>
</g>
<g>
<path d="M2985 32 c9 -35 14 -40 25 -22 15 24 12 37 -11 43 -18 5 -20 2 -14
-21z"/>
</g>
<g>
<path d="M2720 40 c0 -21 46 -40 95 -39 27 1 39 4 25 6 -13 3 -46 13 -72 24
-26 10 -48 15 -48 9z"/>
</g>
<g>
<path d="M912 28 c-18 -18 -15 -28 8 -28 13 0 20 7 20 20 0 23 -10 26 -28 8z"/>
</g>
<g>
<path d="M3665 20 c-18 -20 -17 -20 8 -20 20 0 27 5 27 20 0 11 -4 20 -8 20
-5 0 -17 -9 -27 -20z"/>
</g>
<g>
<path d="M3345 10 c-3 -5 -1 -10 4 -10 6 0 11 5 11 10 0 6 -2 10 -4 10 -3 0
-8 -4 -11 -10z"/>
</g>
<g>
<path d="M2177 3 c7 -2 21 -2 30 0 10 3 5 5 -12 5 -16 0 -24 -2 -18 -5z"/>
</g>
<g>
<path d="M2908 3 c6 -2 18 -2 25 0 6 3 1 5 -13 5 -14 0 -19 -2 -12 -5z"/>
</g>
</g>
</svg>
