<?xml version="1.0" standalone="no"?>
<!DOCTYPE svg PUBLIC "-//W3C//DTD SVG 20010904//EN"
 "http://www.w3.org/TR/2001/REC-SVG-20010904/DTD/svg10.dtd">
<svg version="1.0" xmlns="http://www.w3.org/2000/svg"
 width="307.138518pt" height="283.464567pt" viewBox="0 0 307.138518 283.464567"
 preserveAspectRatio="xMidYMid meet">
<metadata>
Created by potrace 1.11, written by Peter Selinger 2001-2013
</metadata>
<g transform="translate(-83.768516,293.466864) scale(0.114635,-0.114635)"
fill="#000000" stroke="none">
<g>
<path d="M775 2523 c3 -21 19 -135 36 -253 17 -118 35 -244 39 -280 5 -36 25
-166 45 -290 19 -124 44 -286 55 -360 11 -74 31 -198 44 -275 14 -77 34 -196
46 -265 30 -180 70 -255 157 -294 62 -28 161 -18 578 58 255 46 358 61 379 55
44 -13 45 -2 1 17 -47 19 -147 12 -222 -17 -13 -5 -56 -9 -94 -9 -38 0 -69 -4
-69 -9 0 -11 -49 -21 -67 -14 -10 4 -12 15 -7 36 5 25 4 29 -10 24 -10 -4 -16
-1 -16 7 0 24 -37 47 -126 77 -126 43 -140 53 -208 152 -27 39 -37 66 -42 109
-7 66 11 182 32 199 8 6 12 15 9 19 -3 5 3 15 12 22 10 7 24 25 30 41 11 23
10 27 -4 27 -10 0 -2 11 21 29 20 16 53 45 73 65 87 84 270 124 360 78 23 -12
72 -26 109 -31 36 -6 68 -12 71 -15 14 -13 92 123 93 160 0 31 90 99 213 160
147 73 265 112 364 120 74 6 84 9 100 33 9 14 50 61 90 103 40 42 73 80 73 85
-1 4 -47 -40 -103 -99 -77 -80 -107 -105 -122 -102 -43 10 -88 5 -123 -15 -13
-7 -45 -12 -70 -12 -54 0 -152 -25 -152 -39 0 -5 -19 -14 -42 -20 -54 -14
-185 -84 -213 -113 -36 -39 -74 -94 -68 -100 20 -21 -50 -99 -74 -84 -5 3 -9
-4 -9 -16 1 -15 -6 -23 -21 -25 -13 -2 -23 1 -23 6 0 5 -17 9 -37 10 -63 3
-91 20 -106 65 -8 24 -21 43 -35 48 -20 8 -22 5 -22 -26 0 -19 -4 -35 -10 -35
-5 0 -10 -7 -10 -15 0 -12 -14 -15 -62 -16 -35 -1 -76 -4 -93 -8 -16 -3 -44
-5 -61 -3 -27 3 -31 7 -26 25 4 19 1 18 -24 -8 -16 -16 -41 -50 -55 -74 -16
-26 -28 -38 -31 -30 -3 8 -19 -24 -37 -71 -17 -47 -38 -97 -46 -111 -29 -53
-39 -187 -19 -261 1 -5 2 -14 3 -22 0 -8 7 -21 14 -28 7 -7 21 -33 31 -58 18
-46 68 -110 86 -110 5 0 10 -3 10 -8 0 -4 12 -12 28 -18 49 -20 211 -64 224
-62 7 2 14 -6 16 -18 3 -19 -8 -22 -155 -47 -231 -40 -264 -37 -314 29 -36 46
-68 201 -150 714 -11 69 -27 168 -35 220 -9 52 -17 132 -19 178 -2 46 -8 89
-13 95 -6 7 -15 37 -21 67 -11 58 -74 500 -86 608 l-7 62 -44 0 -44 0 5 -37z"/>
</g>
<g>
<path d="M1116 2524 l38 -35 41 16 c81 34 86 35 105 25 31 -16 141 -11 190 10
l45 19 -138 0 c-108 1 -137 -2 -131 -11 6 -10 4 -10 -7 0 -7 6 -24 12 -37 12
-21 0 -22 -2 -12 -15 16 -19 0 -19 -26 0 -10 8 -38 15 -62 15 l-43 0 37 -36z"/>
</g>
<g>
<path d="M1598 2469 c31 -50 71 -107 89 -126 37 -40 28 -41 258 17 174 44 293
83 458 148 l118 47 -61 3 c-48 2 -66 -1 -85 -16 -13 -11 -48 -28 -77 -40 -91
-34 -349 -110 -432 -127 -44 -9 -83 -18 -88 -21 -5 -3 -24 0 -43 6 -27 9 -46
30 -95 106 -42 65 -67 94 -80 94 -17 0 -11 -14 38 -91z"/>
</g>
<g>
<path d="M2133 2554 c3 -3 12 -4 19 -1 8 3 5 6 -6 6 -11 1 -17 -2 -13 -5z"/>
</g>
<g>
<path d="M2251 2529 c-21 -34 -21 -46 -1 -34 13 8 33 56 26 63 -3 2 -14 -11
-25 -29z"/>
</g>
<g>
<path d="M2555 2550 c3 -5 12 -10 20 -10 8 0 17 5 20 10 4 6 -5 10 -20 10 -15
0 -24 -4 -20 -10z"/>
</g>
<g>
<path d="M2793 2553 c-12 -2 -27 -10 -33 -18 -9 -11 -7 -12 10 -8 13 4 26 0
31 -8 8 -11 9 -10 7 5 -2 14 5 22 22 27 19 5 20 7 5 7 -11 -1 -30 -3 -42 -5z"/>
</g>
<g>
<path d="M2977 2423 c7 -188 23 -194 23 -10 0 121 -3 147 -14 147 -13 0 -14
-22 -9 -137z"/>
</g>
<g>
<path d="M3041 2448 c1 -62 4 -124 8 -138 7 -22 9 -20 15 20 4 25 8 81 9 125
2 44 6 86 10 93 6 8 1 12 -17 12 l-26 0 1 -112z"/>
</g>
<g>
<path d="M2016 2541 c-4 -5 3 -7 14 -4 23 6 26 13 6 13 -8 0 -17 -4 -20 -9z"/>
</g>
<g>
<path d="M2750 2500 c0 -5 4 -10 9 -10 6 0 13 5 16 10 3 6 -1 10 -9 10 -9 0
-16 -4 -16 -10z"/>
</g>
<g>
<path d="M2850 2484 c-14 -8 -39 -14 -57 -14 -17 0 -35 -4 -38 -10 -3 -6 4
-10 16 -10 21 0 22 -1 4 -20 -16 -18 -16 -20 -2 -20 10 0 17 -5 17 -12 0 -18
10 -3 15 23 5 26 33 52 46 43 5 -3 9 -18 9 -35 0 -16 4 -29 9 -29 18 0 41 12
41 22 0 6 -7 5 -15 -2 -21 -18 -30 -6 -10 14 10 10 12 16 5 16 -7 0 -10 8 -7
20 7 26 -2 30 -33 14z"/>
</g>
<g>
<path d="M1195 2475 c-25 -12 -26 -14 -5 -9 14 4 29 10 35 15 12 12 5 11 -30
-6z"/>
</g>
<g>
<path d="M1155 2416 c-158 -55 -204 -75 -173 -76 16 0 40 8 93 31 11 5 70 27
130 50 61 22 112 43 114 45 10 10 -23 0 -164 -50z"/>
</g>
<g>
<path d="M2663 2457 c-25 -5 -43 -16 -43 -23 0 -18 8 -18 26 1 9 8 26 15 40
15 13 0 24 5 24 10 0 6 -1 9 -2 9 -2 -1 -22 -6 -45 -12z"/>
</g>
<g>
<path d="M1082 2439 c-29 -12 -52 -23 -49 -25 5 -6 110 26 122 37 15 15 -16
10 -73 -12z"/>
</g>
<g>
<path d="M2700 2435 c-14 -8 -20 -14 -13 -15 6 0 14 -8 16 -17 4 -15 5 -14 6
3 0 11 6 25 13 32 16 16 9 15 -22 -3z"/>
</g>
<g>
<path d="M1512 2415 c0 -16 2 -24 5 -18 2 7 2 21 0 30 -3 10 -5 5 -5 -12z"/>
</g>
<g>
<path d="M2550 2420 c0 -5 5 -10 10 -10 6 0 10 5 10 10 0 6 -4 10 -10 10 -5 0
-10 -4 -10 -10z"/>
</g>
<g>
<path d="M2323 2410 c-35 -14 -27 -20 10 -8 17 6 34 13 36 14 8 7 -24 3 -46
-6z"/>
</g>
<g>
<path d="M2615 2400 c-11 -5 -33 -9 -50 -10 -17 -1 -24 -4 -15 -7 8 -3 17 -9
20 -13 3 -3 23 4 45 17 39 22 39 30 0 13z"/>
</g>
<g>
<path d="M2420 2386 c0 -15 33 -33 50 -29 19 5 20 6 3 19 -17 13 -53 19 -53
10z"/>
</g>
<g>
<path d="M2794 2380 c-32 -12 -38 -28 -9 -22 23 4 42 19 34 26 -2 2 -14 0 -25
-4z"/>
</g>
<g>
<path d="M1522 2360 c0 -14 2 -19 5 -12 2 6 2 18 0 25 -3 6 -5 1 -5 -13z"/>
</g>
<g>
<path d="M2390 2360 c0 -5 7 -7 15 -4 8 4 15 8 15 10 0 2 -7 4 -15 4 -8 0 -15
-4 -15 -10z"/>
</g>
<g>
<path d="M2660 2350 c0 -5 7 -7 15 -4 8 4 15 8 15 10 0 2 -7 4 -15 4 -8 0 -15
-4 -15 -10z"/>
</g>
<g>
<path d="M2670 2330 c-8 -5 -12 -12 -9 -15 4 -3 12 1 19 10 14 17 11 19 -10 5z"/>
</g>
<g>
<path d="M2730 2325 c7 -8 15 -15 17 -15 3 0 0 7 -7 15 -7 8 -15 15 -17 15 -3
0 0 -7 7 -15z"/>
</g>
<g>
<path d="M2345 2320 c-8 -13 5 -13 25 0 13 8 13 10 -2 10 -9 0 -20 -4 -23 -10z"/>
</g>
<g>
<path d="M2546 2315 c4 -8 16 -14 28 -14 17 1 17 2 3 6 -9 2 -15 9 -12 14 4 5
-1 9 -9 9 -10 0 -13 -6 -10 -15z"/>
</g>
<g>
<path d="M1531 2296 c-1 -11 2 -17 5 -13 3 3 4 12 1 19 -3 8 -6 5 -6 -6z"/>
</g>
<g>
<path d="M2900 2300 c0 -5 10 -10 23 -10 18 0 19 2 7 10 -19 13 -30 13 -30 0z"/>
</g>
<g>
<path d="M2450 2285 c-6 -8 -27 -20 -45 -27 -19 -6 -32 -15 -30 -18 7 -11 97
10 120 26 17 13 18 16 5 24 -21 14 -36 12 -50 -5z"/>
</g>
<g>
<path d="M2575 2283 c-19 -10 -25 -18 -16 -21 7 -2 23 5 34 17 25 25 22 26
-18 4z"/>
</g>
<g>
<path d="M2652 2250 c0 -14 2 -19 5 -12 2 6 2 18 0 25 -3 6 -5 1 -5 -13z"/>
</g>
<g>
<path d="M2497 2225 c-37 -32 -21 -32 18 0 17 13 26 24 20 24 -5 0 -23 -11
-38 -24z"/>
</g>
<g>
<path d="M3021 2228 c6 -11 19 -44 29 -72 22 -62 26 -39 5 31 -8 28 -22 54
-30 57 -13 5 -14 2 -4 -16z"/>
</g>
<g>
<path d="M2325 2215 c-19 -15 -24 -24 -15 -24 21 0 53 25 49 38 -2 6 -17 0
-34 -14z"/>
</g>
<g>
<path d="M2185 2210 c-3 -5 -13 -7 -23 -4 -14 5 -14 4 -2 -4 8 -6 19 -7 25 -3
5 5 19 11 30 14 19 4 18 5 -2 6 -12 0 -24 -3 -28 -9z"/>
</g>
<g>
<path d="M2345 2150 c-18 -8 -17 -9 8 -9 15 -1 27 4 27 9 0 12 -8 12 -35 0z"/>
</g>
<g>
<path d="M1980 2146 c0 -2 9 -6 20 -9 11 -3 18 -1 14 4 -5 9 -34 13 -34 5z"/>
</g>
<g>
<path d="M2156 2095 c4 -8 8 -15 10 -15 2 0 4 7 4 15 0 8 -4 15 -10 15 -5 0
-7 -7 -4 -15z"/>
</g>
<g>
<path d="M3071 2079 c0 -13 4 -33 9 -44 7 -14 8 -8 3 20 -7 46 -13 59 -12 24z"/>
</g>
<g>
<path d="M2073 2072 c0 -9 7 -11 21 -7 12 4 29 7 40 6 10 0 15 3 11 7 -13 13
-72 8 -72 -6z"/>
</g>
<g>
<path d="M2269 2024 c-101 -20 -176 -43 -189 -59 -10 -13 -8 -14 16 -11 16 3
47 11 69 20 22 8 55 15 73 16 17 0 32 5 32 10 0 6 8 10 18 10 10 0 27 7 38 15
10 8 17 14 14 14 -3 -1 -35 -7 -71 -15z"/>
</g>
<g>
<path d="M731 1976 c-1 -11 2 -17 5 -13 3 3 4 12 1 19 -3 8 -6 5 -6 -6z"/>
</g>
<g>
<path d="M2025 1937 c-10 -8 -14 -16 -9 -19 5 -3 18 3 28 13 22 22 9 26 -19 6z"/>
</g>
<g>
<path d="M1965 1890 c-3 -5 -1 -10 4 -10 6 0 11 5 11 10 0 6 -2 10 -4 10 -3 0
-8 -4 -11 -10z"/>
</g>
<g>
<path d="M1843 1845 c-22 -9 -33 -21 -33 -35 0 -11 -11 -30 -25 -42 -14 -12
-25 -32 -25 -44 0 -13 -9 -28 -20 -34 -12 -6 -20 -21 -20 -35 0 -23 2 -24 21
-13 17 11 22 10 31 -6 17 -31 52 -58 110 -89 47 -25 50 -26 26 -5 -15 13 -41
34 -58 47 -22 16 -29 29 -25 42 7 22 -20 28 -29 7 -3 -7 -3 1 -1 17 3 17 2 24
-1 18 -10 -23 -24 -14 -24 16 0 19 8 35 22 45 21 15 24 14 63 -23 22 -21 51
-44 65 -50 22 -11 21 -8 -7 18 -18 17 -33 38 -33 47 0 10 -5 14 -15 10 -27
-10 -34 24 -10 50 28 30 30 30 71 -6 l34 -30 29 31 c20 20 31 26 34 17 4 -11
6 -11 6 0 1 7 6 10 11 7 6 -4 10 5 10 19 0 25 -2 26 -59 26 -32 0 -71 2 -87 5
-16 3 -44 -2 -61 -10z"/>
</g>
<g>
<path d="M2573 1813 c-18 -3 -23 -11 -23 -35 0 -28 2 -30 28 -23 15 3 31 10
35 15 10 9 0 51 -11 49 -4 -1 -17 -4 -29 -6z"/>
</g>
<g>
<path d="M1713 1785 c-9 -25 4 -29 17 -6 7 15 7 21 0 21 -6 0 -13 -7 -17 -15z"/>
</g>
<g>
<path d="M2460 1751 c0 -38 4 -51 13 -48 14 5 12 76 -3 91 -7 7 -10 -7 -10
-43z"/>
</g>
<g>
<path d="M2798 1764 c-55 -29 -27 -48 41 -27 53 16 109 17 148 3 26 -9 27 -9
8 5 -45 35 -149 45 -197 19z"/>
</g>
<g>
<path d="M2681 1759 c-56 -11 -69 -24 -16 -16 61 9 74 12 81 20 9 8 -7 8 -65
-4z"/>
</g>
<g>
<path d="M2370 1708 c0 -83 20 -222 33 -230 8 -5 8 -8 1 -8 -15 0 -12 -43 4
-53 6 -4 12 -15 12 -23 0 -26 62 -204 71 -204 5 0 9 1 9 3 0 9 -34 116 -45
142 -39 92 -39 94 -1 96 20 0 20 1 -1 9 -24 10 -29 23 -42 118 -7 54 -5 67 11
87 23 30 23 43 -1 21 -18 -16 -19 -15 -25 33 -9 69 -26 75 -26 9z"/>
</g>
<g>
<path d="M1589 1723 c-13 -16 -12 -17 4 -4 16 13 21 21 13 21 -2 0 -10 -8 -17
-17z"/>
</g>
<g>
<path d="M1643 1702 c-29 -20 -53 -41 -53 -46 0 -9 4 -6 80 52 59 44 37 40
-27 -6z"/>
</g>
<g>
<path d="M771 1706 c-1 -11 2 -17 5 -13 3 3 4 12 1 19 -3 8 -6 5 -6 -6z"/>
</g>
<g>
<path d="M2597 1705 c-9 -8 -22 -12 -31 -9 -10 4 -15 -2 -18 -23 -5 -45 16
-156 30 -161 10 -3 12 4 7 29 -3 19 -9 56 -14 84 -5 27 -9 51 -8 52 8 7 54 12
63 6 6 -5 18 -42 27 -83 10 -45 14 -57 11 -29 -7 69 -28 142 -40 146 -7 2 -19
-3 -27 -12z"/>
</g>
<g>
<path d="M2271 1666 c-1 -11 2 -17 5 -13 3 3 4 12 1 19 -3 8 -6 5 -6 -6z"/>
</g>
<g>
<path d="M2481 1658 c-1 -28 22 -108 32 -108 10 0 0 52 -18 95 -9 19 -14 24
-14 13z"/>
</g>
<g>
<path d="M1609 1643 c-26 -16 -39 -52 -39 -107 0 -18 2 -18 24 3 23 21 24 22
28 4 3 -10 8 8 12 39 10 73 7 81 -25 61z"/>
</g>
<g>
<path d="M2755 1626 c-10 -15 -15 -40 -13 -67 l3 -43 30 27 c20 18 25 26 15
27 -9 0 -22 -6 -29 -12 -9 -9 -8 -2 3 19 9 18 23 36 32 41 19 10 11 32 -11 32
-8 0 -22 -11 -30 -24z"/>
</g>
<g>
<path d="M2235 1557 c-4 -10 -5 -21 -1 -24 10 -10 18 4 13 24 -4 17 -4 17 -12
0z"/>
</g>
<g>
<path d="M3228 1563 c-10 -2 -18 -9 -18 -14 0 -5 -12 -9 -27 -9 -16 0 -48 -7
-73 -14 -70 -23 -11 -18 115 9 61 12 99 23 85 24 -14 1 -34 3 -45 5 -11 2 -28
2 -37 -1z"/>
</g>
<g>
<path d="M2120 1520 c0 -11 4 -20 9 -20 5 0 7 9 4 20 -3 11 -7 20 -9 20 -2 0
-4 -9 -4 -20z"/>
</g>
<g>
<path d="M801 1516 c-1 -11 2 -17 5 -13 3 3 4 12 1 19 -3 8 -6 5 -6 -6z"/>
</g>
<g>
<path d="M3390 1520 c-13 -8 -12 -10 3 -10 9 0 17 5 17 10 0 12 -1 12 -20 0z"/>
</g>
<g>
<path d="M2770 1510 c0 -13 11 -13 30 0 12 8 11 10 -7 10 -13 0 -23 -4 -23
-10z"/>
</g>
<g>
<path d="M2510 1496 c0 -3 5 -8 10 -11 6 -3 10 -1 10 4 0 6 -4 11 -10 11 -5 0
-10 -2 -10 -4z"/>
</g>
<g>
<path d="M3220 1473 c0 -4 5 -15 10 -23 8 -13 10 -13 10 2 0 9 -4 20 -10 23
-5 3 -10 3 -10 -2z"/>
</g>
<g>
<path d="M2572 1450 c-46 -10 -86 -21 -90 -24 -7 -8 3 -7 56 3 39 8 59 -1 30
-12 -8 -4 -7 -6 4 -6 9 -1 19 -9 21 -18 4 -14 5 -13 6 4 0 12 7 23 14 26 6 2
4 3 -5 2 -39 -6 -15 13 35 27 71 21 30 20 -71 -2z"/>
</g>
<g>
<path d="M1316 1447 c3 -10 9 -15 12 -12 3 3 0 11 -7 18 -10 9 -11 8 -5 -6z"/>
</g>
<g>
<path d="M1721 1446 c-17 -20 -39 -102 -31 -115 13 -22 39 1 45 39 4 22 16 51
27 65 l19 25 -24 0 c-14 0 -30 -6 -36 -14z"/>
</g>
<g>
<path d="M2914 1444 c-18 -14 -18 -14 6 -3 31 14 36 19 24 19 -6 0 -19 -7 -30
-16z"/>
</g>
<g>
<path d="M2749 1396 c-31 -24 -59 -53 -62 -65 -6 -25 5 -27 24 -5 7 9 40 34
72 56 44 30 56 43 46 49 -20 13 -19 13 -80 -35z"/>
</g>
<g>
<path d="M3190 1420 c6 -11 13 -20 16 -20 2 0 0 9 -6 20 -6 11 -13 20 -16 20
-2 0 0 -9 6 -20z"/>
</g>
<g>
<path d="M1814 1395 c-14 -14 -22 -30 -19 -35 3 -6 2 -10 -2 -10 -5 0 -18 -7
-29 -15 -18 -14 -16 -14 16 -9 46 8 69 29 52 46 -10 10 -8 16 10 30 13 10 17
18 10 18 -7 0 -24 -11 -38 -25z"/>
</g>
<g>
<path d="M2039 1396 c11 -13 91 -36 123 -36 21 0 -1 13 -54 31 -67 23 -85 24
-69 5z"/>
</g>
<g>
<path d="M2260 1400 c-12 -8 -11 -10 8 -10 12 0 22 5 22 10 0 13 -11 13 -30 0z"/>
</g>
<g>
<path d="M2518 1403 c6 -2 18 -2 25 0 6 3 1 5 -13 5 -14 0 -19 -2 -12 -5z"/>
</g>
<g>
<path d="M822 1380 c0 -14 2 -19 5 -12 2 6 2 18 0 25 -3 6 -5 1 -5 -13z"/>
</g>
<g>
<path d="M3184 1380 c0 -13 4 -16 10 -10 7 7 7 13 0 20 -6 6 -10 3 -10 -10z"/>
</g>
<g>
<path d="M2180 1380 c0 -5 2 -10 4 -10 3 0 8 5 11 10 3 6 1 10 -4 10 -6 0 -11
-4 -11 -10z"/>
</g>
<g>
<path d="M1850 1361 c-7 -15 -7 -21 0 -21 12 0 25 28 17 36 -3 3 -10 -4 -17
-15z"/>
</g>
<g>
<path d="M3140 1351 c0 -6 4 -13 10 -16 6 -3 7 1 4 9 -7 18 -14 21 -14 7z"/>
</g>
<g>
<path d="M832 1315 c0 -16 2 -24 5 -18 2 7 2 21 0 30 -3 10 -5 5 -5 -12z"/>
</g>
<g>
<path d="M2216 1328 c3 -4 9 -8 15 -8 5 0 9 4 9 8 0 5 -7 9 -15 9 -8 0 -12 -4
-9 -9z"/>
</g>
<g>
<path d="M1921 1288 c-1 -23 -5 -46 -8 -52 -4 -6 1 -5 10 3 9 7 14 17 11 22
-3 5 2 6 10 3 23 -9 32 37 10 53 -27 20 -30 17 -33 -29z"/>
</g>
<g>
<path d="M2132 1318 c-7 -7 -12 -17 -12 -24 0 -6 -13 -17 -30 -24 -28 -11 -41
-30 -22 -30 5 0 6 -14 4 -31 -7 -46 20 -33 36 17 7 21 29 54 49 72 35 31 35
32 12 32 -14 0 -30 -5 -37 -12z"/>
</g>
<g>
<path d="M2713 1301 c-40 -25 -83 -88 -82 -121 0 -20 5 -16 24 25 13 28 41 65
61 83 43 37 42 40 -3 13z"/>
</g>
<g>
<path d="M2230 1301 c0 -6 6 -12 13 -13 6 0 17 -2 22 -3 6 -2 16 -3 24 -4 7
-1 11 -7 7 -16 -3 -8 -2 -15 3 -15 4 0 23 -27 42 -60 20 -35 41 -60 51 -60 9
0 22 -8 27 -17 22 -38 10 10 -15 60 -31 60 -95 127 -123 127 -11 0 -26 3 -35
6 -9 3 -16 1 -16 -5z"/>
</g>
<g>
<path d="M842 1260 c0 -14 2 -19 5 -12 2 6 2 18 0 25 -3 6 -5 1 -5 -13z"/>
</g>
<g>
<path d="M2775 1260 c-3 -6 1 -7 9 -4 18 7 21 14 7 14 -6 0 -13 -4 -16 -10z"/>
</g>
<g>
<path d="M2188 1246 c-12 -8 -18 -27 -18 -50 0 -42 11 -40 34 6 27 52 19 71
-16 44z"/>
</g>
<g>
<path d="M2740 1240 c-9 -6 -10 -10 -3 -10 6 0 15 5 18 10 8 12 4 12 -15 0z"/>
</g>
<g>
<path d="M2690 1220 c-12 -23 2 -27 19 -6 8 9 8 16 2 20 -6 4 -15 -3 -21 -14z"/>
</g>
<g>
<path d="M3045 1233 c-38 -9 -42 -26 -5 -19 19 3 39 11 44 16 11 11 -3 12 -39
3z"/>
</g>
<g>
<path d="M3165 1210 c-16 -7 -17 -9 -3 -9 9 -1 20 4 23 9 7 11 7 11 -20 0z"/>
</g>
<g>
<path d="M1623 1175 c0 -8 4 -15 9 -15 4 0 8 7 8 15 0 8 -4 15 -8 15 -5 0 -9
-7 -9 -15z"/>
</g>
<g>
<path d="M2737 1169 c-10 -6 -15 -14 -12 -20 10 -14 45 -11 45 5 0 21 -12 26
-33 15z"/>
</g>
<g>
<path d="M862 1130 c0 -14 2 -19 5 -12 2 6 2 18 0 25 -3 6 -5 1 -5 -13z"/>
</g>
<g>
<path d="M2650 1140 c0 -5 2 -10 4 -10 3 0 8 5 11 10 3 6 1 10 -4 10 -6 0 -11
-4 -11 -10z"/>
</g>
<g>
<path d="M2639 1078 c-51 -62 -58 -80 -12 -32 33 35 60 74 50 74 -2 0 -19 -19
-38 -42z"/>
</g>
<g>
<path d="M872 1075 c0 -16 2 -24 5 -18 2 7 2 21 0 30 -3 10 -5 5 -5 -12z"/>
</g>
<g>
<path d="M3075 1060 c-3 -5 -1 -10 4 -10 6 0 11 5 11 10 0 6 -2 10 -4 10 -3 0
-8 -4 -11 -10z"/>
</g>
<g>
<path d="M3036 1033 c-6 -14 -5 -15 5 -6 7 7 10 15 7 18 -3 3 -9 -2 -12 -12z"/>
</g>
<g>
<path d="M3121 1000 c1 -42 1 -43 10 -18 7 18 7 33 0 45 -8 14 -10 9 -10 -27z"/>
</g>
<g>
<path d="M882 1005 c0 -16 2 -24 5 -18 2 7 2 21 0 30 -3 10 -5 5 -5 -12z"/>
</g>
<g>
<path d="M3021 986 c-1 -11 2 -17 5 -13 3 3 4 12 1 19 -3 8 -6 5 -6 -6z"/>
</g>
<g>
<path d="M892 945 c0 -16 2 -24 5 -18 2 7 2 21 0 30 -3 10 -5 5 -5 -12z"/>
</g>
<g>
<path d="M1205 950 c-3 -5 -15 -10 -26 -10 -20 0 -26 -15 -9 -25 11 -7 60 23
60 36 0 12 -17 11 -25 -1z"/>
</g>
<g>
<path d="M3032 935 c-7 -8 -9 -15 -4 -15 5 0 15 7 22 15 16 19 -1 19 -18 0z"/>
</g>
<g>
<path d="M3081 926 c-1 -11 2 -17 5 -13 3 3 4 12 1 19 -3 8 -6 5 -6 -6z"/>
</g>
<g>
<path d="M902 890 c0 -14 2 -19 5 -12 2 6 2 18 0 25 -3 6 -5 1 -5 -13z"/>
</g>
<g>
<path d="M1173 883 c-9 -3 -9 -9 -1 -22 12 -20 64 -17 86 5 11 12 8 13 -17 8
-20 -4 -31 -2 -31 5 0 11 -16 13 -37 4z"/>
</g>
<g>
<path d="M911 836 c-1 -11 2 -17 5 -13 3 3 4 12 1 19 -3 8 -6 5 -6 -6z"/>
</g>
<g>
<path d="M2035 569 c-27 -5 -153 -27 -280 -49 -274 -48 -338 -61 -333 -65 2
-2 33 0 68 5 36 5 81 11 100 14 19 2 60 9 90 15 30 6 73 12 95 15 135 16 411
78 330 75 -11 -1 -42 -5 -70 -10z"/>
</g>
<g>
<path d="M2743 366 c-107 -35 -196 -116 -232 -211 -12 -32 -20 -62 -19 -67 2
-5 12 17 23 49 28 83 110 165 189 188 51 15 71 16 159 5 224 -26 347 -55 530
-126 11 -4 17 -1 17 8 0 10 -51 32 -154 67 -84 28 -158 51 -162 50 -5 -2 -34
3 -64 9 -189 41 -233 45 -287 28z"/>
</g>
</g>
</svg>
