<?xml version="1.0" standalone="no"?>
<!DOCTYPE svg PUBLIC "-//W3C//DTD SVG 20010904//EN"
 "http://www.w3.org/TR/2001/REC-SVG-20010904/DTD/svg10.dtd">
<svg version="1.0" xmlns="http://www.w3.org/2000/svg"
 width="500.562704pt" height="283.464567pt" viewBox="0 0 500.562704 283.464567"
 preserveAspectRatio="xMidYMid meet">
<metadata>
Created by potrace 1.11, written by Peter Selinger 2001-2013
</metadata>
<g transform="translate(-0.013565,283.464567) scale(0.110728,-0.110728)"
fill="#000000" stroke="none">
<g>
<path d="M113 2493 c15 -115 2 -414 -22 -513 -26 -103 -69 -220 -82 -220 -12
0 -12 -433 0 -445 5 -6 25 -89 46 -185 20 -96 65 -260 100 -365 72 -218 81
-278 65 -430 -11 -100 -11 -110 5 -121 11 -8 15 -19 11 -30 -4 -10 -4 -55 0
-101 5 -64 10 -83 22 -83 11 0 13 8 8 38 -4 20 -10 63 -13 95 l-6 57 56 0 c36
0 59 -5 64 -13 6 -10 78 -20 253 -36 135 -12 264 -25 288 -28 42 -6 42 -5 42
25 0 36 26 55 68 50 24 -3 27 -7 24 -35 -4 -36 -1 -38 30 -22 l20 11 -21 19
c-26 24 -26 30 -1 57 38 40 151 23 158 -24 3 -22 -30 -43 -71 -45 -13 -1 -8
-4 13 -8 56 -10 90 -1 100 25 5 13 14 24 20 24 7 0 5 9 -4 22 -9 12 -16 30
-16 40 0 18 -43 26 -165 31 -61 2 -83 19 -32 25 l28 3 -46 51 c-59 66 -59 83
0 75 36 -5 45 -4 45 8 0 18 -50 45 -85 45 -14 0 -25 -3 -25 -6 0 -3 9 -49 19
-102 36 -181 36 -164 -7 -160 -35 3 -37 5 -40 42 l-3 39 -47 -6 c-26 -3 -158
-16 -294 -28 -224 -21 -248 -25 -248 -41 0 -15 -9 -18 -56 -18 l-57 0 9 82
c22 200 8 291 -76 518 -64 172 -144 549 -157 735 -6 89 -5 92 45 240 71 212
86 296 87 495 0 91 -4 191 -8 223 -7 50 -11 57 -31 57 -22 0 -22 -1 -13 -67z
m817 -2286 c14 -26 14 -29 -5 -44 -16 -12 -38 -14 -115 -9 -122 7 -185 15
-235 28 -58 15 -27 27 107 39 62 6 115 13 118 15 2 3 29 4 59 2 49 -3 57 -6
71 -31z"/>
</g>
<g>
<path d="M266 2523 c9 -66 14 -83 25 -83 7 0 8 7 4 18 -4 9 -10 36 -12 60 -3
23 -9 42 -14 42 -4 0 -5 -17 -3 -37z"/>
</g>
<g>
<path d="M334 2486 c12 -81 26 -111 26 -54 0 63 -12 128 -24 128 -9 0 -10 -18
-2 -74z"/>
</g>
<g>
<path d="M556 2473 c4 -49 7 -112 8 -141 1 -49 4 -54 35 -74 l34 -22 -6 25
c-3 13 -16 86 -28 162 -17 101 -26 137 -37 137 -11 0 -12 -15 -6 -87z"/>
</g>
<g>
<path d="M1045 2536 c22 -18 31 -21 35 -11 8 22 92 -32 85 -55 -5 -14 13 -32
74 -76 79 -57 81 -60 91 -114 16 -81 27 -108 55 -142 31 -37 31 -46 -1 -110
-22 -44 -25 -58 -19 -109 8 -67 4 -69 -55 -39 -27 14 -40 28 -45 49 -4 20 -11
28 -20 25 -16 -7 -50 40 -40 56 5 8 14 6 30 -4 13 -9 26 -12 30 -7 9 16 -5 37
-33 47 -19 7 -32 22 -39 45 l-11 34 -2 -35 c-1 -39 -10 -139 -13 -153 -1 -5
40 -31 91 -59 l92 -50 0 -40 c0 -35 2 -39 15 -28 45 37 40 -163 -8 -305 -24
-73 -40 -88 -45 -44 -2 21 -7 26 -22 22 -14 -4 -22 2 -30 22 -18 48 -13 65 21
65 27 0 30 3 27 27 -2 21 -10 29 -35 35 -18 5 -33 13 -33 17 0 14 23 19 43 9
15 -7 17 -4 17 26 0 19 -7 42 -16 50 -22 23 -52 37 -57 29 -3 -5 -6 -80 -8
-167 l-4 -160 48 -15 c45 -14 47 -16 47 -53 0 -21 -2 -38 -5 -38 -2 0 -41 14
-87 30 -45 17 -86 30 -91 30 -6 0 -6 -14 -2 -32 4 -18 24 -118 44 -223 l37
-189 39 -9 c22 -4 50 -10 63 -13 20 -4 23 -10 20 -47 -3 -37 -6 -42 -26 -40
-13 2 -33 -2 -44 -8 -22 -12 -22 -34 2 -146 l12 -53 79 0 c91 0 119 -17 119
-71 0 -19 7 -37 18 -45 12 -9 17 -25 15 -59 -1 -26 -3 -48 -5 -50 -2 -2 -35
-7 -73 -11 -64 -6 -111 -26 -100 -44 14 -23 24 -140 14 -169 -17 -47 0 -61 74
-61 66 0 68 9 4 25 -57 14 -61 34 -32 163 8 33 87 66 171 71 6 1 27 16 47 35
38 35 34 46 -14 46 -17 0 -20 -6 -17 -32 3 -29 0 -33 -22 -33 -25 0 -25 1 -27
93 -3 142 -38 242 -85 242 -23 0 -17 -23 -73 274 -54 280 -55 244 13 458 47
144 64 268 52 367 -10 76 -25 146 -40 185 -8 22 -7 28 8 33 40 14 52 35 52 93
0 63 -11 80 -53 80 -26 0 -28 3 -23 24 15 59 26 170 26 264 0 91 -2 102 -17
102 -16 0 -18 -11 -18 -90 -1 -113 -9 -123 -66 -85 -22 16 -57 47 -78 68 -94
101 -103 107 -156 107 l-50 0 30 -24z m225 -1281 c7 -8 16 -48 21 -88 4 -39
13 -109 20 -154 7 -45 10 -86 6 -90 -14 -13 -61 12 -78 42 -13 22 -20 64 -24
155 -6 96 -11 128 -23 138 -13 10 -9 12 25 12 24 0 46 -6 53 -15z m117 -564
c18 -35 31 -66 28 -69 -11 -12 -78 -4 -92 11 -23 23 -28 90 -8 111 10 9 22 15
28 13 6 -2 26 -32 44 -66z"/>
</g>
<g>
<path d="M1460 2488 c0 -40 -3 -104 -7 -142 -4 -48 -3 -67 5 -63 25 17 40 277
15 277 -9 0 -13 -21 -13 -72z"/>
</g>
<g>
<path d="M880 2526 c0 -26 69 -106 92 -106 7 0 23 -8 34 -18 19 -15 23 -31 29
-125 l7 -107 -25 11 c-14 6 -28 23 -32 38 -3 14 -8 34 -11 44 -4 13 1 17 18
17 23 1 23 1 -4 23 -16 13 -28 27 -28 33 0 6 -11 21 -25 34 -14 13 -25 19 -25
13 0 -29 33 -153 41 -153 5 0 9 -17 9 -37 0 -21 3 -62 7 -91 5 -48 9 -55 50
-82 24 -17 48 -30 52 -30 4 0 2 23 -5 52 -12 46 -22 61 -46 70 -3 2 -8 12 -10
23 -2 16 2 20 25 18 l27 -2 0 100 c0 114 8 125 64 90 43 -27 66 -62 67 -103 0
-30 1 -31 10 -12 8 16 21 21 57 23 25 1 47 3 49 5 5 5 -406 296 -417 296 -6 0
-10 -11 -10 -24z"/>
</g>
<g>
<path d="M647 2505 c3 -16 11 -57 18 -90 7 -33 16 -91 20 -128 7 -61 10 -69
36 -82 15 -8 63 -37 105 -65 43 -27 80 -48 82 -45 2 2 -1 20 -8 40 -9 28 -15
34 -25 25 -11 -9 -15 -4 -20 27 -3 21 -8 50 -10 66 -3 19 0 27 11 27 10 0 14
6 10 18 -4 14 -28 142 -42 217 -3 18 -11 20 -93 20 l-89 0 5 -30z m127 -17 c5
-9 7 -20 4 -23 -8 -8 -68 26 -68 38 0 15 53 3 64 -15z m-17 -37 c25 -16 34
-30 43 -73 17 -77 11 -132 -16 -136 -23 -3 -64 39 -64 66 0 11 7 13 30 9 40
-9 41 16 1 33 -30 12 -51 51 -51 96 0 29 15 30 57 5z"/>
</g>
<g>
<path d="M380 2475 c0 -34 22 -64 64 -87 17 -9 18 -7 12 22 -3 18 -6 40 -6 49
0 10 -15 25 -35 34 l-35 17 0 -35z"/>
</g>
<g>
<path d="M271 2234 c-3 -105 -41 -267 -89 -382 l-29 -70 96 -32 c53 -18 120
-43 150 -57 29 -13 55 -22 57 -20 2 2 10 41 19 88 8 46 23 120 34 164 30 115
26 162 -8 121 -9 -10 -9 -20 0 -40 9 -20 9 -32 1 -51 -11 -24 -32 -35 -32 -16
0 14 -50 71 -62 71 -6 0 6 -20 26 -44 20 -24 36 -52 36 -61 0 -22 -78 -185
-89 -185 -5 0 -25 7 -45 15 -33 14 -36 19 -36 55 0 22 4 40 9 40 9 0 25 55 22
76 -2 17 59 156 77 177 19 22 14 27 -20 20 -24 -5 -31 -14 -47 -68 -11 -35
-29 -103 -41 -150 -26 -114 -30 -119 -58 -99 -35 24 -25 103 22 167 16 22 21
47 24 123 4 88 6 95 23 91 11 -3 19 0 19 8 0 7 7 18 15 25 12 10 32 3 107 -37
61 -33 94 -57 96 -69 2 -11 21 -28 45 -39 28 -14 43 -27 45 -43 3 -19 0 -22
-20 -17 -22 6 -23 3 -24 -51 0 -46 -4 -60 -22 -75 l-22 -17 30 -22 c30 -21 30
-21 30 -1 0 31 16 33 48 6 36 -30 42 -31 42 -5 0 13 -13 26 -37 38 -21 9 -37
19 -36 22 0 3 4 26 8 53 4 28 12 47 20 47 9 0 4 18 -16 58 -16 31 -29 63 -29
69 0 7 -32 29 -72 49 -40 20 -112 58 -160 85 -49 27 -92 49 -97 49 -4 0 -9
-30 -10 -66z"/>
</g>
<g>
<path d="M606 2201 c-3 -4 3 -16 14 -26 20 -18 25 -11 14 19 -7 18 -20 21 -28
7z"/>
</g>
<g>
<path d="M1182 2163 c2 -10 14 -20 28 -21 14 -2 31 -9 38 -14 9 -8 12 -6 12 5
0 9 -14 23 -32 31 -40 20 -50 20 -46 -1z"/>
</g>
<g>
<path d="M710 2143 c0 -13 8 -57 17 -99 14 -63 19 -74 28 -60 7 9 22 16 34 16
21 0 21 1 -7 43 -16 23 -39 60 -51 82 -16 31 -21 35 -21 18z"/>
</g>
<g>
<path d="M740 1948 c0 -25 12 -58 21 -58 5 0 9 9 9 20 0 29 24 25 53 -9 22
-27 26 -28 40 -13 15 15 20 14 53 -2 l37 -17 -6 37 c-3 20 -7 38 -9 39 -2 1
-47 5 -100 9 -78 6 -98 4 -98 -6z"/>
</g>
<g>
<path d="M1004 1898 c8 -29 60 -290 78 -387 16 -91 38 -109 28 -24 -4 32 -8
111 -9 176 l-2 117 29 0 c16 0 41 -9 55 -21 21 -16 38 -19 84 -17 l58 3 -50
28 c-117 66 -267 147 -272 147 -3 0 -3 -10 1 -22z"/>
</g>
<g>
<path d="M770 1816 c0 -28 22 -150 29 -158 3 -4 6 26 6 67 0 57 -4 78 -18 92
-16 16 -17 16 -17 -1z"/>
</g>
<g>
<path d="M851 1708 c-12 -62 -27 -125 -31 -140 -7 -22 -5 -27 8 -26 9 0 25 -3
35 -7 17 -7 18 -3 11 65 -8 82 -15 78 73 42 47 -19 53 -31 53 -114 0 -48 3
-59 21 -69 20 -10 21 -9 15 12 -3 13 -20 86 -35 162 -16 77 -31 140 -33 142
-5 4 -87 45 -90 45 -2 0 -14 -51 -27 -112z"/>
</g>
<g>
<path d="M116 1668 c-15 -57 9 -278 54 -503 l10 -50 88 -17 c48 -10 98 -21
111 -24 21 -6 23 -5 17 12 -4 10 -10 63 -13 117 -5 79 -9 96 -19 85 -6 -7 -15
-42 -19 -78 -3 -36 -10 -69 -15 -74 -14 -14 -100 14 -115 38 -8 12 -21 93 -31
196 -10 96 -21 178 -26 181 -5 3 -4 17 1 32 8 19 18 27 35 27 30 0 194 -58
202 -72 3 -5 -2 -18 -12 -29 -17 -18 -16 -19 22 -19 22 0 51 -8 64 -17 14 -10
34 -16 45 -15 11 1 35 -7 53 -18 29 -18 32 -24 32 -67 0 -27 3 -79 7 -117 l6
-69 -41 6 c-52 6 -55 -8 -5 -20 31 -7 39 -14 43 -38 l6 -30 7 34 c4 18 7 44 7
57 0 28 14 30 70 8 48 -19 45 -12 36 -130 l-6 -81 39 -7 c22 -3 47 -9 57 -13
14 -5 16 -2 11 18 -4 13 -18 96 -32 184 -19 118 -33 176 -54 220 -16 33 -31
66 -33 74 -2 8 -123 55 -283 111 -154 54 -287 100 -296 104 -12 5 -18 1 -23
-16z m587 -268 c25 -20 50 -73 40 -84 -3 -3 -18 1 -34 9 -15 8 -37 15 -49 15
-17 0 -20 6 -20 40 0 32 4 40 19 40 10 0 30 -9 44 -20z m35 -142 c2 -21 -1
-38 -5 -38 -18 0 -83 52 -83 66 0 12 10 14 43 12 41 -3 42 -4 45 -40z"/>
</g>
<g>
<path d="M580 1670 c0 -21 -24 -28 -35 -10 -3 6 -18 10 -33 9 l-27 0 25 -11
c159 -71 158 -71 171 -47 6 11 9 22 7 23 -2 1 -22 14 -45 29 -51 32 -63 34
-63 7z"/>
</g>
<g>
<path d="M904 1584 c3 -9 6 -23 6 -33 0 -23 20 -48 46 -55 19 -6 22 -2 26 33
3 36 1 41 -30 55 -42 20 -56 20 -48 0z"/>
</g>
<g>
<path d="M710 1542 c0 -5 9 -17 21 -28 21 -19 21 -19 18 6 -4 23 -39 43 -39
22z"/>
</g>
<g>
<path d="M820 1508 c0 -31 27 -165 37 -181 4 -6 10 -1 15 12 8 23 17 24 63 5
14 -5 7 7 -20 38 -22 25 -53 70 -67 99 -23 46 -27 50 -28 27z"/>
</g>
<g>
<path d="M1140 1486 c0 -9 5 -16 10 -16 6 0 10 4 10 9 0 6 -4 13 -10 16 -5 3
-10 -1 -10 -9z"/>
</g>
<g>
<path d="M1444 1429 c-13 -42 -17 -68 -11 -66 14 4 38 84 35 114 -2 14 -11 -5
-24 -48z"/>
</g>
<g>
<path d="M347 1453 c-5 -29 7 -63 23 -63 10 0 2 70 -10 83 -4 5 -10 -4 -13
-20z"/>
</g>
<g>
<path d="M428 1371 c33 -30 43 -61 18 -61 -31 0 -26 -21 8 -35 58 -24 68 -21
61 23 -13 79 -13 79 -59 91 -63 16 -65 14 -28 -18z"/>
</g>
<g>
<path d="M3314 1327 c55 -52 86 -128 86 -212 0 -51 -5 -78 -19 -100 -10 -17
-21 -56 -25 -87 -4 -31 -17 -76 -29 -100 -19 -36 -29 -45 -64 -53 -23 -6 -43
-12 -46 -15 -2 -3 -8 -27 -11 -53 -7 -48 -7 -49 16 -42 13 4 36 16 51 27 16
11 31 17 35 14 10 -10 -50 -65 -84 -78 -30 -10 -32 -15 -27 -42 13 -69 73
-176 99 -176 31 0 107 126 119 197 6 41 8 42 61 54 40 9 60 9 78 1 23 -10 26
-8 46 32 25 52 120 145 178 175 192 98 345 35 453 -184 37 -76 79 -213 79
-260 0 -15 -29 -48 -89 -104 -49 -44 -92 -81 -96 -81 -3 0 -3 35 0 78 6 64 3
91 -13 148 -11 38 -25 91 -32 119 -33 147 -187 201 -373 132 -58 -21 -126 -97
-87 -97 16 0 58 -93 61 -135 5 -74 -1 -104 -23 -124 l-21 -20 25 -26 26 -25
11 94 c14 106 7 150 -33 209 -25 36 -25 36 -5 61 44 56 170 72 249 31 60 -31
126 -102 156 -168 24 -54 28 -78 33 -190 l6 -128 80 64 c44 36 117 105 162
155 l83 90 -15 38 -15 39 6 -45 c4 -25 3 -42 -1 -38 -5 5 -13 -2 -19 -13 -6
-12 -20 -28 -32 -36 -20 -13 -21 -10 -42 74 -41 166 -132 311 -229 362 -34 18
-35 20 -13 20 66 1 197 -100 251 -193 16 -28 29 -46 29 -40 0 20 -58 100 -110
152 -71 69 -119 90 -237 107 -92 12 -94 13 -38 14 154 2 344 -96 461 -237 60
-73 73 -104 54 -127 -18 -22 -26 -19 -40 15 -20 49 -21 29 -2 -23 l18 -47 33
40 32 40 -36 55 c-107 168 -334 305 -504 305 -183 0 -349 -97 -400 -234 -19
-51 -19 -51 -64 -52 -24 -1 -54 -7 -67 -14 -24 -13 -39 -2 -40 28 0 29 -18 8
-23 -27 -7 -52 -63 -174 -93 -202 l-23 -22 -11 27 c-15 40 -13 46 33 112 24
34 52 87 62 118 11 31 23 56 27 56 4 0 8 44 8 99 0 71 6 116 20 161 21 65 26
120 12 120 -5 0 -10 20 -10 44 -2 52 -25 111 -47 119 -8 4 -15 13 -15 21 0 17
-30 36 -55 36 -11 0 -6 -10 19 -33z m578 -394 c-7 -3 -16 -2 -19 1 -4 3 2 6
13 5 11 0 14 -3 6 -6z m-74 -22 c-26 -11 -78 -43 -115 -71 l-68 -53 40 43 c38
41 143 100 175 100 8 -1 -6 -9 -32 -19z m-458 -148 c-17 -53 -68 -149 -91
-169 -27 -24 -24 -1 5 33 26 31 50 75 61 113 l7 25 -28 -25 c-20 -18 -17 -12
11 22 21 26 41 46 43 43 2 -2 -1 -21 -8 -42z m620 -61 c46 -28 82 -81 96 -137
6 -29 6 -29 -23 10 -72 97 -149 143 -244 146 l-44 2 35 7 c58 13 131 2 180
-28z"/>
</g>
<g>
<path d="M853 1288 c7 -26 57 -319 57 -330 0 -5 12 -8 28 -8 21 0 24 2 12 10
-12 8 -9 10 14 10 20 0 27 -4 23 -14 -5 -11 8 -18 51 -27 31 -6 65 -16 75 -21
10 -5 21 -7 24 -4 4 3 -1 41 -11 83 -9 43 -27 132 -40 197 l-22 119 -45 1 -44
0 2 -37 c3 -40 2 -40 -45 -31 -25 5 -31 12 -37 40 -4 26 -11 34 -27 34 -16 0
-19 -5 -15 -22z m187 -39 c0 -5 -4 -9 -10 -9 -5 0 -10 7 -10 16 0 8 5 12 10 9
6 -3 10 -10 10 -16z m-69 -39 c25 -14 29 -106 3 -96 -9 3 -27 6 -40 6 -22 0
-24 4 -24 44 0 53 20 68 61 46z m68 -67 c1 -32 6 -45 21 -53 12 -6 20 -21 20
-37 0 -21 -4 -25 -24 -21 -20 4 -25 0 -30 -24 -6 -29 -26 -39 -26 -13 0 8 -9
15 -21 15 -35 0 -59 19 -59 46 0 24 3 26 40 22 45 -4 45 -5 55 87 6 45 10 55
16 40 4 -11 8 -39 8 -62z"/>
</g>
<g>
<path d="M1401 1296 c-8 -10 -9 -16 -1 -21 5 -3 13 1 16 10 9 22 -1 29 -15 11z"/>
</g>
<g>
<path d="M2861 1301 c-35 -5 -41 -8 -30 -17 10 -8 38 -8 96 -1 46 6 86 7 90 4
3 -4 -5 -20 -19 -35 -26 -28 -48 -64 -48 -79 0 -4 10 10 23 31 22 40 77 81 99
74 6 -2 -4 -14 -23 -25 -19 -12 -42 -35 -51 -51 -24 -40 -23 -55 1 -17 34 56
58 70 119 70 l57 0 -2 -35 c-1 -19 -5 -70 -9 -114 l-6 -78 -36 6 c-41 6 -48
16 -58 70 l-6 39 -30 -47 c-34 -52 -43 -56 -54 -23 l-8 22 -7 -25 -7 -25 -8
24 c-7 24 -7 24 -15 3 -7 -18 -16 -22 -49 -22 -51 0 -52 14 -4 71 38 46 68 98
61 105 -11 12 -86 -93 -101 -141 -17 -54 -29 -62 -108 -70 -9 -1 -23 -5 -32
-8 -13 -5 -16 2 -16 48 0 53 15 105 31 105 4 0 9 -26 11 -57 l3 -58 12 64 c7
35 20 75 28 88 15 23 13 63 -4 63 -12 0 -58 -53 -77 -90 -11 -22 -19 -66 -22
-119 -4 -79 -4 -84 14 -77 81 31 171 47 249 44 l85 -3 11 35 c17 54 29 59 29
13 0 -22 6 -45 13 -50 6 -6 49 -21 94 -35 l81 -25 -1 32 c-2 23 -6 31 -16 27
-10 -4 -13 1 -9 21 3 15 2 24 -2 22 -21 -13 -28 93 -8 113 6 6 14 31 18 56 8
53 13 50 -100 65 -100 14 -205 18 -259 12z"/>
</g>
<g>
<path d="M430 1165 c0 -26 35 -69 49 -60 10 6 20 65 12 69 -3 2 -18 6 -33 10
-25 6 -28 4 -28 -19z"/>
</g>
<g>
<path d="M1382 1163 c2 -16 8 -28 13 -28 6 0 11 12 13 28 2 20 -1 27 -13 27
-12 0 -15 -7 -13 -27z"/>
</g>
<g>
<path d="M3331 1158 c0 -9 -4 -25 -7 -35 -5 -17 -5 -17 6 0 6 10 9 25 7 35 -4
15 -5 15 -6 0z"/>
</g>
<g>
<path d="M640 1109 c0 -33 19 -59 44 -59 19 0 25 6 28 31 4 25 1 32 -19 40
-38 14 -53 11 -53 -12z"/>
</g>
<g>
<path d="M536 1084 c-12 -32 -6 -43 32 -50 44 -9 46 -7 48 31 1 28 -2 30 -37
33 -26 2 -38 -2 -43 -14z"/>
</g>
<g>
<path d="M3008 988 c-18 -26 -24 -49 -26 -108 -2 -41 1 -88 7 -104 11 -28 13
-29 63 -23 56 7 82 22 55 33 -9 3 -17 15 -17 26 0 17 5 19 25 14 24 -6 25 -4
25 40 0 39 -5 51 -35 81 -30 30 -40 34 -66 29 l-31 -6 16 25 c24 37 11 31 -16
-7z m86 -53 c24 -24 30 -56 13 -72 -13 -13 -19 -13 -43 -2 -31 15 -55 54 -47
75 7 19 58 18 77 -1z m-34 -100 c0 -8 -7 -15 -15 -15 -8 0 -15 7 -15 15 0 8 7
15 15 15 8 0 15 -7 15 -15z"/>
</g>
<g>
<path d="M210 994 c0 -3 5 -23 11 -44 l11 -37 126 -12 c69 -7 130 -15 134 -17
4 -3 8 -25 8 -48 l0 -43 -80 -7 c-44 -3 -91 -4 -105 0 -32 8 -31 -1 5 -67 16
-30 30 -62 30 -72 0 -10 6 -20 13 -22 6 -3 120 -9 252 -15 132 -6 250 -13 263
-16 19 -6 22 -3 22 24 0 26 -11 38 -85 91 -47 34 -85 68 -85 75 0 8 8 24 19
37 l18 23 45 -37 c25 -20 48 -37 52 -37 13 0 5 28 -13 44 -11 10 -22 27 -25
40 -5 20 -28 26 -298 80 -161 32 -299 61 -305 63 -7 3 -13 1 -13 -3z m428
-130 c12 -8 22 -26 22 -39 0 -15 7 -26 19 -30 26 -8 34 -36 21 -69 -15 -40
-13 -44 23 -48 27 -3 33 -7 35 -32 3 -26 1 -28 -20 -22 -13 4 -77 11 -143 16
-66 5 -134 12 -152 15 -38 7 -66 32 -59 51 3 8 1 14 -4 14 -16 0 -11 27 6 34
9 3 27 6 40 6 14 0 40 7 59 14 31 13 35 19 35 54 0 21 3 42 7 45 12 13 89 7
111 -9z"/>
<g>
<path d="M544 789 c-3 -6 -1 -16 5 -22 6 -6 11 -26 11 -44 0 -27 4 -33 21 -33
20 0 21 4 14 48 -8 54 -33 80 -51 51z"/>
</g>
</g>
<g>
<path d="M2847 963 c-7 -11 7 -170 16 -179 8 -8 37 8 37 21 0 7 -7 26 -15 41
-8 16 -15 40 -16 54 -2 41 -14 76 -22 63z"/>
</g>
<g>
<path d="M810 935 c0 -4 9 -19 21 -33 l21 -27 -4 30 c-2 19 -9 31 -20 33 -10
2 -18 0 -18 -3z"/>
</g>
<g>
<path d="M1435 898 c9 -38 35 -169 35 -176 0 -4 5 0 10 8 14 25 -26 190 -46
190 -2 0 -2 -10 1 -22z"/>
</g>
<g>
<path d="M925 875 c4 -22 13 -71 19 -110 12 -68 14 -71 59 -101 l46 -30 -20
-21 -20 -20 97 -6 c54 -4 100 -4 103 -1 3 3 -2 12 -13 19 -10 8 -15 19 -11 25
4 6 4 30 1 53 l-6 42 -55 0 c-53 0 -55 -1 -55 -28 0 -15 -7 -30 -15 -33 -15
-6 -85 40 -85 56 0 5 24 12 53 17 l52 8 -39 24 c-21 14 -56 51 -78 85 l-40 61
7 -40z m222 -220 c3 -9 3 -18 0 -21 -9 -9 -60 11 -65 24 -6 19 57 15 65 -3z"/>
</g>
<g>
<path d="M3200 880 c0 -5 9 -10 21 -10 11 0 17 5 14 10 -3 6 -13 10 -21 10 -8
0 -14 -4 -14 -10z"/>
</g>
<g>
<path d="M3190 852 c0 -5 9 -12 21 -15 13 -3 19 -1 16 6 -5 15 -37 22 -37 9z"/>
</g>
<g>
<path d="M3182 819 c2 -7 10 -15 17 -17 8 -3 12 1 9 9 -2 7 -10 15 -17 17 -8
3 -12 -1 -9 -9z"/>
</g>
<g>
<path d="M2386 807 c-13 -10 -33 -11 -75 -6 -51 7 -58 6 -73 -14 -9 -12 -23
-22 -30 -22 -29 -1 -108 -57 -108 -77 0 -20 52 -5 90 27 47 40 96 52 142 36
29 -10 34 -9 59 15 25 24 32 26 76 19 26 -4 69 -8 96 -9 26 0 47 -4 47 -8 0
-4 63 -83 139 -177 101 -123 138 -175 134 -189 -3 -14 -25 -25 -77 -40 -40
-12 -81 -31 -91 -42 -10 -11 -28 -20 -40 -20 -36 0 -86 -21 -160 -67 -63 -39
-71 -42 -80 -26 -56 97 -175 257 -251 339 -52 56 -94 107 -94 114 0 6 -4 8
-10 5 -19 -11 -10 -39 22 -72 28 -28 29 -33 12 -33 -16 0 -15 -2 6 -13 14 -7
26 -20 28 -29 4 -23 -46 -26 -156 -10 -94 14 -122 31 -54 33 l37 1 -47 10
c-29 6 -79 7 -130 2 -77 -8 -83 -11 -86 -33 -8 -50 32 -116 63 -105 9 4 15 0
15 -10 0 -9 4 -16 10 -16 5 0 18 -19 28 -42 21 -48 31 -52 195 -83 48 -9 105
-22 127 -30 34 -12 51 -12 125 2 l86 16 36 -42 c42 -50 44 -50 171 10 56 26
91 37 107 33 17 -4 26 0 33 13 6 10 46 34 90 52 45 18 88 41 97 51 28 31 4 98
-72 198 -36 48 -70 89 -75 91 -5 2 -13 14 -18 27 -6 15 -18 24 -31 24 -14 0
-19 5 -16 14 9 22 -59 68 -122 83 -72 16 -152 17 -175 0z m-620 -301 c3 -7 14
-11 28 -9 13 3 83 -7 156 -22 106 -21 146 -25 202 -20 64 7 71 5 94 -16 13
-12 24 -25 24 -29 0 -4 -37 -12 -83 -19 -78 -12 -88 -11 -184 13 -56 14 -119
26 -140 26 -78 0 -143 39 -129 76 7 18 25 18 32 0z m119 -116 c4 -6 11 -8 16
-4 5 3 58 -7 117 -22 84 -21 129 -27 209 -26 94 1 104 0 114 -19 6 -11 9 -22
7 -25 -3 -2 -38 -10 -80 -18 -73 -14 -78 -14 -150 9 -41 13 -103 27 -139 31
-35 3 -69 11 -75 15 -6 5 -19 7 -27 3 -11 -4 -18 2 -23 20 -9 36 14 63 31 36z"/>
</g>
<g>
<path d="M3391 736 c-1 -11 2 -17 5 -13 3 3 4 12 1 19 -3 8 -6 5 -6 -6z"/>
</g>
<g>
<path d="M2869 691 c12 -21 64 -48 110 -57 17 -4 36 -13 42 -20 15 -18 5 -114
-16 -154 l-16 -30 33 13 c31 13 32 15 34 73 1 32 9 76 18 98 9 21 16 40 16 42
0 2 -28 4 -63 4 -48 0 -76 6 -113 25 -59 30 -57 30 -45 6z"/>
</g>
<g>
<path d="M4370 691 c0 -10 28 -41 36 -41 2 0 -3 11 -12 25 -17 26 -24 31 -24
16z"/>
</g>
<g>
<path d="M3115 670 c-13 -6 -15 -9 -5 -9 8 0 22 4 30 9 18 12 2 12 -25 0z"/>
</g>
<g>
<path d="M4371 596 c-1 -11 2 -17 5 -13 3 3 4 12 1 19 -3 8 -6 5 -6 -6z"/>
</g>
<g>
<path d="M4381 546 c-1 -11 2 -17 5 -13 3 3 4 12 1 19 -3 8 -6 5 -6 -6z"/>
</g>
<g>
<path d="M2470 526 c0 -2 13 -6 29 -8 17 -2 28 -1 25 4 -5 8 -54 12 -54 4z"/>
</g>
<g>
<path d="M3586 517 c5 -14 2 -16 -12 -10 -18 6 -18 5 -2 -13 12 -14 14 -24 7
-36 -8 -14 -7 -16 6 -12 11 5 15 -1 15 -22 0 -47 11 -19 12 31 0 31 -5 52 -16
63 -16 16 -17 16 -10 -1z"/>
</g>
<g>
<path d="M1181 502 l-24 -4 29 -19 c31 -20 44 -24 44 -11 0 19 -27 38 -49 34z"/>
</g>
<g>
<path d="M2384 489 c-19 -22 -19 -22 3 -10 24 12 39 31 25 31 -5 0 -17 -10
-28 -21z"/>
</g>
<g>
<path d="M3452 490 c-7 -11 -12 -30 -12 -43 0 -19 -8 -26 -38 -35 -21 -7 -47
-21 -56 -31 -11 -12 -25 -17 -34 -14 -10 3 -4 -4 12 -17 15 -13 37 -37 47 -54
12 -20 19 -25 19 -14 0 9 -11 30 -25 46 -23 28 -24 32 -9 46 21 21 57 30 102
23 36 -6 36 -5 15 10 -25 17 -29 43 -12 75 14 26 7 33 -9 8z"/>
</g>
<g>
<path d="M395 493 c26 -26 241 -44 290 -23 12 5 -12 6 -56 3 -67 -5 -178 7
-226 24 -12 4 -15 3 -8 -4z"/>
</g>
<g>
<path d="M1300 465 c0 -17 6 -25 18 -25 36 0 41 15 11 32 -29 17 -29 17 -29
-7z"/>
</g>
<g>
<path d="M902 458 c-7 -7 -12 -18 -12 -25 0 -16 50 -97 56 -91 6 7 -17 128
-25 128 -4 0 -12 -5 -19 -12z"/>
</g>
<g>
<path d="M2560 463 c0 -6 -10 -15 -22 -21 -21 -10 -20 -11 15 -11 39 -1 47 9
22 29 -8 7 -15 8 -15 3z"/>
</g>
<g>
<path d="M3066 403 c-6 -14 10 -15 59 -4 29 7 29 7 -12 12 -29 3 -44 0 -47 -8z"/>
</g>
<g>
<path d="M2960 395 c0 -47 73 -139 132 -167 89 -43 131 -50 260 -42 67 3 141
13 163 21 22 8 62 21 89 28 76 22 80 35 11 35 -45 0 -64 -5 -80 -20 -19 -18
-39 -21 -179 -25 -142 -4 -162 -2 -214 17 -67 25 -152 105 -152 144 0 15 -6
24 -15 24 -8 0 -15 -7 -15 -15z"/>
</g>
<g>
<path d="M3190 364 c-39 -11 -41 -12 -15 -13 17 0 48 6 70 14 52 18 10 18 -55
-1z"/>
</g>
<g>
<path d="M1026 54 c-15 -39 4 -42 24 -3 8 15 7 19 -4 19 -7 0 -17 -7 -20 -16z"/>
</g>
<g>
<path d="M916 15 c-3 -9 0 -15 9 -15 16 0 20 16 6 24 -5 3 -11 -1 -15 -9z"/>
</g>
</g>
</svg>
