<?xml version="1.0" standalone="no"?>
<!DOCTYPE svg PUBLIC "-//W3C//DTD SVG 20010904//EN"
 "http://www.w3.org/TR/2001/REC-SVG-20010904/DTD/svg10.dtd">
<svg version="1.0" xmlns="http://www.w3.org/2000/svg"
 width="378.658426pt" height="283.464567pt" viewBox="0 0 378.658426 283.464567"
 preserveAspectRatio="xMidYMid meet">
<metadata>
Created by potrace 1.11, written by Peter Selinger 2001-2013
</metadata>
<g transform="translate(0.553594,283.440226) scale(0.110719,-0.110719)"
fill="#000000" stroke="none">
<g>
<path d="M152 2511 c-94 -65 -152 -112 -152 -124 0 -5 17 6 38 25 20 18 69 55
107 82 76 54 92 66 84 66 -3 0 -37 -22 -77 -49z"/>
</g>
<g>
<path d="M1040 2534 c-45 -20 -67 -24 -119 -20 -39 2 -58 0 -50 -5 37 -23 167
-3 222 36 30 21 12 17 -53 -11z"/>
</g>
<g>
<path d="M1993 2514 c-107 -93 -188 -216 -217 -330 -17 -70 -30 -314 -16 -314
6 0 10 10 10 23 1 12 5 78 9 147 14 197 52 279 205 438 86 90 91 107 9 36z"/>
</g>
<g>
<path d="M2326 2535 c4 -16 6 -39 6 -49 -1 -12 2 -16 9 -9 6 6 4 23 -6 49 -11
28 -14 31 -9 9z"/>
</g>
<g>
<path d="M2670 2547 c0 -8 -9 -22 -21 -33 -38 -34 -51 -73 -47 -133 5 -69 35
-113 90 -136 54 -21 85 -19 135 10 49 29 59 44 13 20 -16 -8 -50 -15 -76 -15
-41 0 -51 5 -85 39 -34 34 -39 44 -39 85 0 66 23 104 76 128 53 23 93 18 142
-19 l32 -24 -24 43 -24 43 -86 3 c-68 2 -86 0 -86 -11z"/>
</g>
<g>
<path d="M592 2533 c15 -2 42 -2 60 0 18 2 6 4 -27 4 -33 0 -48 -2 -33 -4z"/>
</g>
<g>
<path d="M430 2516 c-100 -23 -158 -47 -227 -95 -74 -52 -147 -128 -176 -182
-17 -32 -17 -32 0 -9 43 60 158 169 215 203 70 42 135 63 247 82 53 9 64 13
36 13 -22 0 -65 -6 -95 -12z"/>
</g>
<g>
<path d="M1710 2513 c-41 -17 -74 -50 -95 -100 -22 -48 -30 -56 -82 -81 -51
-23 -70 -26 -163 -27 -95 0 -110 3 -162 28 -90 44 -127 110 -75 134 37 18 58
23 69 17 15 -10 -28 -35 -48 -27 -11 4 -15 2 -12 -7 7 -23 25 -22 54 3 36 31
25 51 -24 43 -37 -6 -82 -40 -82 -63 0 -25 70 -91 123 -114 44 -20 69 -24 157
-24 154 0 222 32 261 122 30 70 104 104 175 81 69 -23 55 -83 -31 -134 -51
-30 -75 -26 -75 11 0 38 17 65 41 65 18 0 20 -4 15 -26 -5 -17 -3 -23 4 -19
16 10 12 52 -6 59 -40 15 -87 -60 -64 -104 20 -37 79 -19 136 42 66 69 48 116
-46 123 -30 3 -62 2 -70 -2z"/>
</g>
<g>
<path d="M2051 2494 c-9 -21 -9 -30 0 -38 8 -8 10 -7 7 4 -3 8 -1 23 4 33 5
10 8 21 5 23 -2 2 -9 -8 -16 -22z"/>
</g>
<g>
<path d="M3371 2503 c-1 -27 -20 -31 -22 -5 -1 13 -2 13 -5 2 -5 -16 -48 -40
-74 -40 -20 0 -60 -41 -59 -61 0 -8 4 -4 9 9 12 28 42 40 125 48 36 4 65 11
65 15 0 5 -5 9 -10 9 -6 0 -15 10 -20 23 l-9 22 0 -22z"/>
</g>
<g>
<path d="M2265 2488 c-6 -13 -16 -22 -22 -21 -12 2 -66 -62 -77 -92 -5 -13 7
-6 33 20 40 38 51 52 31 40 -5 -3 -10 -1 -10 6 0 7 10 9 26 6 28 -5 38 8 32
43 -3 21 -3 21 -13 -2z m-45 -62 c0 -2 -8 -10 -17 -17 -16 -13 -17 -12 -4 4
13 16 21 21 21 13z"/>
</g>
<g>
<path d="M630 2480 c36 -4 85 -8 110 -7 41 0 39 1 -15 7 -33 4 -82 8 -110 7
-47 0 -47 0 15 -7z"/>
</g>
<g>
<path d="M498 2473 c12 -2 32 -2 45 0 12 2 2 4 -23 4 -25 0 -35 -2 -22 -4z"/>
</g>
<g>
<path d="M2755 2456 c-34 -34 -41 -71 -21 -112 18 -38 57 -58 94 -49 l24 6
-27 21 c-38 30 -49 65 -30 94 8 13 24 24 35 24 11 0 20 5 20 11 0 5 6 7 13 4
6 -4 3 1 -7 9 -29 23 -73 20 -101 -8z"/>
</g>
<g>
<path d="M386 2454 c-71 -22 -51 -26 24 -4 36 10 56 19 45 19 -11 0 -42 -7
-69 -15z"/>
</g>
<g>
<path d="M797 2463 c7 -2 21 -2 30 0 10 3 5 5 -12 5 -16 0 -24 -2 -18 -5z"/>
</g>
<g>
<path d="M408 2414 c-113 -27 -212 -94 -247 -167 -31 -64 -28 -93 18 -138 38
-39 39 -39 117 -39 44 0 180 -7 303 -15 123 -8 226 -14 228 -12 1 2 -25 23
-60 46 -34 24 -54 34 -44 24 33 -37 5 -43 -143 -32 -74 5 -171 10 -215 10
-119 1 -210 36 -165 64 8 5 7 11 0 20 -35 42 52 146 155 184 83 31 187 42 289
31 152 -18 378 -66 456 -97 8 -3 20 -7 25 -8 66 -17 220 -88 253 -118 25 -23
29 -57 7 -57 -8 0 -15 -7 -15 -15 0 -8 -8 -15 -17 -16 -22 -1 -69 -7 -141 -18
-30 -5 -99 -9 -153 -10 -84 -2 -101 1 -117 17 -18 18 -19 18 -46 -5 l-27 -23
188 0 c223 0 365 18 397 49 20 21 20 21 2 56 -26 47 -93 88 -242 147 -283 112
-632 165 -806 122z"/>
</g>
<g>
<path d="M1949 2403 c-13 -16 -12 -17 4 -4 16 13 21 21 13 21 -2 0 -10 -8 -17
-17z"/>
</g>
<g>
<path d="M2214 2388 c-16 -18 -20 -26 -9 -18 11 8 24 21 28 28 15 22 72 14
115 -18 23 -16 45 -30 49 -30 3 0 15 -7 25 -17 10 -9 20 -14 23 -11 8 8 -36
59 -46 53 -5 -4 -9 -1 -9 4 0 6 -5 11 -11 11 -6 0 -17 7 -25 15 -10 9 -34 15
-63 15 -40 0 -51 -5 -77 -32z"/>
</g>
<g>
<path d="M1520 2402 c0 -21 13 -42 26 -42 10 0 11 6 5 22 -8 23 -31 37 -31 20z"/>
</g>
<g>
<path d="M1240 2371 c-15 -28 -13 -33 10 -21 11 6 20 17 20 25 0 21 -17 18
-30 -4z"/>
</g>
<g>
<path d="M1477 2383 c-8 -13 17 -47 31 -42 7 3 5 12 -7 28 -10 13 -21 19 -24
14z"/>
</g>
<g>
<path d="M1390 2351 c0 -17 5 -31 10 -31 6 0 10 9 10 20 0 11 0 23 0 28 0 4
-4 9 -10 10 -5 2 -10 -10 -10 -27z"/>
</g>
<g>
<path d="M1436 2371 c-4 -6 -1 -21 6 -33 l13 -23 3 24 c4 26 -12 49 -22 32z"/>
</g>
<g>
<path d="M1286 2354 c-4 -9 -4 -19 -1 -22 6 -6 35 18 35 29 0 16 -28 10 -34
-7z"/>
</g>
<g>
<path d="M1340 2351 c-6 -13 -6 -22 -1 -26 9 -5 31 24 31 39 0 14 -20 4 -30
-13z"/>
</g>
<g>
<path d="M2217 2353 c-4 -3 -7 -11 -7 -17 0 -6 5 -5 12 2 6 6 9 14 7 17 -3 3
-9 2 -12 -2z"/>
</g>
<g>
<path d="M3365 2345 c-16 -7 -23 -14 -15 -14 8 -1 25 -4 38 -7 16 -5 22 -2 22
9 0 24 -12 27 -45 12z"/>
</g>
<g>
<path d="M583 2343 c15 -2 39 -2 55 0 15 2 2 4 -28 4 -30 0 -43 -2 -27 -4z"/>
</g>
<g>
<path d="M2260 2340 c0 -4 23 -12 50 -17 43 -9 48 -8 38 4 -6 8 -18 11 -26 8
-7 -3 -19 -2 -25 2 -17 11 -37 12 -37 3z"/>
</g>
<g>
<path d="M2060 2313 c0 -16 -3 -38 -6 -50 -7 -27 20 -33 30 -7 11 29 5 39 -8
14 -13 -23 -14 -21 -9 23 3 26 3 47 -1 47 -3 0 -6 -12 -6 -27z"/>
</g>
<g>
<path d="M1590 2316 c0 -16 21 -56 30 -56 18 0 11 39 -10 50 -11 6 -20 9 -20
6z"/>
</g>
<g>
<path d="M403 2294 c3 -3 12 -4 19 -1 8 3 5 6 -6 6 -11 1 -17 -2 -13 -5z"/>
</g>
<g>
<path d="M1534 2278 c3 -7 9 -21 12 -30 7 -20 20 -23 29 -7 4 5 -1 19 -11 30
-19 21 -39 26 -30 7z"/>
</g>
<g>
<path d="M1480 2276 c0 -15 24 -66 31 -66 15 0 10 37 -7 54 -15 15 -24 20 -24
12z"/>
</g>
<g>
<path d="M587 2263 c7 -2 21 -2 30 0 10 3 5 5 -12 5 -16 0 -24 -2 -18 -5z"/>
</g>
<g>
<path d="M1400 2258 c0 -7 5 -20 10 -28 8 -12 10 -11 10 7 0 12 -4 25 -10 28
-5 3 -10 0 -10 -7z"/>
</g>
<g>
<path d="M1440 2264 c0 -22 13 -54 21 -54 15 0 10 37 -6 50 -8 7 -15 9 -15 4z"/>
</g>
<g>
<path d="M1680 2225 l-44 -45 44 -43 c24 -23 38 -33 30 -22 -7 11 -25 30 -39
42 l-26 22 45 46 c24 25 42 45 39 45 -3 0 -25 -20 -49 -45z"/>
</g>
<g>
<path d="M2225 2250 l-20 -9 20 0 c11 0 27 4 35 9 13 9 13 10 0 9 -8 0 -24 -4
-35 -9z"/>
</g>
<g>
<path d="M2362 2253 c10 -2 28 -2 40 0 13 2 5 4 -17 4 -22 1 -32 -1 -23 -4z"/>
</g>
<g>
<path d="M670 2228 c0 -20 1 -21 20 -3 11 10 20 20 20 22 0 1 -9 3 -20 3 -14
0 -20 -7 -20 -22z"/>
</g>
<g>
<path d="M1724 2205 c-3 -8 -4 -20 -2 -27 3 -7 7 -1 10 15 6 29 1 36 -8 12z"/>
</g>
<g>
<path d="M2030 2170 c-6 -23 -9 -44 -7 -46 2 -3 9 14 15 38 6 23 9 44 7 46 -2
2 -9 -15 -15 -38z"/>
</g>
<g>
<path d="M455 2193 c155 -16 184 -18 178 -12 -5 5 -55 10 -113 12 -58 3 -87 3
-65 0z"/>
</g>
<g>
<path d="M2100 2160 c0 -22 2 -40 4 -40 2 0 6 18 8 40 2 22 0 40 -4 40 -5 0
-8 -18 -8 -40z"/>
</g>
<g>
<path d="M2171 2186 c-1 -11 2 -17 5 -13 3 3 4 12 1 19 -3 8 -6 5 -6 -6z"/>
</g>
<g>
<path d="M2773 2194 c3 -3 12 -4 19 -1 8 3 5 6 -6 6 -11 1 -17 -2 -13 -5z"/>
</g>
<g>
<path d="M2163 2125 c-1 -22 1 -32 4 -23 2 10 2 28 0 40 -2 13 -4 5 -4 -17z"/>
</g>
<g>
<path d="M2352 2153 c-11 -4 -37 -43 -29 -43 2 0 14 11 27 25 24 26 24 27 2
18z"/>
</g>
<g>
<path d="M428 2123 c12 -2 32 -2 45 0 12 2 2 4 -23 4 -25 0 -35 -2 -22 -4z"/>
</g>
<g>
<path d="M1836 2115 c-9 -26 -7 -32 5 -12 6 10 9 21 6 23 -2 3 -7 -2 -11 -11z"/>
</g>
<g>
<path d="M538 2113 c17 -2 47 -2 65 0 17 2 3 4 -33 4 -36 0 -50 -2 -32 -4z"/>
</g>
<g>
<path d="M2006 2088 c-3 -13 -5 -48 -5 -78 2 -54 2 -54 10 19 9 75 7 101 -5
59z"/>
</g>
<g>
<path d="M59 2071 c-35 -35 -39 -89 -12 -163 17 -47 16 -48 -6 -80 l-22 -33
25 28 c30 32 32 51 11 100 -24 58 -20 104 14 138 35 35 44 36 72 8 21 -21 20
-61 -1 -83 -12 -13 -40 1 -40 19 0 9 5 13 10 10 6 -3 10 -2 10 4 0 16 -21 24
-32 13 -14 -14 -1 -50 22 -62 15 -8 24 -6 40 10 27 27 26 71 -3 98 -31 29 -53
28 -88 -7z"/>
</g>
<g>
<path d="M2240 2080 c-15 -28 -9 -82 10 -88 12 -4 13 -2 3 9 -16 16 -17 53 -3
80 6 10 8 19 6 19 -3 0 -10 -9 -16 -20z"/>
</g>
<g>
<path d="M1473 2044 c-49 -40 -51 -51 -22 -87 48 -62 150 -57 208 8 46 53 39
115 -13 115 -22 0 -86 -35 -98 -54 -13 -19 -9 -46 7 -52 39 -15 86 22 53 42
-7 5 -9 2 -5 -9 7 -19 -29 -35 -45 -19 -17 17 8 48 51 66 65 25 87 3 59 -59
-37 -82 -199 -92 -224 -13 -5 18 2 29 37 60 24 20 42 37 39 38 -3 0 -24 -16
-47 -36z"/>
</g>
<g>
<path d="M1820 2055 c0 -14 2 -25 4 -25 2 0 6 11 8 25 3 14 1 25 -3 25 -5 0
-9 -11 -9 -25z"/>
</g>
<g>
<path d="M2298 2045 c-2 -19 0 -35 4 -35 4 0 8 16 8 35 0 19 -2 35 -4 35 -2 0
-6 -16 -8 -35z"/>
</g>
<g>
<path d="M2102 2040 c0 -19 2 -27 5 -17 2 9 2 25 0 35 -3 9 -5 1 -5 -18z"/>
</g>
<g>
<path d="M2340 2031 c-24 -7 -24 -7 -3 -13 14 -4 24 -1 27 8 3 8 4 14 3 13 -1
-1 -13 -4 -27 -8z"/>
</g>
<g>
<path d="M3022 2017 c-14 -29 -25 -110 -14 -103 10 6 37 114 30 121 -2 3 -10
-5 -16 -18z"/>
</g>
<g>
<path d="M3075 2031 c-28 -6 -26 -7 19 -14 27 -4 86 -7 132 -7 45 0 86 -4 89
-10 3 -5 12 -10 18 -10 7 0 -1 9 -18 19 -33 20 -185 34 -240 22z"/>
</g>
<g>
<path d="M1811 2003 c0 -6 -4 -20 -7 -30 -5 -14 -4 -15 5 -7 7 7 11 20 8 30
-3 11 -5 14 -6 7z"/>
</g>
<g>
<path d="M2192 1975 c0 -22 -2 -49 -4 -59 -1 -10 3 -21 10 -24 9 -2 13 3 12
14 -4 32 0 40 10 24 8 -13 10 -13 10 1 0 9 -6 22 -14 29 -8 6 -17 21 -19 33
-3 12 -5 4 -5 -18z"/>
</g>
<g>
<path d="M273 1989 c-96 -18 -144 -64 -151 -144 -3 -35 0 -60 8 -70 11 -13
290 -110 295 -103 0 2 -1 44 -4 93 l-5 90 -11 -60 -11 -60 -44 -1 c-25 -1 -62
5 -84 12 -21 8 -50 14 -64 14 -24 0 -25 1 -7 20 16 18 16 20 2 20 -41 0 -42
80 -1 115 58 50 109 54 464 40 135 -5 295 -8 357 -6 125 3 191 -8 113 -21 -35
-5 -30 -6 24 -3 42 2 63 0 55 -6 -12 -7 -12 -9 1 -9 8 0 26 -3 40 -5 22 -5 23
-4 5 4 -15 8 -8 9 25 4 68 -8 167 -58 185 -93 8 -16 11 -30 6 -32 -5 -2 -12
-18 -16 -37 -5 -26 -4 -32 6 -29 19 6 59 67 59 88 0 74 -204 166 -390 175
-170 9 -816 12 -857 4z"/>
</g>
<g>
<path d="M2162 1980 c0 -14 2 -19 5 -12 2 6 2 18 0 25 -3 6 -5 1 -5 -13z"/>
</g>
<g>
<path d="M2407 1970 c-3 -13 0 -20 8 -20 21 0 27 16 11 29 -11 9 -15 7 -19 -9z"/>
</g>
<g>
<path d="M2937 1976 c-4 -10 -7 -25 -6 -34 0 -11 4 -9 10 7 5 13 8 29 6 35 -2
5 -6 2 -10 -8z"/>
</g>
<g>
<path d="M2514 1965 c-25 -19 -14 -19 22 0 16 8 22 15 13 15 -8 0 -24 -7 -35
-15z"/>
</g>
<g>
<path d="M3163 1964 c3 -3 12 -4 19 -1 8 3 5 6 -6 6 -11 1 -17 -2 -13 -5z"/>
</g>
<g>
<path d="M2367 1946 c-6 -15 -14 -17 -40 -12 -30 5 -31 5 -13 -9 11 -8 25 -15
32 -15 16 0 37 27 32 42 -3 7 -7 5 -11 -6z"/>
</g>
<g>
<path d="M3113 1954 c3 -3 12 -4 19 -1 8 3 5 6 -6 6 -11 1 -17 -2 -13 -5z"/>
</g>
<g>
<path d="M2527 1921 l-29 -29 24 -12 c21 -10 21 -10 5 3 -15 12 -15 16 -3 20
12 5 43 48 34 47 -2 0 -16 -14 -31 -29z"/>
</g>
<g>
<path d="M1893 1905 c-1 -22 1 -32 4 -23 2 10 2 28 0 40 -2 13 -4 5 -4 -17z"/>
</g>
<g>
<path d="M2493 1933 c8 -12 -20 -26 -33 -18 -5 3 -11 -4 -15 -15 -4 -11 -11
-18 -16 -14 -13 8 -41 -15 -33 -28 3 -5 12 -4 20 3 9 8 14 8 14 1 0 -6 -7 -15
-16 -20 -28 -16 1 -22 30 -6 16 7 41 14 56 14 24 0 30 -5 35 -32 7 -28 8 -30
18 -12 6 10 17 24 26 30 12 10 7 13 -26 19 -23 3 -44 13 -47 21 -4 10 -13 13
-26 9 -11 -4 -20 -2 -20 4 0 6 4 11 8 11 5 0 16 6 27 13 14 11 15 16 5 22 -8
5 -11 4 -7 -2z"/>
</g>
<g>
<path d="M838 1923 c6 -2 18 -2 25 0 6 3 1 5 -13 5 -14 0 -19 -2 -12 -5z"/>
</g>
<g>
<path d="M903 1923 c15 -2 37 -2 50 0 12 2 0 4 -28 4 -27 0 -38 -2 -22 -4z"/>
</g>
<g>
<path d="M1940 1921 c0 -6 5 -11 10 -11 6 0 10 2 10 4 0 3 -4 8 -10 11 -5 3
-10 1 -10 -4z"/>
</g>
<g>
<path d="M2000 1915 c0 -8 4 -15 10 -15 5 0 7 7 4 15 -4 8 -8 15 -10 15 -2 0
-4 -7 -4 -15z"/>
</g>
<g>
<path d="M2031 1916 c-1 -11 2 -17 5 -13 3 3 4 12 1 19 -3 8 -6 5 -6 -6z"/>
</g>
<g>
<path d="M2060 1908 c0 -4 4 -8 9 -8 6 0 12 4 15 8 3 5 -1 9 -9 9 -8 0 -15 -4
-15 -9z"/>
</g>
<g>
<path d="M3288 1914 c-4 -3 -53 -8 -109 -10 -57 -3 -106 -7 -109 -10 -3 -3 45
-4 107 -2 72 2 116 7 125 16 7 7 8 12 2 12 -6 0 -13 -3 -16 -6z"/>
</g>
<g>
<path d="M3333 1914 c3 -3 12 -4 19 -1 8 3 5 6 -6 6 -11 1 -17 -2 -13 -5z"/>
</g>
<g>
<path d="M430 1890 c-18 -12 -2 -12 25 0 13 6 15 9 5 9 -8 0 -22 -4 -30 -9z"/>
</g>
<g>
<path d="M1645 1835 c0 -24 -5 -49 -11 -55 -9 -9 -196 -90 -208 -90 -3 0 -4
23 -2 50 l2 50 -73 0 c-40 0 -76 1 -80 3 -19 6 -18 -54 3 -113 30 -87 47 -185
39 -223 -9 -40 -45 -102 -84 -145 -29 -32 -30 -35 -16 -61 8 -16 28 -34 45
-39 30 -11 41 -31 18 -33 -25 -3 -43 3 -63 19 -19 17 -19 16 -4 -8 11 -16 27
-26 48 -28 40 -4 43 -32 3 -32 -15 0 -33 5 -40 12 -9 9 -12 9 -12 0 0 -18 39
-34 66 -28 17 5 24 13 24 30 0 47 10 56 57 56 39 0 44 -2 38 -17 -5 -10 -10
-48 -13 -85 -2 -40 -10 -72 -18 -79 -15 -12 -19 -59 -6 -59 5 0 9 6 9 14 0 33
55 126 75 126 4 0 8 -25 8 -55 0 -64 7 -70 86 -70 38 0 58 5 74 20 21 19 22
26 18 123 -3 69 -1 102 6 102 6 1 0 10 -13 20 -30 25 -73 25 -146 0 -80 -27
-194 -28 -226 0 l-24 19 32 1 c17 0 33 -6 35 -12 3 -8 9 -4 17 10 6 12 19 22
28 22 9 0 54 21 101 46 l85 45 33 -32 c19 -18 37 -29 41 -25 5 4 -7 21 -25 38
-19 16 -32 31 -30 33 1 1 39 21 84 43 101 51 195 76 249 67 31 -5 37 -3 28 6
-7 7 -33 12 -57 12 -25 0 -43 4 -40 9 3 4 12 8 20 8 18 0 18 21 -1 67 -9 20
-13 44 -10 55 5 14 2 16 -10 11 -10 -3 -20 0 -25 6 -5 9 -9 6 -13 -8 -3 -12
-1 -19 4 -16 9 6 49 -66 49 -89 0 -10 -10 -14 -31 -14 -22 1 -37 -6 -49 -22
-27 -36 -43 -16 -19 25 33 55 14 41 -27 -21 -40 -60 -73 -80 -104 -64 -27 14
-30 13 -30 -15 0 -18 -11 -31 -37 -48 l-38 -24 -10 71 c-11 69 -28 113 -67
169 -20 27 -38 32 -22 5 5 -7 9 -17 9 -23 1 -5 11 -31 23 -57 30 -64 48 -154
34 -171 -6 -7 -30 -23 -53 -36 l-42 -24 7 24 c18 62 19 180 1 244 -9 36 -22
68 -28 72 -6 4 -8 0 -4 -11 54 -139 43 -325 -20 -341 -14 -3 -27 -5 -28 -3 -2
2 10 41 26 88 38 114 37 161 -6 263 -5 12 -3 17 9 17 22 0 20 16 -4 33 -28 19
-7 27 49 20 44 -6 51 -16 24 -33 -16 -10 -16 -11 2 -6 11 2 45 10 75 16 30 7
67 20 82 28 35 20 47 9 22 -20 -10 -13 5 -1 33 26 53 50 75 106 56 140 -5 9
-8 -1 -8 -29z m-105 -644 c0 -79 -39 -131 -75 -101 -16 13 -19 58 -8 99 6 22
60 54 75 45 5 -3 8 -22 8 -43z m44 43 c24 -9 19 -24 -9 -24 -18 0 -23 4 -19
15 7 17 7 17 28 9z m33 -170 c8 -21 -13 -64 -32 -64 -10 0 -15 10 -15 33 0 19
3 37 7 40 12 12 33 7 40 -9z"/>
</g>
<g>
<path d="M517 1840 c-3 -19 -8 -68 -12 -107 l-5 -73 140 0 140 0 0 30 c0 22
-4 28 -15 24 -8 -4 -15 -10 -15 -15 0 -5 -13 -9 -30 -9 -17 0 -30 5 -30 13 0
9 -2 9 -8 0 -11 -17 -109 -14 -127 4 -8 8 -15 31 -16 51 0 20 -4 55 -8 77 l-8
40 -6 -35z"/>
</g>
<g>
<path d="M2000 1855 c0 -8 15 -24 33 -36 17 -12 26 -16 20 -9 -7 8 -13 22 -13
31 0 9 -9 19 -20 22 -13 3 -20 0 -20 -8z"/>
</g>
<g>
<path d="M1880 1851 c0 -6 15 -11 33 -11 17 0 43 -3 57 -6 20 -4 22 -3 9 5
-25 16 -99 26 -99 12z"/>
</g>
<g>
<path d="M2068 1823 c2 -21 11 -45 19 -54 24 -28 53 -117 53 -163 0 -23 -7
-65 -15 -92 -9 -30 -11 -50 -5 -52 6 -2 11 -13 11 -25 1 -14 4 -9 9 13 7 32 7
31 9 -18 0 -29 -3 -51 -8 -48 -5 3 -11 -1 -15 -9 -3 -8 -10 -15 -15 -15 -6 0
-8 6 -6 13 3 7 -4 12 -17 12 -13 1 -33 4 -45 9 -16 5 -23 3 -23 -6 0 -8 -13
-13 -35 -14 -35 0 -35 0 -35 41 0 57 10 106 21 99 5 -3 9 -17 9 -32 0 -15 5
-34 11 -42 8 -12 10 -12 8 5 -1 11 3 38 9 61 15 50 3 120 -26 160 -27 39 -71
79 -78 72 -3 -3 9 -16 26 -28 53 -37 78 -106 71 -195 -3 -25 -6 -21 -22 31
-11 37 -29 70 -46 85 l-28 24 21 -25 c35 -42 36 -47 18 -128 -9 -45 -14 -94
-10 -113 6 -34 6 -34 56 -31 27 2 50 8 50 14 0 10 42 0 50 -13 3 -4 17 -10 31
-14 33 -8 36 3 45 185 l7 136 -37 81 c-20 44 -36 88 -36 97 0 9 -8 16 -18 16
-15 0 -17 -7 -14 -37z m51 -83 c0 -19 -38 70 -38 90 0 16 6 6 19 -30 11 -30
19 -57 19 -60z m38 -222 c-2 -18 -4 -4 -4 32 0 36 2 50 4 33 2 -18 2 -48 0
-65z"/>
</g>
<g>
<path d="M1810 1834 c0 -14 3 -14 15 -4 8 7 15 14 15 16 0 2 -7 4 -15 4 -8 0
-15 -7 -15 -16z"/>
</g>
<g>
<path d="M1125 1821 c-22 -10 -48 -28 -59 -39 -10 -12 -23 -19 -27 -16 -5 3
-5 -6 0 -19 15 -39 -17 -61 -90 -63 -55 -2 -59 -1 -59 19 0 18 -2 19 -10 7 -5
-8 -15 -15 -22 -16 -7 0 -21 -2 -30 -2 -10 -1 -18 -9 -18 -18 0 -12 6 -15 23
-10 12 3 64 6 115 6 63 0 92 4 92 12 0 19 75 112 104 127 25 14 28 13 67 -25
37 -35 41 -37 34 -14 -7 25 -52 70 -70 70 -5 0 -28 -9 -50 -19z"/>
</g>
<g>
<path d="M2642 1806 c23 -36 41 -45 53 -26 3 5 0 7 -8 4 -9 -3 -16 3 -19 14
-3 11 -15 25 -27 32 -22 11 -22 11 1 -24z"/>
</g>
<g>
<path d="M1551 1806 c-1 -11 2 -17 5 -13 3 3 4 12 1 19 -3 8 -6 5 -6 -6z"/>
</g>
<g>
<path d="M2250 1815 c0 -1 14 -14 32 -31 21 -20 29 -23 25 -11 -4 10 -3 16 2
13 5 -3 14 1 21 9 11 13 10 14 -4 9 -9 -3 -16 -1 -16 5 0 6 -13 10 -30 9 -16
-1 -30 -3 -30 -3z"/>
</g>
<g>
<path d="M1840 1796 c0 -3 5 -8 10 -11 6 -3 10 -1 10 4 0 6 -4 11 -10 11 -5 0
-10 -2 -10 -4z"/>
</g>
<g>
<path d="M1800 1776 c0 -18 6 -21 15 -7 3 5 1 12 -5 16 -5 3 -10 -1 -10 -9z"/>
</g>
<g>
<path d="M2427 1778 c6 -11 65 -10 81 1 8 5 -6 8 -36 7 -28 -1 -48 -4 -45 -8z"/>
</g>
<g>
<path d="M1119 1763 c-13 -16 -12 -17 4 -4 9 7 17 15 17 17 0 8 -8 3 -21 -13z"/>
</g>
<g>
<path d="M1865 1750 c3 -5 11 -10 16 -10 6 0 7 5 4 10 -3 6 -11 10 -16 10 -6
0 -7 -4 -4 -10z"/>
</g>
<g>
<path d="M1791 1736 c-1 -11 2 -17 5 -13 3 3 4 12 1 19 -3 8 -6 5 -6 -6z"/>
</g>
<g>
<path d="M2352 1738 c-7 -7 -11 -23 -11 -37 2 -23 2 -24 6 -4 6 30 33 18 33
-15 0 -28 39 -116 47 -108 3 3 -2 21 -11 40 -18 38 -21 82 -6 91 16 10 11 25
-8 25 -10 0 -22 5 -28 10 -7 7 -14 6 -22 -2z"/>
</g>
<g>
<path d="M38 1724 c-61 -32 -42 -94 35 -115 49 -13 93 -5 162 28 57 28 92 26
80 -5 -5 -13 -4 -14 6 -5 10 10 9 15 -1 28 -18 21 -41 19 -95 -11 -56 -32
-133 -36 -183 -10 -58 30 -29 86 44 86 29 0 35 3 24 10 -21 13 -40 12 -72 -6z"/>
</g>
<g>
<path d="M1060 1683 c-16 -27 -29 -57 -29 -68 0 -11 11 4 25 34 13 30 29 60
35 68 6 7 9 13 5 13 -3 0 -19 -21 -36 -47z"/>
</g>
<g>
<path d="M2498 1695 c-24 -32 -23 -40 3 -14 11 11 27 18 35 15 8 -3 14 1 14 9
0 23 -33 17 -52 -10z"/>
</g>
<g>
<path d="M2610 1706 c0 -8 8 -13 18 -11 9 2 37 4 62 5 35 1 40 3 25 10 -34 15
-105 12 -105 -4z"/>
</g>
<g>
<path d="M2250 1695 c0 -5 5 -17 10 -25 5 -8 10 -10 10 -5 0 6 -5 17 -10 25
-5 8 -10 11 -10 5z"/>
</g>
<g>
<path d="M85 1681 c-3 -6 3 -15 14 -21 15 -8 29 -7 56 4 46 20 45 27 -2 11
-38 -13 -67 -10 -57 6 3 5 3 9 0 9 -3 0 -7 -4 -11 -9z"/>
</g>
<g>
<path d="M2552 1660 c0 -14 2 -19 5 -12 2 6 2 18 0 25 -3 6 -5 1 -5 -13z"/>
</g>
<g>
<path d="M1535 1659 c-4 -6 -5 -12 -2 -15 2 -3 7 2 10 11 7 17 1 20 -8 4z"/>
</g>
<g>
<path d="M989 1642 c18 -13 -3 -26 -27 -17 -14 5 -15 4 -4 -7 9 -9 17 -10 28
-3 18 12 19 29 2 33 -9 2 -9 0 1 -6z"/>
</g>
<g>
<path d="M1486 1615 c14 -19 27 -35 29 -35 1 0 1 10 0 23 -1 12 -9 23 -18 25
-9 2 -17 8 -17 13 0 5 -5 9 -11 9 -5 0 2 -16 17 -35z"/>
</g>
<g>
<path d="M1640 1630 c6 -11 13 -20 16 -20 2 0 0 9 -6 20 -6 11 -13 20 -16 20
-2 0 0 -9 6 -20z"/>
</g>
<g>
<path d="M2271 1640 c0 -8 4 -24 9 -35 5 -13 9 -14 9 -5 0 8 -4 24 -9 35 -5
13 -9 14 -9 5z"/>
</g>
<g>
<path d="M1119 1604 c-21 -51 -23 -160 -4 -209 9 -25 21 -47 25 -50 5 -3 3 10
-6 30 -23 56 -28 143 -10 200 17 54 13 74 -5 29z"/>
</g>
<g>
<path d="M2325 1609 c-4 -6 -5 -12 -2 -15 2 -3 7 2 10 11 7 17 1 20 -8 4z"/>
</g>
<g>
<path d="M400 1600 c-253 -9 -280 -22 -280 -132 0 -77 30 -123 106 -165 64
-35 154 -55 154 -34 0 6 -7 14 -15 17 -8 4 -15 14 -16 23 0 11 -3 9 -9 -6 -11
-27 -22 -28 -58 -6 -29 18 -36 24 -95 75 l-39 33 27 29 c16 18 20 26 10 22
-13 -5 -16 0 -13 32 2 29 9 40 31 50 39 19 182 28 200 14 9 -8 24 -9 47 -2 18
5 67 12 109 15 42 3 98 8 124 11 33 3 47 1 42 -6 -4 -7 35 -10 120 -10 l127 0
-4 -45 c-2 -27 1 -46 8 -49 14 -5 25 -76 25 -152 l0 -54 35 0 c31 0 35 -3 32
-22 -3 -22 -6 -23 -128 -23 -97 0 -129 3 -144 15 -18 14 -18 14 -7 -7 6 -13
17 -23 24 -23 7 0 18 -9 25 -20 10 -17 23 -20 86 -20 105 0 131 -7 143 -38
l11 -27 1 30 c2 26 5 23 26 -30 13 -33 24 -57 24 -52 1 4 20 -12 44 -35 59
-60 79 -74 100 -70 19 4 48 -51 52 -98 1 -14 7 -35 13 -47 7 -12 12 -31 12
-42 0 -12 4 -21 9 -21 5 0 11 -7 14 -14 4 -10 1 -13 -9 -9 -9 3 -19 15 -23 26
-5 14 -24 24 -57 33 -65 16 -68 10 -4 -11 43 -14 51 -21 48 -38 -4 -28 -36
-33 -94 -13 -52 17 -60 4 -19 -34 15 -14 21 -26 15 -30 -6 -3 5 -14 24 -23 33
-15 35 -15 29 0 -4 11 6 6 30 -13 20 -16 37 -31 37 -34 0 -3 -13 -27 -28 -55
-22 -42 -33 -51 -62 -56 -26 -5 -29 -7 -10 -8 51 -2 69 10 94 63 14 28 28 63
31 77 6 25 4 27 -32 34 -39 6 -149 62 -140 71 2 2 20 -3 40 -11 45 -19 127
-20 151 -2 17 13 17 16 -7 63 -28 56 -57 150 -57 186 0 20 -8 26 -45 36 -91
24 -167 132 -198 283 -8 39 -22 74 -35 87 -31 31 -54 122 -50 195 l3 62 -115
6 c-140 8 -249 7 -490 -1z"/>
</g>
<g>
<path d="M1580 1568 c19 -26 36 -46 38 -43 5 5 -32 57 -54 76 -9 8 -2 -7 16
-33z"/>
</g>
<g>
<path d="M2850 1581 c0 -4 11 -6 25 -3 14 2 25 6 25 8 0 2 -11 4 -25 4 -14 0
-25 -4 -25 -9z"/>
</g>
<g>
<path d="M17 1561 c28 -27 30 -72 3 -96 -11 -10 -20 -23 -20 -29 0 -6 12 2 26
18 33 38 30 92 -6 114 l-25 16 22 -23z"/>
</g>
<g>
<path d="M2980 1576 c0 -2 11 -6 25 -8 14 -3 25 -1 25 3 0 5 -11 9 -25 9 -14
0 -25 -2 -25 -4z"/>
</g>
<g>
<path d="M2292 1515 c-1 -33 -5 -71 -7 -85 l-6 -25 11 25 c6 13 9 51 7 85 l-3
60 -2 -60z"/>
</g>
<g>
<path d="M1533 1535 c4 -9 7 -21 7 -26 0 -15 17 -10 24 6 3 9 -3 19 -16 26
-18 10 -20 9 -15 -6z"/>
</g>
<g>
<path d="M2799 1503 c-13 -17 -13 -17 6 -3 11 8 22 16 24 17 2 2 0 3 -6 3 -6
0 -17 -8 -24 -17z"/>
</g>
<g>
<path d="M1892 1438 c-14 -55 -27 -66 -42 -38 -7 14 -19 20 -33 18 -27 -4 -67
-63 -66 -97 0 -22 2 -21 15 13 27 73 67 93 80 40 3 -13 12 -28 19 -34 15 -12
404 -36 753 -46 l252 -7 0 27 c0 15 7 38 16 51 8 13 14 34 12 47 -4 21 -5 21
-13 -7 -17 -65 -82 -99 -105 -55 -10 19 -8 72 4 115 4 11 0 7 -8 -10 -20 -39
-20 -79 0 -116 8 -17 14 -32 12 -33 -6 -5 -489 14 -789 30 -118 7 -116 5 -97
81 5 23 8 47 6 54 -3 8 -10 -8 -16 -33z"/>
</g>
<g>
<path d="M2919 1428 c6 -9 12 -44 13 -77 l1 -61 240 0 c194 0 238 2 225 13 -9
6 -18 19 -21 27 -3 11 -8 8 -15 -10 -10 -24 -11 -24 -11 -2 -1 20 -6 22 -50
22 -42 0 -50 -3 -56 -22 l-7 -23 -7 25 -7 24 -22 -22 c-27 -27 -116 -33 -106
-7 5 11 -8 15 -67 17 l-73 3 -11 42 c-5 23 -17 48 -25 55 -12 11 -12 11 -1 -4z
m411 -108 c0 -5 -13 -10 -30 -10 -16 0 -30 5 -30 10 0 6 14 10 30 10 17 0 30
-4 30 -10z"/>
</g>
<g>
<path d="M921 1328 c-1 -39 3 -68 9 -68 12 0 12 87 0 115 -6 14 -9 -1 -9 -47z"/>
</g>
<g>
<path d="M99 1324 l32 -41 -45 -84 c-61 -113 -58 -126 4 -17 28 48 50 94 50
101 0 7 -16 29 -37 48 l-36 34 32 -41z"/>
</g>
<g>
<path d="M0 1341 c0 -6 5 -13 11 -17 12 -7 8 -102 -5 -139 -6 -16 -6 -17 3 -4
22 34 30 101 16 136 -14 32 -25 43 -25 24z"/>
</g>
<g>
<path d="M840 1307 c0 -17 -45 -42 -59 -33 -6 4 -11 15 -11 24 0 12 -3 13 -12
4 -20 -20 10 -42 58 -42 42 0 44 1 44 30 0 17 -4 30 -10 30 -5 0 -10 -6 -10
-13z"/>
</g>
<g>
<path d="M1780 1283 c-20 -7 -60 -44 -60 -55 0 -5 5 -6 10 -3 6 4 10 -11 10
-38 0 -80 9 -105 43 -116 17 -6 33 -8 36 -5 3 4 0 9 -6 11 -20 7 -17 63 3 63
13 0 15 10 12 60 -3 52 -1 60 15 60 12 0 17 -8 17 -30 0 -27 9 -35 34 -31 5 1
5 -6 1 -16 -27 -64 -4 -102 65 -108 l45 -4 -39 8 c-39 8 -76 41 -76 66 0 7 11
29 25 49 14 21 20 34 13 30 -7 -4 -23 -9 -36 -10 l-24 -3 23 25 c21 22 21 24
4 18 -20 -7 -20 -7 -1 14 15 17 16 22 5 22 -8 0 -20 -5 -27 -12 -9 -9 -18 -9
-37 0 -28 13 -32 13 -55 5z m20 -48 c0 -32 -17 -75 -30 -75 -14 0 -13 83 2 98
16 16 28 6 28 -23z"/>
</g>
<g>
<path d="M640 1276 c0 -2 7 -7 16 -10 8 -3 12 -2 9 4 -6 10 -25 14 -25 6z"/>
</g>
<g>
<path d="M1935 1270 c11 -5 27 -9 35 -9 9 0 8 4 -5 9 -11 5 -27 9 -35 9 -9 0
-8 -4 5 -9z"/>
</g>
<g>
<path d="M2877 1273 c-12 -11 -8 -23 8 -23 8 0 15 7 15 15 0 16 -12 20 -23 8z"/>
</g>
<g>
<path d="M418 1233 c-14 -16 -33 -41 -42 -58 -17 -30 -17 -30 1 -5 10 13 31
39 47 57 34 40 30 44 -6 6z"/>
</g>
<g>
<path d="M735 1208 c33 -31 78 -86 99 -122 40 -69 58 -89 30 -33 -30 58 -96
146 -128 170 -60 45 -60 40 -1 -15z"/>
</g>
<g>
<path d="M2209 1251 l45 -6 -61 -37 c-62 -38 -123 -98 -142 -140 -11 -22 -11
-22 6 2 42 57 68 82 134 125 38 26 69 51 69 56 0 5 -21 8 -47 7 l-48 -1 44 -6z"/>
</g>
<g>
<path d="M467 1201 c-57 -60 -83 -116 -108 -236 -20 -94 -24 -263 -10 -362 9
-61 -4 -58 -35 7 -36 76 -43 48 -19 -79 13 -67 14 -88 3 -116 -6 -19 -15 -35
-20 -35 -4 0 -16 30 -27 68 -50 167 -59 265 -36 388 9 50 15 104 13 120 -3 25
-6 22 -20 -26 -9 -30 -19 -73 -23 -94 -4 -22 -13 -49 -21 -60 -17 -25 -18 -44
-1 -76 8 -15 17 -53 20 -86 6 -61 58 -223 82 -257 13 -18 13 -18 19 1 4 11 17
36 30 55 l24 35 -19 58 c-29 86 -20 113 14 47 15 -29 31 -53 35 -53 5 0 18 14
30 30 l23 30 87 -5 c48 -3 106 -8 130 -10 37 -4 42 -2 42 16 0 15 -5 19 -15
16 -8 -4 -17 -2 -21 4 -4 7 -29 8 -68 4 -69 -8 -90 4 -75 40 6 15 8 16 8 4 1
-12 12 -18 36 -21 19 -2 35 0 35 4 0 4 14 8 30 8 17 0 30 -4 30 -10 0 -5 9
-10 20 -10 14 0 22 11 30 39 13 50 61 108 128 157 28 21 52 42 52 47 0 4 -4 6
-8 3 -5 -3 -15 6 -22 19 -7 14 -17 25 -22 25 -5 0 -19 9 -31 20 -24 23 -81 54
-72 39 4 -5 1 -9 -5 -9 -6 0 -22 -11 -35 -25 -18 -17 -25 -35 -25 -64 0 -22 5
-43 10 -46 6 -4 8 -10 5 -15 -6 -10 19 -20 51 -20 29 0 29 -1 4 -42 -13 -22
-20 -27 -20 -15 0 21 -26 23 -34 2 -4 -10 1 -15 14 -15 25 0 26 -16 3 -25 -11
-4 -22 -1 -27 8 -8 13 -18 11 -65 -10 -31 -14 -67 -27 -79 -28 -24 -4 -41 -15
-104 -73 l-36 -34 -9 48 c-25 147 -1 403 48 514 33 73 96 129 151 131 23 1 23
1 -2 9 -41 13 -43 12 -93 -39z m248 -291 c-3 -5 -12 -10 -18 -10 -7 0 -6 4 3
10 19 12 23 12 15 0z m96 -57 l21 -33 -84 7 c-46 3 -84 7 -86 8 -2 2 0 15 4
29 6 26 9 27 66 24 54 -3 61 -6 79 -35z"/>
</g>
<g>
<path d="M350 1225 c-7 -8 -24 -15 -39 -15 -78 0 -145 -43 -200 -129 -52 -80
-35 -121 55 -136 l39 -7 -39 25 c-28 18 -40 32 -42 53 -4 39 14 88 40 104 17
11 22 10 31 -4 28 -47 29 -48 50 -31 14 11 15 13 4 9 -24 -8 -32 11 -17 36 8
13 20 19 31 16 10 -2 27 4 38 15 11 11 24 17 28 14 5 -2 21 11 35 30 19 25 23
35 13 35 -8 0 -20 -7 -27 -15z"/>
</g>
<g>
<path d="M3352 1231 c-11 -6 -6 -14 18 -31 17 -12 33 -20 36 -17 2 2 -8 13
-23 23 l-28 18 30 7 c27 6 28 7 5 8 -14 0 -31 -3 -38 -8z"/>
</g>
<g>
<path d="M2559 1220 c-162 -9 -199 -16 -201 -38 0 -9 -2 -22 -2 -27 -1 -6 -15
-37 -31 -70 l-30 -59 -4 35 -3 34 -12 -40 c-9 -30 -19 -42 -41 -50 -17 -5 -33
-14 -36 -18 -4 -5 -16 -4 -29 3 l-22 12 26 27 c14 15 26 35 26 44 0 10 16 25
38 35 20 9 41 23 45 30 4 6 19 12 32 12 19 0 25 5 25 21 0 25 -17 21 -113 -28
-70 -37 -127 -91 -127 -122 0 -27 32 -51 91 -66 54 -15 69 -13 69 9 0 7 14 22
30 34 17 13 30 31 30 41 0 10 14 30 30 44 17 15 30 34 30 42 0 22 43 45 81 44
19 0 70 4 114 10 82 12 211 6 231 -10 8 -7 13 1 16 26 l4 35 -71 -2 c-38 0
-127 -4 -196 -8z"/>
</g>
<g>
<path d="M2940 1201 c0 -16 -7 -34 -15 -41 -17 -14 -20 -40 -5 -40 6 0 10 -7
10 -15 0 -8 -4 -15 -10 -15 -12 0 -13 -59 -2 -77 4 -7 23 -15 41 -18 26 -4 32
-3 28 9 -6 14 15 38 43 50 8 3 0 3 -17 0 -57 -10 -73 2 -73 51 0 45 14 60 48
49 12 -4 13 -3 4 3 -19 14 12 37 40 30 139 -32 182 -54 159 -81 -8 -9 -18 -13
-25 -9 -6 3 -6 0 1 -7 11 -12 15 -11 26 4 12 16 14 15 36 -8 19 -20 27 -23 38
-14 10 8 18 6 33 -7 20 -18 27 -45 12 -45 -4 0 -14 6 -22 13 -8 6 -6 2 4 -10
17 -21 17 -23 2 -29 -10 -4 -31 5 -54 22 l-37 28 30 -36 c34 -42 42 -44 73
-22 31 22 30 74 -4 113 -36 43 -139 90 -247 112 -118 24 -117 24 -117 -10z"/>
</g>
<g>
<path d="M734 1147 c63 -63 131 -179 157 -264 10 -35 17 -43 36 -43 18 0 23 5
23 25 0 24 3 25 55 25 49 0 55 -2 55 -20 0 -32 -25 -85 -72 -151 l-42 -61 38
-75 c22 -42 63 -99 91 -129 40 -40 49 -56 41 -66 -6 -7 5 4 25 25 20 20 44 37
53 37 23 0 20 17 -6 31 -13 6 -38 25 -55 42 -38 36 -55 30 -24 -9 22 -28 28
-64 10 -64 -14 0 -42 69 -36 91 3 11 -7 34 -25 56 -48 59 -59 92 -41 120 8 13
19 21 23 18 4 -3 10 9 14 26 6 30 26 32 26 3 0 -8 5 -12 10 -9 6 3 10 15 10
26 0 11 -4 17 -10 14 -6 -4 -10 9 -10 31 0 31 2 35 15 24 8 -7 15 -8 15 -2 0
5 -7 15 -15 22 -8 7 -15 29 -16 49 -1 35 -1 35 -10 10 -9 -25 -12 -26 -49 -15
-35 9 -40 14 -41 41 l-2 30 -6 -30 c-5 -27 -17 -37 -47 -38 -6 0 -9 -10 -6
-21 9 -40 -16 -2 -67 99 -46 93 -116 181 -162 206 -9 4 11 -20 45 -54z"/>
</g>
<g>
<path d="M1990 1190 c-15 -28 4 -60 36 -60 16 0 40 15 67 41 l42 41 -44 -36
c-53 -43 -91 -48 -91 -12 0 29 19 44 31 25 7 -11 9 -10 9 4 0 24 -37 22 -50
-3z"/>
</g>
<g>
<path d="M3305 1184 c6 -5 28 -25 50 -44 l40 -35 -30 33 c-17 19 -39 38 -50
44 -11 6 -15 7 -10 2z"/>
</g>
<g>
<path d="M539 1143 l-24 -28 25 21 c14 12 32 24 40 27 13 5 13 6 -1 6 -8 1
-26 -11 -40 -26z"/>
</g>
<g>
<path d="M644 1147 c21 -13 52 -44 68 -68 20 -29 28 -36 23 -19 -4 14 -15 35
-24 46 -19 25 -75 64 -93 64 -7 0 4 -11 26 -23z"/>
</g>
<g>
<path d="M2818 1145 c-10 -13 -18 -38 -18 -55 0 -25 -4 -31 -15 -26 -9 3 -15
0 -15 -9 0 -8 -3 -15 -7 -15 -5 0 -18 -3 -30 -6 -15 -4 -22 -1 -26 13 -3 13
-5 10 -6 -8 -1 -24 3 -27 47 -32 54 -6 77 11 67 51 -3 14 0 29 10 38 8 9 15
29 15 45 0 35 0 35 -22 4z"/>
</g>
<g>
<path d="M3297 1123 c29 -28 55 -64 58 -79 11 -48 13 -51 14 -17 1 35 -37 86
-93 125 -19 14 -10 2 21 -29z"/>
</g>
<g>
<path d="M1846 1112 c-3 -6 3 -12 15 -15 12 -3 19 -1 16 6 -5 15 -24 20 -31 9z"/>
</g>
<g>
<path d="M2497 1087 c-3 -7 -3 -26 0 -41 4 -21 0 -34 -21 -52 -14 -14 -26 -29
-26 -35 0 -6 -4 -7 -10 -4 -5 3 -10 2 -10 -3 0 -15 28 -18 123 -14 l87 4 -2
62 c-1 35 -3 46 -5 26 -6 -64 -13 -80 -32 -80 -14 0 -21 11 -27 43 l-8 42 -4
-43 c-2 -34 -7 -43 -20 -40 -27 5 -39 43 -32 98 6 46 -1 67 -13 37z"/>
</g>
<g>
<path d="M1844 1074 c3 -8 2 -12 -4 -9 -6 3 -10 2 -10 -3 0 -15 28 -22 33 -9
6 16 -3 37 -15 37 -6 0 -7 -7 -4 -16z"/>
</g>
<g>
<path d="M1306 1058 c-24 -33 -19 -40 9 -14 26 24 31 36 16 36 -6 0 -17 -10
-25 -22z"/>
</g>
<g>
<path d="M1334 1036 c-3 -8 -4 -22 -2 -31 2 -12 7 -7 15 14 6 18 7 31 2 31 -5
0 -12 -6 -15 -14z"/>
</g>
<g>
<path d="M3070 1040 c8 -5 22 -9 30 -9 10 0 8 3 -5 9 -27 12 -43 12 -25 0z"/>
</g>
<g>
<path d="M727 999 c17 -29 29 -41 31 -32 2 9 -10 30 -28 47 l-32 31 29 -46z"/>
</g>
<g>
<path d="M2336 950 c-26 -39 -54 -74 -64 -77 -9 -3 -24 -12 -32 -19 -14 -11
-200 -43 -346 -59 l-60 -7 -13 -146 c-6 -81 -16 -180 -22 -220 -6 -41 -8 -76
-5 -79 3 -3 61 6 128 21 68 15 147 32 176 38 28 6 50 13 48 15 -3 3 -239 -38
-303 -54 -20 -4 -23 -1 -23 26 0 18 5 31 13 31 6 0 68 9 137 20 126 20 205 38
198 46 -2 2 -20 -1 -39 -6 -19 -6 -83 -17 -144 -25 -60 -9 -121 -17 -135 -19
l-25 -5 9 142 c4 78 10 144 12 146 2 2 41 7 86 12 46 4 126 15 178 23 116 19
108 20 113 -1 4 -14 5 -12 6 5 0 12 4 22 9 22 4 0 21 12 37 26 l30 26 -33 -23
c-24 -15 -75 -29 -170 -45 -171 -28 -258 -33 -254 -13 2 8 6 17 10 20 4 3 89
15 189 27 233 29 228 26 322 185 37 62 17 42 -33 -33z"/>
</g>
<g>
<path d="M3042 1007 c10 -8 15 -17 11 -20 -3 -4 3 -7 15 -7 12 0 22 -4 22 -10
0 -6 29 -10 68 -10 l67 0 -33 22 c-25 15 -36 18 -45 9 -15 -15 -27 -14 -27 4
0 8 -6 15 -14 15 -7 0 -29 3 -47 6 -31 5 -32 4 -17 -9z"/>
</g>
<g>
<path d="M2873 994 c3 -3 12 -4 19 -1 8 3 5 6 -6 6 -11 1 -17 -2 -13 -5z"/>
</g>
<g>
<path d="M471 976 c-1 -11 2 -17 5 -13 3 3 4 12 1 19 -3 8 -6 5 -6 -6z"/>
</g>
<g>
<path d="M2700 964 c0 -22 4 -24 49 -24 28 0 53 5 56 10 3 6 -3 10 -15 10 -11
0 -36 7 -55 14 -34 15 -35 15 -35 -10z"/>
</g>
<g>
<path d="M60 963 c6 -13 20 -27 33 -33 20 -10 21 -10 4 4 -10 8 -25 23 -33 33
-14 17 -14 16 -4 -4z"/>
</g>
<g>
<path d="M1850 975 c0 -2 23 -14 50 -26 28 -12 62 -36 75 -53 14 -17 25 -26
25 -20 0 17 -63 72 -102 88 -40 17 -48 19 -48 11z"/>
</g>
<g>
<path d="M2277 963 c-4 -3 -7 -11 -7 -17 0 -6 5 -5 12 2 6 6 9 14 7 17 -3 3
-9 2 -12 -2z"/>
</g>
<g>
<path d="M2995 960 l-20 -9 20 1 c11 0 34 4 50 8 l30 8 -30 0 c-16 0 -39 -3
-50 -8z"/>
</g>
<g>
<path d="M2035 940 c7 -11 102 -43 114 -38 5 2 -20 13 -55 24 -35 12 -62 18
-59 14z"/>
</g>
<g>
<path d="M2928 943 c6 -2 18 -2 25 0 6 3 1 5 -13 5 -14 0 -19 -2 -12 -5z"/>
</g>
<g>
<path d="M1664 925 c11 -8 31 -15 45 -14 26 1 23 3 -34 20 -28 8 -29 8 -11 -6z"/>
</g>
<g>
<path d="M3386 919 c-14 -20 -14 -25 1 -50 9 -16 19 -27 21 -24 2 2 -3 14 -12
26 -14 21 -14 24 1 41 9 10 14 21 11 24 -3 3 -13 -5 -22 -17z"/>
</g>
<g>
<path d="M282 910 c0 -14 2 -19 5 -12 2 6 2 18 0 25 -3 6 -5 1 -5 -13z"/>
</g>
<g>
<path d="M463 855 c0 -44 2 -61 4 -37 2 23 2 59 0 80 -2 20 -4 1 -4 -43z"/>
</g>
<g>
<path d="M1154 912 c24 -27 135 -96 143 -89 3 3 -17 17 -45 31 -27 14 -64 37
-83 53 -26 21 -29 22 -15 5z"/>
</g>
<g>
<path d="M2745 919 c22 -4 129 -8 237 -8 108 -1 199 -4 201 -8 3 -5 2 -32 0
-60 -4 -36 -10 -53 -19 -53 -8 0 -14 -4 -14 -8 0 -4 12 -8 28 -7 25 0 27 -3
30 -46 4 -68 -11 -99 -48 -99 -27 0 -30 2 -20 19 5 11 10 23 10 28 -1 4 -8 -5
-16 -20 -13 -25 -20 -28 -47 -23 -18 3 -141 8 -275 12 l-242 7 -6 24 c-4 14
-3 43 2 66 l9 42 130 5 130 6 -137 2 -138 2 0 43 c0 43 0 44 -32 40 -94 -11
-99 -13 -88 -33 7 -14 21 -20 45 -20 44 0 86 -36 74 -65 -4 -11 -8 -41 -8 -67
-1 -36 -5 -48 -16 -48 -27 0 -38 49 -22 98 14 41 14 43 -1 28 -17 -17 -22 -77
-9 -113 8 -21 5 -23 -24 -23 -21 0 -29 -4 -23 -9 5 -5 145 -13 312 -17 344 -8
335 -6 330 -83 l-3 -46 -300 0 -299 0 3 46 c1 26 -2 50 -8 53 -7 5 -9 -7 -5
-36 6 -55 -7 -79 -31 -55 -24 25 -29 21 -8 -8 10 -13 24 -25 31 -25 13 0 14
-5 6 -37 -3 -12 -15 -25 -26 -29 -15 -4 -18 -13 -16 -37 4 -42 49 -64 143 -71
70 -5 70 -5 20 6 -27 6 -52 15 -55 19 -3 5 -16 7 -28 4 -12 -2 -22 0 -22 6 0
5 44 9 99 9 75 0 101 -4 111 -15 13 -15 12 -16 -39 -31 -24 -8 -7 -12 22 -7
33 6 47 30 26 45 -9 6 9 8 56 4 39 -3 110 -6 159 -6 102 0 110 -8 15 -15 -35
-3 -89 -9 -119 -14 -42 -7 -19 -9 105 -6 88 2 174 8 190 14 l30 10 -35 -1
c-71 -2 -78 1 -45 18 27 14 38 14 117 0 62 -12 93 -13 110 -6 l23 11 -25 -5
c-14 -3 -64 2 -112 11 l-88 17 0 40 c0 22 10 60 22 84 18 39 20 52 11 94 l-10
48 28 -2 c17 -1 25 -7 22 -14 -3 -7 -11 -10 -20 -7 -13 5 -13 3 -2 -15 12 -19
14 -18 42 26 27 42 31 45 38 27 9 -21 9 -22 -6 81 l-6 41 62 7 c34 3 64 4 67
2 2 -3 8 -40 14 -83 16 -134 41 -288 45 -276 2 6 -3 48 -10 94 -13 73 -13 86
0 106 14 22 10 48 -7 38 -4 -3 -10 12 -12 31 -3 29 -1 38 14 42 25 6 23 16
-12 45 -24 20 -31 37 -40 89 -5 34 -10 66 -10 71 0 9 -68 7 -100 -4 -17 -5 -6
-6 32 -2 l57 5 7 -37 c8 -44 2 -50 -70 -61 -50 -7 -50 -7 -17 -13 19 -3 36
-11 38 -18 6 -17 -41 -27 -65 -14 -18 10 -20 18 -16 71 4 45 2 61 -8 64 -7 3
-119 7 -248 9 -132 2 -218 1 -195 -4z m192 -469 l153 0 0 -43 c0 -79 12 -76
-310 -69 l-285 7 -3 23 c-2 12 2 39 9 59 l12 36 135 -7 c74 -3 204 -6 289 -6z
m-460 -112 c-3 -7 -5 -2 -5 12 0 14 2 19 5 13 2 -7 2 -19 0 -25z"/>
</g>
<g>
<path d="M59 888 l33 -36 -26 -35 c-26 -34 -66 -136 -66 -166 0 -9 11 15 24
52 14 38 32 78 40 90 9 12 23 32 31 43 15 21 14 23 -27 55 l-43 33 34 -36z"/>
</g>
<g>
<path d="M274 780 c0 -52 1 -74 3 -47 2 26 2 68 0 95 -2 26 -3 4 -3 -48z"/>
</g>
<g>
<path d="M1850 861 c0 -5 5 -13 10 -16 6 -3 10 -2 10 4 0 5 -4 13 -10 16 -5 3
-10 2 -10 -4z"/>
</g>
<g>
<path d="M2406 855 c-9 -26 -7 -32 5 -12 6 10 9 21 6 23 -2 3 -7 -2 -11 -11z"/>
</g>
<g>
<path d="M582 840 c0 -14 2 -19 5 -12 2 6 2 18 0 25 -3 6 -5 1 -5 -13z"/>
</g>
<g>
<path d="M1405 834 c22 -7 63 -13 91 -13 33 -1 51 -5 52 -13 1 -7 6 -33 11
-58 l8 -45 3 53 c2 28 3 58 4 65 1 6 9 14 20 17 10 3 -37 6 -105 6 -114 1
-121 0 -84 -12z"/>
</g>
<g>
<path d="M1657 813 c18 -86 10 -136 -30 -196 -20 -32 -33 -57 -28 -57 11 0 66
86 76 119 9 31 -4 171 -16 171 -6 0 -7 -15 -2 -37z"/>
</g>
<g>
<path d="M1761 834 c-1 -7 8 -31 19 -55 11 -24 19 -37 19 -29 -1 19 -37 99
-38 84z"/>
</g>
<g>
<path d="M125 791 c-14 -21 -28 -56 -31 -77 -4 -39 -4 -39 9 7 7 25 23 60 36
77 12 18 20 32 17 32 -3 0 -17 -17 -31 -39z"/>
</g>
<g>
<path d="M2923 783 c43 -2 110 -2 150 0 40 1 5 3 -78 3 -82 0 -115 -2 -72 -3z"/>
</g>
<g>
<path d="M882 740 c-25 -33 -30 -56 -6 -25 18 24 36 55 31 55 -2 0 -13 -13
-25 -30z"/>
</g>
<g>
<path d="M3153 725 c-1 -22 1 -32 4 -23 2 10 2 28 0 40 -2 13 -4 5 -4 -17z"/>
</g>
<g>
<path d="M2283 695 c0 -33 2 -48 4 -33 2 15 2 42 0 60 -2 18 -4 6 -4 -27z"/>
</g>
<g>
<path d="M2437 723 c-3 -5 -2 -15 2 -22 5 -7 11 -9 14 -4 3 5 2 15 -2 22 -5 7
-11 9 -14 4z"/>
</g>
<g>
<path d="M2464 700 c-1 -17 3 -30 7 -30 5 0 9 14 9 30 0 39 -15 39 -16 0z"/>
</g>
<g>
<path d="M807 700 c4 -16 -1 -28 -18 -41 -24 -18 -24 -18 -1 -12 25 6 27 1 11
-28 -6 -11 -8 -25 -6 -32 2 -7 12 3 22 22 l17 35 15 -25 c14 -24 14 -24 9 8
-4 24 -1 35 11 41 14 8 13 11 -8 17 -13 4 -32 14 -41 22 -15 13 -16 13 -11 -7z"/>
</g>
<g>
<path d="M1060 702 c6 -13 14 -21 18 -18 3 4 -2 14 -12 24 -18 16 -18 16 -6
-6z"/>
</g>
<g>
<path d="M2376 705 c-9 -26 -7 -32 5 -12 6 10 9 21 6 23 -2 3 -7 -2 -11 -11z"/>
</g>
<g>
<path d="M2212 670 c0 -19 2 -27 5 -17 2 9 2 25 0 35 -3 9 -5 1 -5 -18z"/>
</g>
<g>
<path d="M1145 602 c47 -50 92 -81 142 -96 18 -6 20 -4 16 14 -4 14 -11 19
-23 15 -27 -9 -70 14 -130 69 l-55 51 50 -53z"/>
</g>
<g>
<path d="M2203 595 c-1 -22 1 -32 4 -23 2 10 2 28 0 40 -2 13 -4 5 -4 -17z"/>
</g>
<g>
<path d="M3241 568 c-1 -20 -7 -39 -13 -41 -8 -3 -6 -6 5 -6 9 -1 17 -7 18
-13 0 -7 7 -49 14 -93 l14 -80 -6 70 c-3 38 -11 99 -18 135 -11 52 -13 58 -14
28z"/>
</g>
<g>
<path d="M61 586 c2 -2 22 -6 44 -9 28 -5 34 -4 20 3 -19 8 -73 14 -64 6z"/>
</g>
<g>
<path d="M2272 581 c-1 -8 -12 -26 -24 -40 l-23 -26 23 19 c17 15 22 16 22 5
0 -23 -28 -58 -73 -90 -22 -16 -34 -29 -28 -29 7 0 35 21 62 48 47 44 50 50
46 87 -2 22 -4 34 -5 26z"/>
</g>
<g>
<path d="M10 570 c-18 -12 -2 -12 25 0 13 6 15 9 5 9 -8 0 -22 -4 -30 -9z"/>
</g>
<g>
<path d="M1736 534 c-33 -38 -43 -45 -65 -39 -21 4 -23 3 -11 -6 12 -9 11 -10
-8 -6 -12 3 -20 1 -16 -4 3 -5 11 -9 19 -9 7 0 15 -5 17 -12 5 -13 61 45 91
93 26 41 18 36 -27 -17z"/>
</g>
<g>
<path d="M2295 560 c-9 -15 -6 -17 30 -26 17 -4 28 -5 25 -3 -3 2 -15 12 -27
22 -15 13 -23 15 -28 7z"/>
</g>
<g>
<path d="M3176 533 c-8 -21 -1 -27 17 -16 12 6 13 10 2 20 -10 10 -15 9 -19
-4z"/>
</g>
<g>
<path d="M2191 503 c-1 -24 1 -43 3 -43 8 0 12 48 5 66 -5 13 -8 7 -8 -23z"/>
</g>
<g>
<path d="M24 505 l-29 -26 32 22 c25 17 41 21 78 17 66 -8 78 -24 32 -43 -42
-17 -57 -19 -57 -6 0 5 10 12 23 14 19 4 19 4 -5 6 -29 1 -46 -15 -30 -31 12
-12 74 -1 99 17 17 13 17 15 1 31 -9 9 -38 19 -65 21 -43 5 -53 2 -79 -22z"/>
</g>
<g>
<path d="M703 487 c1 -19 6 -33 10 -30 5 3 22 -8 39 -23 29 -28 28 -27 -7 26
-20 30 -38 57 -40 59 -2 1 -3 -13 -2 -32z"/>
</g>
<g>
<path d="M428 503 c12 -2 32 -2 45 0 12 2 2 4 -23 4 -25 0 -35 -2 -22 -4z"/>
</g>
<g>
<path d="M2293 495 c-3 -9 -3 -19 1 -22 3 -4 6 1 6 10 0 8 6 18 13 20 9 4 9 6
-1 6 -7 1 -15 -6 -19 -14z"/>
</g>
<g>
<path d="M1588 449 c-7 -64 -38 -127 -70 -146 -15 -8 -18 -13 -8 -13 18 -1
-28 -29 -50 -30 -8 0 -24 -15 -35 -33 -35 -55 -85 -69 -200 -54 -38 6 -38 5
-5 -2 31 -8 28 -9 -26 -10 -48 -1 -67 3 -87 19 -24 19 -31 20 -86 9 -72 -15
-152 -1 -203 36 -18 13 -54 36 -80 49 -76 41 -95 88 -63 150 20 37 20 36 -19
25 -19 -5 -83 -13 -143 -18 l-108 -8 111 -2 c108 -1 111 -2 122 -26 15 -33 15
-52 0 -58 -8 -4 -7 -6 3 -6 20 -1 52 -47 44 -61 -3 -6 4 -10 17 -10 27 0 132
-63 122 -73 -4 -4 3 -6 17 -6 13 1 42 -3 64 -8 22 -5 66 -9 97 -8 69 1 67 -10
-5 -21 l-52 -8 40 -6 c22 -3 41 -3 42 0 2 3 58 4 125 2 138 -4 219 9 251 41
17 17 33 20 91 21 39 0 103 -5 141 -11 128 -23 335 -12 335 17 0 4 -18 2 -40
-6 -43 -15 -79 -11 -155 16 -27 9 -68 20 -90 23 -36 5 -35 4 15 -13 40 -14 46
-18 20 -14 -52 8 -121 32 -158 54 l-33 20 35 46 c38 49 55 120 39 157 -8 18
-11 12 -15 -34z m-45 -226 c-7 -2 -19 -2 -25 0 -7 3 -2 5 12 5 14 0 19 -2 13
-5z"/>
</g>
<g>
<path d="M2345 489 c-4 -6 -4 -13 0 -17 3 -3 10 0 14 7 5 8 14 10 21 6 9 -5
11 -4 6 3 -9 15 -33 15 -41 1z"/>
</g>
<g>
<path d="M2406 487 c3 -10 9 -15 12 -12 3 3 0 11 -7 18 -10 9 -11 8 -5 -6z"/>
</g>
<g>
<path d="M887 439 c-11 -6 -32 -8 -48 -5 -19 3 -28 2 -24 -4 3 -6 13 -10 22
-10 13 0 12 -6 -8 -27 -16 -19 -17 -23 -4 -12 57 47 143 63 199 38 23 -11 24
-15 19 -78 -5 -57 -3 -69 16 -91 l21 -25 -11 33 c-7 19 -9 62 -6 98 2 35 2 62
-2 59 -4 -2 -20 5 -37 16 -32 21 -107 25 -137 8z"/>
</g>
<g>
<path d="M1343 425 c20 -14 48 -47 62 -73 l24 -47 1 34 c0 26 -9 42 -39 72
-23 23 -48 39 -62 39 -21 0 -20 -3 14 -25z"/>
</g>
<g>
<path d="M2248 438 c-8 -20 145 -24 161 -5 9 12 -2 15 -73 16 -61 1 -85 -2
-88 -11z"/>
</g>
<g>
<path d="M75 433 c-33 -2 -64 -8 -69 -13 -10 -10 140 -1 169 11 22 8 16 9
-100 2z"/>
</g>
<g>
<path d="M3168 433 c12 -2 32 -2 45 0 12 2 2 4 -23 4 -25 0 -35 -2 -22 -4z"/>
</g>
<g>
<path d="M169 329 l-24 -20 28 17 c15 9 27 18 27 20 0 8 -8 4 -31 -17z"/>
</g>
<g>
<path d="M1990 310 c0 -25 -3 -56 -6 -70 -4 -19 -3 -21 4 -11 7 9 38 17 84 21
l73 7 -72 2 -72 1 5 29 c3 16 1 37 -5 48 -8 15 -10 10 -11 -27z"/>
</g>
<g>
<path d="M3365 340 l-40 -7 37 -2 c20 0 40 4 43 9 3 6 5 9 3 9 -2 -1 -21 -5
-43 -9z"/>
</g>
<g>
<path d="M1445 330 c-3 -5 -1 -10 4 -10 6 0 11 5 11 10 0 6 -2 10 -4 10 -3 0
-8 -4 -11 -10z"/>
</g>
<g>
<path d="M3320 300 c14 -4 41 -8 60 -8 l35 0 -30 8 c-16 4 -43 8 -60 8 -29 0
-29 0 -5 -8z"/>
</g>
<g>
<path d="M0 288 c0 -11 152 -10 168 1 8 5 -24 8 -77 7 -50 -1 -91 -4 -91 -8z"/>
</g>
<g>
<path d="M240 260 c-25 -17 -50 -28 -57 -25 -7 2 -15 -1 -19 -7 -4 -7 -3 -8 4
-4 7 4 12 5 12 3 0 -7 -159 -107 -170 -107 -6 0 -10 -11 -10 -25 0 -14 3 -25
6 -25 16 0 273 183 268 191 -3 5 5 13 18 18 13 6 16 10 8 10 -8 0 -35 -13 -60
-29z m29 -3 c-2 -1 -13 -9 -24 -17 -19 -14 -19 -14 -6 3 7 9 18 17 24 17 6 0
8 -1 6 -3z"/>
</g>
<g>
<path d="M1150 261 c0 -6 4 -13 10 -16 6 -3 7 1 4 9 -7 18 -14 21 -14 7z"/>
</g>
<g>
<path d="M264 170 l-6 -59 -75 -53 -74 -53 42 -3 c34 -3 47 2 70 24 16 15 27
30 24 33 -7 6 36 51 49 51 6 0 -2 -11 -19 -25 -16 -13 -25 -24 -19 -25 19 0
55 46 48 63 -3 10 -10 17 -15 17 -4 0 -6 7 -3 15 4 10 21 15 54 15 l48 0 1
-72 c0 -43 -4 -78 -12 -86 -10 -12 -9 -14 3 -10 12 4 15 23 15 89 l0 84 -52 3
c-37 2 -53 7 -53 17 0 7 6 15 12 17 7 3 3 7 -9 10 -21 5 -23 1 -29 -52z"/>
</g>
<g>
<path d="M3013 194 c3 -3 12 -4 19 -1 8 3 5 6 -6 6 -11 1 -17 -2 -13 -5z"/>
</g>
<g>
<path d="M3143 174 c3 -3 12 -4 19 -1 8 3 5 6 -6 6 -11 1 -17 -2 -13 -5z"/>
</g>
<g>
<path d="M3263 154 c3 -3 12 -4 19 -1 8 3 5 6 -6 6 -11 1 -17 -2 -13 -5z"/>
</g>
<g>
<path d="M1323 124 c3 -3 12 -4 19 -1 8 3 5 6 -6 6 -11 1 -17 -2 -13 -5z"/>
</g>
<g>
<path d="M326 64 c-21 -31 -35 -58 -33 -60 3 -3 15 12 28 33 12 21 29 48 37
61 8 12 12 22 10 22 -3 0 -22 -25 -42 -56z"/>
</g>
<g>
<path d="M870 112 c14 -2 29 -8 35 -13 13 -13 56 -11 82 4 18 10 9 12 -60 12
-45 1 -71 -1 -57 -3z"/>
</g>
<g>
<path d="M1898 113 c12 -2 32 -2 45 0 12 2 2 4 -23 4 -25 0 -35 -2 -22 -4z"/>
</g>
<g>
<path d="M2727 113 c7 -2 21 -2 30 0 10 3 5 5 -12 5 -16 0 -24 -2 -18 -5z"/>
</g>
<g>
<path d="M2858 103 c6 -2 18 -2 25 0 6 3 1 5 -13 5 -14 0 -19 -2 -12 -5z"/>
</g>
<g>
<path d="M735 85 c-47 -12 -48 -13 -15 -14 19 0 49 6 65 14 37 17 16 17 -50 0z"/>
</g>
<g>
<path d="M838 83 c6 -2 18 -2 25 0 6 3 1 5 -13 5 -14 0 -19 -2 -12 -5z"/>
</g>
<g>
<path d="M3043 84 c3 -3 12 -4 19 -1 8 3 5 6 -6 6 -11 1 -17 -2 -13 -5z"/>
</g>
<g>
<path d="M457 73 c7 -2 21 -2 30 0 10 3 5 5 -12 5 -16 0 -24 -2 -18 -5z"/>
</g>
<g>
<path d="M3223 54 c3 -3 12 -4 19 -1 8 3 5 6 -6 6 -11 1 -17 -2 -13 -5z"/>
</g>
</g>
</svg>
